<?xml version="1.0" encoding="utf-8"?>
<!-- Generator: Adobe Illustrator 28.0.0, SVG Export Plug-In . SVG Version: 6.00 Build 0)  -->
<svg version="1.1" id="Layer_1" xmlns="http://www.w3.org/2000/svg" xmlns:xlink="http://www.w3.org/1999/xlink" x="0px" y="0px"
	 viewBox="0 0 225 232.9" style="enable-background:new 0 0 225 232.9;" xml:space="preserve">
<path id="path3448" d="M116,176.4c-0.1-0.1-0.2-0.7-0.3-1.3c-0.8-3.9-3.1-9.8-5.6-14.1l-0.6-1l-0.3,0.4c-3,3.8-7,10.9-7.7,14.2
	c-0.2,0.8-0.4,1.1-0.6,0.9c-0.1-0.1-0.1-0.8,0-1.6c0.3-3.8-0.8-11.6-2.3-16c-0.1-0.3-2.2,1.4-4.6,3.8c-3,2.9-5.5,6-6.8,8.2
	c-0.6,1.1-0.8,0.8-0.3-0.6c0.4-1.4,1-3.8,1.2-5.6c0.6-4.3,0.8-10.9,0.3-10.9c-0.1,0-1.1,0.4-2.2,1c-4.2,2.1-8.4,4.7-10.9,7.2
	c-0.8,0.7-1.4,1.2-1.4,1.2c-0.1-0.1,0.2-0.6,0.6-1.3c1.4-2.3,2.7-5.2,3.8-8.6c0.6-1.9,1.9-6.7,1.8-6.8c-0.1-0.1-4.1,0.8-5.9,1.2
	c-3.5,0.9-7.2,2.3-9.4,3.6c-1.3,0.8-1.7,0.7-0.8-0.1c1.8-1.6,4.7-5.5,6.9-9c1.1-1.8,2.7-4.8,2.5-5c-0.1-0.1-4.8-0.3-6.2-0.3
	c-3.3,0-7.5,0.5-9.8,1.2c-1,0.3-1.2,0.3-1.2,0.1c0-0.1,0.6-0.4,1.2-0.8c1.2-0.6,3.7-2.5,4.7-3.3c2.5-2.1,4.8-4.5,7-7l0.3-0.4
	l-1.3-0.5c-4.3-1.7-9.9-2.7-13.9-2.9c-1-0.1-1.9-0.1-1.9-0.1s0-0.1,0.1-0.1c0.1-0.1,0.7-0.3,1.4-0.5c2.6-0.7,6.3-2.3,9.1-4
	c1.3-0.8,5.1-3.2,5.1-3.3c0-0.1-3.8-2.5-5.1-3.3c-2.8-1.7-6.6-3.3-9.1-4c-0.7-0.2-1.3-0.4-1.4-0.5c-0.1-0.1-0.1-0.1-0.1-0.1
	c0.1,0,0.9-0.1,1.9-0.1c4-0.1,9.5-1.2,13.9-2.9c1.1-0.4,1.3-0.6,1.2-0.7c-0.1-0.1-0.5-0.6-0.8-1c-1.7-2-4-4.2-6.4-6.3
	c-1-0.8-3.6-2.6-4.7-3.3c-0.7-0.3-1.2-0.7-1.2-0.8c0-0.2,0.2-0.2,1.2,0.1c2.3,0.7,6.5,1.2,9.8,1.2c1.5,0,6.1-0.3,6.2-0.3
	c0.1-0.1-0.6-1.2-1.6-3.2c-1.9-3.6-4.7-7.4-7-9.9c-0.8-0.8-1.3-1.4-1.3-1.5c0.1-0.1,0.6,0.2,1.2,0.6c2.2,1.2,5.9,2.7,9.4,3.6
	c1.7,0.4,5.8,1.2,5.9,1.2c0.1-0.1-0.2-1.2-0.6-2.5c-1.3-5.7-3.1-10.3-5.2-13.5c-0.3-0.4-0.4-0.8-0.3-0.8c0.1-0.1,0.7,0.4,1.4,1.2
	c2.5,2.4,6.7,5.1,10.9,7.2c1.2,0.6,2.2,1,2.3,1c0.5,0,0.3-6.7-0.3-10.9c-0.3-1.7-0.8-4.2-1.2-5.6c-0.4-1.4-0.3-1.7,0.3-0.6
	c1,1.8,3.3,4.7,5.4,6.8c2.4,2.5,6,5.6,6.1,5.4c0.1-0.2,0.9-3.2,1.2-4.9c0.8-3.9,1.3-8.6,1.1-11.1c-0.1-0.8-0.1-1.4,0-1.6
	c0.2-0.2,0.3,0.2,0.6,0.9c0.8,3.3,4.7,10.5,7.7,14.2l0.3,0.4l0.6-1c1.1-1.9,2.9-5.7,3.5-7.4c1.1-3,1.6-4.5,2.1-6.7
	c0.2-0.8,0.3-1.5,0.4-1.6c0.1,0,0.2,0.6,0.2,1.3c0.2,2.9,0.8,5.9,1.9,9.5c0.6,2.1,2.1,6,2.3,6.3c0.1,0.1,0.3-0.1,1.9-1.8
	c0.8-0.8,2.3-2.8,3.5-4.2c1.2-1.6,3-4.5,4-6.4c1-2,1.4-2.3,1.1-1c-0.9,3.8-0.8,10,0,16.1l0.1,1.1l1.3-0.8c1.7-1.1,3.9-2.6,5.5-3.9
	c1.7-1.4,4.6-4.2,5.6-5.5c0.5-0.6,0.9-1.1,0.9-1.1c0.3,0,0.2,0.3-0.2,1.1c-1.7,3.3-3.1,9.1-3.7,14.7l-0.2,1.7l0.4-0.1
	c0.8-0.2,4.4-1.4,6.2-2.2c3.1-1.3,6.3-3.1,8.3-4.7c0.8-0.6,1.2-0.6,0.6,0.1c-1.3,1.4-3.2,4.3-4.7,7.4c-1.5,3-3.4,7.6-3.2,7.8
	c0.1,0.1,4.8-0.2,6.7-0.6c3.5-0.5,6.7-1.3,8.9-2.3c0.6-0.3,1.2-0.4,1.2-0.3c0.1,0.1-0.4,0.6-1.1,1c-2.6,1.9-6,5.6-8.5,9
	c-1.4,2-2.1,3.1-2.1,3.2c0.2,0.1,3.2,0.8,5.5,1.1c3.9,0.6,8.9,0.6,11.1,0.1c0.6-0.1,0.9,0,0.6,0.2c-0.1,0.1-0.5,0.3-0.8,0.4
	c-1.8,0.7-4.7,2.3-7.4,4.1c-2.5,1.7-6.3,4.9-6.1,5.1c0.1,0.2,3.7,1.9,5.2,2.5c3.3,1.4,6.7,2.3,9.4,2.7c0.9,0.1,1.6,0.3,1.6,0.3
	c0,0.1-0.7,0.2-1.6,0.3c-2.9,0.4-6.7,1.6-10.3,3.2c-1.4,0.6-4.1,2-4.3,2.1c-0.1,0.1,0.3,0.5,0.8,0.9c3.9,3.5,8.5,6.6,12,8
	c0.7,0.3,1.3,0.6,1.4,0.6c0.2,0.1,0.1,0.3-0.1,0.3c-0.1,0-0.7-0.1-1.3-0.2c-1.4-0.2-5.9-0.2-7.8,0c-2.6,0.3-7.5,1.2-7.8,1.4
	c-0.1,0.1,0.3,0.7,0.8,1.4c3,4.5,6.7,8.5,9.8,10.8c0.7,0.5,1.2,0.9,1.1,1s-0.6-0.1-1.2-0.3c-2.3-1-6-1.9-9.4-2.3
	c-2-0.3-4.6-0.5-5.6-0.5c-0.8,0-0.8-0.2-0.1,1.9c1.2,3.2,3,7.1,4.5,9.4c0.8,1.3,2.2,3.3,2.8,3.9c0.6,0.7,0.2,0.7-0.6,0.1
	c-2.1-1.6-5.2-3.3-8.3-4.7c-1.8-0.8-5.4-2.1-6.2-2.2l-0.4-0.1l0.2,1.6c0.6,5.8,2.1,11.5,3.6,14.7c0.4,0.9,0.5,1.2,0.2,1.2
	c-0.1,0-0.5-0.5-0.9-1.1c-1.1-1.3-3.9-4.1-5.6-5.5c-1.6-1.3-3.8-2.8-5.5-3.9l-1.3-0.8l-0.1,1.1c-0.9,6.1-0.9,12.3,0,16.1
	c0.3,1.3-0.1,0.9-1.1-1c-0.9-1.9-2.7-4.8-4-6.4c-1.1-1.4-2.3-2.9-3.2-3.8c-1.8-2-2.1-2.3-2.2-2.1c-0.1,0.1-0.4,1-0.9,2.1
	c-1.8,4.5-3.1,9.8-3.3,13.5C116.3,176.3,116.2,176.9,116,176.4L116,176.4z M117.1,168.3c0.7-2.9,1.9-6.1,3.2-9.3
	c0.1-0.2-1-1.3-4.7-4.6l-0.8-0.7l-0.7,0.7c-2.1,2.3-4.2,4.8-4.2,5c0,0.1,0.3,0.6,0.6,1.2c2,3.4,4.4,9.1,5.2,12.4l0.3,1l0.3-2
	C116.4,171.2,116.8,169.4,117.1,168.3L117.1,168.3z M101.5,173.4c0-0.1-0.1-0.1-0.1-0.1c-0.1,0-0.1,0.1-0.1,0.1
	c0,0.1,0.1,0.1,0.1,0.1C101.5,173.4,101.5,173.4,101.5,173.4z M103.5,168.8c1.6-3,3.2-5.8,5.1-8.2l0.8-1.1l-0.3-0.4
	c-0.3-0.6-1.2-2.1-1.7-2.6c-0.2-0.2-0.7-1-1.2-1.8c-0.6-0.8-1-1.4-1.1-1.4c-0.3,0-6.1,4.1-6.1,4.2c0,0.1,0.1,0.6,0.3,1
	c1.2,4,1.9,8.4,2.1,12.9l0.1,1.7l0.4-1.1C102.2,171.4,102.8,169.9,103.5,168.8z M130.2,170.3c-0.4-3-0.3-8.1,0.2-12.2
	c0.4-3,0.4-2.7-0.8-3.5c-2.1-1.2-5.3-2.7-5.4-2.6c-0.2,0.2-2.7,5.2-3.2,6.2c-0.2,0.4-0.2,0.5,0.3,1c0.3,0.3,0.6,0.6,0.6,0.6
	c0.6,0.5,3.1,3.5,4.5,5.2c0.8,1,2.8,4.1,3.4,5.2c0.3,0.5,0.5,0.9,0.5,0.9C130.3,171.3,130.3,170.9,130.2,170.3L130.2,170.3z
	 M88.6,167.3c2.2-3,6-6.9,8.9-9.1c0.6-0.4,1-0.8,1-0.9c0-0.2-0.9-2.8-1.7-5l-0.8-2.2l-2.2,0.8c-1.2,0.4-2.7,1-3.5,1.3l-1.2,0.6
	l0.1,1.8c0.1,4.3-0.4,9.8-1.4,13.6C87.6,168.6,87.6,168.6,88.6,167.3L88.6,167.3z M143.1,164.1c-1.2-3.1-2.2-7.6-2.7-12
	c-0.3-2.9-0.1-2.6-2.2-3.1c-2.6-0.7-5.2-1.2-5.3-1c-0.2,0.2-1.7,6.5-1.7,7.2c0,0.1,0.2,0.3,0.4,0.4c3.3,1.9,7.6,5.2,10.5,8.2
	c0.6,0.7,1.2,1.2,1.2,1.2C143.5,165,143.3,164.5,143.1,164.1L143.1,164.1z M78.4,158.2c2.6-1.9,6.5-4.1,9.5-5.4l0.8-0.3l-0.1-1.4
	c-0.1-1.7-0.3-3.4-0.5-5l-0.2-1.2l-1.7,0.1c-2,0.1-5.5,0.5-5.6,0.6c-0.1,0.1-0.3,1.2-0.7,2.6c-1.1,4.2-2.3,7.8-3.8,10.8l-0.8,1.6
	l0.7-0.6C76.4,159.6,77.5,158.8,78.4,158.2L78.4,158.2z M110.8,157.7c0.3-0.3,0.6-0.8,0.7-0.8c0.1-0.1,0.4-0.5,0.8-0.9
	c0.3-0.4,0.8-0.9,1-1.2s0.6-0.6,0.8-0.8l0.4-0.4l-0.9-0.7c-0.5-0.3-0.9-0.7-1-0.8c-0.1-0.1-0.3-0.2-0.4-0.3
	c-0.2-0.1-0.4-0.3-0.4-0.3c-0.1-0.1-0.4-0.3-0.8-0.6c-0.6-0.4-0.7-0.4-1-0.3c-0.2,0.1-0.8,0.5-1.4,0.8c-1,0.6-1.5,0.8-2.5,1.4
	c-0.3,0.2-0.3,0.2,0.7,1.7c1.4,2.1,1.5,2.2,2.3,3.4c0.3,0.6,0.7,1.2,0.7,1.2C109.5,159.2,109.9,158.8,110.8,157.7L110.8,157.7z
	 M121.7,155.8c0.6-1.1,1.2-2.5,1.6-3l0.6-1l-2.1-0.9c-1.2-0.5-2.3-0.9-2.5-1c-0.3-0.1-0.6,0.1-2.2,1.7c-1,1-1.8,1.9-1.8,1.9
	c0,0.1,0.9,0.8,1.9,1.7c1,0.9,2.2,2,2.7,2.4c0.8,0.7,0.8,0.8,0.9,0.4C120.7,157.9,121.2,156.9,121.7,155.8z M102.3,154.6
	c0.9-0.6,1.9-1.2,2.1-1.4c0.3-0.1,0.4-0.3,0.4-0.3c0-0.1-1.7-2.2-2.8-3.6c-0.2-0.3-0.6-0.6-0.6-0.6c-0.2,0-4.8,1.2-4.9,1.3
	c-0.1,0.1,0.3,1,0.7,2.1c0.4,1.1,0.9,2.6,1.2,3.3c0.2,0.7,0.4,1.3,0.5,1.4c0.1,0.1,0.4-0.2,0.9-0.6
	C100.2,156,101.3,155.2,102.3,154.6L102.3,154.6z M154.2,154.7c-2.2-3.1-4.9-8.5-6.2-12.6l-0.3-0.9l-3.3,0.1
	c-1.8,0.1-3.5,0.1-3.7,0.2l-0.3,0.1v2.7c0,1.5,0.1,3.2,0.1,3.8l0.1,1l2.6,0.9c4.3,1.4,8.6,3.4,11,5.2c0.3,0.2,0.6,0.4,0.7,0.4
	C154.8,155.5,154.6,155.2,154.2,154.7L154.2,154.7z M130.9,154.6c0.1-0.2,0.2-1.1,0.4-2.1c0.2-1,0.6-2.5,0.8-3.3
	c0.2-0.8,0.4-1.5,0.3-1.5c-0.1-0.1-3.6-0.5-4.7-0.6c-0.6-0.1-0.6-0.1-0.8,0.4c-0.1,0.3-0.6,1-1,1.7c-0.8,1.2-1.4,2.5-1.4,2.5
	c0.1,0,0.3,0.1,0.6,0.3c1.5,0.7,4.7,2.3,5.4,2.7C130.8,155,130.8,154.9,130.9,154.6L130.9,154.6z M115.9,152
	c0.7-0.7,1.5-1.4,1.9-1.8c0.4-0.3,0.6-0.6,0.6-0.6c0-0.1-0.9-0.3-1.9-0.7c-1.2-0.4-2.1-0.6-2.2-0.6c-0.4,0.1-2.7,1.2-3.2,1.6
	l-0.4,0.3l0.8,0.5c0.4,0.3,1.3,0.9,2.1,1.5s1.3,1,1.3,1C114.7,153.3,115.3,152.6,115.9,152L115.9,152z M106.7,151.8
	c0.8-0.4,1.7-1,2.1-1.2c0.4-0.2,0.8-0.4,0.8-0.5c0-0.1-1.8-1.3-3-2l-0.6-0.3l-2,0.4c-1.1,0.2-2,0.4-2.1,0.5c-0.1,0.1,0.3,0.7,1,1.4
	c0.6,0.7,1.3,1.6,1.6,2c0.3,0.3,0.6,0.6,0.6,0.7C105.3,152.6,105.9,152.2,106.7,151.8L106.7,151.8z M90.4,151.7
	c0.6-0.3,2.1-0.8,3.2-1.2c1.2-0.4,2.1-0.8,2.2-0.8c0.1-0.1-0.6-1.7-1.5-3.6l-0.7-1.4h-2.6h-2.6l0.1,0.6c0.1,0.8,0.5,4.1,0.6,5.5
	c0.1,0.8,0.1,1.3,0.2,1.3C89.2,152.1,89.7,152,90.4,151.7L90.4,151.7z M124.5,150.8c0.4-0.8,1.7-2.8,1.8-3.1
	c0.1-0.1,0.2-0.3,0.3-0.4c0.2-0.3,0.1-0.3-2.8-0.6l-1.2-0.1l-1.6,1.3c-1.6,1.4-1.8,1.6-1.6,1.6c0.1,0,3.1,1.2,4.1,1.7
	c0.3,0.1,0.6,0.3,0.6,0.3C124.1,151.4,124.2,151.1,124.5,150.8z M112,148.9l1.8-0.9l-1.6-0.4c-0.8-0.2-1.8-0.4-2.1-0.4
	c-0.6,0-3.1,0.3-3.2,0.4c-0.1,0.1,3,2.1,3.2,2.1C110.1,149.8,111,149.4,112,148.9L112,148.9z M68,148.4c3-1.2,6.1-2.1,9.8-2.8
	l2.3-0.4l0.2-1.2c0.2-1.1,0.6-4,0.8-5.6c0.1-0.8,0.2-0.7-1.8-1.1c-2.2-0.4-5.3-0.8-5.4-0.8c-0.1,0.1-0.4,0.6-0.7,1.3
	c-2.3,4.4-4.4,7.6-6.7,10.4c-1.4,1.6-1.3,1.5-0.7,1.2C66.3,149.1,67.2,148.7,68,148.4z M98.8,148.9l2.4-0.6l-0.6-0.6
	c-0.3-0.3-1-1.1-1.4-1.6l-0.9-1l-1.1-0.1c-1.4-0.1-3.1-0.1-3,0c0.1,0.1,0.3,0.6,0.6,1.3c0.3,0.6,0.8,1.7,1,2.2
	c0.3,0.6,0.5,1.1,0.6,1.1C96.3,149.5,97.5,149.2,98.8,148.9z M119.8,148.4c0.6-0.5,1.2-1.1,1.4-1.2c0.2-0.1,0.3-0.3,0.3-0.3
	c0-0.1-0.8-0.1-1.7-0.1h-1.7l-1.6,0.6c-0.8,0.3-1.5,0.7-1.4,0.7c0.1,0.1,3.3,1.2,3.5,1.2C118.7,149.3,119.3,148.9,119.8,148.4
	L119.8,148.4z M140,145.3c-0.1-2.1-0.1-3.7-0.1-3.8c-0.1-0.1-3,0.3-4.3,0.6l-0.9,0.1L134,144c-0.3,1-0.7,2.1-0.8,2.4
	c-0.3,0.8-0.2,1,0.1,1.1c3,0.6,6.5,1.4,6.6,1.6C140,149,140,147.4,140,145.3L140,145.3z M103.9,147.7c1.3-0.3,1.6-0.3,1.4-0.5
	c-0.1-0.1-0.8-0.6-1.6-0.9c-1.2-0.7-1.5-0.8-2.6-0.9c-0.7-0.1-1.4-0.2-1.8-0.2l-0.6-0.1l1.4,1.5c1.1,1.2,1.4,1.5,1.7,1.4
	C102.1,148.1,103,147.9,103.9,147.7L103.9,147.7z M116.2,147c0.3-0.1,0.6-0.3,0.6-0.3c-0.1-0.1-1,0-2.1,0.1s-2.3,0.1-2.5,0.1
	c-0.8,0-0.4,0.2,0.8,0.6l1.3,0.3l0.6-0.3C115.3,147.4,115.8,147.1,116.2,147L116.2,147z M108.1,146.6c-1.3-0.3-4.1-0.8-4.2-0.8
	c-0.1,0.1,0.3,0.2,0.7,0.4s0.9,0.6,1.2,0.7c0.4,0.3,0.4,0.3,1.9,0.1l1.4-0.2L108.1,146.6L108.1,146.6z M133.4,144.5
	c0.3-0.9,0.6-1.8,0.7-2c0.1-0.3,0.1-0.3-2.2,0.1L130,143l-0.8,1.1c-0.4,0.6-1,1.4-1.3,1.8l-0.5,0.7l0.4,0.1c1,0.1,4.6,0.6,4.6,0.7
	c0.1,0.1,0.1-0.2,0.2-0.6C132.8,146.4,133.2,145.4,133.4,144.5L133.4,144.5z M112.6,146.5c0.9-0.1,2.5-0.2,3.6-0.3l2.1-0.1l3.6-1.2
	c3.7-1.2,4.1-1.4,4.8-2c0.6-0.5,0.6-0.5,1.7-1.2c0.6-0.3,1-0.7,1-0.7c0.1-0.1,0.3-0.2,0.6-0.3c0.3-0.1,0.5-0.3,0.6-0.3
	s0.3-0.2,0.5-0.3c0.7-0.3,1.4-0.9,1.7-1.2c0.1-0.2,0.5-0.6,0.8-0.8c0.3-0.3,0.8-0.9,1.2-1.3c0.4-0.4,1.2-1.4,2-2.1
	c1.1-1.1,1.3-1.5,2-2.9c0.4-0.9,1.2-2.5,1.9-3.5c1-1.7,1.1-2.1,1.4-3.4c0.4-1.8,1.2-5.1,1.4-5.6c0.1-0.3,0.1-2,0.1-4.8
	c0-2.8-0.1-4.6-0.1-4.8c-0.2-0.6-1.1-3.8-1.4-5.6c-0.3-1.3-0.4-1.7-1.2-3.1c-0.5-0.9-1.3-2.5-1.9-3.5c-0.8-1.7-1.1-2.1-2.2-3.2
	c-0.7-0.7-1.6-1.7-2-2.1s-0.9-1.1-1.2-1.3c-0.3-0.3-0.6-0.7-0.8-0.8c-0.3-0.3-1.1-0.9-1.7-1.2c-0.2-0.1-0.5-0.3-0.5-0.3
	c-0.1-0.1-0.3-0.2-0.6-0.3c-0.3-0.1-0.5-0.3-0.6-0.3c-0.1-0.1-0.5-0.3-1-0.7c-1-0.7-1-0.7-1.7-1.2c-0.7-0.6-1.1-0.7-4.8-2l-3.6-1.2
	l-1.9-0.1c-1.1-0.1-2.9-0.2-4.1-0.3l-2.1-0.2l-1.9,0.4c-1.1,0.2-2.8,0.6-3.8,0.8c-1.9,0.3-2,0.3-4,1.4c-1.1,0.6-2.7,1.3-3.5,1.7
	c-1.3,0.6-1.7,0.8-3.2,2.2c-1,0.8-2.3,2-3,2.6c-1.1,0.9-1.4,1.2-2.5,2.8c-0.7,1-1.3,2-1.4,2.2s-0.4,0.6-0.6,0.8
	c-0.1,0.2-0.6,0.7-0.8,1.1c-0.4,0.5-0.7,1.2-1.1,2.2c-0.3,0.8-0.9,2.5-1.4,3.8c-0.9,2.2-0.9,2.5-1.1,4c-0.1,0.9-0.3,2.7-0.5,4.1
	l-0.3,2.4l0.3,2.4c0.2,1.3,0.4,3.2,0.5,4.1c0.1,1.4,0.2,1.8,0.8,3.4c0.4,0.9,1.1,2.7,1.4,3.8c0.6,1.6,0.9,2.3,1.3,2.8
	c0.3,0.3,0.7,0.8,0.8,1.1c0.1,0.2,0.4,0.6,0.6,0.8c0.1,0.2,0.8,1.2,1.4,2.2c1.1,1.6,1.4,1.9,2.5,2.8c0.7,0.6,2.1,1.7,3,2.6
	c1.6,1.4,1.9,1.7,3.2,2.2c0.8,0.3,2.3,1.1,3.5,1.7c2.1,1.1,2.1,1.1,4.3,1.4c1.2,0.2,2.9,0.6,3.6,0.7
	C110,146.7,110.5,146.7,112.6,146.5L112.6,146.5z M127.5,145.8c0.2-0.3,0.4-0.7,0.6-0.8c0.6-0.7,1.3-1.9,1.2-1.9
	c-0.1,0-0.9,0.2-1.7,0.4c-1.7,0.4-1.8,0.5-3.6,1.9l-0.8,0.6l0.6,0.1c0.6,0.1,1.3,0.1,3,0.2C127,146.5,127.1,146.5,127.5,145.8z
	 M123.3,145.5c0.6-0.4,0.9-0.8,0.9-0.8c-0.1-0.1-3.6,1.1-4.4,1.4c-0.3,0.2-0.3,0.2,1.1,0.2h1.4L123.3,145.5L123.3,145.5z
	 M84.1,144.7c1.1-0.1,2.3-0.2,2.8-0.2c0.8,0,0.8-0.1,0.8-0.3c0-0.3-0.8-4.6-0.9-5c-0.1-0.1-0.6-0.3-1.6-0.6
	c-2.4-0.7-3.4-0.9-3.5-0.8c-0.1,0.1-0.2,1-0.3,2.1c-0.3,2-0.6,4.1-0.8,4.8c-0.1,0.3-0.1,0.3,0.7,0.2C81.8,144.9,83,144.8,84.1,144.7
	L84.1,144.7z M100.8,144.7c-0.6-0.3-4.1-2.1-4.3-2.1c-0.1,0,0.3,0.4,0.9,1l1,1l1.1,0.1c0.6,0.1,1.2,0.1,1.4,0.1
	C101.3,145,101.3,145,100.8,144.7L100.8,144.7z M97.7,144.5c0-0.1-0.6-0.6-1.3-1.3c-1.3-1.2-1.3-1.2-4.3-2.4c-0.1-0.1,0,0.2,0.2,0.6
	c0.2,0.3,0.7,1.2,1,1.9l0.6,1.2l1.3,0.1c0.7,0.1,1.6,0.1,1.9,0.1C97.4,144.6,97.7,144.6,97.7,144.5L97.7,144.5z M124.6,144.5
	c0-0.1-0.1-0.1-0.1-0.1c-0.1,0-0.1,0.1-0.1,0.1c0,0.1,0.1,0.1,0.1,0.1C124.5,144.6,124.6,144.6,124.6,144.5z M93.3,144.3
	c0-0.1-1.6-3.1-1.8-3.4c-0.3-0.3-0.6-0.6-2.1-1c-1-0.3-1.8-0.6-1.9-0.6c-0.1,0.1,0.1,1.2,0.4,2.5l0.4,2.5h2.5
	C92.1,144.3,93.3,144.3,93.3,144.3L93.3,144.3z M128.5,143l1.2-0.3l0.9-1.2c0.5-0.6,0.8-1.1,0.8-1.1c-0.7,0.4-4.6,3-4.3,2.9
	C127.1,143.3,127.8,143.2,128.5,143L128.5,143z M162.2,142.3c-2.7-2.5-5.9-6.1-8.3-9.8c-0.4-0.7-0.8-1.2-0.9-1.2c-0.6,0-7,2-7,2.2
	c0,0.2,1,3.8,1.4,5.2c0.2,0.8,0.4,1.6,0.5,1.7c0.1,0.3,0.2,0.3,2,0.4c4.4,0.2,9.6,1.1,12.4,2.1c0.4,0.1,0.8,0.3,0.8,0.3
	C163.2,143.2,162.8,142.8,162.2,142.3L162.2,142.3z M132.6,142.1c1-0.2,1.7-0.3,1.8-0.3c0,0,0.2-0.6,0.5-1.3
	c0.3-0.7,0.6-1.5,0.7-1.9l0.3-0.7l-1.1,0.6c-2,1.1-2.2,1.2-4,3.5c-0.4,0.6-0.5,0.7-0.2,0.6C130.7,142.4,131.7,142.3,132.6,142.1
	L132.6,142.1z M138.5,141.2l1.4-0.2l0.1-2c0.1-1.1,0.1-2.3,0.2-2.6c0.1-0.4,0.1-0.6-0.1-0.6c-0.2,0-3.5,1.6-3.7,1.8
	c-0.1,0.1-1.6,3.7-1.6,3.9c0,0.1,0.5,0.1,1.1-0.1C136.6,141.4,137.7,141.3,138.5,141.2L138.5,141.2z M94.4,141.2
	c0-0.1-0.1-0.1-0.1-0.1c-0.1,0-0.1,0.1-0.1,0.1c0,0.1,0.1,0.1,0.1,0.1C94.4,141.3,94.4,141.3,94.4,141.2z M94,140.9
	c-0.1-0.1-1.6-1.3-2.1-1.7c-0.6-0.5-1.6-1.3-1.7-1.3c-0.1,0.1,0.1,0.3,0.3,0.6c0.2,0.3,0.4,0.8,0.6,1.1c0.3,0.6,0.4,0.6,1.6,1.1
	c0.7,0.3,1.3,0.4,1.3,0.4C94.2,141.1,94.1,140.9,94,140.9L94,140.9z M144.2,140.8c3.2-0.1,3.2-0.1,3.2-0.3c-0.1-0.2-0.2-0.8-0.4-1.4
	c-0.2-0.6-0.6-2.1-0.9-3.3c-0.3-1.2-0.6-2.1-0.6-2.1s-0.2,0.1-0.4,0.1c-0.2,0.1-0.8,0.3-1.4,0.6c-0.6,0.2-1.2,0.5-1.5,0.6
	c-0.3,0.1-0.8,0.3-1,0.4c-0.5,0.2-0.5,0.2-0.6,1c-0.1,0.4-0.1,1.7-0.2,2.8l-0.1,2l0.3-0.1C140.8,140.9,142.4,140.9,144.2,140.8
	L144.2,140.8z M90.8,139.6c-0.1-0.2-0.4-0.7-0.7-1.1c-0.2-0.4-0.6-0.9-0.7-1.2s-0.4-0.6-0.7-0.8c-0.3-0.2-0.6-0.4-0.6-0.5
	c-0.1-0.1-0.5-0.3-0.8-0.6c-0.3-0.3-0.7-0.6-0.8-0.6c-0.2-0.2-0.1,0.1,0.3,2c0.3,1,0.6,1.9,0.7,2c0.2,0.1,3.2,1.2,3.4,1.2
	C90.9,139.9,90.9,139.8,90.8,139.6L90.8,139.6z M86.7,138.4c0-0.1-0.2-1.1-0.6-2.1l-0.6-2l-1.7-1.2c-1.4-0.9-1.7-1.1-1.8-0.9
	c-0.1,0.1-0.1,1.2-0.2,2.3c-0.1,1.2-0.1,2.3-0.2,2.4c-0.1,0.3,0.1,0.3,1.2,0.6c0.7,0.2,1.8,0.4,2.3,0.6
	C86.7,138.6,86.7,138.6,86.7,138.4z M136.2,137c0.1-0.1,0.3-0.8,0.6-1.4l0.5-1.2l-1,1.1c-0.9,1-1.7,1.8-2.5,2.7
	c-0.2,0.3,0,0.2,1-0.3C135.6,137.5,136.2,137.1,136.2,137z M81.4,136.9c0.1-0.2,0.1-1.2,0.2-2.2c0.1-1,0.1-2.1,0.1-2.4l0.1-0.6
	l-1.2-0.7c-0.6-0.4-1.7-1-2.3-1.3l-1.2-0.6l-0.1,0.4c-0.4,1.2-2,5-2.3,5.6c-0.2,0.4-0.3,0.8-0.3,0.8c0,0,0.8,0.2,1.9,0.3
	c1.4,0.2,3.5,0.6,5.1,0.9C81.3,137.2,81.4,137,81.4,136.9z M138.3,136.2c0.8-0.4,1.7-0.8,1.8-0.9c0.1-0.1,0.3-0.7,0.4-2.1
	c0.1-1.1,0.2-2,0.2-2s-0.6,0.6-1.3,1.2c-1.3,1.2-1.3,1.3-2,2.9c-0.4,0.9-0.7,1.6-0.6,1.6C136.8,136.9,137.4,136.6,138.3,136.2
	L138.3,136.2z M60.5,136c1.7-0.3,4.7-0.5,6.7-0.5c1.6,0,5.4,0.2,6.2,0.3c0.3,0.1,0.4-0.1,0.9-1c0.5-1.1,2.1-5.1,2.3-5.7
	c0.1-0.3-0.1-0.4-1.8-1.2c-1-0.5-2.5-1.2-3.3-1.5l-1.4-0.6l-2.1,2.2c-3,3.3-5.6,5.6-8.6,7.7c-0.9,0.6-0.9,0.7-0.5,0.6
	C59.1,136.3,59.9,136.2,60.5,136L60.5,136z M87.5,134.5c-0.4-0.7-1-1.4-1.2-1.7c-0.2-0.3-0.5-0.7-0.6-0.8c-0.2-0.3-0.4-0.4-0.3-0.1
	c0.1,0.1,0.2,0.7,0.3,1.3l0.3,1l1.1,0.8c0.6,0.4,1.1,0.8,1.2,0.8C88.3,135.6,88,135.1,87.5,134.5L87.5,134.5z M142,134.5
	c0.3-0.1,1-0.4,1.6-0.6c1.8-0.7,1.9-0.8,1.8-1.2c-0.1-0.2-0.2-1.2-0.4-2.3c-0.4-2.3-0.4-2.3-0.6-2.3c-0.1,0-0.8,0.6-1.6,1.3
	l-1.5,1.3l-0.2,1.1c-0.1,0.6-0.2,1.6-0.3,2.1l-0.1,1.1l0.3-0.1C141.2,134.8,141.7,134.6,142,134.5L142,134.5z M85.3,133.3
	c-0.1-0.2-0.3-1-0.6-1.7c-0.4-1.4-0.6-1.5-1.9-3.2l-0.8-0.9v2.1v2.1l1.6,1c0.8,0.6,1.6,1,1.7,1.1C85.5,133.7,85.4,133.5,85.3,133.3
	L85.3,133.3z M146.7,132.7c1-0.3,3.7-1.2,4.9-1.5c0.6-0.1,1-0.3,1.1-0.3c0.1-0.1-0.2-0.6-0.6-1.1c-0.9-1.5-2.8-5-2.8-5.2
	c0-0.1-0.1-0.1-0.1-0.1c-0.1,0-3.1,2.2-3.8,2.8l-0.4,0.4l0.3,1.7c0.3,1.9,0.7,3.6,0.8,3.6C145.9,133,146.3,132.8,146.7,132.7
	L146.7,132.7z M139.9,131.4l1-0.9l0.2-1.3c0.1-0.7,0.2-1.3,0.2-1.3c-0.1-0.1-1.7,2.8-2.1,3.7c-0.2,0.4-0.3,0.8-0.3,0.8
	C138.9,132.3,139.4,131.9,139.9,131.4z M85.3,131.4c0-0.1-0.1-0.1-0.1-0.1c-0.1,0-0.1,0.1-0.1,0.1c0,0.1,0.1,0.1,0.1,0.1
	C85.3,131.5,85.3,131.4,85.3,131.4z M81.6,126.8c-0.1-0.1-0.7-0.8-1.3-1.5s-1.2-1.3-1.2-1.4c-0.1-0.3-0.3-0.1-0.5,0.8
	c-0.1,0.5-0.5,1.6-0.8,2.5c-0.3,0.9-0.6,1.7-0.5,1.7c0.1,0,0.2,0.1,0.3,0.2c0.2,0.1,0.9,0.6,1.7,0.9c0.8,0.4,1.6,0.9,1.9,1.1
	l0.5,0.3l0.1-2.1C81.8,127.6,81.7,127,81.6,126.8L81.6,126.8z M155,130.4c3.8-0.8,6.9-1.2,10.6-1.2h2.8l-0.8-0.4
	c-3.6-1.8-8.1-5-11.1-7.8c-0.3-0.3-0.7-0.6-0.8-0.7c-0.2-0.1-1.9,0.9-4.3,2.5c-1.7,1.1-2,1.3-1.9,1.6c0.1,0.2,0.6,1.2,1.2,2.3
	c2.2,3.9,2.3,4.1,2.6,4C153.6,130.6,154.3,130.5,155,130.4L155,130.4z M142.3,129.2c0.3-0.3,0.8-0.8,1.1-0.9
	c0.2-0.2,0.6-0.4,0.7-0.6c0.3-0.2,0.3,0-0.2-3.6c-0.1-0.8-0.1-0.7-1.2,1.1c-0.7,1.2-0.8,1.4-1,2.7c-0.1,0.8-0.3,1.7-0.3,1.8
	c-0.1,0.3-0.1,0.3,0.1,0.2C141.6,129.8,142,129.5,142.3,129.2L142.3,129.2z M83.6,128.1c-0.2-0.4-0.6-1.5-1-2.5l-0.7-1.7l0.1,1.4
	l0.1,1.4l0.8,1c0.4,0.6,0.8,1,0.9,1C84,128.9,83.8,128.5,83.6,128.1L83.6,128.1z M77.4,126.8c0.3-0.8,0.6-2,0.8-2.5l0.3-1l-1.9-1.8
	c-1-1-1.9-1.8-2-1.8s-0.3,0.3-0.6,0.7c-1,1.6-1.2,1.9-3.2,4.3l-0.7,0.8l1.8,0.8c1,0.4,2.4,1.1,3.1,1.4c0.7,0.3,1.4,0.7,1.5,0.6
	C76.8,128.4,77,127.7,77.4,126.8L77.4,126.8z M145.5,126.6c0.2-0.2,1.1-0.8,1.9-1.4c0.8-0.6,1.4-1.2,1.4-1.2c0-0.1-0.3-0.7-0.6-1.4
	c-0.3-0.7-0.8-1.7-1.1-2.3c-0.6-1.2-0.3-1.2-1.4,0.3c-1.6,2.2-1.4,2-1.4,3.1c0.2,2.1,0.4,3.4,0.6,3.3
	C145,127,145.3,126.8,145.5,126.6L145.5,126.6z M81.6,124.4c-0.1-1.7-0.1-1.8-0.8-3.2c-0.3-0.8-0.7-1.6-0.8-1.7
	c-0.1-0.1-0.3,0.3-0.6,1.6c-0.3,1-0.4,1.9-0.4,2c0,0.1,0.4,0.7,0.8,1.2c0.5,0.5,1.1,1.2,1.3,1.4c0.3,0.3,0.4,0.6,0.4,0.6
	C81.7,126.2,81.6,125.5,81.6,124.4z M70.9,124c0.3-0.5,0.7-0.9,0.8-1c0.1-0.1,0.2-0.3,0.4-0.6c0.2-0.3,0.3-0.5,0.4-0.6
	c0.1-0.1,0.2-0.3,0.4-0.6c0.2-0.3,0.6-0.8,0.8-1.3c0.3-0.4,0.5-0.8,0.5-0.9c0-0.1-0.6-0.6-1.2-1.1c-0.7-0.6-1.3-1.1-1.4-1.2
	c-0.1-0.1-0.4-0.3-0.7-0.6c-0.3-0.2-0.6-0.5-0.8-0.7c-0.2-0.2-0.6-0.5-0.9-0.7l-0.5-0.3l-1.6,1.1c-3.8,2.6-7.8,4.6-11,5.8
	c-1.2,0.4-1.3,0.6-0.3,0.6c2.6,0,8.9,1.4,12.9,3C69.9,125.5,69.7,125.5,70.9,124L70.9,124z M143.5,123.2c0.3-0.3,0.3-1.1,0.1-2.7
	l-0.1-0.8l-0.7,2.6c-0.3,1.4-0.7,2.7-0.7,2.7s0.2-0.3,0.5-0.7C143,123.9,143.4,123.4,143.5,123.2z M151.6,122.3
	c0.9-0.6,2.2-1.4,2.7-1.7l1.1-0.6l-1.8-1.9c-1-1-2.1-2.2-2.5-2.6l-0.7-0.8l-0.8,0.8c-0.4,0.5-1.2,1.4-1.7,2.1
	c-0.7,0.9-0.9,1.3-0.8,1.5c0.1,0.3,0.4,1.1,1.4,3.1c0.7,1.5,0.8,1.6,1,1.4C149.7,123.5,150.6,122.9,151.6,122.3L151.6,122.3z
	 M79.2,120.7c0.6-2.1,0.6-2-0.7-4.3l-0.8-1.4l-0.4,0.7c-0.3,0.4-0.8,1.2-1.1,1.8c-0.3,0.6-0.8,1.2-0.9,1.4l-0.3,0.4l1.8,1.7
	c1.1,1,1.9,1.7,1.9,1.6C78.7,122.6,78.9,121.6,79.2,120.7L79.2,120.7z M145.3,120.5c0.1-0.1,0.4-0.6,0.7-0.9
	c0.6-0.8,0.6-0.9,0.3-1.6c-0.1-0.3-0.4-1.1-0.7-1.8l-0.4-1.3l-0.6,1.7l-0.6,1.7l0.1,1.6c0.1,0.8,0.1,1.7,0.1,1.9
	C144.2,122.2,144.3,122.1,145.3,120.5L145.3,120.5z M81.1,118.5c-0.1-1.2-0.3-2.3-0.3-2.5c0-0.6-0.3,0.1-0.4,1.3l-0.2,1.2l0.6,1.2
	c0.3,0.7,0.6,1.2,0.6,1.1C81.3,120.8,81.2,119.8,81.1,118.5L81.1,118.5z M160.5,117.5c3.1-1.3,6.7-2.5,9.2-3
	c0.5-0.1,0.7-0.2,0.6-0.2c-0.2,0-1.3-0.3-2.5-0.6c-3.4-0.9-7.1-2.3-10.3-4l-1.6-0.8l-0.4,0.3c-0.2,0.2-1.4,1.4-2.6,2.7l-2.2,2.3
	l0.4,0.5c0.2,0.3,1.4,1.5,2.6,2.7l2.2,2.2l1.6-0.8C158.3,118.5,159.6,117.8,160.5,117.5L160.5,117.5z M76.2,116.4
	c0.3-0.4,0.7-1.1,0.8-1.4l0.3-0.6l-0.6-0.9c-0.3-0.5-0.7-1.2-1-1.7c-0.2-0.4-0.6-1-0.9-1.4l-0.4-0.7l-1.6,1.4
	c-0.9,0.8-2.2,1.8-2.8,2.3c-0.7,0.5-1.2,0.9-1.2,0.9s0.3,0.3,0.7,0.6c1.2,0.9,2.1,1.7,3.6,2.8l1.4,1.2l0.6-0.9
	C75.4,117.6,75.9,116.8,76.2,116.4L76.2,116.4z M147.6,117.4c0.3-0.4,0.8-1,1.7-2.1c0.4-0.5,0.8-1,0.8-1c0-0.1-0.3-0.5-0.8-1
	c-0.4-0.5-0.9-1.1-1.1-1.4c-0.2-0.3-0.4-0.6-0.6-0.7c-0.1-0.1-0.3-0.4-0.5-0.6l-0.3-0.3l-0.2,0.4c-0.1,0.3-0.5,1.2-0.8,2.1l-0.6,1.6
	l0.6,1.5c0.3,0.8,0.7,1.7,0.8,2l0.2,0.6l0.3-0.3C147.3,117.9,147.5,117.6,147.6,117.4L147.6,117.4z M80.2,116l0.3-1.7l-0.3-1.7
	c-0.2-0.9-0.3-1.7-0.3-1.7c0,0-0.4,0.8-1,1.7l-1,1.7l0.9,1.7c0.5,0.9,0.9,1.7,0.9,1.9C79.7,118.2,79.8,117.9,80.2,116L80.2,116z
	 M144.4,113l-0.5-1.4v2.7v2.7l0.5-1.4l0.5-1.4L144.4,113L144.4,113z M70.1,113c0.7-0.6,1-0.8,1.4-1.1c0.1-0.1,0.8-0.7,1.5-1.2
	c0.7-0.6,1.2-1.1,1.2-1.1c0-0.1-0.2-0.4-0.5-0.9s-0.7-1-0.8-1.3c-0.2-0.3-0.3-0.6-0.4-0.6c-0.1-0.1-0.2-0.3-0.4-0.6
	c-0.2-0.3-0.3-0.5-0.4-0.6c-0.1-0.1-0.4-0.5-0.8-1c-0.3-0.5-0.8-1-0.9-1.1c-0.2-0.2-0.3-0.2-1.4,0.2c-4.1,1.5-10.4,3-12.9,3
	c-0.9,0-0.8,0.1,0.3,0.6c3.2,1.1,7.2,3.2,11,5.9l1.5,1l0.5-0.3C69.3,113.6,69.7,113.2,70.1,113L70.1,113z M153.6,110.6l1.8-1.9
	l-1.1-0.6c-0.9-0.5-2-1.2-4.8-3c-0.3-0.2-0.3-0.2-1,1.4c-0.9,2-1.2,2.7-1.4,3.1c-0.1,0.2,0.1,0.6,0.8,1.5c0.5,0.7,1.2,1.6,1.7,2.1
	l0.8,0.8l0.7-0.8C151.5,112.8,152.6,111.6,153.6,110.6L153.6,110.6z M78.5,112.2c0.5-0.9,0.9-1.8,1-2.1c0.1-0.3-0.7-3.6-0.9-4.1
	c-0.1-0.1-0.8,0.6-1.9,1.6l-1.8,1.7l0.2,0.4c0.1,0.2,0.6,0.9,1,1.6c0.4,0.6,0.9,1.4,1.1,1.8c0.2,0.3,0.4,0.7,0.4,0.7
	C77.7,113.9,78,113.2,78.5,112.2L78.5,112.2z M145.6,112.4c0.3-0.7,0.6-1.5,0.7-1.7c0.3-0.6,0.3-0.7-0.3-1.5
	c-0.3-0.4-0.6-0.8-0.7-0.9c-1-1.4-1.1-1.6-1.2-1.3c0,0.2-0.1,1-0.1,1.8l-0.1,1.5l0.6,1.7c0.3,1,0.6,1.7,0.6,1.7
	C145.1,113.7,145.3,113.1,145.6,112.4z M81.3,108.6l0.1-1l-0.6,1.2l-0.6,1.2l0.2,1.2c0.1,0.7,0.3,1.3,0.3,1.4
	C80.7,112.9,81.1,110.3,81.3,108.6z M148,106.8c0.5-1,0.8-1.9,0.8-2s-0.6-0.6-1.2-1c-0.7-0.4-1.6-1.2-2.1-1.5l-0.8-0.6l-0.2,1.2
	c-0.1,0.7-0.2,1.7-0.2,2.3l-0.1,1l0.7,1c0.4,0.6,0.9,1.3,1.2,1.7l0.5,0.7l0.2-0.4C147,108.8,147.5,107.8,148,106.8z M80.4,108.6
	c1-2,1.1-2.5,1.2-4.3l0.1-1.8l-0.8,0.9c-0.5,0.6-1.1,1.2-1.4,1.5l-0.5,0.6l0.5,1.9c0.3,1.1,0.5,1.9,0.5,1.9
	C79.9,109.4,80.2,109,80.4,108.6L80.4,108.6z M76.5,107.2l1.9-1.8l-0.3-1c-0.4-1.5-1.2-3.8-1.4-4.1c-0.1-0.1-0.8,0.2-1.8,0.7
	c-0.9,0.4-2.3,1.1-3.2,1.4l-1.6,0.7l0.7,0.8c2,2.5,2.2,2.8,3.2,4.3c0.2,0.3,0.4,0.7,0.6,0.7C74.6,109.1,75.5,108.3,76.5,107.2
	L76.5,107.2z M143.8,106.7c0-0.6-0.1-0.9-0.3-1.3c-0.2-0.3-0.6-0.8-0.8-1.2c-0.2-0.3-0.4-0.6-0.4-0.6c0,0.1,0.3,1.3,0.7,2.7l0.7,2.6
	l0.1-0.8C143.7,107.9,143.8,107.2,143.8,106.7z M156.4,107.9c0.3-0.3,0.6-0.6,0.7-0.7c0.1-0.1,0.9-0.8,1.8-1.5
	c2.5-2.1,5.7-4.2,8.5-5.6l1.1-0.6l-1.4,0.1c-3.4,0.2-9.3-0.4-13.5-1.5c-0.4-0.1-0.4-0.1-2.7,4c-0.6,1.1-1.2,2.2-1.2,2.3
	c-0.1,0.3,0.2,0.4,1.7,1.4c1.9,1.2,4.2,2.6,4.4,2.6C155.8,108.4,156.1,108.2,156.4,107.9L156.4,107.9z M144.2,102.8
	c0.2-1.2,0.2-1.4,0.1-1.6c-0.3-0.3-1.9-1.7-2.6-2.2c-0.3-0.3-0.3-0.3-0.3-0.1c0.1,0.1,0.2,0.9,0.3,1.7c0.2,1.4,0.4,2,1.2,3.2
	c0.2,0.3,0.6,0.9,0.7,1.1l0.3,0.4l0.1-0.6C144,104.4,144.1,103.5,144.2,102.8L144.2,102.8z M79,104.8c0.1-0.1,0.6-0.7,1.2-1.4
	c0.6-0.7,1.2-1.4,1.3-1.5c0.1-0.2,0.2-0.8,0.1-2.4l-0.1-2.1l-0.5,0.3c-0.3,0.2-1.1,0.7-1.9,1.1c-0.8,0.4-1.5,0.8-1.7,0.9
	c-0.2,0.1-0.3,0.2-0.3,0.2c-0.1,0,0.2,0.8,0.5,1.7s0.7,2,0.8,2.5C78.8,104.9,78.9,105.2,79,104.8L79,104.8z M83.6,101
	c0.2-0.6,0.3-1.1,0.3-1.1s-0.4,0.4-0.9,1l-0.8,1l-0.1,1.4l-0.1,1.4l0.6-1.4C82.9,102.6,83.3,101.5,83.6,101L83.6,101z M149.3,104.2
	c0-0.2,2.6-4.9,3.1-5.6c0.2-0.3,0.3-0.6,0.3-0.6s-0.3-0.2-0.8-0.3c-2-0.6-3-0.8-4.4-1.3c-0.8-0.3-1.6-0.5-1.6-0.5
	c-0.1,0.1-0.6,2.5-0.8,3.8c-0.2,1.1-0.2,1.4-0.1,1.6c0.3,0.3,3.9,3.1,4.1,3.1C149.2,104.3,149.3,104.2,149.3,104.2L149.3,104.2z
	 M71.9,102.1c1.4-0.6,4.6-2.1,4.7-2.2c0.1-0.1-1.7-4.4-2.3-5.9c-0.5-1.1-0.6-1.2-0.9-1.1c-0.7,0.1-4.6,0.3-6.2,0.3
	c-2.7,0-5.9-0.3-8.4-0.8c-0.4-0.1-0.4-0.1,0.5,0.6c3.3,2.3,6.7,5.4,9.8,8.9c0.4,0.5,0.9,0.9,1,0.9S71,102.4,71.9,102.1z M83.3,99.9
	c0.9-1.2,1.1-1.4,1.5-2.7c0.6-1.7,0.7-2.1,0.6-2.1c-0.1,0.1-0.8,0.5-1.7,1.1l-1.6,1v2.1c0,1.2,0.1,2.1,0.1,2
	C82.3,101.3,82.7,100.6,83.3,99.9L83.3,99.9z M141.1,99.6l-0.2-1.3l-1-0.9c-0.6-0.6-1-0.9-1-0.9c-0.1,0.1,1,2.2,1.8,3.6
	c0.3,0.6,0.6,0.9,0.6,0.9C141.2,100.9,141.2,100.3,141.1,99.6z M144.5,100.2c0.1-0.2,0.2-1.3,0.4-2.5s0.3-2.1,0.3-2.1
	c-0.1-0.1-0.7-0.3-1.4-0.6c-0.7-0.3-1.4-0.6-1.7-0.7c-0.3-0.1-0.7-0.3-0.9-0.4l-0.6-0.2l0.1,1.1c0.1,0.6,0.2,1.6,0.3,2.1l0.2,1.1
	l1.5,1.3c0.8,0.8,1.6,1.3,1.7,1.3C144.4,100.6,144.5,100.4,144.5,100.2L144.5,100.2z M80.6,97.7l1.1-0.7l-0.1-1.2
	c-0.1-1.9-0.3-4.1-0.3-4.1c-0.1-0.1-0.8,0.1-1.7,0.3c-0.9,0.2-2.5,0.4-3.5,0.6c-1.1,0.1-1.9,0.3-2,0.3c0,0,0.1,0.4,0.3,0.8
	c0.3,0.7,1.9,4.5,2.3,5.6l0.1,0.4l1.2-0.7C79,98.6,80,98,80.6,97.7z M140.5,95.5c-0.2-1.4-0.3-2-0.4-2.1c-0.6-0.3-3.3-1.7-3.4-1.6
	c0,0,0.3,0.8,0.7,1.7c0.7,1.6,0.8,1.7,2,2.8c0.7,0.7,1.3,1.2,1.3,1.2C140.7,97.5,140.6,96.6,140.5,95.5L140.5,95.5z M85.3,97.4
	c0-0.1-0.1-0.1-0.1-0.1c-0.1,0-0.1,0.1-0.1,0.1c0,0.1,0.1,0.1,0.1,0.1C85.3,97.5,85.3,97.4,85.3,97.4z M154,96.1
	c2.7-4,5.4-7.1,8.2-9.6c0.6-0.6,1-0.9,1-0.9c-0.1,0-0.4,0.1-0.8,0.3c-3.1,1.1-8,1.9-12.5,2.1c-1.8,0.1-2,0.1-2,0.4
	c-0.1,0.2-0.3,1.2-0.7,2.4c-0.6,1.8-1.2,4.3-1.2,4.6c0,0.2,6.2,2.1,6.9,2.1C153,97.4,153.4,96.9,154,96.1L154,96.1z M85.7,96.9
	c0.1-0.2,0.3-0.6,0.6-0.8c1-1.3,2.1-3,1.8-2.8c-0.1,0.1-0.6,0.3-0.9,0.7c-0.4,0.3-0.8,0.6-0.9,0.7s-0.3,0.6-0.5,1.2
	c-0.1,0.6-0.3,1.2-0.3,1.3C85.2,97.3,85.6,97.2,85.7,96.9L85.7,96.9z M84.3,95.3l1.4-0.9l0.6-2.1c0.3-1.1,0.5-2.1,0.5-2.1
	c-0.1-0.1-1.1,0.2-2.3,0.6c-1.2,0.3-2.3,0.6-2.5,0.6s-0.2,0.1-0.1,0.3c0.1,0.2,0.1,1.2,0.2,2.2c0.1,1.1,0.1,2.1,0.1,2.3l0.1,0.4
	l0.3-0.3C82.7,96.4,83.6,95.8,84.3,95.3L84.3,95.3z M146.1,93c0.3-1.2,0.7-2.6,0.9-3.3c0.2-0.6,0.4-1.3,0.4-1.4
	c0.1-0.3,0.1-0.3-3.2-0.3c-1.8-0.1-3.4-0.1-3.6-0.2l-0.3-0.1l0.1,2c0.1,1.1,0.1,2.3,0.2,2.8l0.1,0.8l0.6,0.3
	c0.3,0.1,0.8,0.3,0.9,0.4c0.6,0.3,3.3,1.3,3.3,1.3C145.5,95.1,145.8,94.2,146.1,93L146.1,93z M136.8,93.2c-0.3-0.6-0.6-1.2-0.6-1.4
	c-0.1-0.2-0.6-0.6-1.4-1l-1.2-0.7l0.3,0.4c0.4,0.5,3.3,3.6,3.3,3.7C137.3,94.2,137.1,93.8,136.8,93.2z M88.5,92.3
	c0.3-0.3,0.8-0.7,0.8-0.9c0.1-0.2,0.6-0.9,0.9-1.5s0.7-1.1,0.6-1.1c-0.1-0.1-3.4,1.1-3.6,1.2c-0.1,0.1-1,3.6-1,3.8
	C86.3,94,86.7,93.7,88.5,92.3L88.5,92.3z M140.1,92.3c-0.1-0.3-0.1-1.5-0.2-2.6l-0.1-2l-1.4-0.2c-0.8-0.1-1.9-0.2-2.5-0.3
	c-0.6-0.1-1.1-0.1-1.1-0.1c0,0.2,1.4,3.8,1.6,3.9c0.2,0.2,3.4,1.8,3.6,1.8C140.2,92.9,140.2,92.7,140.1,92.3L140.1,92.3z M76.1,92.1
	c1.7-0.3,4.3-0.8,5-0.9c0.3-0.1,0.3,0-0.2-3.3c-0.1-1.1-0.3-2.5-0.5-3.1l-0.2-1.2l-2.3-0.4c-4.5-0.9-9.1-2.3-11.9-3.7l-0.6-0.3
	l0.3,0.3c0.1,0.2,0.6,0.6,0.8,0.9c2.2,2.4,5.5,7.5,7.2,11.1c0.2,0.4,0.4,0.8,0.5,0.8C74.2,92.3,75.1,92.2,76.1,92.1L76.1,92.1z
	 M84.5,90.3c1.3-0.3,2.3-0.7,2.4-0.7c0.1-0.1,1-4.7,1-5.1c0-0.3-0.1-0.3-1.7-0.3c-0.9-0.1-2.5-0.2-3.5-0.3c-1-0.1-1.9-0.2-1.9-0.2
	c-0.1,0.1,0.1,0.5,0.1,1c0.1,0.6,0.3,1.9,0.5,3.2c0.4,3.1,0.4,3.1,0.6,3.1C82.1,90.9,83.2,90.7,84.5,90.3L84.5,90.3z M91.1,90.2
	c0.4-0.3,0.8-0.6,0.8-0.7c0.4-0.4,1.9-1.7,2.1-1.7c0.1-0.1,0.1-0.1,0.1-0.1c-0.1-0.1-0.6,0.1-1.3,0.4c-1.2,0.4-1.3,0.6-1.6,1.1
	c-0.2,0.3-0.4,0.8-0.7,1.2c-0.2,0.3-0.3,0.6-0.3,0.6S90.8,90.6,91.1,90.2z M135.6,90.2c-0.1-0.3-0.4-1.2-0.7-1.9
	c-0.3-0.7-0.4-1.2-0.5-1.2c0,0-0.9-0.2-2-0.4c-1.9-0.3-1.9-0.3-1.8-0.1c0.3,0.5,1.8,2.3,2.2,2.6c0.3,0.3,2.8,1.7,3,1.7
	C135.8,90.8,135.7,90.6,135.6,90.2z M89.3,88.9c0.9-0.3,1.9-0.7,2-0.8c0.2-0.2,2-3.4,2-3.6c0-0.1-1.1-0.1-2.5-0.1h-2.5l-0.3,2.1
	c-0.2,1.2-0.4,2.3-0.4,2.5c-0.1,0.2-0.1,0.3,0.1,0.3C87.6,89.4,88.4,89.2,89.3,88.9L89.3,88.9z M131,87.6c-0.3-0.4-0.7-0.9-0.9-1.2
	c-0.3-0.3-0.6-0.4-1.6-0.7c-0.7-0.2-1.4-0.3-1.4-0.3c-0.1-0.1,0.6,0.4,1.5,1.1c2,1.3,2.9,1.9,3,1.9C131.6,88.4,131.3,88.1,131,87.6z
	 M95.1,86.7c0.4-0.3,2.6-2.4,2.5-2.5c-0.1-0.1-0.9-0.1-1.9,0l-1.9,0.1l-0.9,1.8c-0.5,1-0.9,1.8-0.9,1.8C92,88,94.8,86.9,95.1,86.7
	L95.1,86.7z M94.4,87.5c0-0.1-0.1-0.1-0.1-0.1c-0.1,0-0.1,0.1-0.1,0.1c0,0.1,0.1,0.1,0.1,0.1C94.4,87.5,94.4,87.5,94.4,87.5z
	 M148,86.6c1.3-4,4.1-9.6,6.2-12.5l0.7-0.9l-0.6,0.4c-2.8,1.9-6.7,3.7-11.1,5.2l-2.6,0.9l-0.1,1c-0.1,0.6-0.1,2.3-0.1,3.8v2.8
	l0.6,0.1c0.9,0.1,1.9,0.2,4.5,0.2l2.3,0.1L148,86.6L148,86.6z M139.9,84.4c0-1.6,0.1-3.2,0.1-3.8l0.1-0.9l-0.9,0.3
	c-0.7,0.2-4,0.9-5.9,1.3c-0.3,0.1-0.4,0.2-0.1,1.1c0.1,0.3,0.4,1.4,0.8,2.4l0.6,1.8l0.9,0.1c1.1,0.2,3.7,0.6,4.1,0.6h0.3L139.9,84.4
	L139.9,84.4z M134.1,86.2c-0.2-0.4-1.2-3.6-1.3-4.2l-0.1-0.6l-1.6,0.2c-0.9,0.1-2.1,0.3-2.6,0.3l-1,0.1l0.5,0.7
	c0.3,0.3,0.8,1.2,1.3,1.8l0.8,1.1l1.8,0.3C133.9,86.5,134.2,86.5,134.1,86.2L134.1,86.2z M99,84.9c1.2-0.6,2.2-1.2,2.2-1.2
	c-0.1-0.1-0.7,0-1.4,0.1L98.5,84l-1,1c-0.6,0.6-0.9,1-0.9,1S97.7,85.5,99,84.9L99,84.9z M128.8,84.7c-0.3-0.5-0.7-0.9-0.7-1
	c-0.1-0.1-0.3-0.4-0.6-0.8l-0.4-0.7l-1.4,0.1c-0.8,0.1-1.7,0.1-2.1,0.1l-0.6,0.1l0.8,0.6c1.8,1.4,2,1.5,3.5,1.9
	C129.5,85.6,129.4,85.7,128.8,84.7L128.8,84.7z M124.6,84.2c0-0.1-0.1-0.1-0.1-0.1c-0.1,0-0.1,0.1-0.1,0.1c0,0.1,0.1,0.1,0.1,0.1
	C124.5,84.3,124.6,84.3,124.6,84.2z M123.8,83.6c-1.3-1.2-1.4-1.2-3-1.1l-1.4,0.1l2.3,0.8c1.2,0.4,2.3,0.8,2.5,0.8
	C124.2,84.1,124.1,83.9,123.8,83.6L123.8,83.6z M94.2,82.8c0.8-1.7,1.7-3.6,1.7-3.7c0-0.1-0.3-0.2-0.8-0.3c-1.1-0.3-3.1-1.1-4.6-1.7
	c-0.6-0.3-1.2-0.5-1.2-0.5c-0.1,0-0.1,0.6-0.2,1.3c-0.1,1.4-0.4,4.7-0.6,5.5l-0.1,0.6H91h2.6L94.2,82.8z M88,82.8
	c0.2-1.6,0.4-3.3,0.5-5c0.1-1.3,0.1-1.4-0.2-1.5c-0.9-0.3-4.7-2.3-6.4-3.2c-2-1.2-4.6-3-6-4.2l-0.8-0.6l0.4,0.8
	c1.4,2.5,3,6.7,4.2,11.5l0.7,2.8l0.8,0.1c1.4,0.2,4.5,0.5,5.5,0.5h1.1L88,82.8L88,82.8z M98.4,83.5c0.2-0.1,0.4-0.3,0.6-0.5
	c0.1-0.2,0.4-0.5,0.7-0.8c0.3-0.3,0.7-0.8,1-1.1l0.6-0.6l-0.7-0.2c-0.4-0.1-1.5-0.4-2.5-0.7c-1-0.3-1.8-0.4-1.8-0.4s-0.4,1-0.9,2.1
	s-1,2.1-1,2.2c-0.3,0.3-0.1,0.4,1.8,0.3C97.5,83.7,98.1,83.6,98.4,83.5L98.4,83.5z M101.2,83.3c1.1-0.1,1.4-0.2,2.5-0.8
	c2.1-1.1,2.1-1.1-0.1-1.5l-1.9-0.4l-1.2,1.3c-0.7,0.7-1.3,1.4-1.3,1.5c-0.1,0.2-0.1,0.2,0.3,0.2C99.7,83.5,100.5,83.4,101.2,83.3z
	 M105.5,82.6c0.8-0.1,2-0.4,2.5-0.6l1-0.2l-1.4-0.2l-1.4-0.2l-0.7,0.4c-0.3,0.2-0.9,0.6-1.2,0.7C103.7,83,103.7,83,105.5,82.6
	L105.5,82.6z M116.9,82c-0.1-0.1-0.6-0.3-1.2-0.5c-0.6-0.3-1.2-0.5-1.2-0.6c-0.1-0.1-0.6,0.1-1.2,0.2c-0.6,0.2-1.2,0.3-1.3,0.3
	s-0.3,0.1-0.3,0.1c0,0.1,0.8,0.2,1.7,0.2c1,0.1,1.8,0.1,1.9,0.1C115.6,82.1,116.9,82.1,116.9,82L116.9,82z M121.7,82
	c0-0.1-1.4-1.3-2.6-2.3c-0.3-0.2-0.3-0.2-2,0.3c-0.9,0.3-1.8,0.6-1.8,0.7c-0.1,0.1,0.6,0.4,1.4,0.7l1.4,0.6h1.8
	C120.8,82.1,121.7,82,121.7,82L121.7,82z M125.9,81.9c0.8-0.1,0.8-0.1,0.7-0.3c-0.3-0.5-2.3-3.8-2.5-4.1c-0.1-0.1-0.3,0-0.7,0.2
	c-0.3,0.2-1.4,0.6-2.5,1l-1.8,0.8l1.2,1c0.7,0.6,1.4,1.2,1.7,1.4c0.4,0.3,0.4,0.4,1.7,0.3C124.4,81.9,125.4,81.9,125.9,81.9
	L125.9,81.9z M130.3,81.4c1.9-0.3,2.2-0.3,2.1-0.6c-0.2-0.4-0.9-3.6-1.2-5.2c-0.2-0.9-0.3-1.7-0.4-1.7c-0.1-0.1-0.3,0.1-0.6,0.2
	c-1,0.6-4.3,2.3-5.4,2.8c-0.3,0.1-0.4,0.2-0.4,0.3c0,0.1,1.4,2.5,2.2,3.8c0.5,0.8,0.6,0.8,1,0.8C127.9,81.6,129,81.5,130.3,81.4
	L130.3,81.4z M111.7,81.2c0.6-0.2,1.3-0.3,1.6-0.4l0.4-0.1l-1.8-0.9c-1-0.5-1.8-0.9-1.9-0.9s-0.5,0.3-1,0.6
	c-0.5,0.3-1.2,0.8-1.7,1.1c-0.4,0.3-0.7,0.5-0.6,0.5c0.1,0,0.7,0.1,1.3,0.2C109.8,81.6,110.4,81.5,111.7,81.2L111.7,81.2z
	 M106.9,80.5c1.1-0.7,2.7-1.8,2.7-1.9c0-0.1-0.3-0.3-0.8-0.5c-0.4-0.2-1.4-0.8-2.1-1.2c-0.8-0.4-1.4-0.8-1.4-0.8
	c-0.1,0-3.1,3.8-3.1,3.9c0,0.1,3.2,0.8,3.7,0.8C106.1,81,106.5,80.7,106.9,80.5z M134.9,80.6c0.6-0.1,1.9-0.4,3-0.7
	c1.7-0.4,2.1-0.6,2.2-0.8c0.1-0.2,0.2-1,0.3-1.9c0.4-4.3,1.6-9.4,2.8-12.7l0.3-0.8l-2,1.9c-2.1,2-3.2,3-5.3,4.5
	c-1.3,0.9-3.6,2.5-4.5,3c-0.3,0.1-0.4,0.3-0.4,0.4c0,0.6,1.4,6.9,1.6,7.2C132.9,81,133.3,81,134.9,80.6L134.9,80.6z M116.4,79.8
	c1.1-0.3,1.9-0.7,1.9-0.7c0-0.1-0.3-0.3-0.6-0.6c-0.3-0.3-1.2-1.1-1.9-1.8l-1.3-1.2L114,76c-0.3,0.3-0.9,0.7-1.3,1
	c-0.4,0.3-1.1,0.8-1.4,1.1c-0.4,0.3-0.8,0.6-0.7,0.6c0.1,0.1,3.6,1.8,3.7,1.8C114.4,80.4,115.4,80.1,116.4,79.8L116.4,79.8z
	 M101.8,79.7c0.8-0.9,3-3.8,3-3.8c0-0.1-0.8-0.6-1.7-1.2c-0.9-0.6-2.2-1.5-2.9-2s-1.2-0.9-1.3-0.8c-0.1,0.1-0.3,0.7-0.6,1.4
	c-0.6,1.7-1.1,3.3-1.2,3.6c-0.1,0.3-0.7,1.7-0.7,1.8c0,0.1,2,0.6,4.1,1.2C101.3,80.1,101.6,80,101.8,79.7z M121.6,77.9l2.2-0.9
	l-0.6-1c-0.5-0.9-2.3-4.6-2.7-5.4c-0.1-0.3-0.2-0.3-0.9,0.5c-0.4,0.4-1.7,1.4-2.6,2.3c-1,0.9-1.8,1.7-1.9,1.7
	c-0.1,0.1,0.6,0.8,1.7,2c1.6,1.6,1.9,1.8,2.2,1.8C119.3,78.8,120.4,78.4,121.6,77.9L121.6,77.9z M96.2,78c0.1-0.3,0.3-0.8,0.4-1.1
	c0.3-0.8,1.8-5.2,1.8-5.4c0-0.1-0.5-0.5-1.1-0.9c-3-2.3-7.1-6.6-9.1-9.4c-0.3-0.4-0.6-0.8-0.6-0.8c-0.1,0.1,0.1,0.6,0.2,1.2
	c0.8,3.2,1.1,6.6,1.2,11.1l0.1,3.5l0.9,0.4c0.5,0.2,1.2,0.5,1.4,0.6c0.3,0.1,1.4,0.6,2.5,0.9c1.1,0.3,1.9,0.7,2,0.7
	C95.9,78.6,96.1,78.4,96.2,78L96.2,78z M110.8,77.9c0.3-0.3,0.7-0.5,0.8-0.6c0.1-0.1,0.3-0.2,0.4-0.3c0.2-0.1,0.3-0.3,0.4-0.3
	c0.1-0.1,0.6-0.4,1-0.8l0.9-0.7l-0.4-0.4c-0.2-0.2-0.6-0.6-0.8-0.8s-0.7-0.8-1-1.2c-0.3-0.4-0.7-0.8-0.8-0.9
	c-0.1-0.1-0.4-0.4-0.7-0.8c-0.8-1.1-1.3-1.5-1.3-1.3c0,0.1-0.2,0.4-0.4,0.8s-0.6,0.8-0.7,1.1c-0.2,0.3-0.5,0.8-0.7,1.1
	c-0.2,0.3-0.8,1.1-1.3,1.8c-0.9,1.2-0.9,1.3-0.6,1.4c1,0.6,1.5,0.9,2.6,1.5c0.7,0.3,1.3,0.7,1.4,0.8C110,78.4,110.1,78.4,110.8,77.9
	L110.8,77.9z M126.1,75.8c1-0.5,2.4-1.2,3.2-1.7l1.4-0.8v-0.6c0-0.3-0.1-1.4-0.2-2.4c-0.3-2.5-0.5-5.2-0.5-7.2
	c0-1.6,0.2-4.8,0.3-5.6c0.1-0.3-0.2,0.1-0.7,0.9c-1.9,3.3-4.1,6.3-7.5,10c-0.7,0.7-1.2,1.3-1.2,1.4c-0.1,0.2,1.9,4.3,3,6.2
	c0.2,0.3,0.3,0.6,0.3,0.6C124.3,76.7,125.1,76.3,126.1,75.8L126.1,75.8z M106.1,74.1c0.5-0.7,1-1.4,1.2-1.7s0.4-0.7,0.6-1
	c0.2-0.3,0.4-0.7,0.6-0.9c0.1-0.2,0.3-0.6,0.6-0.8l0.3-0.5l-0.8-1.1c-2.7-3.6-5.5-8.5-6.6-11.5l-0.4-0.8l-0.1,1.7
	c-0.3,4.5-1,9.1-2.3,13.7c-0.1,0.2,0.1,0.4,1.1,1.2c1.7,1.3,4.7,3.3,4.9,3.2C105.2,75.4,105.6,74.8,106.1,74.1L106.1,74.1z
	 M115.6,74.2c0.3-0.2,1-0.9,1.7-1.4c1.9-1.7,3.1-2.8,3-3c-2-4.6-3.4-9.2-4-13.2l-0.3-2l-0.3,1c-0.3,1.4-1.6,5-2.2,6.5
	c-0.6,1.3-2.5,5-3,6c-0.3,0.6-0.6,1.2-0.6,1.2c0,0.2,2,2.5,3.8,4.7C114.8,75.1,114.7,75,115.6,74.2L115.6,74.2z M101.5,55.4
	c0-0.1-0.1-0.1-0.1-0.1c-0.1,0-0.1,0.1-0.1,0.1s0.1,0.1,0.1,0.1C101.5,55.4,101.5,55.4,101.5,55.4z"/>
</svg>
