<?xml version="1.0" encoding="utf-8"?>
<!-- Generator: Adobe Illustrator 28.0.0, SVG Export Plug-In . SVG Version: 6.00 Build 0)  -->
<svg version="1.1" id="Layer_1" xmlns="http://www.w3.org/2000/svg" xmlns:xlink="http://www.w3.org/1999/xlink" x="0px" y="0px"
	 viewBox="0 0 225 248" style="enable-background:new 0 0 225 248;" xml:space="preserve">
<path id="path3446" d="M98.1,187.7c-1.7-0.6-3.1-2.6-3.5-5.2c-0.6-3.6,0.7-8.2,3.2-12c0.7-1,0.8-1.2,1.6-2.1l0.4-0.5l-0.8-1
	c-0.4-0.6-1-1.2-1.3-1.5c-0.7-0.8-3.5-3.2-3.9-3.5c-0.3-0.1-0.6-0.1-1.5,0.4c-1.3,0.7-2.9,1.7-3.6,2.4l-0.5,0.4l0.6,1.8
	c0.3,1,0.8,2.6,1.1,3.7c0.4,1.8,0.4,2.2,0.4,5.2c0,2.9-0.1,3.4-0.3,4.6c-0.6,2.1-1.3,3.5-2.5,4.7c-1.1,1.1-2,1.5-3.2,1.5
	c-1.4,0-2.9-1-3.6-2.5c-2.5-4.9-0.1-12.3,5.7-17.9l1.5-1.4l-0.9-1.9c-0.5-1.1-1.2-2.4-1.6-3l-0.7-1.1l-1.3,0.3
	c-2.3,0.6-2.1,0.4-2.2,2.4c-0.3,5.4-2.1,10.9-4.7,14.5c-3.7,5.1-8.7,6.4-10.5,2.5c-0.3-0.6-0.3-1.1-0.3-2.2c0-2.4,0.7-4.4,2.5-7.1
	c2.4-3.6,6.8-7.2,11.4-9l1.4-0.6l-0.1-2c-0.1-1.1-0.1-2-0.2-2.1c-0.2-0.2-1.2-0.4-2.9-0.6l-1.4-0.2l-0.3,0.8
	c-0.2,0.4-0.8,1.5-1.3,2.5c-3.1,5.2-7.6,9-12.3,10.2c-1.7,0.4-4,0.3-5.2-0.2c-1.6-0.7-2.3-1.8-2.4-3.5c-0.1-4.1,5.7-8.3,13.1-9.7
	c1.8-0.3,5.1-0.6,6.7-0.4l1.4,0.1l0.3-0.7c0.2-0.4,0.4-1.2,0.7-2c0.5-1.4,0.7-1.1-1.3-2.6c-1.6-1.2-2.6-1.8-3.5-2.4l-0.7-0.4l-1,1
	c-1.9,2-3.7,3.3-6,4.5c-6.5,3.2-13.7,1.6-13.7-3.2c0-1.1,0.7-2.5,1.6-3.3c0.8-0.8,2.6-1.7,3.9-2.1c1.5-0.4,4.9-0.6,7-0.2
	c2,0.3,4.9,1.3,6.7,2.2l1.3,0.7l0.3-0.3c0.4-0.4,2.5-3.4,3.1-4.7l0.5-1l-0.7-1c-1.2-1.7-2.2-3-4.2-4.9c-0.9-0.9-1.1-1-1.2-0.7
	c-1.6,1.6-4.5,3.4-7.1,4.2c-4.1,1.3-8.1,1-10.4-1.1c-1.2-1.1-1.5-1.7-1.5-3.2c0-1.3,0.2-1.9,1.2-3c0.7-0.8,2.2-1.7,3.7-2.1
	c1.6-0.4,4.3-0.3,6.2,0.2c2.6,0.7,4.9,1.8,7.2,3.5L70,133l1.1-1.1c1.3-1.4,2.5-3,3.5-4.7l0.8-1.3l-0.3-0.5c-0.8-1.6-3.4-5-4.6-6.2
	l-0.4-0.4l-1.4,1c-3.6,2.5-6.7,3.6-10.3,3.6c-3,0-5-0.7-6.3-2.2c-0.9-1.1-1.2-1.7-1.2-3c0-1.4,0.3-2.1,1.5-3.2
	c3.6-3.4,10.8-2.4,16.5,2.3c0.6,0.5,1.2,0.9,1.2,0.9c0.2,0,3-2.9,3.7-3.9c0.7-0.8,0.9-1.2,1.6-2.2l0.4-0.6l-0.6-1
	c-0.7-1.2-2-3.2-2.8-4.3l-0.6-0.8l-1,0.4c-1.6,0.8-3.2,1.4-5.2,2c-1.7,0.4-2,0.4-4.9,0.5c-3.5,0-4.2-0.1-6.1-1.1
	c-1.6-0.6-2.5-1.4-3.1-2.5c-1.3-2.6,0.1-5.1,3.6-6.4c1.6-0.6,4.1-0.6,6.3,0c3,0.8,6.2,2.7,8.9,5.3l1.5,1.4l0.8-0.4
	c0.9-0.5,1.9-1.2,3.5-2.5c0.7-0.5,1.3-1,1.4-1.1c0.2-0.1,0.1-0.4-0.3-1.7c-0.3-0.8-0.7-1.7-0.8-2L76.2,97l-1.4,0.1
	c-2.6,0.2-7.3-0.3-9.9-1.2c-2.6-0.8-5.4-2.3-7.1-3.7c-1-0.8-2.1-2.4-2.5-3.4c-0.3-0.9-0.3-2.5-0.1-3.2c0.9-2.1,4-3.1,7.3-2.3
	c5,1.2,9.9,5.6,13.1,11.8c0.7,1.5,0.8,1.6,1.2,1.5c0.2-0.1,1.1-0.2,2-0.3c1.1-0.2,1.7-0.3,1.8-0.5c0.1-0.2,0.2-0.8,0.2-2v-1.8
	l-1.6-0.7c-6.8-2.9-12-8.1-13.4-13.6c-0.4-1.5-0.4-3.7,0.1-4.7c0.8-1.8,2.5-2.7,4.3-2.4c4.3,0.8,8.6,6.7,10.2,14.2
	c0.4,1.7,0.8,4.7,0.8,5.9v1l0.7,0.2c1.6,0.6,2.7,0.7,2.9,0.6c0.3-0.3,1-1.5,2-3.6l1-2l-1.5-1.4c-5.8-5.6-8.2-13-5.8-17.9
	c0.8-1.6,2.6-2.7,4.1-2.6c2.2,0.3,4.3,2.6,5.2,6.2c0.3,1.1,0.3,1.6,0.3,4.5c0,3.8-0.2,5.4-1.4,8.9l-0.7,2.1l0.3,0.3
	c0.7,0.6,2.8,2,3.9,2.6l1.1,0.6l0.9-0.7c1.2-0.9,3.5-3.2,4.5-4.5l0.8-1l-0.4-0.5c-0.8-1-1-1.2-1.7-2.3c-3.2-5-4.1-10.7-2.2-14.4
	c1.1-2.1,3.2-3.3,5.1-2.8c3,0.8,4.7,5.5,3.8,10.5c-0.5,2.8-1.8,6-3.5,8.5c-0.7,1.1-0.7,0.9,0.7,2.3c1,1,3.2,2.7,4.5,3.5l0.8,0.5
	l1.2-0.7c2.3-1.4,6-4.8,5.7-5.2c-0.1-0.1-0.4-0.6-0.7-1.1c-3.1-4.1-4.5-9.7-3.5-13.8c0.9-3.6,3.9-5.6,6.5-4.3
	c3.5,1.7,4.3,8.4,1.6,14.2c-0.6,1.2-2,3.5-2.8,4.5l-0.4,0.6l0.8,0.9c1.1,1.3,3.2,3.1,5,4.4c0.6,0.4,0.9,0.6,1.2,0.4
	c0.7-0.2,4-2.5,5.4-3.8l0.6-0.6l-1-2.1c-1.7-3.4-2.4-6-2.6-9.2c-0.2-4.5,1.3-7.9,3.9-9.1c1.6-0.7,3.5-0.3,4.6,1.1
	c3.4,4.1,1.8,12.5-3.5,18.4c-1,1.1-1,1,0.1,2.5c1,1.4,1.8,2.5,2.9,3.6l1.1,1.1l1.2-0.6c1.6-0.7,2.8-1.3,2.9-1.5
	c0.1-0.1-0.1-0.8-0.2-1.7c-0.3-2-0.3-7.2-0.1-8.9c0.7-4.4,2.1-7.7,4.1-9.6c1.6-1.6,3.5-2.2,4.9-1.7c1.4,0.4,2.5,2.2,2.9,4.3
	c0.8,5.7-3.5,13-10.2,17.3l-0.9,0.6l0.1,0.7c0.1,0.7,1.1,4.3,1.2,4.4c0.1,0.1,0.8,0,1.7-0.1c1.9-0.1,1.6,0.2,2.5-2.6
	c2.2-7.4,7.2-13.3,12.4-15.1c0.8-0.3,1.5-0.4,2.4-0.4c2.6,0,3.9,1.3,3.9,4c0,2.5-1.2,4.8-3.8,7.4c-3.3,3.3-8.6,5.8-14,6.7
	c-0.8,0.2-1.2,0.3-1.3,0.4c-0.1,0.3-0.6,2.9-0.6,3.1c0,0.1,2.4,1.2,3.7,1.7c1.8,0.7,1.6,0.8,2.9-0.9c3.9-5,9.5-8.2,14.2-8.2
	c2.2,0,3.5,0.4,4.7,1.5c1,0.8,1.3,1.6,1.3,3c0,1.6-0.4,2.6-1.8,3.8c-3.3,3.1-9.9,4.1-16.8,2.5c-1.1-0.2-2.1-0.5-2.2-0.6
	c-0.3-0.1-0.4,0.1-1.1,1.2c-0.4,0.7-1,1.8-1.3,2.5l-0.6,1.2l0.5,0.6c1,1.3,4.5,4.6,5.3,5.1c0.1,0.1,0.6-0.2,1.2-0.8
	c2.7-2.4,6-4.1,9-4.7c1.3-0.3,3.7-0.3,4.9-0.1c2,0.4,3.8,1.7,4.5,3.2c0.4,1,0.4,2.5-0.1,3.5c-1.6,3.4-7.1,4.5-12.8,2.7
	c-1.5-0.4-4.3-1.8-5.5-2.6l-0.9-0.6l-0.3,0.3c-1.3,1.2-4.5,5.8-4.5,6.4c0,0.3,1.6,2.7,2.6,3.9c1.1,1.4,2.8,3.1,3,3.1
	c0.1,0,0.7-0.4,1.5-1c1.5-1.1,4-2.5,5.7-3.1c5-1.7,9.8-0.7,11.4,2.4c0.8,1.7,0.6,3.5-0.8,5c-1.3,1.4-3.3,2.1-6,2.1
	c-3.4,0-7.1-1.3-10.3-3.7c-0.7-0.6-1.4-1-1.5-1c-0.2,0-1.9,1.7-3,3.1c-1,1.2-2.6,3.7-2.6,3.9c0,0.7,3.2,5.2,4.5,6.4l0.3,0.3l0.9-0.6
	c1.2-0.8,4.3-2.3,5.9-2.8c4.6-1.5,9-1,11.3,1.2c1.1,1.1,1.6,2,1.6,3.4c0,1.3-0.4,2.4-1.4,3.2c-1.4,1.2-3.1,1.7-5.7,1.7
	c-4,0-7.8-1.6-11.5-4.8c-0.7-0.6-1.1-0.8-1.2-0.8c-0.8,0.5-4.3,3.8-5.3,5.1l-0.5,0.6l0.6,1.2c0.3,0.7,0.9,1.8,1.3,2.5l0.7,1.2
	l1.7-0.4c2.6-0.7,4.1-0.9,6.4-1c4.8-0.2,8.8,1,11.3,3.2c1.6,1.5,2.2,3.2,1.8,4.9c-0.9,3.6-6.6,4.6-12,2.1c-3-1.3-5.9-3.8-8.2-6.8
	l-1.2-1.6l-0.7,0.3c-0.4,0.2-1.1,0.4-1.5,0.6c-0.4,0.2-1.3,0.6-2,0.8l-1.2,0.6l0.1,0.7c0.1,0.4,0.2,1.2,0.3,1.6
	c0.2,0.8,0.2,0.9,0.7,1c4,0.8,6,1.4,8.6,2.6c3.4,1.6,6.6,4.2,8.3,6.8c1.3,2.1,1.6,2.8,1.6,4.9c0,1.7,0,1.7-0.4,2.4
	c-0.3,0.4-0.7,0.8-1.3,1.1c-1.2,0.6-3,0.6-4.7,0.1c-4.2-1.4-8.3-5.8-10.9-11.5c-0.7-1.5-1.4-3.7-1.8-5.2c-0.2-0.8-0.2-0.8-2.2-0.9
	l-1.3-0.1l-0.3,1.1c-0.2,0.6-0.5,1.7-0.7,2.5c-0.3,1.2-0.3,1.5-0.1,1.6c0.7,0.4,3,2.1,4.2,3.2c4.1,3.6,6.7,8.6,6.8,13
	c0.1,3.9-1.6,6.1-4.4,5.9c-3.5-0.2-6.4-4.6-7.6-11.4c-0.3-1.8-0.2-6.8,0.1-8.9c0.2-1.4,0.2-1.8,0.1-1.9c-0.4-0.3-3.3-1.6-3.7-1.7
	c-0.3-0.1-0.6,0.1-1.5,1.1c-1.2,1.3-2.1,2.5-3.1,3.9c-0.7,1-0.7,1.1-0.4,1.3c1.1,1.2,1.4,1.6,2.2,2.7c1.2,1.7,2.6,4.6,3.1,6.5
	c0.6,2,0.7,4.8,0.3,6.4c-0.4,2.1-1.6,3.8-2.9,4.5c-0.9,0.4-2.5,0.4-3.5,0.1c-1.6-0.7-3-3-3.5-5.6c-0.2-1.1-0.2-1.8-0.2-3.4
	c0.2-3.2,0.8-5.9,2.6-9.2l1-2.1l-0.7-0.7c-1.2-1.2-3.1-2.6-4.8-3.5l-0.7-0.4l-0.9,0.6c-1.6,1.1-3,2.3-4.5,3.8
	c-1.3,1.4-1.4,1.5-1.2,1.8c0.9,1.2,2.6,4,3,4.8c1.2,2.6,1.6,4.6,1.6,7.2c0,4.5-2,7.4-5,7.4c-1.2,0-2-0.3-2.9-1.2
	c-1.4-1.4-2.1-3.4-2.1-6.2c0-4,1.6-8.1,4.4-11.8l0.3-0.4l-1-1.1c-1.8-1.8-5.5-4.7-6.1-4.7c-0.2,0-2.5,1.6-3.7,2.6
	c-1.6,1.3-3,2.7-2.8,2.9c0.1,0.1,0.4,0.6,0.7,1.1c1.6,2.4,2.8,5.5,3.3,8.3c0.3,1.8,0.2,4.4-0.2,5.8
	C103.3,186.8,100.7,188.6,98.1,187.7L98.1,187.7z M101,187.2c1-0.4,1.8-1.4,2.4-2.6c0.7-1.6,0.8-2.5,0.8-4.8
	c-0.1-2.4-0.3-3.8-1.3-6.3c-0.4-1.2-2.1-4.1-2.6-4.9l-0.3-0.4l-0.3,0.4c-0.7,0.8-1,1.1-1.7,2.2c-3.2,4.9-4.1,10.4-2.2,14
	C96.9,187.2,99,188.2,101,187.2z M116,187.2c3.5-1.7,4.1-7.9,1.3-13.7c-0.6-1.2-2.7-4.5-3-4.7c-0.1-0.1-0.4,0.3-0.8,0.9
	c-2.1,2.8-3.5,6.2-3.8,9.5c-0.4,3.6,1,7.1,3.1,8.1C113.7,187.7,115,187.7,116,187.2L116,187.2z M131.2,186.7
	c2.7-1.9,3.4-6.8,1.6-11.6c-1-2.5-2.5-5.1-4.3-7.1l-0.8-0.9l-1,2.1c-1.6,3.4-2.4,6-2.5,9c-0.1,2.4,0.2,4.1,1.1,5.9
	c0.8,1.6,1.3,2.2,2.4,2.7c0.7,0.3,1,0.4,1.9,0.3C130.5,187.2,130.7,187.2,131.2,186.7L131.2,186.7z M85.5,186.3
	c1.8-0.6,3.4-2.9,4.2-5.9c0.3-1.2,0.3-1.8,0.3-4.4c0-2.6-0.1-3.2-0.3-4.8c-0.4-1.8-1.5-5.4-1.7-5.6c-0.2-0.2-2.6,2.2-4,4.1
	c-2.7,3.6-4.3,8.3-3.9,11.5c0.3,2.6,1.5,4.5,3.1,5C84,186.6,84.5,186.6,85.5,186.3L85.5,186.3z M146,184.3c2.6-1.2,3.2-5.9,1.3-10.5
	c-1.1-2.6-2.9-5-5.1-7.3c-1.3-1.2-4-3.3-4.5-3.5c-0.3-0.1-0.8,4.9-0.7,7.6c0.2,4.4,1.3,8.1,3.1,10.9C141.6,184,144,185.1,146,184.3z
	 M71.3,180.5c3.5-1.3,6.9-6.1,8.5-12.1c0.7-2.5,1.4-8,1.1-8c-0.3,0-3,1.2-4.1,1.9c-5.3,3-9.3,7.6-10.5,12.1
	c-0.4,1.5-0.3,3.4,0.1,4.4s1.3,1.8,2.1,2c0.3,0.1,0.7,0.1,0.7,0.2C69.4,181,70.5,180.8,71.3,180.5L71.3,180.5z M159.7,174.9
	c1.2-0.6,1.7-1.3,1.7-2.9c0.1-1.3-0.2-2.2-0.9-3.7c-2.1-4.1-7.7-8.1-13.7-9.7c-1.2-0.3-3.8-0.8-4.1-0.8c-0.1,0-0.1,0.1,0.7,2.4
	c2.2,7.2,6.9,13,11.9,14.8C156.7,175.4,158.6,175.4,159.7,174.9L159.7,174.9z M62.5,168.3c3.6-0.9,7.2-3.5,10.1-7.1
	c1-1.2,2.6-3.8,3.2-5.2l0.3-0.7l-1.3-0.1c-1.6-0.1-4.8,0.1-6.7,0.4c-5.1,1-9.6,3.3-11.6,6.1c-0.8,1.2-1.2,2.1-1.2,3.2s0.3,1.7,1,2.5
	C57.5,168.5,60,168.9,62.5,168.3L62.5,168.3z M118.5,164.1c0.7-0.6,1.6-1.2,1.8-1.3c0.3-0.2,0.6-0.4,0.6-0.4c0-0.2-3.5-1.6-5.3-2.2
	l-1.2-0.4l-1.7,0.6c-1.8,0.6-5,2-5,2.1c0,0.1,0.8,0.7,1.8,1.4c1.1,0.7,2.5,2,3.3,2.8l1.5,1.5l1.5-1.5
	C116.5,165.7,117.7,164.6,118.5,164.1L118.5,164.1z M101,166.8c1.6-1.5,4.1-3.5,5.4-4.1l0.4-0.2l-1.6-0.8c-2.3-1.2-5-2.1-5.7-2
	c-0.7,0.2-3.5,1.1-4.6,1.6l-0.9,0.4l0.6,0.4c0.8,0.7,4.4,4.2,4.9,4.9c0.2,0.3,0.4,0.6,0.4,0.6C100.1,167.6,100.5,167.2,101,166.8
	L101,166.8z M129.7,163.8c0.3-0.4,1.1-1.3,1.7-2c0.6-0.6,1-1.1,1-1.2c0-0.1-2.2-0.8-3.6-1.1l-1.1-0.2l-1.1,0.4
	c-1.1,0.4-4.3,2-4.7,2.3c-0.3,0.2-0.2,0.2,0.6,0.7c1,0.6,3.3,2.2,4.4,3.2l0.7,0.7l0.7-1C128.8,165.1,129.3,164.2,129.7,163.8z
	 M89.7,163.7c0.4-0.3,1.4-0.8,2.2-1.3c1.3-0.7,1.4-0.8,1.2-1.1c-0.4-0.3-2.6-1.7-3.7-2.2c-0.9-0.4-1.1-0.5-2-0.4
	c-1.5,0.2-2.1,0.3-2.1,0.4c-0.1,0.1,0.2,0.6,0.5,1.1c0.3,0.4,1,1.7,1.5,2.8l0.9,1.9l0.4-0.3C88.8,164.5,89.3,164,89.7,163.7
	L89.7,163.7z M137.4,161.5c0.1-0.4,0.4-1.6,0.6-2.4c0.2-0.8,0.4-1.6,0.4-1.6c0-0.1-0.4-0.1-0.9-0.1c-0.8,0-1,0.1-1.9,0.8
	c-0.6,0.4-1.3,1.1-1.7,1.5l-0.7,0.7l1.9,1c1.1,0.5,2,1,2,1C137.2,162.4,137.3,162,137.4,161.5L137.4,161.5z M111.9,160.2
	c1-0.3,1.8-0.7,1.7-0.7c-0.1,0-0.7-0.1-1.5-0.2c-2.4-0.4-5-0.6-7.1-0.4c-2.4,0.2-4.1,0.4-4.1,0.7c0,0.1,0.1,0.1,0.2,0.1
	c0.3,0,3.5,1.3,4.8,2l1.2,0.6l1.5-0.7C109.4,161.1,110.9,160.5,111.9,160.2L111.9,160.2z M122.6,161.3c0.6-0.3,1.8-1,2.8-1.3
	c2-0.8,2-0.8-1-1.1c-2.1-0.2-4.7-0.1-7.1,0.2c-2.5,0.4-2.5,0.4-1.2,0.8c1.3,0.4,3.2,1.2,4.3,1.7c0.4,0.2,0.8,0.4,0.9,0.4
	C121.4,161.9,122,161.6,122.6,161.3z M94.8,161c0.6-0.2,1.7-0.7,2.5-1c0.8-0.3,1.6-0.6,1.7-0.6c0.2-0.2-3.1-0.7-5.4-0.9
	c-1.2-0.1-2.6-0.1-3.3-0.1l-1.2,0.1l0.7,0.4c1,0.6,3,1.7,3.5,2.1c0.3,0.2,0.4,0.3,0.4,0.3C93.8,161.4,94.2,161.3,94.8,161z
	 M165.1,160.9c2.5-0.7,3.9-2.6,3.4-4.6c-0.3-1.1-0.8-1.9-1.8-2.9c-2.6-2.5-7.5-3.6-12.8-3c-1.4,0.2-4.1,0.7-5.5,1.1l-0.7,0.2
	l1.3,1.6c2.2,2.8,4.8,4.9,7.6,6.4C159.4,161.1,162.6,161.6,165.1,160.9L165.1,160.9z M134.5,158.8c0.3-0.3,0.8-0.7,1-0.8l0.4-0.3
	l-1,0.1c-1.3,0.1-3.6,0.6-5.3,1l-1.3,0.3l1.3,0.3c0.7,0.2,1.7,0.4,2.2,0.7l0.8,0.3l0.6-0.5C133.7,159.6,134.2,159.1,134.5,158.8
	L134.5,158.8z M83.6,159.1c0.4-0.1,0.8-0.2,0.8-0.2c0-0.1-0.4-0.6-0.8-1.2c-0.8-1.1-0.9-1.2-1.7-1.5c-0.4-0.2-0.8-0.2-0.8-0.2
	s0.1,0.9,0.1,2l0.1,2l0.8-0.3C82.5,159.5,83.2,159.3,83.6,159.1z M101.6,158.9c3.5-0.7,7.8-0.6,11.2,0.1c1.5,0.3,1.6,0.3,2.7,0.1
	c0.6-0.1,1.7-0.3,2.4-0.4c1.7-0.3,7-0.2,8.7,0.1c1.2,0.2,1.3,0.2,2.5-0.2c1.6-0.5,4.6-1.1,6.2-1.2c1.1-0.1,1.4-0.2,1.7-0.4
	c0.2-0.2,0.8-0.6,1.3-1c1-0.6,1-0.6,2-2.7l1.1-2.2l0.1-1.8c0.2-2.9,0.4-4.6,0.8-6.7l0.4-2l-0.3-1.4c-0.4-2.1-0.4-8.7,0.1-10.8
	c0.2-0.8,0.3-1.8,0.3-2.2s-0.2-1.4-0.3-2.2c-0.4-2.1-0.4-8.7-0.1-10.8c0.3-1.4,0.3-1.5-0.1-2.7c-0.6-2.3-0.7-3.7-0.9-6.5l-0.2-2.7
	l-0.9-1.8c-0.5-1.1-0.9-2-0.9-2.1s-0.5-0.5-1.1-0.9c-0.6-0.4-1.3-0.9-1.6-1.1c-0.4-0.3-0.7-0.4-1.8-0.5c-1.6-0.1-3.7-0.6-5.9-1.1
	c-1.3-0.4-1.5-0.4-2.6-0.2c-3.1,0.4-7.2,0.3-10.5-0.2c-1.7-0.3-1.7-0.3-4,0.1c-3.6,0.6-7.2,0.6-10.7-0.1c-1.3-0.2-1.3-0.2-3.3,0.2
	c-2.6,0.6-5.6,0.8-7.7,0.7l-1.7-0.1L87,94.3c-0.8,0.3-2.1,0.8-2.8,1.1c-1.2,0.4-1.3,0.4-2.4,1.7l-1.1,1.3l-0.3,1.8
	c-0.4,1.8-1.2,4.6-1.4,5.1c-0.1,0.2-0.1,0.7,0,1.7c0.3,3.1,0.1,7.7-0.6,10.5c-0.2,1-0.2,1.2,0.1,2.6c0.6,3.2,0.6,9.1-0.1,12.4
	c-0.2,1-0.2,1.2,0,2.1c0.6,2.7,0.9,7.8,0.6,10.6c-0.1,1.1-0.1,1.2,0.4,3.1c0.3,1.1,0.8,2.7,1,3.7c0.3,1.5,0.4,1.8,0.8,2.3
	c0.3,0.3,0.7,0.8,1.1,1.2c0.4,0.6,0.7,0.7,1.3,0.9c0.4,0.1,1.6,0.6,2.6,1l2,0.8l3.1,0.1c3.2,0.1,5,0.2,7.4,0.8
	c0.6,0.2,1.2,0.3,1.4,0.2C100.4,159.3,100.9,159.1,101.6,158.9L101.6,158.9z M86.7,158.5l1.1-0.2l-1-0.4c-0.6-0.2-1.6-0.7-2.3-0.9
	l-1.2-0.4l0.8,1.2c0.7,1,0.8,1.1,1.2,1.1C85.4,158.7,86.1,158.6,86.7,158.5L86.7,158.5z M142.2,157.2c0-0.1-0.1-0.4-0.2-0.9
	c-0.1-0.4-0.2-1-0.2-1.3c-0.1-0.3-0.2-0.6-0.2-0.6c-0.1,0-0.6,0.2-1,0.6c-0.8,0.4-0.9,0.6-1.2,1.3c-0.2,0.4-0.3,0.8-0.3,0.8
	s0.3,0.1,0.7,0.1C141.3,157.3,142.2,157.3,142.2,157.2L142.2,157.2z M139,156.4c0.2-0.4,0.2-0.6,0.1-0.6c-0.9,0.6-1.8,1.2-1.8,1.2
	s0.3,0.1,0.7,0.1C138.6,157.1,138.7,157,139,156.4z M81.7,155.1c-0.3-0.4-0.7-0.7-0.7-0.7s0,0.3,0.1,0.6c0.1,0.4,0.2,0.6,0.6,0.7
	c0.3,0.1,0.6,0.2,0.6,0.2C82.3,155.9,82,155.6,81.7,155.1L81.7,155.1z M80.7,154.9c-0.1-0.3-0.1-0.6-0.1-0.8c0-0.2-0.6-0.9-1.3-1.6
	l-1.3-1.3l-0.6,1.7c-0.3,0.9-0.6,1.7-0.6,1.8c-0.1,0.1,2.7,0.6,3.7,0.7C80.7,155.5,80.8,155.4,80.7,154.9z M141.6,152.9
	c-0.1-0.6-0.1-1.1-0.1-1.1c0-0.1-0.4,0.6-0.8,1.5c-0.4,0.8-0.7,1.6-0.8,1.6c-0.1,0.1,0.3-0.1,0.8-0.4l0.9-0.6L141.6,152.9
	L141.6,152.9z M59.6,153.6c1.7-0.2,3.4-0.8,5.3-1.8c2-1,3.3-2,5.1-3.7l1.3-1.3l-0.3-0.3c-1.1-0.8-5.7-2.4-8.1-2.7
	c-1.7-0.3-5-0.1-6.3,0.3c-1.3,0.4-2.7,1.1-3.6,1.9c-0.8,0.7-1.6,2.2-1.6,3.1C51.3,152.3,55,154.2,59.6,153.6L59.6,153.6z
	 M145.6,152.2l1.6-0.6l-0.6-1.1c-0.3-0.6-0.9-1.7-1.3-2.4l-0.7-1.3l-0.3,0.4c-0.2,0.2-0.8,1.2-1.4,2.1l-1.1,1.7v1.1
	c0,0.6,0.1,1.2,0.1,1.4c0.1,0.3,0.1,0.3,1.1-0.2C143.6,153,144.8,152.5,145.6,152.2L145.6,152.2z M80,151.4c-0.2-0.9-0.6-2.2-0.8-3
	l-0.4-1.4l-0.1,0.8c-0.1,0.4-0.2,1.3-0.4,1.9l-0.3,1.1l1.2,1.1c0.7,0.6,1.2,1.1,1.2,1.1C80.4,153,80.3,152.3,80,151.4z M78,149.4
	c0.7-2.9,0.7-2.8,0.2-4c-0.4-1-1.6-3.3-2.1-4.3l-0.3-0.4l-0.4,0.8c-0.7,1.3-2.1,3.4-2.7,4.3c-0.5,0.6-0.6,0.8-0.4,0.9
	c0.1,0.1,0.6,0.4,1.1,0.7c0.5,0.3,1.7,1.1,2.6,1.8c0.9,0.7,1.7,1.3,1.8,1.3C77.8,150.5,77.9,150,78,149.4z M142.8,148.8
	c0.6-0.8,1.1-1.7,1.3-2l0.3-0.5l-0.7-2.2c-0.4-1.2-0.7-2.3-0.7-2.5c0-0.7-0.3-0.1-0.6,1.4c-0.4,1.8-1,7.4-0.7,7.2
	C141.8,150.3,142.3,149.6,142.8,148.8L142.8,148.8z M146.9,143.8c1.5-1.5,3.5-3.3,3.8-3.3c0.1,0-0.2-0.3-0.6-0.7
	c-1.3-1.3-2.9-3.5-3.8-5.2c-0.2-0.3-0.4-0.7-0.4-0.7c-0.2,0-1.7,3.4-2.3,5.4l-0.4,1.3l0.3,1.4c0.2,0.8,0.6,2.1,0.8,2.8l0.5,1.3
	l0.3-0.4C145.3,145.4,146.1,144.5,146.9,143.8L146.9,143.8z M166,145.8c4.3-1,5.7-4.8,3-7.4c-1.3-1.3-3.9-2.2-6.2-2.2
	c-3,0-7.4,1.5-10.4,3.5c-1.2,0.8-1.3,0.7,0.6,2.2c2.5,2.1,5,3.3,7.9,3.9C162,146.1,164.8,146.1,166,145.8L166,145.8z M78.9,141.9
	c0.1-2.5-0.3-6.1-0.7-7.2c-0.1-0.1-0.3,0.4-0.5,1.2s-0.7,2.1-1.1,3l-0.7,1.6l0.6,0.8c0.6,1,2.1,4,2.1,4.3
	C78.7,146.3,78.9,143.6,78.9,141.9z M76.5,138.2c0.4-1,0.9-2.5,1.1-3.2l0.4-1.5l-0.6-1.7c-0.6-2-1.5-4-1.9-4.8l-0.3-0.4l-0.7,1.2
	c-1,1.6-2.2,3.2-3.5,4.5l-1.1,1.1l1.6,1.6c1.5,1.5,3.6,4.2,3.9,4.9c0.1,0.2,0.1,0.3,0.2,0.2C75.7,140,76.1,139.2,76.5,138.2z
	 M143.8,137.5c0.3-0.7,0.8-2,1.2-2.7l0.7-1.4l-0.6-1.3c-0.3-0.7-0.9-2.2-1.3-3.3c-0.7-2.2-0.7-2.3-1.1,0.8
	c-0.3,2.7-0.3,7.3,0.2,10.2c0,0.1,0.1-0.1,0.2-0.4C143.2,139.1,143.5,138.3,143.8,137.5L143.8,137.5z M59.7,138.3
	c3.1-0.5,6.6-2.2,9-4.3l0.7-0.6l-1.5-1c-3.5-2.4-6.7-3.6-10-3.6c-3.3,0-5.8,1.2-6.9,3.4c-0.4,0.8-0.4,2.4,0.1,3.2
	C52.5,137.8,55.8,138.9,59.7,138.3L59.7,138.3z M146.7,131.8c1-1.5,2.9-3.9,4-4.9l0.8-0.8l-0.8-0.8c-1.1-1.1-3-3.4-4-4.9
	c-0.4-0.7-0.8-1.2-0.8-1.2c-0.3,0-2.5,6-2.5,6.9s2.2,6.9,2.5,6.9C146,133,146.3,132.5,146.7,131.8z M78.5,130.3
	c0.4-3,0.3-7.4-0.2-10l-0.2-0.8l-0.5,1.5c-0.6,2-1.3,3.7-1.8,4.4l-0.3,0.6l0.8,1.7c0.8,1.8,1.7,4.3,1.7,4.9
	C78,133.1,78.3,132,78.5,130.3z M165.8,130.6c4.4-0.9,6.1-4.6,3.4-7.4c-3.2-3.3-10-2.6-15.7,1.7c-0.7,0.6-1.3,1.1-1.3,1.1
	c0,0.2,2.1,1.7,3.3,2.5c1.7,1,4.2,1.9,6.2,2.2C162.6,130.9,164.8,130.8,165.8,130.6L165.8,130.6z M76.5,123.2c0.3-0.8,0.8-2.2,1.1-3
	l0.4-1.6l-0.4-1.6c-0.2-0.8-0.7-2.3-1.1-3.2c-0.6-1.5-0.7-1.7-0.8-1.5c-1.3,2-2.6,3.5-4.1,5c-0.7,0.7-1.3,1.3-1.3,1.4
	c0,0.1,0.4,0.6,0.9,1.1c1.3,1.4,3.2,3.9,3.9,5.3l0.3,0.5l0.3-0.5C75.7,124.8,76.1,123.9,76.5,123.2z M145.1,120l0.6-1.3l-0.7-1.5
	c-0.7-1.5-1.8-4.3-1.8-4.6c0-0.1-0.1-0.2-0.1-0.1c-0.1,0.1-0.2,0.8-0.3,1.7c-0.4,3-0.3,7.2,0.3,10.6c0.1,0.6,0.1,0.6,0.7-1.4
	C144.1,122.3,144.7,120.8,145.1,120z M61.1,122.9c1.3-0.3,3-0.9,4.5-1.7c1.5-0.7,3.7-2.4,3.7-2.6c-0.1-0.1-0.4-0.4-0.8-0.8
	c-3-2.4-6.1-3.7-9.3-4.2c-1.7-0.2-3.5-0.1-4.9,0.6c-1.1,0.4-2.5,1.6-3,2.5c-1.4,2.8,0.9,5.8,4.9,6.4
	C57.3,123.3,59.7,123.2,61.1,122.9z M146.3,117.5c1-1.7,2.5-3.9,3.8-5.2c0.4-0.4,0.6-0.7,0.6-0.7c-0.4,0-4.6-3.9-5.5-5.1l-0.3-0.4
	l-0.5,1.3c-0.3,0.7-0.7,2-0.8,2.8l-0.4,1.4l0.6,1.7c0.6,1.7,2,4.9,2.2,4.9C145.9,118.2,146.1,117.9,146.3,117.5L146.3,117.5z
	 M78.3,116.8c0.4-2.5,0.6-4.5,0.6-6.4c0-1.8-0.2-4.5-0.3-3.9c-0.1,0.3-1.2,2.8-2,4.1l-0.7,1.2l0.3,0.7c0.5,1.1,1.2,3.1,1.5,4.1
	c0.2,0.6,0.3,1,0.4,1C78.2,117.4,78.3,117.1,78.3,116.8L78.3,116.8z M165,115.5c0.7-0.1,1.7-0.4,2.3-0.7c4.6-2.2,3.7-7.4-1.5-8.6
	c-4.1-1-9.5,0.9-13.7,4.7l-0.9,0.8l1.5,0.9C156.8,115.2,161.3,116.2,165,115.5L165,115.5z M77.2,108.6c1.5-3,1.4-2.7,1.1-4.3
	c-0.4-2.2-0.7-3.1-0.8-2.8c-0.2,0.3-3.6,2.7-4.9,3.5l-0.7,0.4l0.3,0.4c1,1.3,2.4,3.3,2.9,4.3c0.6,1.1,0.6,1.1,0.8,0.8
	C76.2,110.7,76.7,109.7,77.2,108.6L77.2,108.6z M143.1,110.2c0-0.1,0.3-1.2,0.7-2.4l0.7-2.2l-0.4-0.6c-0.2-0.3-0.8-1.2-1.3-2
	c-0.5-0.8-1-1.4-1-1.3c-0.1,0.1,0.2,4.5,0.4,5.4c0.3,2,0.7,3.3,0.8,3.3C143.1,110.5,143.1,110.4,143.1,110.2z M63.5,108.1
	c1.7-0.3,4.1-1,5.8-1.8c2.2-1,2.2-0.8,0.8-2.2c-3.2-3.2-7.1-5.3-10.8-5.8c-4.4-0.6-8.1,1.6-8.1,4.7c0,0.7,0.6,2,1.2,2.7
	c0.9,1.1,2.9,2.1,4.9,2.5C58.5,108.4,62.1,108.3,63.5,108.1z M146.7,101.5l0.6-1l-1.3-0.5c-0.7-0.3-1.9-0.8-2.6-1.1
	s-1.2-0.6-1.3-0.5c-0.1,0.1-0.1,0.7-0.2,1.4c-0.1,1.3-0.1,1.3,0.6,2.4c0.3,0.6,1,1.6,1.4,2.1l0.8,1.1l0.7-1.5
	C145.9,103.1,146.4,102,146.7,101.5L146.7,101.5z M79.3,103.6c0.3-1.1,1.2-4.4,1.2-4.6c0-0.1-0.6,0.4-1.2,1.1l-1.2,1.2l0.2,0.7
	c0.1,0.4,0.3,1.2,0.4,1.8s0.2,1.1,0.2,1.1C78.8,104.8,79.1,104.3,79.3,103.6L79.3,103.6z M159.2,101.6c3.1-0.4,5.9-1.5,7.5-3
	c2.4-2.2,2.5-4.9,0.1-6.6c-3.5-2.6-10.2-0.8-15.3,4c-1.5,1.3-3.8,4.3-3.6,4.4c0.3,0.3,4,1.1,6.1,1.3
	C155.1,101.8,158.1,101.7,159.2,101.6z M79.6,99.2c0.8-0.8,1-1.1,1.1-1.7c0.1-0.4,0.1-0.8,0.1-0.8c-0.1-0.1-0.8,0.1-1.7,0.2
	c-2.5,0.4-2.4,0.3-2.3,0.7c0.1,0.2,0.3,1,0.7,1.8l0.6,1.6l0.4-0.3C78.5,100.2,79.1,99.7,79.6,99.2z M141.5,98.1
	c-0.1-0.1-0.2-0.2-0.3-0.2c-0.1,0-0.4-0.2-0.8-0.4c-0.4-0.2-0.6-0.3-0.6-0.3c0.1,0.1,0.4,0.8,0.8,1.7l0.7,1.6l0.1-1.1
	C141.6,98.7,141.6,98.2,141.5,98.1z M82.4,96.1c-0.1-0.1-0.3,0.1-0.7,0.2c-0.6,0.2-0.7,0.2-0.7,0.6c0,0.2-0.1,0.6-0.1,0.7
	c-0.1,0.2,0.3-0.1,0.7-0.6C82.1,96.5,82.4,96.1,82.4,96.1z M141.8,97.3c0.3-1.7,0.4-2.5,0.3-2.6c-0.1-0.1-0.8-0.1-1.6,0.1l-1.6,0.1
	l0.3,0.7c0.2,0.4,0.3,0.8,0.3,0.8c0,0.2,1.8,1.3,2,1.3C141.7,97.7,141.7,97.5,141.8,97.3L141.8,97.3z M76,96.7
	c0.1-0.1-0.2-0.6-0.5-1.2c-2.1-4.1-5.4-7.9-8.6-9.9c-3.5-2.1-6.9-2.8-9.2-1.7c-3.8,1.7-2.8,6.3,2.1,9.5c3.6,2.4,9.2,3.7,14.4,3.5
	C75.1,96.8,75.9,96.8,76,96.7L76,96.7z M138.9,95.6l-0.3-0.8h-0.7c-0.4,0-0.7,0.1-0.7,0.2c0.1,0.1,1.9,1.3,2,1.3
	C139.2,96.3,139.1,96,138.9,95.6L138.9,95.6z M82.2,95.7c0.5-0.2,0.7-0.3,1.4-1.3c0.4-0.6,0.8-1.2,0.8-1.2c0-0.1-0.6-0.3-1.2-0.4
	c-0.7-0.2-1.4-0.4-1.6-0.4c-0.3-0.1-0.3-0.1-0.4,1.8c-0.1,1.7,0,2,0.2,1.8C81.5,96,81.9,95.8,82.2,95.7z M86.9,94.1l1.1-0.4
	l-1.1-0.1c-0.6-0.1-1.3-0.2-1.6-0.2c-0.4-0.1-0.5-0.1-1.1,0.8c-0.3,0.5-0.7,1.1-0.8,1.1C83.3,95.5,85.1,94.9,86.9,94.1L86.9,94.1z
	 M138.4,94.2c-0.2-0.6-1-3.4-1.1-4l-0.1-0.6l-1.1,0.6c-0.6,0.3-1.5,0.7-2,0.9c-0.4,0.2-0.9,0.4-0.9,0.4c0,0.1,2.1,2,2.8,2.6
	c0.4,0.3,0.7,0.3,1.5,0.3C138.4,94.5,138.5,94.5,138.4,94.2L138.4,94.2z M135.5,94.1c-0.3-0.2-1.3-1.1-2.1-1.8l-0.6-0.6l-1.8,0.6
	c-1.1,0.3-2,0.6-2.2,0.6c-0.6,0-0.1,0.3,1.3,0.6c1.7,0.4,4.4,0.9,5.1,0.9C135.7,94.3,135.8,94.3,135.5,94.1L135.5,94.1z M144.2,94
	c5.4-1,10.2-3.3,13.4-6.5c2.7-2.7,3.9-5,3.8-7.4c-0.1-1.1-0.1-1.3-0.5-1.9c-1-1.5-3.1-1.9-5.4-1.1c-4.2,1.4-8.3,5.8-10.9,11.5
	c-0.9,2.1-2.1,5.6-1.8,5.6C142.8,94.2,143.5,94.1,144.2,94L144.2,94z M94,93.4c2-0.2,5.4-0.8,4.9-0.9c-0.6-0.1-3-1-4.1-1.4l-1.1-0.4
	l-1.1,0.7c-1.5,1-3,1.8-3.2,1.9c-0.1,0,0.1,0.1,0.3,0.2C90.3,93.6,92.1,93.6,94,93.4z M89.4,92.8c0.6-0.3,1.4-0.8,1.8-1.1
	c0.4-0.3,1.1-0.7,1.4-0.9l0.6-0.4l-1.4-0.8c-1.6-0.9-2.8-1.7-3.4-2.2l-0.4-0.4l-1,2.1c-0.6,1.1-1.1,2.2-1.2,2.4
	c-0.7,1.1-0.9,1.5-0.7,1.5c0.1,0,0.8,0.1,1.5,0.2c0.7,0.1,1.3,0.2,1.5,0.2C88.3,93.4,88.8,93.2,89.4,92.8z M111.4,92.8
	c0.8-0.1,1.6-0.3,1.8-0.3c0.1-0.1-0.6-0.4-1.6-0.7c-1-0.3-2.5-1-3.2-1.3l-1.3-0.7l-1.6,0.8c-0.8,0.4-2.3,1.1-3.2,1.3l-1.7,0.6
	l1.2,0.2C104.9,93.3,108.5,93.3,111.4,92.8L111.4,92.8z M126,93c0.4-0.1,0.7-0.2,0.7-0.2c0-0.1-0.3-0.2-0.7-0.4
	c-1-0.4-3.6-1.7-4.3-2.1c-0.4-0.3-0.5-0.3-1.1-0.1c-0.8,0.4-4,1.7-4.8,1.8c-0.4,0.1-0.7,0.2-0.7,0.3c0.1,0.1,2.2,0.4,4.1,0.7
	C120.1,93.3,125.1,93.1,126,93L126,93z M130.6,92c0.9-0.3,1.7-0.5,1.8-0.6c0.1-0.1-0.3-0.6-0.9-1.2c-1.1-1.1-2.4-2.9-3.2-4.1
	c-0.2-0.4-0.4-0.7-0.5-0.8c-0.1-0.1-0.3,0.2-0.7,0.6c-1.3,1.2-4.8,3.7-5.2,3.7c-0.1,0-0.1,0.1-0.1,0.2c0,0.2,4,2.2,5,2.6
	C127.5,92.7,128.5,92.6,130.6,92L130.6,92z M101.9,91.8c1.8-0.7,3.4-1.3,4.1-1.8l0.5-0.3l-0.8-0.5c-1.5-0.9-3.6-2.6-4.7-3.6
	l-1.1-1.1l-0.4,0.6c-0.7,0.9-3.6,3.9-4.7,4.7L94,90.4l0.7,0.3c1.2,0.6,4.6,1.6,5.1,1.6C100.1,92.3,101,92.1,101.9,91.8L101.9,91.8z
	 M115.9,91.9c1.6-0.4,4.3-1.6,4.8-1.9c0.2-0.2,0.2-0.2-0.3-0.6c-1.4-1-3.3-2.5-4.6-3.9l-1.5-1.5l-0.9,1c-1.2,1.3-3.1,2.9-4.6,3.8
	c-0.7,0.4-1.2,0.8-1.1,0.9c0.3,0.3,5.9,2.6,6.7,2.6C114.3,92.3,115,92.2,115.9,91.9L115.9,91.9z M80.9,90.2C80.7,87.4,80,84,79,81.3
	c-2-5.5-6-9.9-9.3-10.1C68.5,71,68,71.2,67.2,72c-0.9,0.8-1.2,1.8-1.2,3.4c0,4.9,4.4,10.9,10.6,14.3c1.4,0.8,4,2,4.3,2
	C80.9,91.7,80.9,91,80.9,90.2z M140.1,87.3c5-3.7,8.3-9.4,8.3-14.2c0.1-2.7-0.9-4.6-2.6-5.4c-2.2-1-5,0.9-6.8,4.6
	c-0.8,1.6-1.1,2.4-1.5,4.5c-0.7,3.2-0.8,7.8-0.2,11.4l0.2,1l0.8-0.6C138.7,88.2,139.6,87.7,140.1,87.3L140.1,87.3z M88.7,84.6
	c0.3-1,0.8-2.6,1-3.6c0.3-1.6,0.4-2.2,0.4-4.9c0-2.7-0.1-3.2-0.3-4.5c-0.8-3.4-2.8-5.8-5-6.2c-1.7-0.3-3.6,1.4-4.3,4
	c-1,3.6,0.3,8.6,3.5,12.8c1.2,1.6,3.8,4.3,4.1,4.3C88,86.4,88.3,85.6,88.7,84.6L88.7,84.6z M130.2,81.9c4-5.8,4.8-12.5,1.8-15.9
	c-2.1-2.4-5.1-1.6-6.7,1.9c-0.8,1.8-1.2,3.5-1.1,5.9c0.2,3.1,0.8,5.7,2.5,9l1,2.1l0.8-0.9C129.1,83.4,129.8,82.5,130.2,81.9z
	 M100.6,82.9c4.1-6.2,4.8-13.7,1.6-17.2c-3-3.2-7-0.5-7.4,5c-0.2,3.2,1,7.1,3.2,10.5c0.4,0.7,0.8,1.2,0.8,1.3
	c0.1,0.1,0.3,0.3,0.6,0.7c0.2,0.3,0.4,0.6,0.6,0.6S100.4,83.3,100.6,82.9z M115.6,81.5c3-4.5,4-9,3.1-12.8c-0.4-1.9-1.5-3.3-2.9-4
	c-3.5-1.7-6.7,2.7-6.1,8.2c0.4,3.3,1.7,6.7,3.8,9.5c0.4,0.6,0.7,0.9,0.8,0.9C114.4,83.3,115,82.5,115.6,81.5L115.6,81.5z"/>
</svg>
