<?xml version="1.0" encoding="utf-8"?>
<!-- Generator: Adobe Illustrator 28.0.0, SVG Export Plug-In . SVG Version: 6.00 Build 0)  -->
<svg version="1.1" id="Layer_1" xmlns="http://www.w3.org/2000/svg" xmlns:xlink="http://www.w3.org/1999/xlink" x="0px" y="0px"
	 viewBox="0 0 225 232.9" style="enable-background:new 0 0 225 232.9;" xml:space="preserve">
<path id="path3448" d="M118.9,225.7c-0.1-0.2-0.3-1.3-0.5-2.4c-1.4-7-5.5-17.6-10-25.3l-1-1.8l-0.6,0.7
	c-5.4,6.8-12.5,19.6-13.9,25.5c-0.3,1.4-0.7,2-1,1.7c-0.1-0.1-0.1-1.4,0-2.8c0.6-6.8-1.4-20.8-4.1-28.7c-0.2-0.5-3.9,2.6-8.3,6.9
	c-5.3,5.2-9.9,10.7-12.2,14.8c-1.1,2-1.4,1.5-0.6-1c0.8-2.6,1.8-6.9,2.2-10.1c1.1-7.7,1.5-19.6,0.6-19.6c-0.2,0-1.9,0.8-4,1.8
	c-7.6,3.7-15,8.5-19.6,12.9c-1.4,1.3-2.5,2.2-2.6,2.1s0.4-1.1,1.1-2.3c2.5-4.1,4.8-9.3,6.8-15.5c1.1-3.4,3.4-12.1,3.2-12.2
	c-0.2-0.2-7.3,1.4-10.5,2.2c-6.2,1.6-12.9,4.2-16.8,6.4c-2.4,1.4-3.1,1.3-1.4-0.2c3.2-2.8,8.5-9.8,12.3-16.1
	c1.9-3.3,4.8-8.7,4.5-8.9c-0.2-0.2-8.6-0.6-11.2-0.6c-6,0-13.5,0.9-17.6,2.1c-1.8,0.6-2.2,0.6-2.2,0.2c0-0.1,1-0.7,2.2-1.4
	c2.1-1.1,6.7-4.4,8.5-5.9c4.5-3.8,8.6-8,12.6-12.6l0.6-0.7l-2.4-0.9c-7.8-3-17.7-4.9-24.9-5.2c-1.8-0.1-3.4-0.1-3.4-0.1
	s0-0.2,0.2-0.2c0.2-0.2,1.3-0.6,2.5-0.9c4.6-1.3,11.3-4.2,16.4-7.1c2.4-1.4,9.2-5.7,9.2-5.9s-6.8-4.5-9.2-5.9
	c-5.1-3-11.8-5.9-16.4-7.1c-1.3-0.3-2.4-0.7-2.5-0.9c-0.2-0.2-0.2-0.2-0.2-0.2c0.1,0,1.6-0.1,3.4-0.1c7.2-0.2,17.1-2.2,24.9-5.2
	c1.9-0.7,2.3-1,2.1-1.2c-0.2-0.2-0.9-1-1.5-1.8c-3.1-3.6-7.2-7.6-11.4-11.3c-1.8-1.5-6.4-4.7-8.5-5.9c-1.2-0.6-2.2-1.3-2.2-1.4
	c0-0.4,0.4-0.4,2.2,0.2c4.1,1.2,11.6,2.1,17.6,2.1c2.7,0,11-0.5,11.2-0.6c0.1-0.1-1-2.2-2.9-5.7c-3.4-6.5-8.4-13.3-12.6-17.7
	c-1.4-1.4-2.4-2.6-2.3-2.7c0.1-0.1,1.1,0.4,2.2,1c3.9,2.2,10.5,4.8,16.8,6.4c3.1,0.8,10.4,2.2,10.5,2.2c0.1-0.1-0.4-2.1-1-4.5
	c-2.4-10.3-5.6-18.4-9.3-24.3c-0.5-0.7-0.7-1.4-0.6-1.5c0.1-0.2,1.2,0.8,2.6,2.1c4.5,4.3,12,9.2,19.6,12.9c2.1,1,3.9,1.8,4.1,1.8
	c0.9,0,0.5-12-0.6-19.6c-0.5-3.1-1.4-7.5-2.2-10.1c-0.8-2.5-0.5-3,0.6-1c1.8,3.3,5.9,8.5,9.6,12.2c4.3,4.4,10.7,10,10.9,9.6
	c0.2-0.3,1.6-5.7,2.2-8.8c1.5-7,2.3-15.5,1.9-20c-0.1-1.4-0.2-2.6,0-2.8c0.3-0.3,0.6,0.3,1,1.7c1.4,5.9,8.5,18.9,13.9,25.5l0.6,0.7
	l1-1.8c1.9-3.4,5.2-10.3,6.3-13.2c2-5.3,2.9-8.1,3.7-12c0.3-1.5,0.6-2.7,0.8-2.8c0.2,0,0.3,1,0.4,2.4c0.4,5.2,1.4,10.6,3.4,17.1
	c1.1,3.8,3.8,10.8,4.2,11.3c0.2,0.2,0.6-0.1,3.4-3.3c1.4-1.4,4.2-5,6.2-7.5c2.2-2.8,5.4-8.1,7.1-11.4c1.8-3.6,2.5-4.2,1.9-1.8
	c-1.6,6.9-1.5,18,0,28.9l0.2,1.9l2.4-1.5c3.1-2,7-4.7,9.9-7c3.1-2.5,8.2-7.5,10.1-9.9c0.9-1,1.6-1.9,1.7-1.9c0.5,0,0.4,0.5-0.4,1.9
	c-3,5.9-5.6,16.4-6.6,26.3l-0.3,3l0.7-0.2c1.4-0.3,7.9-2.6,11.1-4c5.6-2.3,11.3-5.5,14.9-8.4c1.5-1.1,2.2-1,1.1,0.1
	c-2.3,2.5-5.7,7.7-8.5,13.3c-2.7,5.4-6.1,13.6-5.7,14c0.2,0.2,8.6-0.4,12.1-1c6.3-0.9,12.1-2.4,16-4.1c1.1-0.5,2.2-0.8,2.2-0.6
	c0.1,0.1-0.8,1-2,1.8c-4.6,3.4-10.8,10-15.2,16.1c-2.6,3.5-3.8,5.6-3.7,5.7c0.3,0.2,5.7,1.4,9.8,1.9c7,1,16,1.1,19.9,0.2
	c1-0.2,1.7,0,1.1,0.4c-0.2,0.2-0.9,0.5-1.5,0.7c-3.3,1.2-8.4,4.1-13.3,7.4c-4.4,3-11.3,8.8-11,9.2c0.2,0.3,6.6,3.4,9.3,4.5
	c6,2.5,12.1,4.2,16.9,4.9c1.6,0.2,2.9,0.6,2.9,0.6c0,0.2-1.3,0.4-2.9,0.6c-5.2,0.8-12,2.9-18.5,5.7c-2.6,1.1-7.3,3.5-7.7,3.8
	c-0.1,0.1,0.6,0.9,1.4,1.7c7,6.2,15.3,11.8,21.6,14.4c1.2,0.5,2.3,1,2.5,1.1c0.4,0.2,0.2,0.6-0.2,0.6c-0.2,0-1.3-0.2-2.3-0.3
	c-2.5-0.4-10.5-0.4-14,0c-4.6,0.5-13.5,2.1-14,2.5c-0.1,0.1,0.5,1.2,1.4,2.5c5.4,8,12.1,15.2,17.5,19.3c1.2,0.9,2.1,1.7,2,1.8
	c-0.1,0.1-1.1-0.2-2.2-0.6c-4.1-1.8-10.7-3.4-16.8-4.2c-3.5-0.5-8.3-0.9-10.1-0.9c-1.5,0-1.5-0.3-0.1,3.4c2.2,5.7,5.4,12.7,8.1,16.9
	c1.5,2.4,4,5.9,5,7c1.1,1.2,0.4,1.3-1.1,0.1c-3.8-2.9-9.3-6-14.9-8.4c-3.2-1.4-9.7-3.7-11.1-4l-0.7-0.2l0.3,2.8
	c1.1,10.4,3.7,20.7,6.5,26.4c0.8,1.6,0.9,2.1,0.4,2.1c-0.1,0-0.9-0.9-1.7-1.9c-1.9-2.4-7-7.4-10.1-9.9c-2.9-2.3-6.8-5.1-9.9-7
	l-2.4-1.5l-0.2,1.9c-1.6,11-1.6,22,0,28.9c0.6,2.4-0.2,1.7-1.9-1.8c-1.7-3.4-4.9-8.6-7.1-11.4c-1.9-2.5-4.2-5.2-5.7-6.9
	c-3.2-3.6-3.8-4.1-4-3.8c-0.1,0.2-0.8,1.8-1.6,3.7c-3.2,8.1-5.6,17.6-6,24.3C119.4,225.5,119.2,226.5,118.9,225.7L118.9,225.7z
	 M120.9,211.1c1.3-5.2,3.4-11,5.7-16.6c0.2-0.4-1.8-2.3-8.5-8.2l-1.4-1.2l-1.2,1.3c-3.8,4.2-7.6,8.7-7.6,9c0,0.2,0.5,1.1,1.1,2.2
	c3.6,6.1,7.9,16.4,9.3,22.3l0.5,1.8l0.6-3.5C119.7,216.2,120.4,213,120.9,211.1L120.9,211.1z M92.9,220.2c0-0.1-0.1-0.2-0.2-0.2
	c-0.1,0-0.2,0.1-0.2,0.2c0,0.1,0.1,0.2,0.2,0.2C92.8,220.2,92.9,220.2,92.9,220.2z M96.4,212c2.8-5.4,5.8-10.4,9.2-14.7l1.4-1.9
	l-0.5-0.8c-0.6-1-2.2-3.7-3-4.7c-0.3-0.4-1.3-1.8-2.2-3.3c-1-1.4-1.8-2.6-1.9-2.6c-0.5,0-10.9,7.3-10.9,7.6c0,0.1,0.2,1,0.5,1.8
	c2.1,7.1,3.4,15.1,3.8,23.1l0.2,3l0.7-1.9C94.1,216.6,95.3,214,96.4,212z M144.3,214.7c-0.7-5.3-0.5-14.5,0.4-21.9
	c0.7-5.3,0.8-4.9-1.5-6.2c-3.7-2.1-9.5-4.8-9.7-4.6c-0.4,0.4-4.9,9.3-5.7,11.1c-0.3,0.8-0.3,0.9,0.6,1.8c0.6,0.6,1,1.1,1.1,1.1
	c1,0.9,5.5,6.2,8,9.4c1.4,1.8,5,7.4,6.1,9.3c0.5,0.9,0.9,1.6,0.9,1.6C144.6,216.5,144.5,215.7,144.3,214.7L144.3,214.7z M69.7,209.3
	c3.9-5.3,10.7-12.3,16-16.4c1-0.8,1.8-1.5,1.8-1.6c0-0.4-1.6-5-3-8.9l-1.5-4l-4,1.4c-2.2,0.7-4.9,1.8-6.2,2.3l-2.2,1l0.1,3.3
	c0.2,7.7-0.8,17.5-2.6,24.4C67.9,211.7,67.9,211.7,69.7,209.3L69.7,209.3z M167.6,203.5c-2.2-5.6-4-13.6-4.9-21.6
	c-0.6-5.2-0.2-4.6-3.9-5.6c-4.7-1.2-9.3-2.1-9.5-1.8c-0.4,0.4-3,11.7-3,13c0,0.2,0.4,0.5,0.8,0.7c5.9,3.4,13.6,9.4,18.9,14.8
	c1.1,1.2,2.1,2.2,2.2,2.2C168.3,205.1,167.9,204.3,167.6,203.5L167.6,203.5z M51.4,192.9c4.6-3.4,11.7-7.4,17.1-9.7l1.4-0.6
	l-0.2-2.5c-0.2-3-0.6-6.1-0.9-9l-0.3-2.2l-3,0.2c-3.6,0.2-9.8,0.9-10.1,1.1c-0.1,0.1-0.6,2.2-1.3,4.7c-1.9,7.6-4.2,14-6.9,19.4
	l-1.4,2.8l1.3-1.1C47.9,195.5,49.8,194,51.4,192.9L51.4,192.9z M109.5,192.1c0.6-0.6,1.1-1.4,1.2-1.5c0.2-0.2,0.7-0.9,1.4-1.6
	c0.6-0.7,1.4-1.7,1.8-2.1c0.4-0.4,1-1.1,1.4-1.5l0.7-0.7l-1.6-1.2c-0.9-0.6-1.7-1.3-1.8-1.4c-0.2-0.2-0.6-0.4-0.8-0.6
	c-0.3-0.2-0.7-0.5-0.8-0.6c-0.2-0.2-0.8-0.6-1.4-1.1c-1.1-0.8-1.2-0.8-1.8-0.5c-0.3,0.2-1.5,0.9-2.6,1.4c-1.8,1-2.7,1.5-4.5,2.6
	c-0.6,0.3-0.6,0.4,1.3,3c2.6,3.8,2.7,3.9,4.1,6.1c0.6,1,1.2,2.1,1.2,2.2C107.2,194.8,108,194,109.5,192.1L109.5,192.1z M129.2,188.6
	c1-2,2.2-4.5,2.8-5.4l1-1.8l-3.8-1.6c-2.2-0.9-4.2-1.7-4.5-1.8c-0.6-0.2-1,0.2-4,3.1c-1.8,1.8-3.3,3.4-3.3,3.4
	c0,0.1,1.6,1.5,3.4,3.1c1.8,1.6,4,3.6,4.8,4.3c1.4,1.3,1.5,1.4,1.7,0.8C127.3,192.5,128.3,190.7,129.2,188.6z M94.3,186.5
	c1.6-1.1,3.4-2.2,3.8-2.6c0.5-0.2,0.8-0.6,0.8-0.6c0-0.2-3-3.9-5-6.4c-0.4-0.5-1-1-1.1-1c-0.4,0-8.6,2.2-8.8,2.3
	c-0.1,0.1,0.6,1.8,1.3,3.8c0.8,2,1.7,4.7,2.2,6c0.4,1.3,0.8,2.4,0.9,2.6c0.1,0.1,0.8-0.3,1.6-1C90.6,189,92.6,187.6,94.3,186.5
	L94.3,186.5z M187.4,186.6c-3.9-5.5-8.8-15.3-11.2-22.6l-0.6-1.7l-5.9,0.2c-3.3,0.1-6.2,0.2-6.6,0.3l-0.6,0.2v4.9
	c0,2.7,0.1,5.8,0.2,6.8l0.2,1.8l4.7,1.6c7.8,2.6,15.4,6.1,19.8,9.3c0.6,0.4,1.1,0.8,1.2,0.8C188.6,188.2,188.1,187.5,187.4,186.6
	L187.4,186.6z M145.7,186.5c0.1-0.3,0.4-2,0.8-3.8s1-4.4,1.4-5.9s0.7-2.7,0.6-2.7c-0.1-0.1-6.5-0.9-8.5-1.1c-1-0.1-1-0.1-1.5,0.8
	c-0.2,0.5-1.1,1.8-1.8,3c-1.4,2.2-2.6,4.5-2.6,4.5c0.1,0,0.6,0.2,1,0.5c2.7,1.2,8.5,4.2,9.6,4.9
	C145.4,187.2,145.5,187.1,145.7,186.5L145.7,186.5z M118.8,181.8c1.3-1.2,2.7-2.6,3.4-3.2s1-1,1-1c0-0.1-1.6-0.6-3.4-1.2
	c-2.2-0.7-3.7-1-4-1c-0.7,0.2-4.9,2.2-5.8,2.8l-0.7,0.5l1.4,0.9c0.7,0.5,2.4,1.7,3.7,2.7c1.3,1,2.3,1.8,2.4,1.8
	C116.5,184.1,117.6,183,118.8,181.8L118.8,181.8z M102.2,181.4c1.4-0.8,3-1.8,3.8-2.2c0.8-0.4,1.4-0.8,1.4-0.9
	c0-0.2-3.2-2.4-5.3-3.6l-1-0.6l-3.5,0.7c-1.9,0.4-3.6,0.7-3.7,0.9c-0.1,0.1,0.6,1.2,1.8,2.5c1,1.3,2.3,2.9,2.8,3.5
	c0.5,0.6,1,1.1,1,1.2C99.7,182.9,100.8,182.2,102.2,181.4L102.2,181.4z M72.9,181.3c1.1-0.5,3.7-1.4,5.7-2.2
	c2.1-0.7,3.8-1.4,3.9-1.4c0.2-0.1-1.1-3-2.7-6.4l-1.2-2.6h-4.7h-4.7l0.2,1c0.2,1.5,0.9,7.3,1,9.9c0.1,1.4,0.2,2.4,0.3,2.4
	C70.8,182.1,71.8,181.8,72.9,181.3L72.9,181.3z M134.1,179.6c0.8-1.5,3-5.1,3.3-5.5c0.2-0.2,0.4-0.5,0.5-0.8c0.3-0.6,0.2-0.6-5-1
	l-2.2-0.2l-2.8,2.4c-2.9,2.5-3.3,2.8-2.9,2.8c0.2,0,5.6,2.2,7.3,3c0.6,0.2,1,0.5,1.1,0.5C133.4,180.8,133.7,180.3,134.1,179.6z
	 M111.7,176.3l3.2-1.6l-2.8-0.8c-1.5-0.4-3.3-0.8-3.8-0.8c-1,0-5.5,0.6-5.7,0.8c-0.1,0.1,5.3,3.8,5.7,3.8
	C108.4,177.9,109.9,177.2,111.7,176.3L111.7,176.3z M32.8,175.4c5.3-2.2,10.9-3.8,17.6-5.1l4.2-0.8l0.4-2.1
	c0.4-1.9,1.1-7.2,1.5-10.1c0.2-1.4,0.4-1.2-3.2-1.9c-4-0.8-9.5-1.5-9.7-1.4c-0.1,0.1-0.7,1.1-1.3,2.3c-4.2,7.9-7.9,13.7-12.1,18.6
	c-2.5,2.9-2.4,2.7-1.2,2.2C29.7,176.7,31.4,175.9,32.8,175.4z M88,176.3l4.3-1.1l-1-1.1c-0.6-0.6-1.8-1.9-2.6-2.9l-1.7-1.8l-1.9-0.2
	c-2.6-0.2-5.6-0.2-5.4,0c0.1,0.1,0.6,1.1,1.1,2.3c0.6,1.1,1.4,3,1.8,4c0.5,1,0.9,1.9,1,1.9C83.6,177.4,85.7,176.9,88,176.3z
	 M125.8,175.3c1-0.9,2.2-1.9,2.6-2.2c0.4-0.2,0.6-0.6,0.6-0.6c0-0.1-1.4-0.2-3.1-0.2h-3.1l-2.8,1.1c-1.5,0.6-2.7,1.2-2.6,1.3
	c0.2,0.2,5.9,2.2,6.3,2.2C123.8,177,124.8,176.2,125.8,175.3L125.8,175.3z M161.9,169.8c-0.1-3.7-0.2-6.7-0.2-6.8
	c-0.1-0.1-5.3,0.6-7.8,1l-1.7,0.2l-1,3.3c-0.6,1.8-1.2,3.8-1.4,4.3c-0.5,1.4-0.4,1.8,0.2,1.9c5.3,1,11.7,2.6,11.9,2.8
	C162,176.4,161.9,173.5,161.9,169.8L161.9,169.8z M97.2,174.2c2.3-0.5,2.8-0.6,2.6-0.9c-0.2-0.2-1.4-1-2.8-1.7
	c-2.2-1.2-2.7-1.4-4.7-1.6c-1.2-0.2-2.6-0.3-3.2-0.4l-1-0.2l2.6,2.7c2,2.2,2.6,2.7,3,2.6C94,174.8,95.6,174.5,97.2,174.2L97.2,174.2
	z M119.3,172.9c0.6-0.2,1.1-0.5,1-0.6c-0.1-0.1-1.8,0-3.8,0.2s-4.1,0.2-4.5,0.2c-1.4,0-0.8,0.4,1.5,1l2.3,0.6l1.1-0.6
	C117.7,173.5,118.6,173.1,119.3,172.9L119.3,172.9z M104.7,172.2c-2.4-0.6-7.4-1.4-7.5-1.4c-0.1,0.1,0.5,0.4,1.2,0.8s1.6,1,2.1,1.2
	c0.7,0.5,0.8,0.5,3.4,0.2l2.6-0.4L104.7,172.2L104.7,172.2z M150.2,168.3c0.6-1.7,1-3.3,1.2-3.5c0.2-0.6,0.2-0.6-3.9,0.2l-3.4,0.6
	l-1.4,2c-0.8,1.1-1.8,2.6-2.3,3.2l-0.9,1.2l0.8,0.1c1.8,0.2,8.2,1,8.3,1.2c0.1,0.1,0.2-0.3,0.4-1C149,171.8,149.7,170,150.2,168.3
	L150.2,168.3z M112.8,172c1.6-0.2,4.5-0.3,6.5-0.5l3.7-0.2l6.4-2.2c6.6-2.2,7.4-2.6,8.6-3.5c1.1-0.9,1.1-0.9,3-2.1
	c1-0.6,1.8-1.2,1.8-1.3c0.1-0.1,0.5-0.3,1-0.6c0.5-0.2,0.9-0.5,1-0.6c0.1-0.1,0.5-0.4,0.9-0.6c1.2-0.6,2.6-1.6,3.1-2.2
	c0.2-0.3,0.9-1,1.4-1.5c0.5-0.6,1.4-1.6,2.2-2.4c0.7-0.8,2.2-2.5,3.5-3.8c1.9-2,2.4-2.7,3.6-5.2c0.8-1.6,2.2-4.4,3.4-6.2
	c1.8-3.1,2-3.8,2.6-6.1c0.7-3.2,2.2-9.1,2.6-10.1c0.2-0.5,0.2-3.6,0.2-8.6s-0.1-8.2-0.2-8.6c-0.4-1-1.9-6.9-2.6-10.1
	c-0.5-2.3-0.8-3.1-2.2-5.5c-0.9-1.6-2.4-4.4-3.4-6.3c-1.5-3.1-2-3.7-4-5.7c-1.2-1.3-2.8-3-3.5-3.8s-1.7-1.9-2.2-2.4
	c-0.5-0.6-1.1-1.2-1.4-1.5c-0.6-0.6-1.9-1.6-3.1-2.2c-0.4-0.2-0.9-0.5-0.9-0.6c-0.1-0.1-0.5-0.4-1-0.6c-0.5-0.2-0.9-0.5-1-0.6
	s-0.9-0.6-1.8-1.3c-1.8-1.2-1.8-1.2-3-2.1c-1.2-1-2-1.3-8.6-3.5l-6.4-2.2l-3.4-0.2c-1.9-0.1-5.2-0.3-7.3-0.5l-3.8-0.3l-3.4,0.8
	c-1.9,0.4-5,1-6.9,1.4c-3.4,0.6-3.6,0.6-7.1,2.5c-2,1-4.9,2.4-6.3,3c-2.3,1-3,1.5-5.7,4c-1.8,1.5-4.2,3.6-5.4,4.6
	c-2,1.6-2.6,2.2-4.4,5c-1.2,1.8-2.4,3.5-2.6,3.9c-0.2,0.4-0.7,1-1,1.4c-0.2,0.4-1,1.3-1.5,2c-0.7,0.9-1.3,2.1-1.9,3.9
	c-0.5,1.4-1.7,4.5-2.6,6.9c-1.6,3.9-1.7,4.4-1.9,7.1c-0.2,1.6-0.6,4.9-0.9,7.3l-0.6,4.3l0.6,4.3c0.3,2.4,0.7,5.7,0.9,7.3
	c0.2,2.6,0.4,3.3,1.5,6.1c0.7,1.7,1.9,4.8,2.6,6.9c1,2.9,1.7,4.2,2.4,5c0.6,0.6,1.2,1.5,1.4,1.9c0.2,0.4,0.7,1,1,1.4
	c0.2,0.4,1.4,2.2,2.6,3.9c1.9,2.8,2.5,3.4,4.4,5c1.3,1,3.7,3,5.4,4.6c2.8,2.5,3.4,3,5.7,4c1.4,0.6,4.2,2,6.3,3
	c3.7,1.9,3.7,1.9,7.7,2.6c2.2,0.4,5.2,1,6.5,1.3C108.2,172.3,109,172.3,112.8,172L112.8,172z M139.5,170.8c0.4-0.6,0.8-1.3,1-1.4
	c1-1.3,2.3-3.4,2.1-3.4c-0.2,0-1.6,0.3-3.1,0.8c-3,0.8-3.2,0.9-6.5,3.4l-1.5,1.1l1,0.2c1,0.2,2.3,0.2,5.3,0.3
	C138.7,172,138.8,171.9,139.5,170.8z M132,170.2c1-0.8,1.7-1.4,1.7-1.5c-0.2-0.2-6.5,1.9-7.9,2.6c-0.6,0.3-0.5,0.3,1.9,0.3h2.6
	L132,170.2L132,170.2z M61.6,168.7c2-0.2,4.2-0.3,5.1-0.3c1.4,0,1.5-0.1,1.5-0.5c0-0.5-1.4-8.2-1.6-8.9c-0.1-0.2-1-0.6-2.9-1.1
	c-4.3-1.2-6.1-1.6-6.2-1.4c-0.1,0.1-0.3,1.8-0.6,3.8c-0.5,3.5-1.1,7.4-1.4,8.7c-0.2,0.6-0.2,0.6,1.2,0.4
	C57.5,169.1,59.7,168.9,61.6,168.7L61.6,168.7z M91.7,168.8c-1-0.6-7.3-3.7-7.7-3.7c-0.1,0,0.6,0.8,1.6,1.8l1.8,1.8l1.9,0.2
	c1,0.2,2.2,0.2,2.5,0.2C92.5,169.3,92.5,169.3,91.7,168.8L91.7,168.8z M86,168.4c0-0.1-1-1.1-2.3-2.3c-2.4-2.2-2.3-2.2-7.7-4.3
	c-0.2-0.1,0,0.4,0.4,1c0.4,0.6,1.2,2.2,1.8,3.4l1,2.2l2.4,0.1c1.3,0.1,2.9,0.1,3.4,0.2C85.6,168.6,86,168.5,86,168.4L86,168.4z
	 M134.3,168.4c0-0.1-0.1-0.2-0.2-0.2c-0.1,0-0.2,0.1-0.2,0.2c0,0.1,0.1,0.2,0.2,0.2S134.3,168.5,134.3,168.4z M78.2,168
	c0-0.2-2.8-5.5-3.3-6.1c-0.5-0.6-1.1-1-3.8-1.8c-1.8-0.6-3.3-1-3.4-1c-0.1,0.1,0.2,2.2,0.7,4.5l0.8,4.5h4.5
	C76.1,168.1,78.2,168,78.2,168L78.2,168z M141.3,165.6l2.2-0.6l1.7-2.1c0.9-1.1,1.5-2,1.4-1.9c-1.3,0.7-8.3,5.3-7.8,5.2
	C138.9,166.2,140.1,166,141.3,165.6L141.3,165.6z M201.7,164.4c-4.9-4.4-10.5-10.9-14.9-17.6c-0.8-1.2-1.5-2.2-1.7-2.2
	c-1.1,0-12.5,3.6-12.5,3.9s1.8,6.9,2.5,9.3c0.4,1.4,0.8,2.8,0.9,3.1c0.1,0.5,0.3,0.6,3.6,0.7c7.9,0.4,17.2,2,22.3,3.8
	c0.7,0.2,1.4,0.5,1.5,0.5C203.5,166.1,202.8,165.4,201.7,164.4L201.7,164.4z M148.6,164c1.8-0.3,3.1-0.6,3.2-0.6c0,0,0.4-1,0.9-2.3
	c0.5-1.2,1-2.7,1.3-3.4l0.5-1.2l-1.9,1c-3.5,1.9-3.9,2.2-7.1,6.2c-0.8,1-0.9,1.2-0.4,1C145.3,164.7,147,164.4,148.6,164L148.6,164z
	 M159.2,162.4l2.5-0.3l0.2-3.6c0.1-2,0.2-4.1,0.3-4.6c0.1-0.7,0.1-1-0.2-1c-0.4,0-6.2,2.9-6.6,3.3c-0.2,0.2-2.8,6.6-2.8,7
	c0,0.1,0.9,0.1,2-0.2C155.8,162.8,157.9,162.6,159.2,162.4L159.2,162.4z M80.1,162.5c0-0.1-0.1-0.2-0.2-0.2c-0.1,0-0.2,0.1-0.2,0.2
	s0.1,0.2,0.2,0.2C80.1,162.7,80.1,162.6,80.1,162.5z M79.4,162c-0.2-0.2-2.9-2.4-3.7-3.1c-1-0.9-2.9-2.4-3-2.3
	c-0.1,0.1,0.2,0.6,0.5,1c0.3,0.5,0.8,1.4,1.1,2c0.5,1,0.7,1.1,2.8,1.9c1.2,0.5,2.3,0.8,2.3,0.7C79.7,162.2,79.6,162,79.4,162
	L79.4,162z M169.5,161.8c5.8-0.2,5.8-0.2,5.7-0.6c-0.1-0.3-0.4-1.4-0.8-2.6c-0.3-1.1-1.1-3.8-1.6-5.9c-0.6-2.1-1-3.8-1-3.8
	s-0.4,0.1-0.8,0.2s-1.5,0.6-2.5,1c-1,0.4-2.2,0.9-2.7,1.1c-0.6,0.2-1.4,0.6-1.8,0.8c-0.9,0.3-0.9,0.4-1,1.8c-0.1,0.8-0.2,3.1-0.3,5
	l-0.2,3.5l0.6-0.2C163.4,162,166.3,161.9,169.5,161.8L169.5,161.8z M73.6,159.6c-0.2-0.4-0.8-1.3-1.2-2s-1-1.7-1.2-2.1
	c-0.2-0.4-0.8-1-1.3-1.4c-0.5-0.3-1-0.7-1.1-0.9c-0.2-0.2-0.9-0.6-1.5-1.1c-0.6-0.5-1.3-1-1.4-1.1c-0.3-0.4-0.2,0.2,0.6,3.6
	c0.5,1.8,1,3.4,1.2,3.5c0.3,0.2,5.8,2.1,6.1,2.2C73.8,160.2,73.8,159.9,73.6,159.6L73.6,159.6z M66.3,157.4c0-0.2-0.4-1.9-1-3.8
	l-1-3.5l-3-2.1c-2.5-1.7-3.1-2-3.2-1.7c-0.1,0.2-0.2,2.1-0.3,4.2c-0.1,2.1-0.2,4.1-0.3,4.3c-0.1,0.5,0.1,0.6,2.2,1
	c1.3,0.3,3.2,0.8,4.2,1.1C66.4,157.8,66.3,157.8,66.3,157.4z M155.2,154.9c0.1-0.2,0.6-1.4,1-2.5l0.9-2.1l-1.8,1.9
	c-1.6,1.8-3,3.3-4.5,4.9c-0.4,0.5,0,0.3,1.8-0.6C154,155.9,155.1,155.1,155.2,154.9z M56.8,154.7c0.1-0.3,0.2-2.1,0.3-3.9
	c0.1-1.8,0.2-3.8,0.2-4.3l0.1-1l-2.1-1.3c-1.1-0.7-3-1.8-4.2-2.4l-2.2-1.1l-0.2,0.7c-0.8,2.1-3.6,8.9-4.2,10.1
	c-0.4,0.8-0.6,1.4-0.6,1.5c0,0,1.5,0.3,3.4,0.6c2.6,0.4,6.2,1,9.1,1.7C56.6,155.3,56.8,155,56.8,154.7z M158.9,153.4
	c1.5-0.7,3-1.4,3.2-1.6c0.2-0.2,0.5-1.2,0.8-3.8c0.2-1.9,0.4-3.6,0.4-3.6s-1.1,1-2.4,2.2c-2.3,2.2-2.4,2.3-3.6,5.2
	c-0.7,1.6-1.2,2.9-1.1,2.9S157.3,154.2,158.9,153.4L158.9,153.4z M19.4,153.2c3-0.5,8.4-0.9,12-0.9c2.8,0,9.7,0.4,11.1,0.6
	c0.6,0.1,0.7-0.1,1.6-1.8c0.9-1.9,3.8-9.2,4.2-10.2c0.2-0.5-0.2-0.7-3.2-2.2c-1.8-0.9-4.5-2.2-6-2.7l-2.6-1.1l-3.7,4
	c-5.4,5.9-10.1,10-15.5,13.8c-1.6,1.1-1.7,1.2-0.9,1C16.9,153.7,18.2,153.4,19.4,153.2L19.4,153.2z M67.8,150.4
	c-0.8-1.2-1.8-2.6-2.2-3.1c-0.4-0.6-0.9-1.2-1-1.5c-0.3-0.6-0.8-0.7-0.6-0.2c0.1,0.2,0.4,1.3,0.6,2.3l0.5,1.8l2,1.4
	c1.1,0.8,2,1.4,2.1,1.4C69.2,152.5,68.6,151.6,67.8,150.4L67.8,150.4z M165.6,150.4c0.6-0.2,1.8-0.8,2.8-1.1
	c3.3-1.3,3.4-1.4,3.2-2.1c-0.1-0.4-0.4-2.2-0.8-4.2c-0.7-4.1-0.8-4.2-1-4.2c-0.1,0-1.4,1.1-2.9,2.4l-2.7,2.4l-0.3,2
	c-0.2,1-0.4,2.8-0.5,3.8l-0.2,1.9l0.6-0.2C164.2,150.9,165,150.6,165.6,150.4L165.6,150.4z M63.9,148.2c-0.1-0.4-0.6-1.8-1-3.1
	c-0.8-2.5-1-2.7-3.4-5.7l-1.4-1.7v3.7v3.7l2.8,1.8c1.5,1,2.9,1.8,3,1.9C64.1,149,64,148.6,63.9,148.2L63.9,148.2z M173.9,147.2
	c1.8-0.6,6.6-2.2,8.8-2.7c1-0.2,1.8-0.6,1.9-0.6c0.1-0.1-0.4-1-1-1.9c-1.7-2.7-5.1-9-5.1-9.3c0-0.2-0.1-0.2-0.2-0.2
	c-0.2,0-5.5,3.9-6.9,5.1l-0.8,0.7l0.6,3.1c0.6,3.4,1.2,6.4,1.4,6.4C172.6,147.7,173.2,147.4,173.9,147.2L173.9,147.2z M161.7,144.8
	l1.8-1.7l0.4-2.3c0.2-1.3,0.3-2.4,0.3-2.4c-0.1-0.1-3,5-3.7,6.6c-0.3,0.8-0.6,1.4-0.6,1.4C160,146.4,160.8,145.7,161.7,144.8z
	 M63.9,144.8c0-0.1-0.1-0.2-0.2-0.2c-0.1,0-0.2,0.1-0.2,0.2c0,0.1,0.1,0.2,0.2,0.2C63.8,145,63.9,144.9,63.9,144.8z M57.2,136.6
	c-0.2-0.2-1.3-1.5-2.4-2.7c-1.1-1.2-2.1-2.3-2.2-2.5c-0.2-0.6-0.5-0.1-0.9,1.4c-0.2,0.9-0.9,2.9-1.4,4.5c-0.6,1.6-1,3-0.9,3
	s0.3,0.2,0.6,0.4c0.3,0.2,1.7,1,3,1.7c1.4,0.7,2.9,1.6,3.4,1.9l0.9,0.6l0.1-3.8C57.5,138,57.4,137,57.2,136.6L57.2,136.6z
	 M188.9,143c6.9-1.4,12.3-2.1,19-2.1h5.1l-1.4-0.7c-6.4-3.3-14.6-9-19.9-14c-0.6-0.6-1.3-1.1-1.4-1.2c-0.3-0.1-3.4,1.7-7.8,4.5
	c-3,1.9-3.5,2.3-3.4,2.8c0.1,0.3,1,2.2,2.2,4.2c3.9,7,4.1,7.3,4.7,7.1C186.3,143.5,187.6,143.3,188.9,143L188.9,143z M166.1,140.9
	c0.6-0.6,1.5-1.4,1.9-1.7c0.4-0.4,1-0.8,1.3-1c0.6-0.4,0.6,0-0.3-6.5c-0.2-1.4-0.2-1.3-2.2,1.9c-1.3,2.1-1.4,2.6-1.8,4.9
	c-0.2,1.4-0.5,3-0.6,3.3c-0.1,0.6-0.1,0.6,0.2,0.4C164.8,142,165.5,141.5,166.1,140.9L166.1,140.9z M60.8,138.9
	c-0.3-0.8-1-2.7-1.8-4.4l-1.2-3l0.2,2.6l0.2,2.6l1.5,1.8c0.8,1,1.5,1.8,1.6,1.8S61.2,139.6,60.8,138.9L60.8,138.9z M49.6,136.7
	c0.5-1.5,1.1-3.5,1.4-4.5l0.5-1.8l-3.4-3.3c-1.8-1.8-3.4-3.3-3.5-3.3s-0.5,0.6-1,1.2c-1.8,2.8-2.2,3.4-5.7,7.8l-1.2,1.5l3.3,1.4
	c1.8,0.8,4.3,1.9,5.6,2.6c1.3,0.6,2.5,1.2,2.7,1.1C48.5,139.5,49,138.3,49.6,136.7L49.6,136.7z M171.8,136.2
	c0.4-0.3,1.9-1.4,3.4-2.6c1.4-1,2.6-2.1,2.6-2.2s-0.5-1.3-1-2.5c-0.6-1.2-1.4-3-1.9-4.1c-1-2.2-0.6-2.2-2.6,0.6
	c-2.8,4-2.6,3.6-2.5,5.6c0.3,3.8,0.7,6.1,1,5.9C170.9,136.9,171.4,136.6,171.8,136.2L171.8,136.2z M57.2,132.4
	c-0.2-3.1-0.2-3.3-1.4-5.8c-0.6-1.4-1.3-2.8-1.4-3c-0.2-0.2-0.5,0.6-1,2.8c-0.5,1.8-0.8,3.4-0.8,3.6s0.7,1.2,1.5,2.1
	c0.9,0.9,1.9,2.1,2.4,2.6c0.5,0.5,0.8,1,0.8,1C57.3,135.6,57.2,134.2,57.2,132.4z M37.9,131.6c0.6-0.9,1.3-1.7,1.4-1.8
	s0.4-0.5,0.7-1c0.3-0.5,0.6-0.9,0.7-1c0.1-0.1,0.4-0.6,0.7-1c0.3-0.5,1-1.5,1.5-2.3c0.5-0.8,0.9-1.4,0.9-1.6c0-0.1-1-1-2.2-2
	c-1.2-1-2.4-2-2.6-2.2c-0.2-0.2-0.8-0.6-1.3-1c-0.5-0.3-1.1-0.9-1.5-1.2c-0.4-0.3-1.1-0.9-1.6-1.3l-0.9-0.6l-2.8,1.9
	c-6.9,4.6-14,8.3-19.7,10.4c-2.2,0.8-2.3,1-0.6,1c4.6,0,15.9,2.6,23.1,5.3C36.2,134.2,35.9,134.3,37.9,131.6L37.9,131.6z
	 M168.3,130.2c0.5-0.6,0.6-2,0.2-4.8l-0.2-1.4l-1.2,4.7c-0.6,2.6-1.2,4.8-1.2,4.9s0.4-0.5,0.9-1.3
	C167.4,131.5,168,130.5,168.3,130.2z M182.7,128.5c1.7-1.1,3.9-2.5,4.9-3l1.9-1.1l-3.3-3.4c-1.8-1.8-3.8-4-4.5-4.7l-1.3-1.4
	l-1.4,1.5c-0.7,0.9-2.1,2.6-3,3.8c-1.3,1.7-1.6,2.3-1.5,2.7c0.2,0.6,0.8,1.9,2.5,5.5c1.3,2.7,1.4,2.8,1.8,2.5
	C179.4,130.7,181,129.6,182.7,128.5L182.7,128.5z M52.8,125.6c1-3.8,1-3.6-1.3-7.7l-1.4-2.6l-0.8,1.3c-0.5,0.7-1.4,2.2-1.9,3.2
	c-0.6,1-1.4,2.2-1.7,2.6l-0.6,0.8l3.3,3.1c2,1.8,3.4,3,3.4,2.9C51.9,129,52.4,127.3,52.8,125.6L52.8,125.6z M171.5,125.4
	c0.2-0.2,0.7-1,1.2-1.7c1-1.4,1.1-1.6,0.5-2.8c-0.2-0.5-0.8-1.9-1.3-3.2l-0.8-2.3l-1,3.1l-1,3.1l0.2,2.8c0.1,1.5,0.2,3.1,0.2,3.4
	C169.5,128.3,169.6,128.1,171.5,125.4L171.5,125.4z M56.3,121.8c-0.2-2.2-0.5-4.2-0.5-4.4c0-1-0.5,0.2-0.8,2.3l-0.4,2.2l1,2.2
	c0.6,1.2,1.1,2.1,1.1,1.9C56.7,125.9,56.5,124,56.3,121.8L56.3,121.8z M198.7,119.9c5.5-2.4,12-4.5,16.5-5.3c0.9-0.2,1.3-0.3,1-0.3
	c-0.4,0-2.4-0.5-4.4-1c-6.1-1.6-12.7-4.2-18.5-7.1l-2.9-1.4l-0.8,0.6c-0.4,0.3-2.6,2.6-4.7,4.8l-3.9,4.2l0.7,0.9
	c0.4,0.5,2.5,2.7,4.6,4.9l3.9,4l2.9-1.5C194.8,121.7,197.2,120.5,198.7,119.9L198.7,119.9z M47.5,117.9c0.6-0.8,1.2-2,1.5-2.6l0.6-1
	l-1-1.6c-0.6-0.9-1.3-2.2-1.8-3c-0.4-0.7-1.1-1.8-1.6-2.6l-0.8-1.2l-2.9,2.5c-1.6,1.4-3.9,3.2-5,4.1c-1.2,0.9-2.2,1.7-2.2,1.7
	s0.6,0.5,1.2,1c2.2,1.7,3.8,3,6.4,5.1l2.6,2.2l1-1.6C46.1,120.1,46.9,118.7,47.5,117.9L47.5,117.9z M175.6,119.8
	c0.5-0.7,1.4-1.8,3-3.8c0.8-0.9,1.4-1.8,1.4-1.8c0-0.1-0.6-0.9-1.4-1.8c-0.8-0.9-1.7-2-2-2.5c-0.3-0.5-0.8-1-1-1.3
	c-0.2-0.2-0.6-0.7-0.9-1.1l-0.5-0.6l-0.4,0.8c-0.2,0.5-0.9,2.1-1.4,3.7l-1,2.8l1,2.7c0.6,1.5,1.2,3.1,1.4,3.6l0.4,1l0.5-0.6
	C175,120.7,175.4,120.1,175.6,119.8L175.6,119.8z M54.6,117.3l0.6-3.1l-0.6-3c-0.3-1.7-0.6-3-0.6-3.1c0,0-0.8,1.4-1.8,3l-1.8,3.1
	l1.7,3c0.9,1.6,1.7,3.1,1.7,3.4C53.8,121.2,54,120.6,54.6,117.3L54.6,117.3z M169.8,111.8l-0.9-2.5v4.9v4.9l0.9-2.5l0.9-2.5
	L169.8,111.8L169.8,111.8z M36.6,111.8c1.3-1,1.8-1.5,2.5-2c0.2-0.2,1.4-1.2,2.7-2.2c1.2-1,2.2-1.9,2.2-2c0-0.1-0.4-0.8-0.9-1.6
	s-1.2-1.8-1.5-2.3c-0.3-0.5-0.6-1-0.7-1c-0.1-0.1-0.4-0.5-0.7-1c-0.3-0.5-0.6-0.9-0.7-1c-0.1-0.1-0.7-0.9-1.4-1.8
	c-0.6-0.9-1.4-1.8-1.6-2c-0.3-0.3-0.6-0.3-2.6,0.4c-7.4,2.7-18.6,5.3-23.2,5.3c-1.7,0-1.5,0.2,0.6,1c5.7,2,13,5.8,19.8,10.5l2.7,1.8
	l0.9-0.6C35.1,112.9,35.9,112.2,36.6,111.8L36.6,111.8z M186.3,107.5l3.3-3.4l-1.9-1.1c-1.6-0.9-3.6-2.2-8.6-5.4
	c-0.6-0.3-0.6-0.3-1.8,2.5c-1.7,3.6-2.2,4.9-2.5,5.5c-0.2,0.4,0.2,1,1.5,2.7c0.9,1.2,2.2,2.9,3,3.8l1.4,1.5l1.3-1.4
	C182.6,111.5,184.6,109.4,186.3,107.5L186.3,107.5z M51.7,110.5c0.9-1.6,1.7-3.3,1.8-3.7c0.2-0.6-1.2-6.5-1.6-7.3
	c-0.1-0.2-1.5,1-3.4,2.9l-3.3,3.1l0.4,0.7c0.2,0.4,1,1.7,1.8,2.8c0.7,1.1,1.7,2.6,2,3.3c0.4,0.6,0.7,1.2,0.7,1.2
	C50.1,113.4,50.8,112.2,51.7,110.5L51.7,110.5z M172,110.7c0.5-1.3,1-2.7,1.3-3.1c0.6-1,0.5-1.3-0.6-2.7c-0.5-0.7-1-1.4-1.2-1.7
	c-1.8-2.6-2-2.9-2.1-2.3c0,0.3-0.1,1.8-0.2,3.3l-0.2,2.7l1,3.1c0.6,1.8,1,3.1,1,3C171.1,113.1,171.5,112,172,110.7z M56.6,104
	l0.2-1.8l-1.1,2.2l-1.1,2.2l0.4,2.2c0.2,1.2,0.5,2.3,0.6,2.6C55.6,111.6,56.3,107.1,56.6,104z M176.3,100.7c0.9-1.8,1.5-3.4,1.5-3.6
	c0-0.2-1-1-2.2-1.8s-2.9-2.1-3.7-2.7l-1.4-1.1l-0.3,2.2c-0.2,1.2-0.3,3-0.4,4.1l-0.2,1.8l1.3,1.8c0.7,1,1.7,2.3,2.2,3l0.9,1.2
	l0.3-0.8C174.6,104.3,175.4,102.5,176.3,100.7z M55,103.9c1.8-3.5,2-4.4,2.2-7.7l0.2-3.2l-1.5,1.7c-0.9,1-1.9,2.2-2.5,2.7l-0.9,1
	l0.9,3.4c0.5,1.9,0.9,3.4,0.9,3.4C54.2,105.4,54.6,104.7,55,103.9L55,103.9z M48.1,101.5l3.4-3.3L51,96.4c-0.7-2.7-2.2-6.9-2.5-7.3
	c-0.2-0.2-1.4,0.4-3.3,1.3c-1.7,0.8-4.2,2-5.8,2.6l-2.8,1.2l1.2,1.5c3.5,4.5,3.9,5,5.7,7.8c0.4,0.6,0.8,1.2,1,1.2
	C44.7,104.8,46.3,103.4,48.1,101.5L48.1,101.5z M168.7,100.6c0-1.1-0.1-1.7-0.6-2.3c-0.3-0.5-1-1.4-1.4-2.1c-0.4-0.6-0.8-1.1-0.8-1
	s0.6,2.3,1.2,4.9l1.2,4.7l0.2-1.4C168.6,102.7,168.7,101.4,168.7,100.6z M191.4,102.7c0.6-0.5,1.1-1,1.3-1.2
	c0.2-0.2,1.6-1.4,3.2-2.7c4.5-3.8,10.2-7.5,15.2-10.1l2-1l-2.6,0.2c-6.1,0.3-16.7-0.8-24.3-2.7c-0.7-0.2-0.8-0.2-4.9,7.1
	c-1.1,2-2.1,3.9-2.2,4.2c-0.1,0.5,0.3,0.8,3.1,2.6c3.4,2.2,7.6,4.6,7.9,4.6C190.3,103.6,190.9,103.2,191.4,102.7L191.4,102.7z
	 M169.5,93.6c0.3-2.1,0.3-2.6,0.1-2.8c-0.6-0.6-3.4-3-4.6-4c-0.6-0.5-0.6-0.6-0.6-0.2c0.1,0.2,0.3,1.6,0.6,3
	c0.4,2.6,0.8,3.6,2.2,5.7c0.4,0.6,1,1.6,1.3,2l0.5,0.7l0.2-1C169.1,96.5,169.3,94.9,169.5,93.6L169.5,93.6z M52.6,97.2
	c0.1-0.1,1-1.2,2.2-2.5c1.1-1.3,2.2-2.5,2.4-2.7c0.2-0.4,0.3-1.4,0.2-4.3l-0.1-3.8l-0.9,0.6c-0.5,0.3-2,1.2-3.4,1.9
	c-1.4,0.7-2.7,1.5-3,1.7c-0.3,0.2-0.6,0.3-0.6,0.4c-0.1,0,0.3,1.4,0.9,3c0.6,1.6,1.2,3.6,1.4,4.5C52.1,97.3,52.4,97.8,52.6,97.2
	L52.6,97.2z M60.7,90.3c0.4-1,0.6-1.9,0.6-1.9s-0.7,0.8-1.6,1.8L58.2,92L58,94.5L57.9,97l1-2.5C59.5,93.2,60.3,91.3,60.7,90.3
	L60.7,90.3z M178.6,96c0-0.3,4.7-8.8,5.6-10.1c0.3-0.5,0.6-1,0.6-1s-0.6-0.3-1.4-0.6c-3.5-1-5.3-1.5-7.9-2.4
	c-1.5-0.5-2.9-0.9-2.9-0.9c-0.2,0.2-1,4.5-1.4,6.9c-0.3,2-0.3,2.5-0.1,2.8c0.5,0.6,7,5.5,7.3,5.5C178.4,96.2,178.6,96.1,178.6,96
	L178.6,96z M39.8,92.3c2.5-1,8.2-3.8,8.5-4c0.1-0.1-3-7.9-4.2-10.5c-0.9-2-1-2.2-1.6-2c-1.3,0.2-8.3,0.6-11.1,0.6
	c-4.8,0-10.5-0.5-15.1-1.4c-0.8-0.2-0.7-0.1,0.9,1c5.9,4.2,12,9.7,17.5,15.9c0.8,0.9,1.6,1.7,1.8,1.7C36.7,93.6,38.2,92.9,39.8,92.3
	z M60.3,88.4c1.7-2.1,1.9-2.6,2.7-4.9c1-3,1.2-3.8,1-3.7c-0.1,0.1-1.4,0.9-3,1.9l-2.8,1.8v3.7c0,2.1,0.1,3.7,0.1,3.6
	C58.4,90.8,59.2,89.6,60.3,88.4L60.3,88.4z M163.9,87.8l-0.4-2.3l-1.8-1.7c-1-1-1.8-1.7-1.8-1.6c-0.1,0.1,1.8,4,3.2,6.5
	c0.5,1,1,1.6,1,1.6C164.2,90.2,164.1,89.1,163.9,87.8z M170.1,88.9c0.1-0.4,0.4-2.4,0.8-4.4c0.4-2,0.6-3.8,0.6-3.8
	c-0.1-0.1-1.3-0.6-2.6-1.1c-1.3-0.5-2.6-1-3.1-1.3c-0.5-0.2-1.2-0.5-1.7-0.7l-1-0.4l0.2,1.9c0.1,1,0.3,2.8,0.5,3.8l0.3,2l2.7,2.4
	c1.5,1.4,2.8,2.4,3,2.3C169.9,89.7,170.1,89.3,170.1,88.9L170.1,88.9z M55.4,84.4l2-1.2l-0.1-2.2c-0.2-3.4-0.5-7.3-0.6-7.4
	c-0.1-0.1-1.4,0.2-3,0.5c-1.6,0.3-4.4,0.8-6.2,1c-1.9,0.2-3.4,0.6-3.5,0.6c0,0,0.2,0.7,0.6,1.5c0.6,1.2,3.4,8,4.2,10.1l0.2,0.7
	l2.2-1.2C52.5,86.1,54.3,85,55.4,84.4z M162.8,80.5c-0.3-2.6-0.5-3.6-0.8-3.8c-1-0.6-6-3-6.1-2.9c0,0,0.6,1.4,1.3,3
	c1.3,2.9,1.4,3,3.6,5.1c1.3,1.2,2.3,2.1,2.3,2.1C163.2,84.1,163.1,82.5,162.8,80.5L162.8,80.5z M63.9,83.8c0-0.1-0.1-0.2-0.2-0.2
	c-0.1,0-0.2,0.1-0.2,0.2c0,0.1,0.1,0.2,0.2,0.2C63.8,84,63.9,83.9,63.9,83.8z M187,81.5c4.9-7.2,9.7-12.8,14.8-17.3
	c1-1,1.8-1.7,1.8-1.7c-0.1,0-0.7,0.2-1.5,0.5c-5.5,1.9-14.4,3.4-22.4,3.8c-3.3,0.2-3.5,0.2-3.6,0.7c-0.1,0.3-0.6,2.2-1.2,4.3
	c-1,3.3-2.2,7.8-2.2,8.2c0,0.3,11.2,3.8,12.4,3.8C185.2,83.9,186,83,187,81.5L187,81.5z M64.6,82.9c0.2-0.3,0.6-1,1-1.5
	c1.8-2.3,3.7-5.3,3.3-5c-0.2,0.2-1,0.6-1.7,1.2c-0.7,0.5-1.4,1-1.7,1.2s-0.6,1.1-0.9,2.1c-0.2,1-0.6,2.1-0.6,2.3
	C63.7,83.7,64.3,83.5,64.6,82.9L64.6,82.9z M62,80.1l2.5-1.7l1-3.7c0.6-2,0.9-3.8,0.9-3.8c-0.1-0.1-1.9,0.4-4.2,1
	C60,72.5,58,73,57.8,73c-0.2,0-0.3,0.2-0.2,0.6c0.1,0.3,0.2,2.1,0.3,4c0.1,1.9,0.2,3.8,0.2,4.2l0.2,0.8l0.6-0.5
	C59.2,82,60.7,81,62,80.1L62,80.1z M172.9,76c0.6-2.1,1.3-4.7,1.6-5.9c0.3-1.1,0.7-2.3,0.8-2.6c0.2-0.5,0.1-0.5-5.7-0.6
	c-3.2-0.1-6.1-0.2-6.5-0.3l-0.6-0.2l0.2,3.5c0.1,1.9,0.2,4.2,0.3,5l0.2,1.5l1.1,0.5c0.6,0.2,1.4,0.6,1.6,0.7c1,0.5,5.9,2.4,6,2.3
	C171.9,79.8,172.3,78.2,172.9,76L172.9,76z M156.3,76.3c-0.5-1-1-2.2-1.1-2.6c-0.2-0.4-1.1-1-2.6-1.8l-2.2-1.2l0.6,0.8
	c0.7,0.9,5.9,6.5,6,6.6C157.1,78.2,156.8,77.4,156.3,76.3z M69.5,74.8c0.6-0.5,1.4-1.2,1.5-1.6c0.2-0.4,1-1.6,1.6-2.7
	c0.6-1.1,1.2-2,1.1-2c-0.1-0.1-6.1,1.9-6.4,2.2c-0.2,0.2-1.8,6.4-1.8,6.9C65.6,77.8,66.4,77.2,69.5,74.8L69.5,74.8z M162.2,74.7
	c-0.1-0.6-0.2-2.7-0.3-4.6l-0.2-3.6l-2.5-0.3c-1.4-0.2-3.4-0.4-4.5-0.6c-1.1-0.2-2-0.2-2-0.2c0,0.4,2.5,6.8,2.8,7
	c0.4,0.4,6.1,3.3,6.5,3.3C162.3,75.8,162.4,75.5,162.2,74.7L162.2,74.7z M47.4,74.3c3.1-0.5,7.8-1.4,8.9-1.6c0.5-0.2,0.5,0-0.3-5.9
	c-0.2-1.9-0.6-4.4-0.9-5.6l-0.4-2.1l-4.2-0.8c-8.1-1.6-16.3-4.2-21.4-6.7l-1-0.6l0.5,0.6c0.2,0.3,1,1.1,1.5,1.7
	c3.9,4.3,9.8,13.5,12.9,20c0.4,0.8,0.8,1.4,0.9,1.4C43.9,74.8,45.6,74.6,47.4,74.3L47.4,74.3z M62.3,71.2c2.3-0.6,4.2-1.2,4.3-1.2
	c0.2-0.2,1.8-8.4,1.8-9.1c0-0.5-0.2-0.6-3-0.6c-1.7-0.1-4.5-0.3-6.3-0.6c-1.8-0.2-3.4-0.3-3.4-0.3c-0.1,0.1,0.1,0.9,0.2,1.8
	c0.2,1,0.6,3.4,0.9,5.7c0.7,5.6,0.7,5.5,1,5.5C58,72.3,60,71.8,62.3,71.2L62.3,71.2z M74.3,71c0.7-0.6,1.4-1.1,1.5-1.3
	c0.8-0.7,3.4-3,3.7-3.1c0.2-0.1,0.2-0.2,0.2-0.2c-0.1-0.1-1.1,0.2-2.3,0.7c-2.1,0.8-2.3,1-2.8,1.9c-0.3,0.6-0.8,1.5-1.2,2.1
	c-0.3,0.6-0.6,1-0.5,1S73.6,71.6,74.3,71z M154,71c-0.2-0.6-0.8-2.2-1.3-3.4c-0.5-1.2-0.8-2.2-0.9-2.2c0,0-1.6-0.4-3.5-0.7
	c-3.4-0.6-3.4-0.6-3.2-0.2c0.5,0.9,3.2,4.1,4,4.7c0.6,0.5,5,3,5.3,3.1C154.4,72.1,154.2,71.6,154,71z M71,68.7
	c1.7-0.6,3.4-1.3,3.6-1.5c0.4-0.4,3.5-6.1,3.5-6.5c0-0.1-2-0.1-4.5-0.1h-4.5l-0.6,3.8c-0.4,2.2-0.7,4.2-0.8,4.5
	c-0.1,0.4-0.1,0.6,0.1,0.6C67.9,69.6,69.3,69.2,71,68.7L71,68.7z M145.8,66.3c-0.6-0.7-1.3-1.7-1.6-2.1c-0.5-0.6-1-0.8-2.8-1.3
	c-1.3-0.3-2.5-0.6-2.6-0.6c-0.2-0.1,1,0.8,2.7,1.9c3.5,2.3,5.2,3.4,5.3,3.4C146.8,67.7,146.3,67.1,145.8,66.3z M81.4,64.6
	c0.8-0.6,4.6-4.3,4.5-4.4c-0.1-0.1-1.6-0.1-3.4,0l-3.4,0.2l-1.6,3.2c-0.9,1.8-1.6,3.2-1.6,3.3C75.9,67,80.9,65,81.4,64.6L81.4,64.6z
	 M80.1,66.1c0-0.1-0.1-0.2-0.2-0.2c-0.1,0-0.2,0.1-0.2,0.2s0.1,0.2,0.2,0.2C80.1,66.2,80.1,66.2,80.1,66.1z M176.3,64.5
	c2.3-7.1,7.3-17.2,11.1-22.5l1.2-1.7l-1.1,0.8c-5.1,3.4-12,6.7-19.9,9.3l-4.7,1.6l-0.2,1.8c-0.1,1-0.2,4.1-0.2,6.8v5l1,0.2
	c1.6,0.2,3.4,0.3,8,0.3l4.2,0.1L176.3,64.5L176.3,64.5z M161.8,60.6c0-2.8,0.1-5.8,0.2-6.8l0.2-1.7l-1.6,0.5
	c-1.3,0.4-7.2,1.7-10.5,2.4c-0.6,0.2-0.7,0.4-0.2,1.9c0.2,0.6,0.8,2.5,1.4,4.3l1,3.3l1.7,0.2c2,0.3,6.6,1,7.3,1h0.6L161.8,60.6
	L161.8,60.6z M151.3,63.8c-0.3-0.7-2.2-6.5-2.4-7.6l-0.2-1l-2.9,0.4c-1.6,0.2-3.7,0.6-4.6,0.6l-1.8,0.2l0.9,1.2
	c0.5,0.6,1.5,2.2,2.3,3.2l1.4,2l3.2,0.6C151.1,64.3,151.6,64.3,151.3,63.8L151.3,63.8z M88.4,61.5c2.2-1.1,4-2.1,4-2.1
	c-0.1-0.1-1.2,0-2.5,0.2l-2.4,0.3l-1.8,1.8c-1,1-1.7,1.8-1.6,1.8S86.1,62.6,88.4,61.5L88.4,61.5z M141.8,61
	c-0.6-0.9-1.2-1.7-1.3-1.8c-0.1-0.2-0.6-0.8-1-1.4l-0.7-1.2l-2.6,0.2c-1.4,0.1-3,0.2-3.7,0.2l-1,0.2l1.5,1.1
	c3.3,2.6,3.5,2.7,6.3,3.4C143.1,62.7,143,62.8,141.8,61L141.8,61z M134.3,60.2c0-0.1-0.1-0.2-0.2-0.2c-0.1,0-0.2,0.1-0.2,0.2
	c0,0.1,0.1,0.2,0.2,0.2C134.2,60.3,134.3,60.3,134.3,60.2z M132.9,59.2c-2.4-2.1-2.5-2.1-5.3-2l-2.6,0.1l4.1,1.4
	c2.2,0.8,4.2,1.4,4.4,1.4C133.7,60,133.5,59.6,132.9,59.2L132.9,59.2z M79.7,57.6c1.4-3,3-6.5,3-6.7c0-0.1-0.6-0.4-1.4-0.6
	c-1.9-0.6-5.6-1.9-8.2-3c-1.1-0.5-2.2-0.9-2.2-0.9c-0.1,0-0.2,1.1-0.3,2.4c-0.2,2.6-0.8,8.4-1,9.9l-0.2,1h4.7h4.7L79.7,57.6z
	 M68.7,57.6c0.4-2.8,0.7-6,0.9-8.9c0.2-2.3,0.2-2.6-0.3-2.7c-1.6-0.6-8.5-4.1-11.5-5.8c-3.5-2.1-8.2-5.3-10.8-7.5l-1.4-1.1l0.8,1.4
	c2.6,4.5,5.3,12.1,7.5,20.6l1.3,5l1.4,0.2c2.6,0.4,8,0.9,9.9,0.9h1.9L68.7,57.6L68.7,57.6z M87.3,58.9c0.3-0.2,0.8-0.6,1-0.9
	c0.2-0.3,0.8-0.9,1.2-1.4c0.5-0.5,1.3-1.4,1.8-2l1-1.1l-1.3-0.3c-0.7-0.2-2.7-0.7-4.4-1.2c-1.8-0.5-3.2-0.8-3.3-0.8S82.6,53,81.7,55
	c-0.9,2-1.8,3.8-1.8,3.9c-0.6,0.6-0.1,0.7,3.3,0.6C85.7,59.3,86.8,59.2,87.3,58.9L87.3,58.9z M92.3,58.6c1.9-0.2,2.5-0.4,4.5-1.5
	c3.8-2,3.8-1.9-0.2-2.7l-3.4-0.7L91.1,56c-1.2,1.3-2.3,2.5-2.4,2.7c-0.2,0.4-0.2,0.4,0.6,0.3C89.7,58.9,91.1,58.7,92.3,58.6z
	 M100.1,57.3c1.5-0.2,3.6-0.7,4.5-1l1.8-0.4l-2.6-0.4l-2.6-0.4l-1.2,0.7c-0.6,0.4-1.6,1-2.2,1.3C96.8,58,96.8,58,100.1,57.3
	L100.1,57.3z M120.5,56.3c-0.1-0.1-1-0.5-2.1-0.9c-1.1-0.5-2.1-0.9-2.2-1c-0.1-0.1-1,0.1-2.1,0.4c-1,0.3-2.1,0.6-2.3,0.6
	c-0.2,0-0.5,0.1-0.5,0.2c0,0.2,1.4,0.3,3.1,0.4c1.8,0.1,3.3,0.2,3.4,0.2C118.2,56.4,120.5,56.4,120.5,56.3L120.5,56.3z M129.1,56.2
	c0-0.2-2.6-2.4-4.7-4.1c-0.6-0.4-0.6-0.4-3.6,0.6c-1.7,0.6-3.2,1.1-3.3,1.2c-0.1,0.1,1,0.7,2.5,1.3l2.6,1.1h3.3
	C127.6,56.4,129.1,56.3,129.1,56.2L129.1,56.2z M136.7,56c1.5-0.2,1.5-0.2,1.2-0.6c-0.6-0.9-4.2-6.9-4.4-7.4c-0.1-0.1-0.6,0-1.2,0.3
	c-0.6,0.3-2.6,1.1-4.4,1.8l-3.3,1.4l2.2,1.8c1.2,1,2.5,2.2,3,2.5c0.7,0.6,0.8,0.7,3.1,0.6C134,56.1,135.8,56,136.7,56L136.7,56z
	 M144.6,55.1c3.4-0.5,4-0.6,3.8-1c-0.3-0.7-1.7-6.5-2.2-9.4c-0.3-1.6-0.6-3-0.7-3c-0.1-0.1-0.5,0.1-1,0.4c-1.8,1-7.7,4.1-9.7,5
	c-0.5,0.2-0.8,0.4-0.8,0.5c0,0.2,2.6,4.5,4,6.8c0.9,1.4,1,1.5,1.8,1.4C140.2,55.6,142.3,55.4,144.6,55.1L144.6,55.1z M111.2,54.8
	c1.1-0.3,2.4-0.6,2.9-0.8l0.8-0.2l-3.2-1.6c-1.8-0.9-3.3-1.6-3.4-1.6c-0.1,0-0.9,0.5-1.8,1.1c-0.9,0.6-2.2,1.5-3,2
	c-0.8,0.5-1.3,0.9-1,0.9c0.2,0,1.3,0.2,2.3,0.3C107.7,55.5,108.9,55.4,111.2,54.8L111.2,54.8z M102.5,53.6c2-1.2,4.9-3.2,4.9-3.4
	c0-0.1-0.6-0.5-1.4-0.9c-0.8-0.4-2.5-1.4-3.8-2.2c-1.4-0.8-2.5-1.4-2.6-1.4c-0.2,0-5.5,6.8-5.5,7c0,0.2,5.7,1.4,6.7,1.5
	C101.1,54.4,101.8,54,102.5,53.6z M152.8,53.7c1-0.2,3.4-0.7,5.3-1.2c3.1-0.7,3.7-1,3.9-1.4c0.1-0.3,0.3-1.8,0.5-3.4
	c0.7-7.7,2.8-16.9,5.1-22.7l0.6-1.5l-3.5,3.4c-3.7,3.6-5.7,5.3-9.5,8.1c-2.3,1.7-6.5,4.5-8.1,5.4c-0.5,0.2-0.8,0.6-0.8,0.7
	c0,1,2.5,12.4,2.9,13C149.3,54.4,149.9,54.4,152.8,53.7L152.8,53.7z M119.7,52.3c1.9-0.6,3.4-1.2,3.4-1.2c0-0.1-0.5-0.6-1-1
	c-0.6-0.6-2.1-2-3.4-3.2l-2.3-2.2l-1,0.8c-0.6,0.5-1.6,1.3-2.3,1.8c-0.7,0.6-1.9,1.4-2.6,1.9c-0.8,0.5-1.4,1-1.3,1
	c0.2,0.2,6.5,3.3,6.7,3.3C116.1,53.4,117.8,52.9,119.7,52.3L119.7,52.3z M93.4,52.2c1.4-1.6,5.4-6.8,5.4-6.9c0-0.1-1.4-1-3-2.2
	c-1.7-1.1-4-2.7-5.2-3.6c-1.2-0.9-2.2-1.6-2.4-1.4c-0.1,0.1-0.5,1.3-1,2.6c-1,3-2,5.9-2.2,6.5c-0.2,0.6-1.2,3-1.2,3.2
	c0,0.1,3.6,1.1,7.3,2.1C92.5,52.8,93,52.7,93.4,52.2z M129,48.9l4-1.7l-1-1.8c-0.9-1.6-4.2-8.3-4.8-9.7c-0.2-0.6-0.3-0.5-1.7,0.9
	c-0.8,0.8-3,2.6-4.7,4.2c-1.8,1.6-3.3,3-3.4,3c-0.2,0.2,1,1.4,3.1,3.5c2.8,2.8,3.4,3.3,3.9,3.2C124.8,50.5,126.8,49.7,129,48.9
	L129,48.9z M83.4,49c0.2-0.6,0.6-1.5,0.8-1.9c0.6-1.4,3.3-9.3,3.3-9.7c0-0.1-0.9-0.9-1.9-1.7c-5.4-4.2-12.8-11.9-16.4-16.9
	c-0.6-0.8-1.1-1.4-1.1-1.4c-0.1,0.1,0.2,1,0.4,2.2c1.4,5.7,2,11.8,2.1,19.9l0.1,6.2l1.6,0.7c0.9,0.4,2.1,0.9,2.6,1
	c0.6,0.2,2.6,1,4.5,1.6c1.9,0.6,3.4,1.2,3.5,1.2C82.9,50.2,83.2,49.7,83.4,49L83.4,49z M109.6,48.9c0.6-0.5,1.3-0.9,1.4-1
	s0.6-0.4,0.8-0.6c0.3-0.2,0.6-0.5,0.8-0.6c0.2-0.2,1-0.8,1.8-1.4l1.6-1.2l-0.7-0.7c-0.4-0.4-1-1.1-1.4-1.5s-1.2-1.4-1.8-2.1
	c-0.6-0.7-1.2-1.4-1.4-1.6c-0.2-0.2-0.7-0.8-1.2-1.5c-1.5-1.9-2.3-2.7-2.3-2.4c0,0.2-0.3,0.8-0.7,1.4c-0.4,0.6-1,1.4-1.3,2
	c-0.3,0.6-0.9,1.4-1.3,2s-1.4,2-2.3,3.3c-1.6,2.2-1.6,2.3-1,2.6c1.8,1.1,2.7,1.7,4.7,2.7c1.2,0.6,2.3,1.3,2.5,1.4
	C108.2,49.8,108.4,49.7,109.6,48.9L109.6,48.9z M137.1,45.2c1.8-0.9,4.3-2.2,5.7-3l2.5-1.4v-1c0-0.6-0.2-2.5-0.4-4.3
	c-0.6-4.5-0.9-9.3-0.9-12.9c0-2.9,0.3-8.6,0.6-10.1c0.1-0.5-0.4,0.2-1.3,1.7c-3.4,6-7.4,11.3-13.4,17.9c-1.2,1.3-2.2,2.4-2.2,2.5
	c-0.2,0.4,3.4,7.8,5.3,11.2c0.3,0.5,0.6,1,0.6,1C133.8,46.8,135.3,46.1,137.1,45.2L137.1,45.2z M101.2,42.1c0.9-1.3,1.8-2.6,2.1-3
	c0.3-0.4,0.8-1.2,1.1-1.8c0.3-0.6,0.8-1.3,1-1.7c0.2-0.3,0.6-1,1-1.5l0.5-0.9l-1.4-2c-4.8-6.5-9.9-15.2-11.9-20.7L92.9,9l-0.2,3
	c-0.5,8.1-1.8,16.4-4.2,24.6c-0.1,0.4,0.2,0.8,2,2.2c3.1,2.3,8.5,5.9,8.8,5.8C99.5,44.4,100.3,43.4,101.2,42.1L101.2,42.1z
	 M118.2,42.2c0.5-0.4,1.8-1.6,3-2.6c3.4-3,5.5-5.1,5.3-5.4c-3.5-8.2-6.1-16.5-7.1-23.7l-0.6-3.5l-0.5,1.8c-0.6,2.6-2.8,8.9-4,11.6
	c-1,2.4-4.4,8.9-5.3,10.7c-0.6,1-1.1,2.1-1.1,2.2c0,0.3,3.5,4.5,6.9,8.4C116.8,43.8,116.5,43.7,118.2,42.2L118.2,42.2z M92.9,8.5
	c0-0.1-0.1-0.2-0.2-0.2c-0.1,0-0.2,0.1-0.2,0.2s0.1,0.2,0.2,0.2C92.8,8.6,92.9,8.6,92.9,8.5z"/>
</svg>
