<?xml version="1.0" encoding="UTF-8"?>
<svg id="Layer_2" data-name="Layer 2" xmlns="http://www.w3.org/2000/svg" viewBox="0 0 129.82 134.28">
  <defs>
    <style>
      .cls-1 {
        fill: #0caf33;
      }
    </style>
  </defs>
  <g id="Calque_1" data-name="Calque 1">
    <path id="path3448" class="cls-1" d="m68.68,134.1c-.03-.11-.17-.76-.3-1.45-.8-4.22-3.32-10.61-6.01-15.25l-.63-1.1-.35.43c-3.29,4.09-7.49,11.82-8.36,15.4-.2.81-.42,1.19-.59,1.01-.06-.06-.05-.82.02-1.67.34-4.07-.86-12.49-2.46-17.3-.1-.29-2.36,1.57-5.01,4.12-3.24,3.13-5.95,6.42-7.36,8.93-.67,1.2-.87.91-.4-.59.48-1.52,1.07-4.19,1.35-6.06.67-4.61.9-11.78.36-11.78-.08,0-1.16.49-2.4,1.08-4.55,2.19-9.06,5.16-11.81,7.77-.8.76-1.49,1.31-1.53,1.24-.05-.07.26-.69.67-1.38,1.49-2.46,2.88-5.64,4.08-9.32.66-2.02,2.03-7.26,1.93-7.36-.09-.09-4.43.8-6.32,1.28-3.74.96-7.72,2.48-10.07,3.84-1.45.84-1.88.78-.86-.12,1.93-1.7,5.15-5.92,7.41-9.71,1.17-1.96,2.86-5.23,2.76-5.33-.11-.1-5.18-.38-6.74-.38-3.61,0-8.13.53-10.6,1.25-1.09.32-1.31.33-1.31.08,0-.06.58-.43,1.29-.83,1.24-.69,4.03-2.64,5.08-3.54,2.69-2.32,5.18-4.82,7.58-7.58l.4-.46-1.43-.53c-4.71-1.76-10.68-3-14.99-3.13-1.1-.03-2.03-.06-2.07-.07-.04,0,0-.08.09-.16s.76-.31,1.51-.51c2.8-.75,6.83-2.5,9.9-4.3,1.46-.86,5.54-3.47,5.54-3.55s-4.07-2.69-5.54-3.55c-3.07-1.8-7.1-3.55-9.9-4.3-.75-.2-1.42-.43-1.51-.51s-.12-.16-.09-.16c.04,0,.97-.03,2.07-.07,4.31-.12,10.28-1.37,15-3.13,1.13-.42,1.4-.58,1.26-.72-.1-.1-.51-.57-.92-1.04-1.85-2.15-4.31-4.58-6.89-6.81-1.04-.9-3.83-2.85-5.07-3.54-.71-.4-1.29-.77-1.29-.83,0-.25.22-.24,1.31.08,2.47.72,6.99,1.25,10.6,1.25,1.64,0,6.64-.29,6.75-.39.06-.05-.57-1.32-1.72-3.46-2.08-3.88-5.05-8.05-7.6-10.69-.81-.84-1.43-1.58-1.37-1.63.06-.06.68.22,1.37.62,2.35,1.36,6.34,2.87,10.07,3.84,1.89.49,6.23,1.37,6.32,1.28.03-.03-.25-1.25-.61-2.71-1.51-5.99-3.43-10.88-5.67-14.4-.27-.43-.46-.85-.4-.93.05-.08.74.47,1.54,1.23,2.76,2.62,7.21,5.55,11.78,7.76,1.26.61,2.35,1.1,2.43,1.1.53,0,.31-7.19-.36-11.78-.27-1.87-.87-4.54-1.35-6.06-.47-1.49-.27-1.78.4-.59,1.11,1.99,3.55,5.1,5.75,7.36,2.58,2.65,6.44,6.01,6.6,5.75.13-.2.94-3.45,1.33-5.3.89-4.22,1.37-9.31,1.14-12.07-.07-.86-.08-1.61-.02-1.67.17-.18.39.2.59,1.01.87,3.56,5.12,11.39,8.36,15.4l.35.44.62-1.1c1.14-2.02,3.13-6.19,3.79-7.92,1.2-3.17,1.73-4.89,2.19-7.19.18-.9.4-1.66.48-1.67.08-.02.19.61.26,1.45.23,3.1.88,6.37,2.05,10.27.69,2.3,2.25,6.47,2.52,6.76.13.14.34-.06,2.08-1.96.82-.89,2.57-3.01,3.75-4.54,1.29-1.67,3.27-4.87,4.26-6.88,1.06-2.14,1.47-2.55,1.15-1.13-.94,4.16-.93,10.8.02,17.42l.16,1.13,1.42-.9c1.88-1.18,4.22-2.85,5.95-4.24,1.87-1.49,4.95-4.51,6.1-5.97.5-.64.96-1.17,1.01-1.17.28,0,.23.27-.22,1.16-1.76,3.55-3.34,9.83-3.98,15.85l-.19,1.82.46-.1c.88-.19,4.77-1.58,6.68-2.38,3.35-1.41,6.77-3.33,8.99-5.03.9-.69,1.34-.64.67.07-1.38,1.49-3.4,4.67-5.07,8.01-1.63,3.27-3.63,8.22-3.41,8.44.14.14,5.2-.26,7.32-.57,3.77-.55,7.27-1.43,9.65-2.44.68-.29,1.29-.47,1.36-.4.07.07-.46.56-1.18,1.09-2.77,2.06-6.51,6.01-9.15,9.69-1.52,2.11-2.31,3.37-2.2,3.48.17.16,3.48.82,5.9,1.16,4.21.61,9.67.68,11.97.17.65-.14,1-.02.67.24-.11.08-.52.27-.93.41-1.95.71-5.05,2.43-8.04,4.48-2.65,1.81-6.78,5.28-6.62,5.54.11.18,3.97,2.05,5.62,2.72,3.58,1.47,7.32,2.57,10.21,3,.95.14,1.73.32,1.73.4s-.78.26-1.73.4c-3.13.47-7.22,1.72-11.17,3.42-1.58.68-4.42,2.09-4.63,2.31-.07.07.33.52.89,1.02,4.22,3.77,9.21,7.1,13.03,8.7.72.3,1.4.59,1.51.65.26.14.16.4-.13.36-.12-.02-.76-.11-1.41-.2-1.49-.22-6.29-.22-8.45,0-2.8.29-8.14,1.23-8.42,1.49-.07.06.31.74.83,1.51,3.25,4.79,7.23,9.2,10.52,11.64.72.53,1.25,1.02,1.18,1.09-.07.07-.68-.11-1.36-.4-2.46-1.04-6.45-2.02-10.16-2.5-2.11-.27-5.02-.52-6.12-.53-.91,0-.91-.19-.07,2.07,1.28,3.46,3.26,7.63,4.84,10.18.9,1.46,2.41,3.56,3.02,4.22.66.71.22.76-.67.07-2.25-1.73-5.57-3.59-8.99-5.03-1.91-.8-5.8-2.19-6.68-2.38l-.46-.1.18,1.68c.67,6.24,2.22,12.47,3.96,15.91.48.95.54,1.24.25,1.24-.05,0-.51-.52-1.01-1.17-1.14-1.45-4.23-4.48-6.1-5.97-1.74-1.39-4.08-3.05-5.95-4.24l-1.42-.9-.16,1.13c-.95,6.62-.96,13.26-.02,17.42.32,1.42-.09,1.01-1.15-1.13-.99-2-2.98-5.21-4.26-6.88-1.16-1.5-2.49-3.11-3.44-4.17-1.93-2.14-2.26-2.47-2.39-2.32-.07.08-.5,1.07-.95,2.21-1.93,4.88-3.34,10.64-3.6,14.65-.11,1.43-.27,2.02-.44,1.53h0Zm1.18-8.74c.78-3.11,2-6.65,3.43-10.02.1-.24-1.08-1.37-5.15-4.97l-.8-.71-.71.79c-2.27,2.5-4.55,5.22-4.55,5.43,0,.08.31.67.69,1.31,2.15,3.64,4.78,9.88,5.63,13.41l.27,1.12.33-2.11c.18-1.16.57-3.06.86-4.23h0Zm-16.82,5.43s-.03-.07-.07-.07-.07.03-.07.07.03.07.07.07.07-.03.07-.07Zm2.08-4.89c1.66-3.25,3.53-6.25,5.5-8.85l.87-1.14-.28-.49c-.32-.57-1.36-2.22-1.8-2.86-.17-.25-.77-1.13-1.34-1.96s-1.1-1.52-1.16-1.52c-.31,0-6.53,4.37-6.53,4.58,0,.05.14.55.3,1.12,1.24,4.28,2.03,9.07,2.3,13.92l.1,1.77.45-1.17c.25-.64.97-2.17,1.59-3.4Zm28.88,1.63c-.42-3.22-.31-8.74.26-13.19.41-3.18.47-2.95-.92-3.73-2.21-1.24-5.73-2.9-5.86-2.77-.25.25-2.97,5.6-3.4,6.69-.19.47-.18.51.38,1.11.32.34.62.65.66.69.59.53,3.3,3.76,4.8,5.69.85,1.11,3.04,4.48,3.64,5.61.29.54.53.96.54.95.01-.01-.03-.49-.11-1.06h0Zm-44.93-3.26c2.36-3.19,6.45-7.39,9.64-9.91.59-.47,1.08-.89,1.08-.95,0-.23-.95-3.05-1.8-5.32l-.89-2.4-2.39.83c-1.31.46-2.99,1.08-3.73,1.38l-1.33.56.05,1.98c.11,4.65-.5,10.52-1.54,14.72-.14.55-.15.56.92-.89h0Zm58.94-3.47c-1.32-3.38-2.43-8.22-2.96-13.04-.35-3.13-.12-2.81-2.37-3.38-2.81-.71-5.58-1.25-5.71-1.11-.22.23-1.77,7.08-1.77,7.83,0,.08.22.28.48.43,3.56,2.04,8.22,5.69,11.37,8.88.69.7,1.27,1.27,1.29,1.27s-.13-.4-.32-.88h0Zm-69.94-6.45c2.79-2.03,7.08-4.48,10.28-5.84l.8-.34-.1-1.51c-.12-1.79-.31-3.71-.54-5.42l-.17-1.24-1.78.1c-2.15.12-5.92.53-6.05.67-.05.05-.4,1.33-.78,2.84-1.14,4.59-2.5,8.45-4.11,11.67l-.84,1.68.76-.65c.42-.36,1.56-1.24,2.54-1.95h0Zm34.97-.45c.32-.41.66-.81.74-.9.08-.09.45-.52.82-.95.37-.44.87-1,1.11-1.26s.63-.67.86-.92l.42-.45-.94-.72c-.52-.4-1.01-.78-1.1-.87s-.32-.25-.5-.37c-.18-.12-.41-.29-.5-.37s-.49-.37-.89-.65c-.68-.48-.74-.49-1.11-.28-.21.12-.92.51-1.57.86-1.06.57-1.63.9-2.7,1.57-.32.2-.32.22.78,1.8,1.58,2.3,1.63,2.37,2.44,3.64.41.63.74,1.23.74,1.33,0,.19.5-.33,1.4-1.46h0Zm11.88-2.07c.59-1.22,1.34-2.7,1.66-3.28l.58-1.05-2.33-.97c-1.28-.54-2.51-1.02-2.72-1.08-.36-.09-.59.09-2.4,1.87-1.1,1.08-1.98,2.02-1.96,2.07.02.05.94.9,2.04,1.88,1.1.98,2.4,2.16,2.89,2.6.85.78.89.8,1.03.49.08-.18.63-1.32,1.22-2.54Zm-21.06-1.31c.98-.68,2-1.36,2.26-1.51.27-.16.48-.33.48-.38,0-.09-1.78-2.38-3.02-3.87-.25-.31-.56-.55-.69-.56-.24,0-5.19,1.29-5.28,1.38-.03.03.33,1.04.78,2.26.46,1.21,1.03,2.84,1.28,3.62.25.77.48,1.46.52,1.52.04.06.48-.18.98-.55.5-.37,1.71-1.23,2.69-1.9h0Zm56.11.08c-2.34-3.31-5.27-9.24-6.71-13.58l-.34-1.02-3.57.1c-1.96.05-3.75.14-3.97.19l-.41.09v3c0,1.65.04,3.49.1,4.09l.1,1.1,2.86.94c4.69,1.55,9.28,3.71,11.91,5.6.37.26.68.48.7.49.02,0-.28-.44-.67-.99h0Zm-25.16-.07c.04-.18.25-1.2.46-2.26.21-1.06.58-2.66.81-3.55s.41-1.64.4-1.66c-.03-.03-3.89-.55-5.1-.69-.61-.07-.65-.05-.93.47-.16.3-.66,1.11-1.1,1.8-.87,1.36-1.6,2.68-1.53,2.73.03.02.31.15.64.3,1.65.74,5.11,2.54,5.78,2.99.4.27.5.25.58-.14h0Zm-16.18-2.79c.75-.74,1.65-1.61,2-1.93.35-.32.63-.61.63-.64s-.94-.37-2.08-.74c-1.35-.44-2.2-.65-2.41-.58-.44.14-2.98,1.35-3.53,1.68l-.44.27.8.53c.44.29,1.43,1.03,2.19,1.64s1.41,1.12,1.43,1.12c.02,0,.65-.6,1.41-1.34h0Zm-10.02-.26c.8-.47,1.84-1.06,2.31-1.29.47-.24.85-.48.85-.54,0-.11-1.91-1.43-3.16-2.19l-.57-.34-2.1.41c-1.16.22-2.15.46-2.22.51s.4.73,1.04,1.51c.63.77,1.39,1.71,1.67,2.09s.56.69.62.7c.05,0,.75-.38,1.55-.86h0Zm-17.65-.08c.65-.27,2.21-.85,3.48-1.29,1.26-.43,2.32-.81,2.36-.84.07-.06-.65-1.77-1.65-3.86l-.72-1.52h-5.66l.1.59c.15.93.51,4.39.62,5.97.05.8.15,1.44.2,1.44.06,0,.63-.22,1.28-.5h0Zm36.86-1.02c.46-.89,1.78-3.07,1.99-3.31.08-.09.22-.3.31-.47.19-.35.14-.35-3.05-.57l-1.37-.09-1.7,1.43c-1.75,1.47-1.99,1.7-1.72,1.7.17,0,3.35,1.29,4.38,1.78.33.15.63.28.67.29.04,0,.26-.34.48-.77Zm-13.48-1.94l1.9-.94-1.7-.47c-.93-.26-1.96-.46-2.27-.46-.58,0-3.31.38-3.4.47-.07.07,3.22,2.3,3.41,2.32.09.01,1.01-.4,2.05-.92h0Zm-47.48-.61c3.15-1.29,6.56-2.27,10.63-3.05l2.53-.49.24-1.27c.22-1.14.69-4.33.9-6.11.1-.81.25-.71-1.94-1.15-2.4-.47-5.71-.92-5.83-.8-.06.06-.41.68-.77,1.38-2.48,4.78-4.74,8.25-7.27,11.19-1.51,1.75-1.44,1.64-.73,1.28.35-.18,1.36-.62,2.25-.98Zm33.22.57l2.61-.69-.61-.66c-.33-.37-1.06-1.14-1.59-1.71l-.99-1.05-1.16-.11c-1.58-.14-3.35-.15-3.28-.01.03.06.32.68.65,1.37s.82,1.78,1.1,2.41.54,1.15.58,1.15c.05,0,1.26-.31,2.7-.69Zm22.76-.61c.64-.55,1.34-1.14,1.57-1.32.22-.18.4-.36.4-.41s-.84-.09-1.88-.09h-1.88l-1.68.69c-.93.38-1.64.73-1.59.78.08.08,3.57,1.31,3.8,1.34.05,0,.62-.44,1.26-.99h0Zm21.7-3.33c-.03-2.22-.08-4.06-.1-4.08-.05-.05-3.2.34-4.69.58l-.99.16-.62,1.95c-.34,1.07-.71,2.24-.82,2.59-.28.87-.26,1.05.13,1.13,3.15.63,7.08,1.57,7.16,1.7,0,0-.02-1.81-.05-4.03h0Zm-38.96,2.68c1.4-.27,1.7-.37,1.57-.53-.09-.11-.84-.56-1.66-1-1.33-.71-1.65-.82-2.83-.96-.73-.09-1.6-.2-1.92-.25l-.59-.09,1.54,1.66c1.21,1.3,1.61,1.64,1.85,1.58.17-.04,1.09-.22,2.04-.41h0Zm13.34-.8c.39-.15.68-.3.64-.33s-1.07,0-2.3.1c-1.23.09-2.43.16-2.68.16-.8,0-.46.22.93.59l1.37.37.67-.31c.37-.17.99-.43,1.38-.58h0Zm-8.79-.4c-1.44-.34-4.46-.88-4.53-.81-.03.03.29.25.72.48s.98.56,1.24.74c.45.31.49.31,2.07.08l1.61-.23-1.1-.26h0Zm27.38-2.34c.32-1.02.64-1.97.7-2.11.15-.34.09-.34-2.35.14l-2.06.4-.86,1.19c-.47.66-1.1,1.53-1.39,1.93l-.53.74.49.04c1.07.1,4.93.65,5,.72.04.04.15-.21.25-.57.1-.35.44-1.48.76-2.49h0Zm-22.51,2.21c.95-.08,2.73-.21,3.95-.28l2.22-.13,3.85-1.29c4.01-1.34,4.45-1.52,5.18-2.1q.66-.51,1.78-1.23c.57-.36,1.07-.7,1.11-.76s.31-.21.59-.36.55-.31.59-.37c.04-.06.29-.22.55-.35.74-.38,1.57-.97,1.89-1.34.16-.19.53-.61.82-.93s.86-.98,1.28-1.46,1.37-1.51,2.11-2.28c1.16-1.21,1.46-1.65,2.19-3.11.46-.94,1.37-2.63,2.01-3.77,1.05-1.85,1.2-2.23,1.52-3.71.42-1.91,1.32-5.46,1.55-6.06.1-.27.16-2.15.16-5.21s-.06-4.95-.16-5.21c-.23-.6-1.13-4.14-1.55-6.05-.31-1.41-.48-1.86-1.32-3.33-.53-.94-1.44-2.64-2.01-3.78-.93-1.86-1.18-2.22-2.38-3.48-.74-.77-1.69-1.8-2.11-2.28-.42-.48-1-1.14-1.28-1.46s-.65-.74-.82-.93c-.33-.37-1.16-.96-1.89-1.34-.26-.14-.51-.29-.55-.35s-.31-.22-.59-.37-.55-.31-.59-.36-.54-.39-1.11-.76q-1.12-.72-1.78-1.23c-.74-.58-1.18-.76-5.18-2.1l-3.85-1.29-2.07-.12c-1.14-.07-3.11-.2-4.37-.3l-2.3-.18-2.07.46c-1.14.26-3.01.63-4.16.82-2.02.35-2.14.39-4.3,1.5-1.22.63-2.92,1.46-3.79,1.85-1.4.63-1.78.89-3.48,2.39-1.05.93-2.52,2.17-3.27,2.77-1.19.95-1.52,1.32-2.66,3.02-.72,1.06-1.44,2.12-1.6,2.34-.16.22-.43.6-.59.83s-.57.77-.9,1.19c-.42.53-.78,1.24-1.17,2.37-.31.89-1.02,2.75-1.57,4.13-.95,2.38-1.02,2.62-1.18,4.3-.09.98-.33,2.94-.53,4.37l-.37,2.59.37,2.6c.2,1.43.44,3.4.53,4.37.15,1.6.24,1.96.92,3.63.42,1.02,1.14,2.9,1.61,4.18.63,1.73,1,2.51,1.43,3.04.32.39.71.9.87,1.14s.42.61.59.83c.16.22.88,1.28,1.6,2.34,1.14,1.7,1.47,2.07,2.66,3.02.75.59,2.22,1.84,3.27,2.77,1.7,1.5,2.08,1.76,3.48,2.39.87.39,2.57,1.22,3.79,1.85q2.21,1.14,4.67,1.57c1.35.24,3.12.59,3.94.79,1.74.41,2.19.44,4.5.23h0Zm16.1-.7c.24-.38.5-.76.56-.85.63-.77,1.41-2,1.27-2-.1,0-.95.21-1.89.46-1.76.47-1.9.54-3.88,2.09l-.89.69.64.09c.57.08,1.38.13,3.15.2.55.02.62-.02,1.03-.67Zm-4.52-.42c.58-.46,1.03-.87.99-.91-.07-.07-3.9,1.16-4.76,1.53-.4.17-.29.19,1.13.2h1.58s1.06-.82,1.06-.82h0Zm-42.37-.88c1.18-.12,2.57-.21,3.07-.21.81,0,.93-.04.93-.29,0-.29-.84-4.93-.97-5.37-.05-.16-.6-.39-1.74-.69-2.6-.71-3.67-.96-3.75-.88-.04.04-.2,1.07-.36,2.28-.27,2.11-.65,4.47-.84,5.22-.09.35-.08.35.71.25.44-.06,1.77-.2,2.95-.31h0Zm18.1.07c-.61-.37-4.43-2.22-4.6-2.22-.06,0,.37.49.98,1.1l1.1,1.1,1.14.14c.63.08,1.31.15,1.51.16.35.02.34,0-.12-.28h0Zm-3.43-.25c0-.06-.62-.69-1.37-1.41-1.43-1.36-1.38-1.34-4.67-2.6-.11-.04,0,.25.23.65s.71,1.3,1.07,2.01l.65,1.29,1.42.05c.78.03,1.71.06,2.05.08.35.02.63-.01.63-.07h0Zm29.04.03s-.03-.07-.07-.07-.07.03-.07.07.03.07.07.07.07-.03.07-.07Zm-33.78-.28c0-.16-1.7-3.34-1.99-3.72-.28-.37-.69-.56-2.3-1.09-1.08-.35-1.99-.61-2.02-.58s.15,1.27.42,2.75l.48,2.69h2.7c1.49,0,2.7-.03,2.7-.06h0Zm38.02-1.42l1.35-.32.99-1.26c.54-.69.9-1.21.8-1.15-.79.44-4.98,3.23-4.71,3.13.12-.04.83-.22,1.57-.4h0Zm36.4-.72c-2.99-2.66-6.3-6.55-8.99-10.57-.48-.71-.94-1.3-1.02-1.3-.68,0-7.51,2.15-7.51,2.36s1.04,4.13,1.49,5.64c.26.86.5,1.7.54,1.87.07.29.2.32,2.17.42,4.78.24,10.33,1.18,13.44,2.29.45.16.87.3.93.3.06,0-.4-.45-1.04-1.01h0Zm-31.96-.25c1.04-.2,1.9-.38,1.91-.4.01-.02.25-.64.52-1.37.27-.73.62-1.66.77-2.05l.28-.72-1.15.63c-2.13,1.16-2.35,1.36-4.27,3.76-.48.6-.53.71-.26.62.18-.05,1.17-.27,2.21-.46h0Zm6.38-.95l1.5-.18.1-2.16c.05-1.19.14-2.45.19-2.8.06-.44.03-.64-.08-.64-.22,0-3.74,1.75-3.97,1.98-.16.16-1.68,3.99-1.68,4.24,0,.06.55.02,1.22-.07.67-.1,1.9-.26,2.72-.36h0Zm-47.65.07s-.03-.07-.07-.07-.07.03-.07.07.03.07.07.07.07-.03.07-.07Zm-.39-.34c-.14-.09-1.71-1.44-2.19-1.88-.58-.54-1.74-1.43-1.79-1.38-.03.03.1.33.3.65s.5.87.68,1.21c.3.57.44.66,1.67,1.13.74.28,1.38.48,1.42.45.04-.04,0-.11-.09-.17h0Zm54.23-.13c3.49-.1,3.53-.1,3.46-.41-.04-.17-.25-.88-.46-1.57s-.65-2.29-.97-3.54c-.32-1.26-.61-2.3-.63-2.32-.02-.02-.24.05-.48.16-.24.11-.91.38-1.48.6s-1.3.52-1.63.66-.83.36-1.12.48c-.51.21-.54.26-.63,1.13-.05.5-.14,1.85-.2,3l-.1,2.1.36-.1c.2-.05,1.95-.14,3.89-.2h0Zm-57.77-1.34c-.13-.22-.46-.77-.74-1.22-.28-.45-.61-1.01-.74-1.26-.13-.25-.47-.61-.76-.82-.28-.2-.59-.44-.69-.52s-.51-.38-.92-.67-.79-.58-.85-.66c-.19-.26-.13.08.39,2.15.28,1.1.59,2.05.7,2.12.2.12,3.52,1.26,3.72,1.28.06,0,0-.17-.12-.4h0Zm-4.37-1.26c0-.1-.25-1.14-.56-2.31l-.56-2.12-1.85-1.23c-1.51-1-1.87-1.19-1.94-.99-.05.13-.14,1.27-.19,2.53s-.14,2.43-.18,2.6c-.07.28.05.34,1.3.64.76.18,1.91.49,2.56.68,1.45.43,1.41.42,1.41.2Zm53.51-1.55c.06-.15.34-.82.63-1.5l.53-1.23-1.08,1.16c-.97,1.04-1.8,1.97-2.69,2.99-.23.27.02.18,1.1-.4.77-.41,1.45-.87,1.51-1.01Zm-59.24-.08c.04-.18.12-1.23.17-2.33.05-1.1.12-2.27.16-2.59l.07-.59-1.23-.76c-.67-.42-1.81-1.07-2.52-1.45l-1.3-.69-.15.42c-.46,1.25-2.15,5.34-2.51,6.08-.23.47-.4.88-.38.9s.93.17,2.02.33c1.55.23,3.75.63,5.49,1.01.05.01.13-.13.17-.31Zm61.47-.78c.92-.45,1.78-.87,1.9-.94.16-.09.29-.71.46-2.25.14-1.17.23-2.15.22-2.16s-.66.59-1.45,1.33c-1.39,1.33-1.44,1.4-2.17,3.1-.41.96-.73,1.74-.7,1.74s.81-.37,1.73-.82h0Zm-83.96-.14c1.77-.28,5.07-.52,7.21-.52,1.67,0,5.87.23,6.66.36.36.06.43-.03.94-1.12.53-1.15,2.32-5.51,2.51-6.14.08-.27-.13-.42-1.94-1.29-1.12-.54-2.75-1.28-3.61-1.64l-1.57-.66-2.2,2.38c-3.29,3.56-6.06,6.02-9.3,8.29-.97.68-1.01.73-.53.64.29-.06,1.12-.2,1.85-.31h0Zm29.11-1.67c-.48-.71-1.08-1.56-1.32-1.89-.25-.33-.52-.74-.62-.93-.2-.39-.5-.45-.35-.07.05.14.24.76.4,1.37l.3,1.11,1.19.85c.66.47,1.21.85,1.24.85.02,0-.36-.58-.84-1.29h0Zm58.87-.01c.35-.16,1.1-.46,1.67-.68,1.96-.76,2.04-.8,1.94-1.25-.05-.22-.26-1.36-.47-2.54-.44-2.46-.46-2.52-.61-2.51-.06,0-.85.66-1.74,1.45l-1.63,1.45-.17,1.18c-.09.65-.22,1.7-.27,2.33l-.11,1.15.39-.15c.21-.08.67-.27,1.02-.43h0Zm-61.18-1.32c-.05-.22-.32-1.07-.59-1.87-.5-1.5-.6-1.66-2.03-3.41l-.84-1.02v4.44l1.67,1.12c.92.61,1.72,1.12,1.78,1.13.06,0,.07-.17.01-.39h0Zm66.21-.62c1.08-.4,3.97-1.28,5.28-1.63.6-.16,1.12-.32,1.16-.36s-.22-.57-.58-1.16c-.99-1.63-3.07-5.44-3.07-5.61,0-.08-.06-.15-.13-.15-.14,0-3.34,2.36-4.14,3.06l-.49.43.31,1.85c.35,2.03.74,3.85.82,3.85.03,0,.41-.13.84-.29h0Zm-7.32-1.46l1.04-1,.23-1.4c.13-.77.21-1.42.18-1.45-.07-.07-1.78,3.01-2.22,4.01-.2.46-.35.84-.32.84s.52-.45,1.09-1Zm-58.94.04s-.03-.07-.07-.07-.07.03-.07.07.03.07.07.07.07-.03.07-.07Zm-4.05-4.97c-.11-.16-.76-.9-1.45-1.64-.69-.75-1.27-1.42-1.3-1.49-.12-.32-.3-.05-.54.8-.14.51-.52,1.71-.85,2.68-.33.96-.57,1.76-.54,1.78.03.01.21.12.41.23.2.11,1.02.56,1.83,1.01s1.72.97,2.02,1.17l.54.37.04-2.3c.03-1.75-.01-2.38-.16-2.6h0Zm79.31,3.87c4.2-.89,7.39-1.23,11.45-1.24h3.08s-.85-.44-.85-.44c-3.86-1.96-8.78-5.42-11.95-8.41-.39-.37-.77-.69-.84-.72-.18-.07-2.08,1.03-4.69,2.7-1.83,1.17-2.1,1.4-2.04,1.67.04.18.63,1.31,1.31,2.52,2.38,4.24,2.47,4.37,2.84,4.28.16-.04.93-.2,1.7-.37h0Zm-13.69-1.3c.4-.34.93-.8,1.17-1.01s.59-.49.76-.61c.33-.23.35-.02-.17-3.9-.11-.8-.15-.76-1.32,1.15-.77,1.27-.88,1.54-1.13,2.96-.15.86-.31,1.76-.35,1.99-.06.34-.04.38.12.22.1-.11.52-.48.92-.81h0Zm-63.39-1.2c-.18-.47-.64-1.65-1.04-2.63l-.72-1.78.07,1.53.07,1.53.91,1.11c.5.61.94,1.11.96,1.11.03,0-.1-.39-.27-.86h0Zm-6.77-1.3c.3-.9.69-2.13.86-2.74l.31-1.11-2.03-1.96c-1.12-1.08-2.08-1.96-2.13-1.96s-.31.32-.56.7c-1.1,1.69-1.33,2.02-3.45,4.72l-.71.91,1.96.84c1.08.46,2.6,1.17,3.37,1.56.77.4,1.5.71,1.62.69.13-.02.42-.65.76-1.66h0Zm73.56-.3c.25-.2,1.16-.89,2.03-1.52s1.59-1.23,1.59-1.34-.28-.77-.64-1.48-.86-1.81-1.13-2.43c-.56-1.3-.4-1.33-1.57.32-1.69,2.41-1.59,2.18-1.49,3.39.19,2.24.43,3.7.6,3.56.09-.07.36-.3.61-.5h0Zm-69-2.3c-.1-1.88-.12-1.97-.8-3.52-.39-.87-.77-1.68-.85-1.78-.11-.14-.28.32-.64,1.7-.27,1.04-.49,2.02-.49,2.16s.42.71.94,1.26,1.16,1.25,1.42,1.55c.27.31.49.56.5.56s-.02-.87-.08-1.93Zm-11.6-.44c.41-.53.78-1,.82-1.04.05-.04.24-.31.44-.59s.4-.55.45-.59c.05-.04.26-.31.45-.61s.61-.91.91-1.37c.31-.46.55-.89.55-.95s-.61-.61-1.35-1.22c-.74-.61-1.46-1.21-1.6-1.33-.14-.12-.48-.39-.75-.59s-.69-.54-.93-.74c-.24-.2-.68-.54-.97-.75l-.53-.39-1.7,1.14c-4.15,2.78-8.4,5.02-11.85,6.23-1.31.46-1.4.59-.38.59,2.78,0,9.56,1.54,13.94,3.16,1.53.57,1.31.65,2.52-.93h0Zm78.48-.87c.29-.37.33-1.19.14-2.91l-.1-.89-.7,2.83c-.39,1.56-.7,2.89-.7,2.96s.25-.27.54-.76c.3-.49.67-1.04.82-1.24Zm8.72-1.01c1.02-.65,2.36-1.49,2.99-1.85l1.14-.65-1.96-2c-1.08-1.1-2.3-2.38-2.71-2.85l-.76-.86-.81.93c-.44.51-1.25,1.52-1.81,2.24-.78,1.02-.97,1.38-.9,1.63.12.4.47,1.17,1.49,3.34.78,1.66.8,1.68,1.13,1.47.18-.12,1.16-.75,2.18-1.4h0Zm-78.23-1.8c.57-2.31.6-2.15-.79-4.67l-.88-1.6-.49.79c-.27.44-.8,1.29-1.17,1.9-.37.61-.82,1.34-.99,1.61l-.31.5,1.99,1.89c1.18,1.12,2.02,1.83,2.08,1.73.05-.1.31-1.06.58-2.15h0Zm71.44-.07c.1-.15.44-.61.74-1.03.64-.87.65-.96.28-1.7-.15-.3-.5-1.18-.77-1.94l-.49-1.39-.62,1.85-.62,1.85.12,1.69c.07.93.12,1.85.13,2.05,0,.36.13.22,1.23-1.38h0Zm-69.37-2.17c-.17-1.31-.31-2.5-.31-2.63,0-.61-.28.16-.5,1.37l-.24,1.33.63,1.3c.35.72.65,1.24.68,1.16.02-.08-.09-1.22-.26-2.53h0Zm85.76-1.14c3.34-1.43,7.2-2.69,9.94-3.24.53-.11.79-.2.57-.21s-1.42-.28-2.67-.6c-3.64-.95-7.65-2.49-11.14-4.29l-1.72-.89-.46.39c-.25.21-1.52,1.52-2.82,2.89l-2.36,2.5.43.54c.24.3,1.5,1.63,2.79,2.96l2.36,2.42,1.75-.91c.96-.5,2.46-1.21,3.32-1.58h0Zm-91.05-1.24c.31-.5.73-1.19.92-1.54l.35-.62-.58-.95c-.32-.52-.79-1.32-1.05-1.76s-.69-1.13-.96-1.52l-.49-.71-1.75,1.49c-.96.82-2.34,1.93-3.05,2.47-.71.54-1.3.99-1.3,1.01s.32.27.7.56c1.35,1,2.33,1.78,3.86,3.09l1.54,1.32.61-.96c.34-.52.87-1.37,1.19-1.87h0Zm77.14,1.19c.31-.44.81-1.07,1.81-2.25.47-.55.85-1.04.85-1.09s-.38-.54-.85-1.09c-.47-.55-1.02-1.21-1.22-1.48s-.47-.61-.59-.76c-.12-.15-.35-.45-.51-.67l-.29-.39-.24.5c-.13.27-.52,1.26-.87,2.2l-.62,1.7.6,1.63c.33.89.71,1.88.85,2.18l.25.56.3-.36c.17-.19.4-.5.53-.68h0Zm-72.85-1.51l.35-1.87-.35-1.82c-.2-1-.37-1.84-.39-1.86s-.5.81-1.07,1.85l-1.04,1.88.99,1.78c.54.98,1,1.88,1.01,2,.04.37.13,0,.5-1.95h0Zm69.38-3.31l-.51-1.49v5.93l.51-1.48.51-1.48-.51-1.49h0Zm-80.25-.07c.79-.62,1.12-.89,1.48-1.19.15-.12.87-.72,1.61-1.33.74-.61,1.35-1.16,1.35-1.22s-.24-.48-.55-.95-.72-1.08-.91-1.37c-.2-.29-.4-.57-.45-.61-.05-.04-.26-.31-.45-.59-.2-.29-.39-.55-.44-.59-.04-.04-.42-.51-.82-1.04s-.83-1.07-.94-1.2c-.18-.21-.33-.19-1.56.26-4.47,1.64-11.19,3.16-13.96,3.16-1.01,0-.93.13.38.59,3.45,1.21,7.85,3.52,11.93,6.27l1.63,1.1.52-.38c.29-.2.82-.61,1.18-.9h0Zm90.19-2.52l1.95-2-1.14-.65c-.95-.54-2.16-1.3-5.17-3.25-.33-.21-.35-.18-1.13,1.47-1.02,2.17-1.37,2.94-1.49,3.34-.08.25.12.61.9,1.63.55.72,1.36,1.73,1.81,2.24l.81.93.76-.86c.42-.47,1.64-1.76,2.71-2.86h0Zm-81.08,1.78c.54-.98,1.01-1.97,1.06-2.2.07-.37-.71-3.96-.96-4.42-.05-.1-.9.6-2.07,1.72l-1.98,1.89.25.43c.14.24.61.99,1.05,1.69.44.69.99,1.58,1.21,1.96s.42.7.44.7c.01,0,.46-.8,1-1.78h0Zm72.44.12c.28-.78.62-1.63.75-1.88.33-.64.31-.76-.32-1.61-.31-.42-.64-.88-.74-1.03-1.1-1.61-1.22-1.74-1.23-1.38,0,.2-.07,1.09-.13,1.99l-.12,1.63.61,1.88c.33,1.04.62,1.87.64,1.85.02-.01.26-.67.55-1.46Zm-69.49-4.05l.1-1.04-.67,1.3-.67,1.3.23,1.29c.13.71.27,1.39.32,1.51.09.23.52-2.46.69-4.37Zm72.06-1.98c.51-1.09.93-2.06.93-2.15,0-.09-.61-.6-1.35-1.12-.74-.53-1.72-1.27-2.19-1.65l-.85-.68-.18,1.35c-.1.74-.21,1.85-.25,2.46l-.07,1.11.79,1.07c.43.59,1.02,1.4,1.31,1.81l.52.74.22-.47c.12-.27.63-1.38,1.14-2.47Zm-73.02,1.95c1.08-2.14,1.22-2.64,1.33-4.66l.1-1.91-.93,1.01c-.51.55-1.17,1.3-1.47,1.65l-.54.64.51,2.06c.28,1.14.52,2.06.54,2.06s.23-.38.46-.85h0Zm-4.09-1.41l2.03-1.97-.31-1.11c-.45-1.61-1.33-4.2-1.47-4.35-.07-.08-.87.23-1.95.75-1,.49-2.57,1.21-3.49,1.6l-1.67.71.71.91c2.12,2.71,2.36,3.03,3.45,4.72.25.39.5.7.56.7.06,0,1.02-.89,2.14-1.97h0Zm72.55-.62c.01-.69-.06-.99-.33-1.41-.19-.29-.56-.85-.82-1.26-.26-.4-.47-.67-.47-.61s.32,1.4.7,2.95l.7,2.83.1-.82c.05-.45.1-1.21.11-1.7Zm13.68,1.29c.35-.31.7-.63.78-.72s.95-.83,1.94-1.64c2.76-2.28,6.14-4.53,9.17-6.11l1.19-.62-1.6.08c-3.71.19-10.03-.5-14.63-1.61q-.46-.11-2.91,4.27c-.68,1.21-1.27,2.34-1.31,2.52-.07.27.2.5,1.88,1.58,2.05,1.32,4.56,2.8,4.75,2.81.06,0,.39-.25.74-.55h0Zm-13.17-5.52c.17-1.25.18-1.59.03-1.7-.4-.32-2.08-1.76-2.8-2.39-.35-.31-.41-.33-.34-.1.04.15.19.97.32,1.83.25,1.58.47,2.15,1.32,3.48.26.41.6.94.76,1.19l.28.44.11-.59c.06-.33.21-1.29.32-2.15h0Zm-70.41,2.24c.03-.07.61-.74,1.3-1.49s1.34-1.49,1.45-1.64c.15-.22.19-.84.16-2.59l-.04-2.3-.54.37c-.29.2-1.2.73-2.02,1.17s-1.64.9-1.83,1.01-.38.21-.41.23c-.03.01.21.82.54,1.78s.71,2.17.85,2.68c.24.85.42,1.11.54.79h0Zm4.87-4.21c.23-.63.4-1.15.38-1.15s-.46.5-.96,1.12l-.92,1.12-.07,1.51-.07,1.51.61-1.48c.34-.81.8-2,1.03-2.63h0Zm70.97,3.44c0-.17,2.82-5.28,3.36-6.07.19-.28.35-.56.35-.62s-.38-.21-.85-.34c-2.13-.59-3.19-.91-4.77-1.43-.93-.31-1.71-.55-1.73-.53-.07.07-.63,2.72-.86,4.15-.2,1.21-.21,1.5-.05,1.69.27.33,4.25,3.3,4.42,3.3.07,0,.14-.07.14-.15h0Zm-83.5-2.24c1.49-.63,4.93-2.27,5.1-2.43.07-.06-1.82-4.78-2.53-6.32-.55-1.2-.62-1.28-.98-1.22-.79.14-4.99.36-6.66.36-2.9,0-6.3-.31-9.06-.83-.48-.09-.44-.04.52.63,3.57,2.5,7.19,5.8,10.5,9.58.48.54.97.99,1.1.99.12,0,1.03-.34,2.01-.76Zm12.3-2.35c1.01-1.26,1.18-1.57,1.63-2.96.58-1.78.7-2.26.56-2.19-.05.03-.85.54-1.77,1.14l-1.67,1.09v2.23c0,1.23.03,2.2.06,2.17.03-.03.57-.69,1.19-1.47h0Zm62.38-.3l-.23-1.4-1.04-1.01c-.57-.56-1.06-.99-1.09-.96-.06.06,1.11,2.41,1.92,3.87.31.56.59.99.62.95.03-.03-.05-.69-.18-1.46Zm3.77.66c.03-.24.25-1.43.48-2.64s.39-2.26.32-2.32-.75-.35-1.52-.65c-.77-.3-1.61-.64-1.85-.75-.25-.11-.7-.3-1.01-.43l-.57-.23.1,1.15c.06.63.18,1.68.27,2.32l.17,1.18,1.63,1.45c.9.8,1.7,1.43,1.78,1.4.08-.03.17-.24.2-.48h0Zm-69.08-2.76l1.2-.73-.07-1.36c-.1-2-.29-4.4-.35-4.46-.03-.03-.82.1-1.76.29s-2.63.48-3.76.64c-1.13.16-2.07.32-2.09.34-.02.02.15.43.38.9.36.74,2.04,4.82,2.51,6.08l.15.42,1.3-.7c.71-.38,1.84-1.02,2.5-1.42Zm64.68-2.33c-.18-1.54-.31-2.17-.46-2.25-.64-.35-3.6-1.76-3.63-1.73-.02.02.32.84.76,1.82.77,1.72.84,1.82,2.17,3.06.76.71,1.38,1.27,1.39,1.26.01-.01-.09-.98-.22-2.16h0Zm-59.58,1.99s-.03-.07-.07-.07-.07.03-.07.07.03.07.07.07c.04,0,.07-.03.07-.07Zm74.14-1.37c2.91-4.3,5.81-7.71,8.87-10.43.63-.56,1.12-1.02,1.1-1.02-.03,0-.45.14-.93.3-3.32,1.15-8.71,2.07-13.5,2.3-1.97.1-2.1.12-2.17.42-.04.17-.37,1.35-.74,2.61-.57,1.96-1.29,4.69-1.29,4.93,0,.19,6.72,2.29,7.43,2.32.15,0,.62-.54,1.22-1.43h0Zm-73.72.82c.1-.18.37-.6.62-.93,1.05-1.41,2.19-3.18,1.96-3.05-.14.08-.6.4-1.02.71-.42.31-.87.63-.99.72s-.36.65-.52,1.26c-.16.61-.34,1.23-.39,1.37-.14.37.16.31.36-.08h0Zm-1.53-1.64l1.49-.99.57-2.23c.31-1.23.54-2.25.51-2.28-.03-.03-1.16.24-2.5.59-1.34.36-2.53.65-2.65.65-.14,0-.18.11-.12.33.05.18.12,1.27.17,2.41s.12,2.29.16,2.56l.07.49.4-.27c.22-.15,1.07-.72,1.89-1.26h0Zm66.74-2.49c.32-1.26.76-2.85.97-3.54s.42-1.4.46-1.57c.07-.31.03-.31-3.46-.41-1.94-.05-3.69-.14-3.89-.2l-.36-.1.1,2.1c.05,1.15.14,2.51.2,3l.1.91.68.29c.37.16.81.35.98.43.57.27,3.56,1.44,3.59,1.4.02-.02.3-1.06.62-2.32h0Zm-9.98.2c-.27-.63-.57-1.31-.67-1.52-.11-.24-.65-.62-1.52-1.08l-1.34-.71.4.49c.45.54,3.54,3.96,3.59,3.97.02,0-.19-.51-.46-1.14Zm-52.22-.93c.38-.29.8-.72.93-.96s.57-.97.97-1.62.72-1.2.69-1.22c-.06-.06-3.71,1.16-3.86,1.3-.11.1-1.12,3.85-1.13,4.18,0,.1.48-.24,2.4-1.67h0Zm55.79-.05c-.05-.35-.13-1.61-.19-2.8l-.1-2.16-1.5-.18c-.82-.1-2.05-.26-2.72-.35s-1.22-.13-1.22-.07c0,.25,1.51,4.08,1.68,4.24.25.24,3.69,1.96,3.94,1.97.16,0,.18-.15.12-.64h0Zm-69.1-.25c1.9-.28,4.73-.8,5.32-.97.29-.09.29,0-.2-3.54-.16-1.14-.4-2.64-.53-3.34l-.24-1.27-2.53-.49c-4.88-.94-9.82-2.49-12.87-4.03l-.63-.32.29.35c.16.19.57.65.89,1.02,2.34,2.6,5.9,8.14,7.74,12.04.22.47.47.85.55.85.09,0,1.07-.14,2.2-.3h0Zm8.91-1.85c1.38-.37,2.54-.7,2.58-.74.09-.09,1.04-5.07,1.05-5.49,0-.29-.1-.32-1.81-.41-1-.05-2.7-.2-3.79-.33-1.09-.13-2.01-.2-2.04-.17s.03.52.15,1.08.35,2.09.53,3.39c.45,3.37.44,3.33.64,3.33.1,0,1.31-.3,2.69-.67h0Zm7.25-.11c.42-.35.83-.69.92-.78.47-.44,2.05-1.79,2.19-1.88.09-.06.13-.13.09-.17s-.67.17-1.42.45c-1.24.47-1.37.56-1.66,1.13-.17.34-.49.9-.71,1.25s-.34.63-.28.63c.06,0,.45-.28.87-.63Zm47.97-.07c-.15-.39-.49-1.3-.76-2.04-.27-.73-.5-1.35-.51-1.37-.01-.02-.96-.22-2.11-.45-2.03-.4-2.08-.4-1.93-.12.29.54,1.9,2.44,2.4,2.82.4.31,3.04,1.85,3.16,1.85.02,0-.09-.31-.24-.7Zm-49.95-1.39c1.02-.33,2-.75,2.17-.93.26-.25,2.12-3.67,2.12-3.89,0-.03-1.22-.06-2.7-.06h-2.7l-.42,2.33c-.23,1.28-.45,2.52-.5,2.74s-.03.41.05.41c.07,0,.96-.28,1.98-.61h0Zm45.01-1.38c-.35-.44-.79-1-.97-1.24-.28-.37-.56-.49-1.7-.77-.75-.18-1.47-.36-1.59-.4s.62.48,1.65,1.16c2.13,1.41,3.13,2.05,3.21,2.05.03,0-.24-.36-.59-.8Zm-38.72-1.04c.49-.33,2.8-2.59,2.72-2.66-.04-.04-.97-.03-2.08.02l-2.01.09-.98,1.91c-.54,1.05-.98,1.93-.98,1.97,0,.09,3-1.1,3.33-1.32h0Zm-.82.88s-.03-.07-.07-.07-.07.03-.07.07.03.07.07.07.07-.03.07-.07Zm57.93-.93c1.42-4.27,4.44-10.39,6.69-13.55l.71-.99-.69.47c-3.05,2.08-7.23,4.03-11.98,5.61l-2.83.94-.1,1.1c-.05.6-.1,2.45-.1,4.1v3.01l.63.08c.96.13,2.02.17,4.8.2l2.53.03.33-1h0Zm-8.74-2.37c0-1.69.04-3.52.1-4.07l.09-.99-.95.28c-.75.22-4.33,1.03-6.32,1.42-.39.08-.41.26-.13,1.13.11.35.48,1.51.82,2.59l.62,1.95.99.16c1.22.2,3.98.56,4.43.59l.33.02v-3.08h0Zm-6.3,1.93c-.18-.41-1.28-3.9-1.44-4.56l-.15-.6-1.72.26c-.95.14-2.21.31-2.8.38l-1.08.11.53.74c.29.41.92,1.28,1.39,1.93l.86,1.19,1.91.39c2.38.48,2.65.5,2.5.15h0Zm-37.9-1.39c1.34-.66,2.41-1.23,2.38-1.26-.03-.03-.7.02-1.49.11l-1.42.18-1.09,1.09c-.6.6-1.03,1.09-.95,1.09s1.23-.54,2.57-1.2h0Zm32.14-.32c-.36-.51-.72-.99-.78-1.08s-.32-.46-.56-.85l-.44-.7-1.56.08c-.86.04-1.84.12-2.19.16l-.64.08.89.69c1.95,1.52,2.13,1.62,3.79,2.08,2.3.63,2.28.64,1.49-.46h0Zm-4.53-.48s-.03-.07-.07-.07-.07.03-.07.07.03.07.07.07c.04,0,.07-.03.07-.07Zm-.82-.6c-1.43-1.24-1.51-1.27-3.2-1.22l-1.54.04,2.45.84c1.34.46,2.55.84,2.67.85.12,0-.05-.22-.37-.51h0Zm-32.06-.92c.83-1.76,1.76-3.88,1.76-4.02,0-.06-.38-.23-.85-.38-1.15-.36-3.39-1.17-4.93-1.8-.69-.28-1.3-.51-1.35-.51s-.13.65-.19,1.44c-.11,1.58-.47,5.03-.62,5.97l-.1.59h5.66l.61-1.3Zm-6.55-.07c.23-1.69.42-3.61.54-5.41.1-1.4.08-1.52-.18-1.61-.97-.34-5.12-2.46-6.91-3.51-2.11-1.25-4.94-3.23-6.48-4.53l-.81-.68.48.84c1.55,2.74,3.23,7.32,4.52,12.42l.78,3.04.81.12c1.53.22,4.81.52,5.94.53l1.13.02.16-1.22h0Zm11.12.82c.2-.13.48-.38.61-.55.13-.17.47-.54.74-.84s.78-.84,1.12-1.21l.63-.67-.77-.18c-.42-.1-1.63-.41-2.67-.7s-1.92-.5-1.95-.46-.5,1.06-1.04,2.28-1.05,2.29-1.13,2.36c-.36.37-.05.42,1.98.32,1.56-.08,2.21-.17,2.48-.35h0Zm3.04-.19c1.16-.14,1.51-.25,2.74-.91,2.29-1.22,2.29-1.16-.1-1.64l-2.05-.42-1.3,1.38c-.72.76-1.37,1.49-1.45,1.64-.14.24-.1.26.34.18.27-.05,1.09-.16,1.82-.24Zm4.71-.73c.91-.16,2.15-.42,2.76-.56l1.1-.26-1.6-.22-1.6-.22-.72.45c-.39.25-.97.6-1.28.78-.7.4-.68.4,1.34.04h0Zm12.24-.65s-.59-.27-1.25-.54c-.65-.27-1.24-.53-1.31-.59s-.62.05-1.23.24-1.24.35-1.4.35-.29.06-.29.13.85.18,1.89.23,1.96.12,2.04.15c.2.07,1.61.09,1.54.02h0Zm5.19-.05c0-.09-1.57-1.44-2.85-2.45-.32-.25-.39-.24-2.18.35-1.02.34-1.91.66-1.97.72-.07.06.6.41,1.48.78l1.6.67,1.96.02c1.08,0,1.96-.03,1.95-.1h0Zm4.58-.13c.93-.08.93-.09.71-.4-.39-.54-2.55-4.18-2.64-4.45-.03-.07-.34.01-.71.18s-1.55.67-2.64,1.11l-1.98.8,1.3,1.1c.72.6,1.51,1.28,1.76,1.51.45.4.48.41,1.86.33.77-.04,1.83-.12,2.34-.16h0Zm4.74-.52c2.06-.28,2.4-.36,2.32-.56-.17-.44-.99-3.94-1.33-5.69-.19-.97-.38-1.79-.42-1.83s-.3.05-.57.22c-1.06.64-4.62,2.47-5.86,3.01-.27.12-.48.24-.47.28.02.14,1.54,2.74,2.4,4.1.54.84.62.91,1.05.86.25-.03,1.55-.2,2.88-.38h0Zm-20.08-.14c.67-.17,1.44-.38,1.72-.46l.5-.16-1.91-.94c-1.05-.52-1.96-.94-2.01-.95s-.54.3-1.07.67c-.53.37-1.35.9-1.81,1.19s-.75.52-.64.52c.12,0,.75.1,1.4.2,1.72.28,2.45.27,3.82-.08h0Zm-5.23-.73c1.21-.71,2.96-1.92,2.96-2.05,0-.06-.38-.31-.85-.54s-1.51-.82-2.31-1.29c-.8-.47-1.5-.86-1.56-.85-.14.01-3.32,4.09-3.31,4.24,0,.11,3.41.89,4.06.92.14.01.59-.18,1.01-.43Zm30.29.05c.56-.12,2.02-.45,3.23-.74,1.85-.44,2.23-.58,2.34-.85.07-.18.2-1.08.29-2.02.45-4.59,1.7-10.21,3.05-13.66l.35-.9-2.11,2.06c-2.21,2.16-3.42,3.19-5.74,4.89-1.4,1.02-3.93,2.72-4.85,3.25-.27.15-.48.35-.48.43,0,.63,1.51,7.47,1.73,7.83.07.12.44.07,2.18-.28h0Zm-19.9-.88c1.14-.37,2.06-.7,2.06-.74s-.28-.32-.63-.64c-.35-.32-1.25-1.19-2.01-1.93l-1.38-1.35-.62.48c-.34.27-.96.76-1.38,1.09s-1.14.86-1.6,1.17c-.46.31-.81.59-.77.63.16.16,3.88,1.96,4.06,1.96.11,0,1.12-.3,2.26-.67h0Zm-15.86-.03c.84-.98,3.25-4.08,3.25-4.16,0-.05-.82-.63-1.81-1.28-.99-.65-2.4-1.63-3.13-2.19s-1.37-.95-1.42-.89c-.05.06-.3.75-.55,1.52-.59,1.83-1.19,3.55-1.37,3.93-.16.35-.74,1.84-.74,1.91,0,.04,2.17.65,4.45,1.26.79.2,1.1.18,1.34-.1Zm21.42-2.04l2.39-.99-.58-1.06c-.52-.94-2.51-4.98-2.87-5.83-.14-.31-.18-.29-1.03.51-.49.46-1.76,1.6-2.81,2.53s-1.99,1.76-2.07,1.83c-.09.08.59.87,1.85,2.13,1.69,1.68,2.06,1.98,2.37,1.93.2-.04,1.44-.51,2.76-1.06h0Zm-27.43.12c.14-.39.35-.9.46-1.15.36-.82,1.99-5.63,1.99-5.88,0-.06-.52-.52-1.15-1.02-3.26-2.57-7.7-7.18-9.84-10.21-.35-.49-.65-.87-.68-.84-.03.03.08.61.25,1.29.82,3.46,1.2,7.12,1.27,11.97l.05,3.76.98.42c.54.23,1.26.52,1.61.64.34.12,1.56.55,2.7.96s2.08.74,2.09.74.13-.31.28-.7h0Zm15.76-.07c.38-.27.76-.55.86-.63s.32-.25.5-.37.41-.29.5-.37c.09-.08.59-.48,1.1-.87l.94-.72-.42-.45c-.23-.25-.62-.66-.86-.92-.25-.26-.74-.82-1.11-1.26s-.74-.87-.82-.95-.42-.49-.74-.9c-.92-1.15-1.4-1.65-1.4-1.44,0,.11-.19.48-.43.82s-.57.89-.76,1.21c-.18.33-.52.86-.76,1.19-.24.33-.86,1.21-1.39,1.96-.95,1.37-.95,1.37-.63,1.58,1.11.69,1.66,1.01,2.85,1.64.73.39,1.4.77,1.47.84.22.2.36.15,1.09-.36h0Zm16.53-2.25c1.07-.52,2.61-1.32,3.43-1.76l1.48-.81v-.57c-.01-.31-.13-1.47-.27-2.57-.34-2.71-.54-5.63-.54-7.79,0-1.75.22-5.17.38-6.06.05-.28-.22.1-.75,1.01-2.06,3.61-4.48,6.84-8.07,10.74-.7.76-1.29,1.44-1.31,1.5-.08.22,2.08,4.71,3.23,6.71.18.31.35.56.4.56s.95-.43,2.02-.95h0Zm-21.57-1.87c.52-.77,1.09-1.59,1.27-1.82s.48-.7.67-1.04c.19-.34.47-.78.61-.99.14-.2.4-.62.57-.92l.31-.55-.88-1.19c-2.88-3.88-5.93-9.2-7.16-12.45l-.36-.96-.1,1.77c-.27,4.88-1.12,9.87-2.53,14.81-.07.24.17.49,1.22,1.28,1.86,1.4,5.11,3.55,5.29,3.49.09-.03.58-.68,1.1-1.45h0Zm10.25.07c.29-.26,1.09-.96,1.78-1.57,2.02-1.77,3.29-3.07,3.21-3.27-2.12-4.95-3.63-9.95-4.29-14.25l-.33-2.11-.27,1.12c-.37,1.55-1.7,5.35-2.43,6.99-.65,1.45-2.62,5.4-3.22,6.43-.37.65-.68,1.23-.68,1.31,0,.2,2.11,2.72,4.2,5.03,1.14,1.26.98,1.23,2.02.32h0ZM53.04,3.37s-.03-.07-.07-.07-.07.03-.07.07.03.07.07.07c.04,0,.07-.03.07-.07Z"/>
  </g>
</svg>