<?xml version="1.0" encoding="utf-8"?>
<!-- Generator: Adobe Illustrator 28.0.0, SVG Export Plug-In . SVG Version: 6.00 Build 0)  -->
<svg version="1.1" id="Layer_1" xmlns="http://www.w3.org/2000/svg" xmlns:xlink="http://www.w3.org/1999/xlink" x="0px" y="0px"
	 viewBox="0 0 159.7 168" style="enable-background:new 0 0 159.7 168;" xml:space="preserve">
<path id="path3448" d="M82.3,156.7c0-0.1-0.2-0.8-0.3-1.6c-0.9-4.6-3.6-11.5-6.5-16.6l-0.7-1.2l-0.4,0.5c-3.6,4.4-8.1,12.8-9.1,16.7
	c-0.2,0.9-0.5,1.3-0.6,1.1c-0.1-0.1-0.1-0.9,0-1.8c0.4-4.4-0.9-13.6-2.7-18.8c-0.1-0.3-2.6,1.7-5.4,4.5c-3.5,3.4-6.5,7-8,9.7
	c-0.7,1.3-0.9,1-0.4-0.6c0.5-1.6,1.2-4.6,1.5-6.6c0.7-5,1-12.8,0.4-12.8c-0.1,0-1.3,0.5-2.6,1.2c-4.9,2.4-9.8,5.6-12.8,8.4
	c-0.9,0.8-1.6,1.4-1.7,1.3c0-0.1,0.3-0.8,0.7-1.5c1.6-2.7,3.1-6.1,4.4-10.1c0.7-2.2,2.2-7.9,2.1-8c-0.1-0.1-4.8,0.9-6.9,1.4
	c-4.1,1-8.4,2.7-10.9,4.2c-1.6,0.9-2,0.8-0.9-0.1c2.1-1.8,5.6-6.4,8.1-10.6c1.3-2.1,3.1-5.7,3-5.8c-0.1-0.1-5.6-0.4-7.3-0.4
	c-3.9,0-8.8,0.6-11.5,1.4c-1.2,0.3-1.4,0.4-1.4,0.1c0-0.1,0.6-0.5,1.4-0.9c1.4-0.8,4.4-2.9,5.5-3.9c2.9-2.5,5.6-5.2,8.2-8.2l0.4-0.5
	l-1.6-0.6c-5.1-1.9-11.6-3.3-16.3-3.4c-1.2,0-2.2-0.1-2.2-0.1c0,0,0-0.1,0.1-0.2c0.1-0.1,0.8-0.3,1.6-0.6c3-0.8,7.4-2.7,10.8-4.7
	c1.6-0.9,6-3.8,6-3.9c0-0.1-4.4-2.9-6-3.9c-3.3-2-7.7-3.9-10.8-4.7c-0.8-0.2-1.5-0.5-1.6-0.6c-0.1-0.1-0.1-0.2-0.1-0.2
	s1.1,0,2.2-0.1c4.7-0.1,11.2-1.5,16.3-3.4c1.2-0.5,1.5-0.6,1.4-0.8c-0.1-0.1-0.6-0.6-1-1.1c-2-2.3-4.7-5-7.5-7.4
	c-1.1-1-4.2-3.1-5.5-3.9c-0.8-0.4-1.4-0.8-1.4-0.9c0-0.3,0.2-0.3,1.4,0.1c2.7,0.8,7.6,1.4,11.5,1.4c1.8,0,7.2-0.3,7.3-0.4
	c0.1-0.1-0.6-1.4-1.9-3.8c-2.3-4.2-5.5-8.7-8.3-11.6c-0.9-0.9-1.6-1.7-1.5-1.8c0.1-0.1,0.7,0.2,1.5,0.7c2.6,1.5,6.9,3.1,10.9,4.2
	c2,0.5,6.8,1.5,6.9,1.4c0,0-0.3-1.4-0.7-2.9c-1.6-6.5-3.7-11.8-6.2-15.6c-0.3-0.5-0.5-0.9-0.4-1c0.1-0.1,0.8,0.5,1.7,1.3
	c3,2.8,7.8,6,12.8,8.4c1.4,0.7,2.6,1.2,2.6,1.2c0.6,0,0.3-7.8-0.4-12.8c-0.3-2-0.9-4.9-1.5-6.6c-0.5-1.6-0.3-1.9,0.4-0.6
	c1.2,2.2,3.9,5.5,6.2,8c2.8,2.9,7,6.5,7.2,6.2c0.1-0.2,1-3.8,1.4-5.8c1-4.6,1.5-10.1,1.2-13.1c-0.1-0.9-0.1-1.7,0-1.8
	c0.2-0.2,0.4,0.2,0.6,1.1c0.9,3.9,5.6,12.4,9.1,16.7l0.4,0.5l0.7-1.2c1.2-2.2,3.4-6.7,4.1-8.6c1.3-3.4,1.9-5.3,2.4-7.8
	c0.2-1,0.4-1.8,0.5-1.8c0.1,0,0.2,0.7,0.3,1.6c0.2,3.4,1,6.9,2.2,11.2c0.8,2.5,2.4,7,2.7,7.3c0.1,0.1,0.4-0.1,2.3-2.1
	c0.9-1,2.8-3.3,4.1-4.9c1.4-1.8,3.6-5.3,4.6-7.5c1.2-2.3,1.6-2.8,1.2-1.2c-1,4.5-1,11.7,0,18.9l0.2,1.2l1.5-1c2-1.3,4.6-3.1,6.5-4.6
	c2-1.6,5.4-4.9,6.6-6.5c0.5-0.7,1-1.3,1.1-1.3c0.3,0,0.2,0.3-0.2,1.3c-1.9,3.9-3.6,10.7-4.3,17.2l-0.2,2l0.5-0.1
	c1-0.2,5.2-1.7,7.3-2.6c3.6-1.5,7.4-3.6,9.8-5.5c1-0.7,1.5-0.7,0.7,0.1c-1.5,1.6-3.7,5.1-5.5,8.7c-1.8,3.5-3.9,8.9-3.7,9.2
	c0.1,0.1,5.7-0.3,8-0.6c4.1-0.6,7.9-1.6,10.5-2.6c0.7-0.3,1.4-0.5,1.5-0.4c0.1,0.1-0.5,0.6-1.3,1.2c-3,2.2-7.1,6.5-9.9,10.5
	c-1.6,2.3-2.5,3.7-2.4,3.8c0.2,0.2,3.8,0.9,6.4,1.3c4.6,0.7,10.5,0.7,13,0.2c0.7-0.2,1.1,0,0.7,0.3c-0.1,0.1-0.6,0.3-1,0.4
	c-2.1,0.8-5.5,2.6-8.7,4.9c-2.9,2-7.4,5.7-7.2,6c0.1,0.2,4.3,2.2,6.1,3c3.9,1.6,8,2.8,11.1,3.3c1,0.2,1.9,0.4,1.9,0.4
	c0,0.1-0.8,0.3-1.9,0.4c-3.4,0.5-7.8,1.9-12.1,3.7c-1.7,0.7-4.8,2.3-5,2.5c-0.1,0.1,0.4,0.6,1,1.1c4.6,4.1,10,7.7,14.2,9.4
	c0.8,0.3,1.5,0.6,1.6,0.7c0.3,0.1,0.2,0.4-0.1,0.4c-0.1,0-0.8-0.1-1.5-0.2c-1.6-0.2-6.8-0.2-9.2,0c-3,0.3-8.8,1.3-9.1,1.6
	c-0.1,0.1,0.3,0.8,0.9,1.6c3.5,5.2,7.9,10,11.4,12.6c0.8,0.6,1.4,1.1,1.3,1.2c-0.1,0.1-0.7-0.1-1.5-0.4c-2.7-1.1-7-2.2-11-2.7
	c-2.3-0.3-5.5-0.6-6.7-0.6c-1,0-1-0.2-0.1,2.3c1.4,3.8,3.5,8.3,5.3,11.1c1,1.6,2.6,3.9,3.3,4.6c0.7,0.8,0.2,0.8-0.7,0.1
	c-2.4-1.9-6.1-3.9-9.8-5.5c-2.1-0.9-6.3-2.4-7.3-2.6l-0.5-0.1l0.2,1.8c0.7,6.8,2.4,13.5,4.3,17.3c0.5,1,0.6,1.3,0.3,1.3
	c-0.1,0-0.6-0.6-1.1-1.3c-1.2-1.6-4.6-4.9-6.6-6.5c-1.9-1.5-4.4-3.3-6.5-4.6l-1.5-1l-0.2,1.2c-1,7.2-1,14.4,0,18.9
	c0.3,1.5-0.1,1.1-1.2-1.2c-1.1-2.2-3.2-5.7-4.6-7.5c-1.3-1.6-2.7-3.4-3.7-4.5c-2.1-2.3-2.5-2.7-2.6-2.5c-0.1,0.1-0.5,1.2-1,2.4
	c-2.1,5.3-3.6,11.6-3.9,15.9C82.6,156.6,82.5,157.2,82.3,156.7L82.3,156.7z M83.6,147.2c0.9-3.4,2.2-7.2,3.7-10.9
	c0.1-0.3-1.2-1.5-5.6-5.4l-0.9-0.8l-0.8,0.9c-2.5,2.7-4.9,5.7-4.9,5.9c0,0.1,0.3,0.7,0.7,1.4c2.3,4,5.2,10.7,6.1,14.6l0.3,1.2
	l0.4-2.3C82.8,150.5,83.2,148.4,83.6,147.2L83.6,147.2z M65.3,153.1C65.3,153,65.3,153,65.3,153.1c-0.1-0.1-0.2,0-0.2,0
	C65.1,153.1,65.2,153.1,65.3,153.1C65.3,153.1,65.3,153.1,65.3,153.1z M67.5,147.8c1.8-3.5,3.8-6.8,6-9.6l0.9-1.2l-0.3-0.5
	c-0.4-0.6-1.5-2.4-2-3.1c-0.2-0.3-0.8-1.2-1.5-2.1c-0.6-0.9-1.2-1.6-1.3-1.6c-0.3,0-7.1,4.7-7.1,5c0,0.1,0.1,0.6,0.3,1.2
	c1.3,4.6,2.2,9.9,2.5,15.1l0.1,1.9l0.5-1.3C66.1,150.7,66.9,149.1,67.5,147.8z M98.9,149.5c-0.5-3.5-0.3-9.5,0.3-14.3
	c0.4-3.5,0.5-3.2-1-4c-2.4-1.3-6.2-3.2-6.4-3c-0.3,0.3-3.2,6.1-3.7,7.3c-0.2,0.5-0.2,0.6,0.4,1.2c0.3,0.4,0.7,0.7,0.7,0.8
	c0.6,0.6,3.6,4.1,5.2,6.2c0.9,1.2,3.3,4.9,4,6.1c0.3,0.6,0.6,1,0.6,1C99.1,150.7,99,150.1,98.9,149.5L98.9,149.5z M50.1,146
	c2.6-3.5,7-8,10.5-10.8c0.6-0.5,1.2-1,1.2-1c0-0.2-1-3.3-2-5.8l-1-2.6l-2.6,0.9c-1.4,0.5-3.3,1.2-4,1.5l-1.4,0.6l0.1,2.1
	c0.1,5.1-0.5,11.4-1.7,16C49,147.5,49,147.6,50.1,146L50.1,146z M114.1,142.2c-1.4-3.7-2.6-8.9-3.2-14.2c-0.4-3.4-0.1-3-2.6-3.7
	c-3.1-0.8-6.1-1.4-6.2-1.2c-0.2,0.3-1.9,7.7-1.9,8.5c0,0.1,0.2,0.3,0.5,0.5c3.9,2.2,8.9,6.2,12.3,9.7c0.8,0.8,1.4,1.4,1.4,1.4
	S114.4,142.7,114.1,142.2L114.1,142.2z M38.2,135.2c3-2.2,7.7-4.9,11.2-6.3l0.9-0.4l-0.1-1.6c-0.1-1.9-0.3-4-0.6-5.9l-0.2-1.4
	l-1.9,0.1c-2.3,0.1-6.4,0.6-6.6,0.7c-0.1,0.1-0.4,1.4-0.8,3.1c-1.2,5-2.7,9.2-4.5,12.7l-0.9,1.8l0.8-0.7
	C35.9,136.9,37.1,136,38.2,135.2L38.2,135.2z M76.2,134.7c0.4-0.4,0.7-0.9,0.8-1c0.1-0.1,0.5-0.6,0.9-1c0.4-0.5,0.9-1.1,1.2-1.4
	c0.3-0.3,0.7-0.7,0.9-1l0.5-0.5l-1-0.8c-0.6-0.4-1.1-0.9-1.2-0.9s-0.3-0.3-0.5-0.4s-0.4-0.3-0.5-0.4c-0.1-0.1-0.5-0.4-1-0.7
	c-0.7-0.5-0.8-0.5-1.2-0.3c-0.2,0.1-1,0.6-1.7,0.9c-1.2,0.6-1.8,1-2.9,1.7c-0.4,0.2-0.3,0.2,0.8,2c1.7,2.5,1.8,2.6,2.7,4
	c0.4,0.7,0.8,1.3,0.8,1.4C74.6,136.5,75.2,135.9,76.2,134.7L76.2,134.7z M89.1,132.5c0.6-1.3,1.5-2.9,1.8-3.6l0.6-1.1l-2.5-1.1
	c-1.4-0.6-2.7-1.1-3-1.2c-0.4-0.1-0.6,0.1-2.6,2c-1.2,1.2-2.2,2.2-2.1,2.2c0,0.1,1,1,2.2,2c1.2,1.1,2.6,2.3,3.1,2.8
	c0.9,0.8,1,0.9,1.1,0.5C87.8,135,88.4,133.8,89.1,132.5z M66.2,131c1.1-0.7,2.2-1.5,2.5-1.6c0.3-0.2,0.5-0.4,0.5-0.4
	c0-0.1-1.9-2.6-3.3-4.2c-0.3-0.3-0.6-0.6-0.7-0.6c-0.3,0-5.6,1.4-5.7,1.5c0,0,0.4,1.1,0.8,2.5c0.5,1.3,1.1,3.1,1.4,3.9
	c0.3,0.8,0.5,1.6,0.6,1.7c0,0.1,0.5-0.2,1.1-0.6C63.8,132.7,65.1,131.8,66.2,131L66.2,131z M127.1,131.1c-2.5-3.6-5.7-10-7.3-14.8
	l-0.4-1.1l-3.9,0.1c-2.1,0.1-4.1,0.2-4.3,0.2l-0.4,0.1v3.3c0,1.8,0,3.8,0.1,4.4l0.1,1.2l3.1,1c5.1,1.7,10.1,4,12.9,6.1
	c0.4,0.3,0.7,0.5,0.8,0.5C127.9,132.2,127.6,131.7,127.1,131.1L127.1,131.1z M99.8,131.1c0-0.2,0.3-1.3,0.5-2.5
	c0.2-1.2,0.6-2.9,0.9-3.9c0.3-1,0.4-1.8,0.4-1.8c0,0-4.2-0.6-5.5-0.8c-0.7-0.1-0.7-0.1-1,0.5c-0.2,0.3-0.7,1.2-1.2,2
	c-0.9,1.5-1.7,2.9-1.7,3c0,0,0.3,0.2,0.7,0.3c1.8,0.8,5.5,2.8,6.3,3.3C99.6,131.5,99.7,131.5,99.8,131.1L99.8,131.1z M82.2,128
	c0.8-0.8,1.8-1.7,2.2-2.1c0.4-0.3,0.7-0.7,0.7-0.7c0,0-1-0.4-2.3-0.8c-1.5-0.5-2.4-0.7-2.6-0.6c-0.5,0.1-3.2,1.5-3.8,1.8l-0.5,0.3
	l0.9,0.6c0.5,0.3,1.5,1.1,2.4,1.8s1.5,1.2,1.6,1.2C80.7,129.5,81.4,128.8,82.2,128L82.2,128z M71.4,127.7c0.9-0.5,2-1.1,2.5-1.4
	c0.5-0.3,0.9-0.5,0.9-0.6c0-0.1-2.1-1.6-3.4-2.4l-0.6-0.4l-2.3,0.4c-1.3,0.2-2.3,0.5-2.4,0.6s0.4,0.8,1.1,1.6s1.5,1.9,1.8,2.3
	c0.3,0.4,0.6,0.8,0.7,0.8S70.5,128.3,71.4,127.7L71.4,127.7z M52.2,127.7c0.7-0.3,2.4-0.9,3.8-1.4c1.4-0.5,2.5-0.9,2.6-0.9
	c0.1-0.1-0.7-1.9-1.8-4.2l-0.8-1.6h-3.1h-3.1l0.1,0.6c0.2,1,0.6,4.8,0.7,6.5c0.1,0.9,0.2,1.6,0.2,1.6S51.5,128,52.2,127.7
	L52.2,127.7z M92.2,126.6c0.5-1,1.9-3.3,2.2-3.6c0.1-0.1,0.2-0.3,0.3-0.5c0.2-0.4,0.2-0.4-3.3-0.6l-1.5-0.1l-1.9,1.6
	c-1.9,1.6-2.2,1.9-1.9,1.9c0.2,0,3.6,1.4,4.8,1.9c0.4,0.2,0.7,0.3,0.7,0.3C91.7,127.4,92,127,92.2,126.6z M77.6,124.4l2.1-1
	l-1.8-0.5c-1-0.3-2.1-0.5-2.5-0.5c-0.6,0-3.6,0.4-3.7,0.5c-0.1,0.1,3.5,2.5,3.7,2.5C75.4,125.5,76.4,125,77.6,124.4L77.6,124.4z
	 M26,123.8c3.4-1.4,7.1-2.5,11.5-3.3l2.8-0.5l0.3-1.4c0.2-1.2,0.7-4.7,1-6.6c0.1-0.9,0.3-0.8-2.1-1.2c-2.6-0.5-6.2-1-6.3-0.9
	c-0.1,0.1-0.4,0.7-0.8,1.5c-2.7,5.2-5.2,9-7.9,12.2c-1.6,1.9-1.6,1.8-0.8,1.4C23.9,124.7,25,124.2,26,123.8z M62.1,124.4l2.8-0.7
	l-0.7-0.7c-0.4-0.4-1.1-1.2-1.7-1.9l-1.1-1.1l-1.3-0.1c-1.7-0.2-3.6-0.2-3.6,0c0,0.1,0.4,0.7,0.7,1.5c0.4,0.8,0.9,1.9,1.2,2.6
	c0.3,0.7,0.6,1.2,0.6,1.2C59.2,125.1,60.5,124.8,62.1,124.4z M86.8,123.7c0.7-0.6,1.5-1.2,1.7-1.4c0.2-0.2,0.4-0.4,0.4-0.4
	c0-0.1-0.9-0.1-2-0.1h-2l-1.8,0.7c-1,0.4-1.8,0.8-1.7,0.8c0.1,0.1,3.9,1.4,4.1,1.5C85.5,124.8,86.1,124.3,86.8,123.7L86.8,123.7z
	 M110.4,120.1c0-2.4-0.1-4.4-0.1-4.4c0-0.1-3.5,0.4-5.1,0.6l-1.1,0.2l-0.7,2.1c-0.4,1.2-0.8,2.4-0.9,2.8c-0.3,0.9-0.3,1.1,0.1,1.2
	c3.4,0.7,7.7,1.7,7.8,1.9C110.5,124.5,110.4,122.5,110.4,120.1L110.4,120.1z M68.1,123c1.5-0.3,1.9-0.4,1.7-0.6
	c-0.1-0.1-0.9-0.6-1.8-1.1c-1.4-0.8-1.8-0.9-3.1-1c-0.8-0.1-1.7-0.2-2.1-0.3l-0.6-0.1l1.7,1.8c1.3,1.4,1.7,1.8,2,1.7
	C66,123.4,67,123.2,68.1,123L68.1,123z M82.6,122.2c0.4-0.2,0.7-0.3,0.7-0.4s-1.2,0-2.5,0.1c-1.3,0.1-2.6,0.2-2.9,0.2
	c-0.9,0-0.5,0.2,1,0.6l1.5,0.4l0.7-0.3C81.5,122.6,82.1,122.3,82.6,122.2L82.6,122.2z M73,121.7c-1.6-0.4-4.8-1-4.9-0.9
	c0,0,0.3,0.3,0.8,0.5c0.5,0.3,1.1,0.6,1.3,0.8c0.5,0.3,0.5,0.3,2.2,0.1l1.7-0.2L73,121.7L73,121.7z M102.8,119.2
	c0.4-1.1,0.7-2.1,0.8-2.3c0.2-0.4,0.1-0.4-2.6,0.1l-2.2,0.4l-0.9,1.3c-0.5,0.7-1.2,1.7-1.5,2.1l-0.6,0.8l0.5,0
	c1.2,0.1,5.4,0.7,5.4,0.8c0,0,0.2-0.2,0.3-0.6S102.4,120.3,102.8,119.2L102.8,119.2z M78.3,121.6c1-0.1,3-0.2,4.3-0.3l2.4-0.1
	l4.2-1.4c4.4-1.5,4.8-1.7,5.6-2.3c0.7-0.6,0.7-0.6,1.9-1.3c0.6-0.4,1.2-0.8,1.2-0.8c0-0.1,0.3-0.2,0.6-0.4c0.3-0.2,0.6-0.3,0.6-0.4
	c0-0.1,0.3-0.2,0.6-0.4c0.8-0.4,1.7-1,2.1-1.5c0.2-0.2,0.6-0.7,0.9-1s0.9-1.1,1.4-1.6c0.5-0.5,1.5-1.6,2.3-2.5
	c1.3-1.3,1.6-1.8,2.4-3.4c0.5-1,1.5-2.9,2.2-4.1c1.1-2,1.3-2.4,1.7-4c0.5-2.1,1.4-5.9,1.7-6.6c0.1-0.3,0.2-2.3,0.2-5.7
	s-0.1-5.4-0.2-5.7c-0.2-0.7-1.2-4.5-1.7-6.6c-0.3-1.5-0.5-2-1.4-3.6c-0.6-1-1.6-2.9-2.2-4.1c-1-2-1.3-2.4-2.6-3.8
	c-0.8-0.8-1.8-2-2.3-2.5c-0.5-0.5-1.1-1.2-1.4-1.6s-0.7-0.8-0.9-1c-0.4-0.4-1.3-1-2.1-1.5c-0.3-0.1-0.6-0.3-0.6-0.4
	c0-0.1-0.3-0.2-0.6-0.4c-0.3-0.2-0.6-0.3-0.6-0.4c0-0.1-0.6-0.4-1.2-0.8c-1.2-0.8-1.2-0.8-1.9-1.3c-0.8-0.6-1.3-0.8-5.6-2.3L85,46.6
	l-2.3-0.1c-1.2-0.1-3.4-0.2-4.7-0.3l-2.5-0.2l-2.3,0.5c-1.2,0.3-3.3,0.7-4.5,0.9c-2.2,0.4-2.3,0.4-4.7,1.6c-1.3,0.7-3.2,1.6-4.1,2
	c-1.5,0.7-1.9,1-3.8,2.6c-1.1,1-2.7,2.4-3.6,3c-1.3,1-1.7,1.4-2.9,3.3c-0.8,1.2-1.6,2.3-1.7,2.5c-0.2,0.2-0.5,0.6-0.6,0.9
	c-0.2,0.3-0.6,0.8-1,1.3c-0.5,0.6-0.8,1.3-1.3,2.6c-0.3,1-1.1,3-1.7,4.5c-1,2.6-1.1,2.8-1.3,4.7c-0.1,1.1-0.4,3.2-0.6,4.7l-0.4,2.8
	l0.4,2.8c0.2,1.6,0.5,3.7,0.6,4.8c0.2,1.7,0.3,2.1,1,3.9c0.5,1.1,1.2,3.2,1.7,4.5c0.7,1.9,1.1,2.7,1.6,3.3c0.3,0.4,0.8,1,0.9,1.2
	c0.2,0.3,0.5,0.7,0.6,0.9c0.2,0.2,1,1.4,1.7,2.5c1.2,1.8,1.6,2.2,2.9,3.3c0.8,0.6,2.4,2,3.6,3c1.8,1.6,2.3,1.9,3.8,2.6
	c0.9,0.4,2.8,1.3,4.1,2c2.4,1.2,2.4,1.2,5.1,1.7c1.5,0.3,3.4,0.6,4.3,0.9C75.3,121.8,75.8,121.8,78.3,121.6L78.3,121.6z M95.8,120.8
	c0.3-0.4,0.5-0.8,0.6-0.9c0.7-0.8,1.5-2.2,1.4-2.2c-0.1,0-1,0.2-2.1,0.5c-1.9,0.5-2.1,0.6-4.2,2.3l-1,0.8l0.7,0.1
	c0.6,0.1,1.5,0.1,3.4,0.2C95.3,121.6,95.3,121.5,95.8,120.8z M90.9,120.4c0.6-0.5,1.1-0.9,1.1-1c-0.1-0.1-4.2,1.3-5.2,1.7
	c-0.4,0.2-0.3,0.2,1.2,0.2l1.7,0L90.9,120.4L90.9,120.4z M44.9,119.4c1.3-0.1,2.8-0.2,3.3-0.2c0.9,0,1,0,1-0.3
	c0-0.3-0.9-5.4-1.1-5.8c-0.1-0.2-0.7-0.4-1.9-0.8c-2.8-0.8-4-1-4.1-1c0,0-0.2,1.2-0.4,2.5c-0.3,2.3-0.7,4.9-0.9,5.7
	c-0.1,0.4-0.1,0.4,0.8,0.3C42.1,119.7,43.6,119.5,44.9,119.4L44.9,119.4z M64.5,119.5c-0.7-0.4-4.8-2.4-5-2.4
	c-0.1,0,0.4,0.5,1.1,1.2l1.2,1.2l1.2,0.2c0.7,0.1,1.4,0.2,1.6,0.2C65,119.8,65,119.8,64.5,119.5L64.5,119.5z M60.8,119.2
	c0-0.1-0.7-0.8-1.5-1.5c-1.6-1.5-1.5-1.5-5.1-2.8c-0.1,0,0,0.3,0.2,0.7c0.3,0.4,0.8,1.4,1.2,2.2l0.7,1.4l1.5,0.1
	c0.9,0,1.9,0.1,2.2,0.1C60.5,119.3,60.8,119.3,60.8,119.2L60.8,119.2z M92.3,119.3C92.3,119.2,92.3,119.2,92.3,119.3
	c-0.1-0.1-0.2,0-0.2,0C92.2,119.3,92.2,119.4,92.3,119.3C92.3,119.4,92.3,119.3,92.3,119.3z M55.6,119c0-0.2-1.8-3.6-2.2-4
	c-0.3-0.4-0.7-0.6-2.5-1.2c-1.2-0.4-2.2-0.7-2.2-0.6c0,0,0.2,1.4,0.5,3l0.5,2.9l2.9,0C54.3,119,55.6,119,55.6,119L55.6,119z
	 M96.9,117.4l1.5-0.4l1.1-1.4c0.6-0.8,1-1.3,0.9-1.3c-0.9,0.5-5.4,3.5-5.1,3.4C95.4,117.8,96.1,117.6,96.9,117.4L96.9,117.4z
	 M136.5,116.6c-3.3-2.9-6.8-7.1-9.8-11.5c-0.5-0.8-1-1.4-1.1-1.4c-0.7,0-8.2,2.3-8.2,2.6c0,0.2,1.1,4.5,1.6,6.1
	c0.3,0.9,0.5,1.8,0.6,2c0.1,0.3,0.2,0.3,2.4,0.5c5.2,0.3,11.2,1.3,14.6,2.5c0.5,0.2,0.9,0.3,1,0.3
	C137.7,117.7,137.2,117.2,136.5,116.6L136.5,116.6z M101.8,116.4c1.1-0.2,2.1-0.4,2.1-0.4c0,0,0.3-0.7,0.6-1.5
	c0.3-0.8,0.7-1.8,0.8-2.2l0.3-0.8l-1.3,0.7c-2.3,1.3-2.6,1.5-4.6,4.1c-0.5,0.7-0.6,0.8-0.3,0.7C99.6,116.8,100.6,116.6,101.8,116.4
	L101.8,116.4z M108.7,115.3l1.6-0.2l0.1-2.3c0.1-1.3,0.2-2.7,0.2-3c0.1-0.5,0-0.7-0.1-0.7c-0.2,0-4.1,1.9-4.3,2.1
	c-0.2,0.2-1.8,4.3-1.8,4.6c0,0.1,0.6,0,1.3-0.1C106.5,115.6,107.8,115.4,108.7,115.3L108.7,115.3z M56.9,115.4
	C56.9,115.4,56.9,115.3,56.9,115.4c-0.1-0.1-0.2,0-0.2,0C56.8,115.5,56.8,115.5,56.9,115.4C56.9,115.5,56.9,115.5,56.9,115.4z
	 M56.5,115c-0.2-0.1-1.9-1.6-2.4-2c-0.6-0.6-1.9-1.6-1.9-1.5c0,0,0.1,0.4,0.3,0.7c0.2,0.4,0.5,0.9,0.7,1.3c0.3,0.6,0.5,0.7,1.8,1.2
	c0.8,0.3,1.5,0.5,1.5,0.5S56.6,115.1,56.5,115L56.5,115z M115.4,114.9c3.8-0.1,3.8-0.1,3.8-0.4c0-0.2-0.3-1-0.5-1.7
	c-0.2-0.8-0.7-2.5-1.1-3.9c-0.4-1.4-0.7-2.5-0.7-2.5s-0.3,0.1-0.5,0.2c-0.3,0.1-1,0.4-1.6,0.7c-0.6,0.2-1.4,0.6-1.8,0.7
	c-0.4,0.2-0.9,0.4-1.2,0.5c-0.6,0.2-0.6,0.3-0.7,1.2c-0.1,0.5-0.2,2-0.2,3.3l-0.1,2.3l0.4-0.1C111.4,115,113.3,115,115.4,114.9
	L115.4,114.9z M52.7,113.4c-0.1-0.2-0.5-0.8-0.8-1.3c-0.3-0.5-0.7-1.1-0.8-1.4c-0.1-0.3-0.5-0.7-0.8-0.9c-0.3-0.2-0.6-0.5-0.8-0.6
	s-0.6-0.4-1-0.7c-0.4-0.3-0.9-0.6-0.9-0.7c-0.2-0.3-0.1,0.1,0.4,2.3c0.3,1.2,0.6,2.2,0.8,2.3c0.2,0.1,3.8,1.4,4,1.4
	C52.9,113.9,52.8,113.7,52.7,113.4L52.7,113.4z M47.9,112.1c0-0.1-0.3-1.2-0.6-2.5l-0.6-2.3l-2-1.3c-1.6-1.1-2-1.3-2.1-1.1
	c-0.1,0.1-0.1,1.4-0.2,2.8c-0.1,1.4-0.1,2.6-0.2,2.8c-0.1,0.3,0.1,0.4,1.4,0.7c0.8,0.2,2.1,0.5,2.8,0.7
	C48,112.3,47.9,112.3,47.9,112.1z M106,110.4c0.1-0.2,0.4-0.9,0.7-1.6l0.6-1.3l-1.2,1.3c-1.1,1.1-2,2.1-2.9,3.2
	c-0.3,0.3,0,0.2,1.2-0.4C105.2,111,106,110.5,106,110.4z M41.7,110.3c0-0.2,0.1-1.3,0.2-2.5c0.1-1.2,0.1-2.5,0.2-2.8l0.1-0.6
	l-1.3-0.8c-0.7-0.5-2-1.2-2.7-1.6l-1.4-0.8l-0.2,0.5c-0.5,1.4-2.3,5.8-2.7,6.6c-0.3,0.5-0.4,1-0.4,1c0,0,1,0.2,2.2,0.4
	c1.7,0.2,4.1,0.7,6,1.1C41.6,110.6,41.6,110.5,41.7,110.3z M108.5,109.4c1-0.5,1.9-0.9,2.1-1c0.2-0.1,0.3-0.8,0.5-2.5
	c0.1-1.3,0.3-2.3,0.2-2.3c0,0-0.7,0.6-1.6,1.4c-1.5,1.4-1.6,1.5-2.4,3.4c-0.4,1-0.8,1.9-0.8,1.9S107.5,109.9,108.5,109.4
	L108.5,109.4z M17.2,109.3c1.9-0.3,5.5-0.6,7.8-0.6c1.8,0,6.4,0.2,7.2,0.4c0.4,0.1,0.5,0,1-1.2c0.6-1.3,2.5-6,2.7-6.7
	c0.1-0.3-0.1-0.5-2.1-1.4c-1.2-0.6-3-1.4-3.9-1.8l-1.7-0.7l-2.4,2.6c-3.6,3.9-6.6,6.5-10.1,9c-1.1,0.7-1.1,0.8-0.6,0.7
	C15.5,109.6,16.5,109.4,17.2,109.3L17.2,109.3z M48.9,107.5c-0.5-0.8-1.2-1.7-1.4-2.1c-0.3-0.4-0.6-0.8-0.7-1
	c-0.2-0.4-0.5-0.5-0.4-0.1c0.1,0.2,0.3,0.8,0.4,1.5l0.3,1.2l1.3,0.9c0.7,0.5,1.3,0.9,1.3,0.9S49.4,108.3,48.9,107.5L48.9,107.5z
	 M112.8,107.5c0.4-0.2,1.2-0.5,1.8-0.7c2.1-0.8,2.2-0.9,2.1-1.4c-0.1-0.2-0.3-1.5-0.5-2.8c-0.5-2.7-0.5-2.7-0.7-2.7
	c-0.1,0-0.9,0.7-1.9,1.6l-1.8,1.6l-0.2,1.3c-0.1,0.7-0.2,1.8-0.3,2.5l-0.1,1.2l0.4-0.2C111.9,107.8,112.4,107.6,112.8,107.5
	L112.8,107.5z M46.4,106c-0.1-0.2-0.3-1.2-0.6-2c-0.5-1.6-0.6-1.8-2.2-3.7l-0.9-1.1v2.4v2.4l1.8,1.2c1,0.7,1.9,1.2,1.9,1.2
	C46.4,106.5,46.4,106.3,46.4,106L46.4,106z M118.3,105.4c1.2-0.4,4.3-1.4,5.7-1.8c0.6-0.2,1.2-0.3,1.3-0.4c0,0-0.2-0.6-0.6-1.3
	c-1.1-1.8-3.3-5.9-3.3-6.1c0-0.1-0.1-0.2-0.1-0.2c-0.2,0-3.6,2.6-4.5,3.3l-0.5,0.5l0.3,2c0.4,2.2,0.8,4.2,0.9,4.2
	C117.4,105.7,117.8,105.5,118.3,105.4L118.3,105.4z M110.3,103.8l1.1-1.1l0.3-1.5c0.1-0.8,0.2-1.5,0.2-1.6c-0.1-0.1-1.9,3.3-2.4,4.3
	c-0.2,0.5-0.4,0.9-0.3,0.9C109.2,104.9,109.7,104.4,110.3,103.8z M46.3,103.8C46.3,103.8,46.3,103.7,46.3,103.8
	c-0.1-0.1-0.2,0-0.2,0S46.2,103.9,46.3,103.8C46.3,103.9,46.3,103.9,46.3,103.8z M41.9,98.4c-0.1-0.2-0.8-1-1.6-1.8
	c-0.7-0.8-1.4-1.5-1.4-1.6c-0.1-0.3-0.3-0.1-0.6,0.9c-0.2,0.6-0.6,1.9-0.9,2.9c-0.4,1-0.6,1.9-0.6,1.9c0,0,0.2,0.1,0.4,0.2
	c0.2,0.1,1.1,0.6,2,1.1s1.9,1.1,2.2,1.3l0.6,0.4l0-2.5C42.1,99.3,42.1,98.7,41.9,98.4L41.9,98.4z M128.1,102.6c4.6-1,8-1.3,12.4-1.3
	l3.3,0l-0.9-0.5c-4.2-2.1-9.5-5.9-13-9.1c-0.4-0.4-0.8-0.7-0.9-0.8c-0.2-0.1-2.3,1.1-5.1,2.9c-2,1.3-2.3,1.5-2.2,1.8
	c0,0.2,0.7,1.4,1.4,2.7c2.6,4.6,2.7,4.8,3.1,4.7C126.4,103,127.2,102.8,128.1,102.6L128.1,102.6z M113.2,101.2
	c0.4-0.4,1-0.9,1.3-1.1c0.3-0.2,0.6-0.5,0.8-0.7c0.4-0.3,0.4,0-0.2-4.2c-0.1-0.9-0.2-0.8-1.4,1.3c-0.8,1.4-1,1.7-1.2,3.2
	c-0.2,0.9-0.3,1.9-0.4,2.2c-0.1,0.4,0,0.4,0.1,0.2C112.3,102,112.8,101.6,113.2,101.2L113.2,101.2z M44.3,99.9
	c-0.2-0.5-0.7-1.8-1.1-2.9l-0.8-1.9l0.1,1.7l0.1,1.7l1,1.2c0.5,0.7,1,1.2,1,1.2C44.7,100.8,44.5,100.4,44.3,99.9L44.3,99.9z
	 M37,98.5c0.3-1,0.7-2.3,0.9-3l0.3-1.2L36,92.2c-1.2-1.2-2.3-2.1-2.3-2.1s-0.3,0.3-0.6,0.8c-1.2,1.8-1.4,2.2-3.7,5.1l-0.8,1l2.1,0.9
	c1.2,0.5,2.8,1.3,3.7,1.7c0.8,0.4,1.6,0.8,1.8,0.8C36.3,100.3,36.6,99.6,37,98.5L37,98.5z M116.9,98.2c0.3-0.2,1.3-1,2.2-1.6
	c0.9-0.7,1.7-1.3,1.7-1.5c0-0.1-0.3-0.8-0.7-1.6c-0.4-0.8-0.9-2-1.2-2.6c-0.6-1.4-0.4-1.4-1.7,0.4c-1.8,2.6-1.7,2.4-1.6,3.7
	c0.2,2.4,0.5,4,0.6,3.9C116.3,98.6,116.6,98.4,116.9,98.2L116.9,98.2z M41.9,95.7c-0.1-2-0.1-2.1-0.9-3.8c-0.4-0.9-0.8-1.8-0.9-1.9
	c-0.1-0.2-0.3,0.4-0.7,1.9c-0.3,1.1-0.5,2.2-0.5,2.3c0,0.2,0.5,0.8,1,1.4c0.6,0.6,1.3,1.4,1.5,1.7c0.3,0.3,0.5,0.6,0.5,0.6
	C42,97.8,42,96.8,41.9,95.7z M29.3,95.2c0.4-0.6,0.8-1.1,0.9-1.1c0,0,0.3-0.3,0.5-0.6c0.2-0.3,0.4-0.6,0.5-0.6
	c0.1,0,0.3-0.3,0.5-0.7c0.2-0.3,0.7-1,1-1.5c0.3-0.5,0.6-1,0.6-1c0-0.1-0.7-0.7-1.5-1.3C31,87.6,30.2,87,30,86.8s-0.5-0.4-0.8-0.6
	c-0.3-0.2-0.7-0.6-1-0.8c-0.3-0.2-0.7-0.6-1.1-0.8l-0.6-0.4l-1.9,1.2c-4.5,3-9.1,5.4-12.9,6.8c-1.4,0.5-1.5,0.6-0.4,0.6
	c3,0,10.4,1.7,15.1,3.4C28.2,96.8,28,96.9,29.3,95.2L29.3,95.2z M114.6,94.3c0.3-0.4,0.4-1.3,0.2-3.2l-0.1-1l-0.8,3.1
	c-0.4,1.7-0.8,3.1-0.8,3.2c0,0.1,0.3-0.3,0.6-0.8S114.4,94.5,114.6,94.3z M124,93.2c1.1-0.7,2.6-1.6,3.3-2l1.2-0.7l-2.1-2.2
	c-1.2-1.2-2.5-2.6-2.9-3.1l-0.8-0.9l-0.9,1c-0.5,0.6-1.4,1.7-2,2.4c-0.8,1.1-1.1,1.5-1,1.8c0.1,0.4,0.5,1.3,1.6,3.6
	c0.8,1.8,0.9,1.8,1.2,1.6C121.9,94.6,122.9,93.9,124,93.2L124,93.2z M39.1,91.2c0.6-2.5,0.6-2.3-0.9-5.1l-1-1.7l-0.5,0.9
	c-0.3,0.5-0.9,1.4-1.3,2.1c-0.4,0.7-0.9,1.4-1.1,1.7L34,89.6l2.2,2.1c1.3,1.2,2.2,2,2.3,1.9C38.5,93.4,38.8,92.4,39.1,91.2
	L39.1,91.2z M116.7,91.1c0.1-0.2,0.5-0.7,0.8-1.1c0.7-0.9,0.7-1,0.3-1.9c-0.2-0.3-0.5-1.3-0.8-2.1l-0.5-1.5l-0.7,2l-0.7,2l0.1,1.8
	c0.1,1,0.1,2,0.1,2.2C115.3,93,115.5,92.9,116.7,91.1L116.7,91.1z M41.3,88.8c-0.2-1.4-0.3-2.7-0.3-2.9c0-0.7-0.3,0.2-0.5,1.5
	l-0.3,1.4l0.7,1.4c0.4,0.8,0.7,1.3,0.7,1.3C41.6,91.4,41.5,90.2,41.3,88.8L41.3,88.8z M134.5,87.5c3.6-1.6,7.8-2.9,10.8-3.5
	c0.6-0.1,0.9-0.2,0.6-0.2c-0.2,0-1.5-0.3-2.9-0.7c-4-1-8.3-2.7-12.1-4.7l-1.9-1l-0.5,0.4c-0.3,0.2-1.7,1.6-3.1,3.1l-2.6,2.7l0.5,0.6
	c0.3,0.3,1.6,1.8,3,3.2l2.6,2.6l1.9-1C131.9,88.7,133.5,87.9,134.5,87.5L134.5,87.5z M35.6,86.2c0.3-0.5,0.8-1.3,1-1.7l0.4-0.7
	l-0.6-1c-0.3-0.6-0.9-1.4-1.1-1.9c-0.3-0.5-0.8-1.2-1-1.6l-0.5-0.8l-1.9,1.6c-1,0.9-2.5,2.1-3.3,2.7c-0.8,0.6-1.4,1.1-1.4,1.1
	s0.3,0.3,0.8,0.6c1.5,1.1,2.5,1.9,4.2,3.4l1.7,1.4l0.7-1C34.7,87.7,35.2,86.7,35.6,86.2L35.6,86.2z M119.4,87.5
	c0.3-0.5,0.9-1.2,2-2.4c0.5-0.6,0.9-1.1,0.9-1.2c0-0.1-0.4-0.6-0.9-1.2c-0.5-0.6-1.1-1.3-1.3-1.6c-0.2-0.3-0.5-0.7-0.6-0.8
	c-0.1-0.2-0.4-0.5-0.6-0.7l-0.3-0.4l-0.3,0.5c-0.1,0.3-0.6,1.4-0.9,2.4l-0.7,1.8l0.7,1.8c0.4,1,0.8,2,0.9,2.4l0.3,0.6l0.3-0.4
	C119,88,119.2,87.7,119.4,87.5L119.4,87.5z M40.2,85.8l0.4-2l-0.4-2c-0.2-1.1-0.4-2-0.4-2c0,0-0.5,0.9-1.2,2l-1.1,2l1.1,1.9
	c0.6,1.1,1.1,2,1.1,2.2C39.7,88.4,39.8,88,40.2,85.8L40.2,85.8z M115.6,82.3l-0.6-1.6l0,3.2l0,3.2l0.6-1.6l0.6-1.6L115.6,82.3
	L115.6,82.3z M28.4,82.2c0.9-0.7,1.2-1,1.6-1.3c0.2-0.1,0.9-0.8,1.7-1.4c0.8-0.7,1.5-1.3,1.5-1.3c0-0.1-0.3-0.5-0.6-1
	c-0.3-0.5-0.8-1.2-1-1.5c-0.2-0.3-0.4-0.6-0.5-0.7c-0.1,0-0.3-0.3-0.5-0.6s-0.4-0.6-0.5-0.6c0,0-0.4-0.6-0.9-1.1
	c-0.4-0.6-0.9-1.2-1-1.3c-0.2-0.2-0.4-0.2-1.7,0.3c-4.9,1.8-12.2,3.4-15.2,3.4c-1.1,0-1,0.1,0.4,0.6c3.7,1.3,8.5,3.8,13,6.8l1.8,1.2
	l0.6-0.4C27.5,82.9,28,82.5,28.4,82.2L28.4,82.2z M126.4,79.4l2.1-2.2l-1.2-0.7c-1-0.6-2.3-1.4-5.6-3.5c-0.4-0.2-0.4-0.2-1.2,1.6
	c-1.1,2.4-1.5,3.2-1.6,3.6c-0.1,0.3,0.1,0.7,1,1.8c0.6,0.8,1.5,1.9,2,2.4l0.9,1l0.8-0.9C123.9,82,125.2,80.6,126.4,79.4L126.4,79.4z
	 M38.3,81.4c0.6-1.1,1.1-2.1,1.2-2.4c0.1-0.4-0.8-4.3-1-4.8c-0.1-0.1-1,0.7-2.2,1.9l-2.1,2l0.3,0.5c0.1,0.3,0.7,1.1,1.1,1.8
	c0.5,0.8,1.1,1.7,1.3,2.1c0.2,0.4,0.5,0.8,0.5,0.8C37.3,83.3,37.7,82.4,38.3,81.4L38.3,81.4z M117,81.5c0.3-0.9,0.7-1.8,0.8-2
	c0.4-0.7,0.3-0.8-0.3-1.8c-0.3-0.4-0.7-1-0.8-1.1c-1.2-1.7-1.3-1.9-1.3-1.5c0,0.2-0.1,1.2-0.1,2.2l-0.1,1.8l0.7,2
	c0.4,1.1,0.7,2,0.7,2C116.4,83.1,116.7,82.4,117,81.5z M41.5,77.1l0.1-1.1l-0.7,1.4l-0.7,1.4l0.3,1.4c0.1,0.8,0.3,1.5,0.4,1.6
	C40.9,82.1,41.3,79.2,41.5,77.1z M119.8,74.9c0.6-1.2,1-2.2,1-2.3s-0.7-0.6-1.5-1.2c-0.8-0.6-1.9-1.4-2.4-1.8l-0.9-0.7l-0.2,1.5
	c-0.1,0.8-0.2,2-0.3,2.7l-0.1,1.2l0.9,1.2c0.5,0.6,1.1,1.5,1.4,2l0.6,0.8l0.2-0.5C118.7,77.3,119.2,76.1,119.8,74.9z M40.5,77.1
	c1.2-2.3,1.3-2.9,1.4-5.1l0.1-2.1L41,71c-0.6,0.6-1.3,1.4-1.6,1.8l-0.6,0.7l0.6,2.2C39.7,77,40,78,40,78C40,78,40.2,77.6,40.5,77.1
	L40.5,77.1z M36,75.5l2.2-2.1l-0.3-1.2c-0.5-1.8-1.4-4.6-1.6-4.7c-0.1-0.1-0.9,0.2-2.1,0.8c-1.1,0.5-2.8,1.3-3.8,1.7l-1.8,0.8l0.8,1
	c2.3,2.9,2.6,3.3,3.7,5.1c0.3,0.4,0.5,0.8,0.6,0.8C33.8,77.7,34.8,76.7,36,75.5L36,75.5z M114.8,74.9c0-0.8-0.1-1.1-0.4-1.5
	c-0.2-0.3-0.6-0.9-0.9-1.4c-0.3-0.4-0.5-0.7-0.5-0.7s0.3,1.5,0.8,3.2l0.8,3.1l0.1-0.9C114.8,76.2,114.8,75.4,114.8,74.9z
	 M129.7,76.3c0.4-0.3,0.8-0.7,0.8-0.8c0.1-0.1,1-0.9,2.1-1.8c3-2.5,6.7-4.9,10-6.6l1.3-0.7l-1.7,0.1c-4,0.2-10.9-0.5-15.9-1.8
	c-0.5-0.1-0.5-0.1-3.2,4.6c-0.7,1.3-1.4,2.5-1.4,2.7c-0.1,0.3,0.2,0.5,2,1.7c2.2,1.4,5,3,5.2,3.1C129,76.9,129.3,76.6,129.7,76.3
	L129.7,76.3z M115.4,70.3c0.2-1.4,0.2-1.7,0-1.9c-0.4-0.3-2.3-1.9-3-2.6c-0.4-0.3-0.4-0.4-0.4-0.1c0,0.2,0.2,1.1,0.4,2
	c0.3,1.7,0.5,2.3,1.4,3.8c0.3,0.4,0.7,1,0.8,1.3l0.3,0.5l0.1-0.6C115.1,72.2,115.3,71.2,115.4,70.3L115.4,70.3z M38.9,72.7
	c0-0.1,0.7-0.8,1.4-1.6c0.7-0.8,1.5-1.6,1.6-1.8c0.2-0.2,0.2-0.9,0.2-2.8l0-2.5l-0.6,0.4c-0.3,0.2-1.3,0.8-2.2,1.3
	c-0.9,0.5-1.8,1-2,1.1c-0.2,0.1-0.4,0.2-0.4,0.2s0.2,0.9,0.6,1.9c0.4,1,0.8,2.4,0.9,2.9C38.6,72.8,38.8,73,38.9,72.7L38.9,72.7z
	 M44.2,68.1c0.3-0.7,0.4-1.2,0.4-1.2c0,0-0.5,0.5-1,1.2l-1,1.2L42.5,71l-0.1,1.6l0.7-1.6C43.5,70.1,44,68.8,44.2,68.1L44.2,68.1z
	 M121.3,71.9c0-0.2,3.1-5.7,3.6-6.6c0.2-0.3,0.4-0.6,0.4-0.7s-0.4-0.2-0.9-0.4c-2.3-0.6-3.5-1-5.2-1.6c-1-0.3-1.9-0.6-1.9-0.6
	c-0.1,0.1-0.7,3-0.9,4.5c-0.2,1.3-0.2,1.6-0.1,1.8c0.3,0.4,4.6,3.6,4.8,3.6C121.2,72,121.3,72,121.3,71.9L121.3,71.9z M30.6,69.4
	c1.6-0.7,5.4-2.5,5.5-2.6c0.1-0.1-2-5.2-2.8-6.9c-0.6-1.3-0.7-1.4-1.1-1.3c-0.9,0.1-5.4,0.4-7.2,0.4c-3.2,0-6.8-0.3-9.8-0.9
	c-0.5-0.1-0.5,0,0.6,0.7c3.9,2.7,7.8,6.3,11.4,10.4c0.5,0.6,1.1,1.1,1.2,1.1S29.5,69.9,30.6,69.4z M44,66.9c1.1-1.4,1.3-1.7,1.8-3.2
	c0.6-1.9,0.8-2.5,0.6-2.4c-0.1,0-0.9,0.6-1.9,1.2l-1.8,1.2v2.4c0,1.3,0,2.4,0.1,2.4C42.7,68.4,43.3,67.7,44,66.9L44,66.9z
	 M111.7,66.5l-0.3-1.5l-1.1-1.1c-0.6-0.6-1.2-1.1-1.2-1c-0.1,0.1,1.2,2.6,2.1,4.2c0.3,0.6,0.6,1.1,0.7,1
	C111.9,68.1,111.8,67.4,111.7,66.5z M115.8,67.3c0-0.3,0.3-1.6,0.5-2.9c0.3-1.3,0.4-2.5,0.4-2.5c-0.1-0.1-0.8-0.4-1.7-0.7
	c-0.8-0.3-1.7-0.7-2-0.8c-0.3-0.1-0.8-0.3-1.1-0.5l-0.6-0.3l0.1,1.2c0.1,0.7,0.2,1.8,0.3,2.5l0.2,1.3l1.8,1.6c1,0.9,1.8,1.6,1.9,1.5
	C115.7,67.8,115.8,67.5,115.8,67.3L115.8,67.3z M40.8,64.3l1.3-0.8L42,62c-0.1-2.2-0.3-4.8-0.4-4.8c0,0-0.9,0.1-1.9,0.3
	c-1,0.2-2.9,0.5-4.1,0.7s-2.3,0.3-2.3,0.4c0,0,0.2,0.5,0.4,1c0.4,0.8,2.2,5.2,2.7,6.6l0.2,0.5l1.4-0.8C38.8,65.4,40,64.7,40.8,64.3z
	 M111,61.7c-0.2-1.7-0.3-2.4-0.5-2.5c-0.7-0.4-3.9-1.9-3.9-1.9c0,0,0.3,0.9,0.8,2c0.8,1.9,0.9,2,2.4,3.3c0.8,0.8,1.5,1.4,1.5,1.4
	C111.3,64.1,111.2,63,111,61.7L111,61.7z M46.3,63.9C46.3,63.9,46.3,63.8,46.3,63.9c-0.1-0.1-0.2,0-0.2,0S46.2,64,46.3,63.9
	C46.3,64,46.3,63.9,46.3,63.9z M126.8,62.4c3.2-4.7,6.3-8.4,9.6-11.3c0.7-0.6,1.2-1.1,1.2-1.1s-0.5,0.1-1,0.3
	c-3.6,1.2-9.5,2.2-14.7,2.5c-2.1,0.1-2.3,0.1-2.4,0.5c0,0.2-0.4,1.5-0.8,2.8c-0.6,2.1-1.4,5.1-1.4,5.4c0,0.2,7.3,2.5,8.1,2.5
	C125.7,64,126.2,63.4,126.8,62.4L126.8,62.4z M46.8,63.3c0.1-0.2,0.4-0.7,0.7-1c1.1-1.5,2.4-3.5,2.1-3.3c-0.2,0.1-0.7,0.4-1.1,0.8
	s-0.9,0.7-1.1,0.8c-0.1,0.1-0.4,0.7-0.6,1.4c-0.2,0.7-0.4,1.3-0.4,1.5C46.2,63.8,46.5,63.7,46.8,63.3L46.8,63.3z M45.1,61.5l1.6-1.1
	l0.6-2.4c0.3-1.3,0.6-2.4,0.6-2.5s-1.3,0.3-2.7,0.6c-1.5,0.4-2.8,0.7-2.9,0.7c-0.2,0-0.2,0.1-0.1,0.4c0,0.2,0.1,1.4,0.2,2.6
	c0.1,1.2,0.1,2.5,0.2,2.8l0.1,0.5l0.4-0.3C43.3,62.7,44.2,62.1,45.1,61.5L45.1,61.5z M117.6,58.8c0.4-1.4,0.8-3.1,1.1-3.9
	c0.2-0.8,0.5-1.5,0.5-1.7c0.1-0.3,0-0.3-3.8-0.4c-2.1-0.1-4-0.2-4.2-0.2l-0.4-0.1l0.1,2.3c0.1,1.3,0.2,2.7,0.2,3.3l0.1,1l0.7,0.3
	c0.4,0.2,0.9,0.4,1.1,0.5c0.6,0.3,3.9,1.6,3.9,1.5C116.9,61.3,117.2,60.2,117.6,58.8L117.6,58.8z M106.8,59
	c-0.3-0.7-0.6-1.4-0.7-1.6c-0.1-0.3-0.7-0.7-1.6-1.2l-1.5-0.8l0.4,0.5c0.5,0.6,3.8,4.3,3.9,4.3C107.3,60.3,107,59.7,106.8,59z
	 M50,58c0.4-0.3,0.9-0.8,1-1s0.6-1.1,1.1-1.8c0.4-0.7,0.8-1.3,0.8-1.3c-0.1-0.1-4,1.3-4.2,1.4c-0.1,0.1-1.2,4.2-1.2,4.5
	C47.4,59.9,48,59.6,50,58L50,58z M110.6,58c-0.1-0.4-0.1-1.8-0.2-3l-0.1-2.3l-1.6-0.2c-0.9-0.1-2.2-0.3-3-0.4
	c-0.7-0.1-1.3-0.1-1.3-0.1c0,0.3,1.6,4.4,1.8,4.6c0.3,0.3,4,2.1,4.3,2.1C110.7,58.7,110.7,58.5,110.6,58L110.6,58z M35.6,57.7
	c2.1-0.3,5.1-0.9,5.8-1.1c0.3-0.1,0.3,0-0.2-3.8c-0.2-1.2-0.4-2.9-0.6-3.6l-0.3-1.4l-2.8-0.5c-5.3-1-10.7-2.7-14-4.4l-0.7-0.3
	l0.3,0.4c0.2,0.2,0.6,0.7,1,1.1c2.5,2.8,6.4,8.8,8.4,13.1c0.2,0.5,0.5,0.9,0.6,0.9C33.3,58,34.3,57.9,35.6,57.7L35.6,57.7z
	 M45.2,55.7c1.5-0.4,2.8-0.8,2.8-0.8c0.1-0.1,1.1-5.5,1.1-6c0-0.3-0.1-0.3-2-0.4c-1.1-0.1-2.9-0.2-4.1-0.4c-1.2-0.1-2.2-0.2-2.2-0.2
	s0,0.6,0.2,1.2s0.4,2.3,0.6,3.7c0.5,3.7,0.5,3.6,0.7,3.6C42.4,56.4,43.7,56.1,45.2,55.7L45.2,55.7z M53.1,55.6
	c0.5-0.4,0.9-0.8,1-0.8c0.5-0.5,2.2-1.9,2.4-2c0.1-0.1,0.1-0.1,0.1-0.2c0,0-0.7,0.2-1.5,0.5c-1.3,0.5-1.5,0.6-1.8,1.2
	c-0.2,0.4-0.5,1-0.8,1.4c-0.2,0.4-0.4,0.7-0.3,0.7C52.2,56.3,52.7,56,53.1,55.6z M105.2,55.5c-0.2-0.4-0.5-1.4-0.8-2.2
	c-0.3-0.8-0.5-1.5-0.6-1.5s-1-0.2-2.3-0.5c-2.2-0.4-2.3-0.4-2.1-0.1c0.3,0.6,2.1,2.6,2.6,3.1c0.4,0.3,3.3,2,3.4,2
	C105.5,56.3,105.4,55.9,105.2,55.5z M51,54c1.1-0.4,2.2-0.8,2.4-1c0.3-0.3,2.3-4,2.3-4.2c0,0-1.3-0.1-2.9-0.1l-2.9,0l-0.5,2.5
	c-0.2,1.4-0.5,2.7-0.5,3c0,0.2,0,0.4,0,0.4C48.9,54.6,49.9,54.4,51,54L51,54z M99.9,52.5c-0.4-0.5-0.9-1.1-1.1-1.3
	c-0.3-0.4-0.6-0.5-1.9-0.8c-0.8-0.2-1.6-0.4-1.7-0.4c-0.1,0,0.7,0.5,1.8,1.3c2.3,1.5,3.4,2.2,3.5,2.2C100.5,53.4,100.2,53,99.9,52.5
	z M57.8,51.4c0.5-0.4,3-2.8,3-2.9c0,0-1.1,0-2.3,0l-2.2,0.1l-1.1,2.1c-0.6,1.1-1.1,2.1-1.1,2.1C54.2,52.9,57.4,51.6,57.8,51.4
	L57.8,51.4z M56.9,52.3C56.9,52.3,56.9,52.2,56.9,52.3c-0.1-0.1-0.2,0-0.2,0S56.8,52.4,56.9,52.3C56.9,52.4,56.9,52.4,56.9,52.3z
	 M119.8,51.3c1.5-4.6,4.8-11.3,7.3-14.7l0.8-1.1l-0.8,0.5c-3.3,2.3-7.9,4.4-13,6.1l-3.1,1l-0.1,1.2c-0.1,0.7-0.1,2.7-0.1,4.5v3.3
	l0.7,0.1c1,0.1,2.2,0.2,5.2,0.2l2.8,0L119.8,51.3L119.8,51.3z M110.4,48.7c0-1.8,0-3.8,0.1-4.4l0.1-1.1l-1,0.3
	c-0.8,0.2-4.7,1.1-6.9,1.5c-0.4,0.1-0.4,0.3-0.1,1.2c0.1,0.4,0.5,1.6,0.9,2.8l0.7,2.1l1.1,0.2c1.3,0.2,4.3,0.6,4.8,0.6l0.4,0
	L110.4,48.7L110.4,48.7z M103.5,50.8c-0.2-0.4-1.4-4.2-1.6-5l-0.2-0.7l-1.9,0.3c-1,0.2-2.4,0.3-3,0.4L95.7,46l0.6,0.8
	c0.3,0.4,1,1.4,1.5,2.1l0.9,1.3l2.1,0.4C103.4,51.2,103.7,51.2,103.5,50.8L103.5,50.8z M62.3,49.3c1.5-0.7,2.6-1.3,2.6-1.4
	c0,0-0.8,0-1.6,0.1l-1.5,0.2l-1.2,1.2c-0.6,0.6-1.1,1.2-1,1.2S60.9,50,62.3,49.3L62.3,49.3z M97.2,49c-0.4-0.6-0.8-1.1-0.9-1.2
	s-0.3-0.5-0.6-0.9l-0.5-0.8l-1.7,0.1c-0.9,0-2,0.1-2.4,0.2l-0.7,0.1l1,0.8c2.1,1.7,2.3,1.8,4.1,2.3C98.1,50.2,98.1,50.2,97.2,49
	L97.2,49z M92.3,48.5C92.3,48.4,92.3,48.4,92.3,48.5c-0.1-0.1-0.2,0-0.2,0S92.2,48.5,92.3,48.5C92.3,48.5,92.3,48.5,92.3,48.5z
	 M91.4,47.8c-1.6-1.3-1.6-1.4-3.5-1.3l-1.7,0l2.7,0.9c1.5,0.5,2.8,0.9,2.9,0.9C92,48.4,91.8,48.1,91.4,47.8L91.4,47.8z M56.6,46.8
	c0.9-1.9,1.9-4.2,1.9-4.4c0-0.1-0.4-0.3-0.9-0.4c-1.2-0.4-3.7-1.3-5.4-2c-0.8-0.3-1.4-0.6-1.5-0.6c-0.1,0-0.1,0.7-0.2,1.6
	c-0.1,1.7-0.5,5.5-0.7,6.5l-0.1,0.6h3.1H56L56.6,46.8z M49.5,46.7c0.2-1.8,0.5-3.9,0.6-5.9c0.1-1.5,0.1-1.7-0.2-1.8
	c-1.1-0.4-5.6-2.7-7.5-3.8c-2.3-1.4-5.4-3.5-7-4.9l-0.9-0.7l0.5,0.9c1.7,3,3.5,8,4.9,13.5l0.8,3.3l0.9,0.1c1.7,0.2,5.2,0.6,6.5,0.6
	l1.2,0L49.5,46.7L49.5,46.7z M61.6,47.6c0.2-0.1,0.5-0.4,0.7-0.6s0.5-0.6,0.8-0.9c0.3-0.3,0.8-0.9,1.2-1.3l0.7-0.7l-0.8-0.2
	c-0.5-0.1-1.8-0.4-2.9-0.8c-1.1-0.3-2.1-0.5-2.1-0.5c0,0-0.5,1.1-1.1,2.5c-0.6,1.3-1.1,2.5-1.2,2.6c-0.4,0.4-0.1,0.5,2.1,0.3
	C60.6,47.9,61.3,47.8,61.6,47.6L61.6,47.6z M64.9,47.4c1.3-0.1,1.6-0.3,3-1c2.5-1.3,2.5-1.3-0.1-1.8l-2.2-0.5l-1.4,1.5
	c-0.8,0.8-1.5,1.6-1.6,1.8c-0.2,0.3-0.1,0.3,0.4,0.2C63.2,47.6,64.1,47.5,64.9,47.4z M70,46.6c1-0.2,2.3-0.4,3-0.6l1.2-0.3l-1.7-0.2
	l-1.7-0.2L70,45.7c-0.4,0.3-1.1,0.6-1.4,0.8C67.8,47,67.8,47,70,46.6L70,46.6z M83.3,45.9c0,0-0.6-0.3-1.4-0.6
	c-0.7-0.3-1.3-0.6-1.4-0.6c-0.1-0.1-0.7,0.1-1.3,0.3c-0.7,0.2-1.3,0.4-1.5,0.4c-0.2,0-0.3,0.1-0.3,0.1c0,0.1,0.9,0.2,2.1,0.3
	c1.1,0.1,2.1,0.1,2.2,0.2C81.9,46,83.4,46,83.3,45.9L83.3,45.9z M88.9,45.8c0-0.1-1.7-1.6-3.1-2.7c-0.3-0.3-0.4-0.3-2.4,0.4
	c-1.1,0.4-2.1,0.7-2.1,0.8c-0.1,0.1,0.7,0.4,1.6,0.8l1.7,0.7l2.1,0C88,45.9,88.9,45.9,88.9,45.8L88.9,45.8z M93.9,45.7
	c1-0.1,1-0.1,0.8-0.4c-0.4-0.6-2.8-4.5-2.9-4.8c0-0.1-0.4,0-0.8,0.2c-0.4,0.2-1.7,0.7-2.9,1.2L86,42.7l1.4,1.2
	c0.8,0.7,1.6,1.4,1.9,1.6c0.5,0.4,0.5,0.4,2,0.4C92.2,45.8,93.4,45.7,93.9,45.7L93.9,45.7z M99.1,45.1c2.2-0.3,2.6-0.4,2.5-0.6
	c-0.2-0.5-1.1-4.3-1.4-6.2c-0.2-1-0.4-1.9-0.5-2c0,0-0.3,0.1-0.6,0.2c-1.1,0.7-5,2.7-6.4,3.3c-0.3,0.1-0.5,0.3-0.5,0.3
	c0,0.2,1.7,3,2.6,4.5c0.6,0.9,0.7,1,1.1,0.9C96.2,45.5,97.6,45.3,99.1,45.1L99.1,45.1z M77.2,45c0.7-0.2,1.6-0.4,1.9-0.5l0.5-0.2
	l-2.1-1c-1.1-0.6-2.1-1-2.2-1c-0.1,0-0.6,0.3-1.2,0.7c-0.6,0.4-1.5,1-2,1.3c-0.5,0.3-0.8,0.6-0.7,0.6c0.1,0,0.8,0.1,1.5,0.2
	C75,45.4,75.8,45.4,77.2,45L77.2,45z M71.6,44.2c1.3-0.8,3.2-2.1,3.2-2.2c0-0.1-0.4-0.3-0.9-0.6c-0.5-0.3-1.6-0.9-2.5-1.4
	c-0.9-0.5-1.6-0.9-1.7-0.9c-0.1,0-3.6,4.4-3.6,4.6c0,0.1,3.7,1,4.4,1C70.6,44.7,71.1,44.5,71.6,44.2z M104.5,44.2
	c0.6-0.1,2.2-0.5,3.5-0.8c2-0.5,2.4-0.6,2.5-0.9c0.1-0.2,0.2-1.2,0.3-2.2c0.5-5,1.8-11.1,3.3-14.8l0.4-1l-2.3,2.2
	c-2.4,2.3-3.7,3.5-6.2,5.3c-1.5,1.1-4.3,3-5.3,3.5c-0.3,0.2-0.5,0.4-0.5,0.5c0,0.7,1.6,8.1,1.9,8.5
	C102.2,44.7,102.6,44.6,104.5,44.2L104.5,44.2z M82.8,43.3c1.2-0.4,2.2-0.8,2.2-0.8c0,0-0.3-0.4-0.7-0.7c-0.4-0.3-1.4-1.3-2.2-2.1
	l-1.5-1.5L80,38.7c-0.4,0.3-1,0.8-1.5,1.2c-0.5,0.4-1.2,0.9-1.7,1.3s-0.9,0.6-0.8,0.7c0.2,0.2,4.2,2.1,4.4,2.1
	C80.5,44,81.6,43.7,82.8,43.3L82.8,43.3z M65.6,43.3c0.9-1.1,3.5-4.4,3.5-4.5c0-0.1-0.9-0.7-2-1.4c-1.1-0.7-2.6-1.8-3.4-2.4
	c-0.8-0.6-1.5-1-1.5-1c-0.1,0.1-0.3,0.8-0.6,1.7c-0.6,2-1.3,3.9-1.5,4.3c-0.2,0.4-0.8,2-0.8,2.1c0,0,2.4,0.7,4.8,1.4
	C65,43.6,65.4,43.6,65.6,43.3z M88.9,41l2.6-1.1l-0.6-1.1c-0.6-1-2.7-5.4-3.1-6.3c-0.1-0.3-0.2-0.3-1.1,0.6
	c-0.5,0.5-1.9,1.7-3.1,2.8s-2.2,1.9-2.3,2c-0.1,0.1,0.6,0.9,2,2.3c1.8,1.8,2.2,2.2,2.6,2.1C86.1,42.1,87.5,41.6,88.9,41L88.9,41z
	 M59.1,41.2c0.2-0.4,0.4-1,0.5-1.2c0.4-0.9,2.2-6.1,2.2-6.4c0-0.1-0.6-0.6-1.2-1.1c-3.5-2.8-8.4-7.8-10.7-11.1
	c-0.4-0.5-0.7-0.9-0.7-0.9s0.1,0.7,0.3,1.4c0.9,3.8,1.3,7.7,1.4,13l0.1,4.1l1.1,0.5c0.6,0.3,1.4,0.6,1.7,0.7c0.4,0.1,1.7,0.6,2.9,1
	c1.2,0.4,2.3,0.8,2.3,0.8C58.8,41.9,58.9,41.6,59.1,41.2L59.1,41.2z M76.2,41.1c0.4-0.3,0.8-0.6,0.9-0.7c0.1-0.1,0.3-0.3,0.5-0.4
	c0.2-0.1,0.4-0.3,0.5-0.4c0.1-0.1,0.6-0.5,1.2-0.9l1-0.8L80,37.4c-0.3-0.3-0.7-0.7-0.9-1c-0.3-0.3-0.8-0.9-1.2-1.4
	c-0.4-0.5-0.8-0.9-0.9-1c-0.1-0.1-0.5-0.5-0.8-1c-1-1.3-1.5-1.8-1.5-1.6c0,0.1-0.2,0.5-0.5,0.9c-0.3,0.4-0.6,1-0.8,1.3
	c-0.2,0.4-0.6,0.9-0.8,1.3c-0.3,0.4-0.9,1.3-1.5,2.1c-1,1.5-1,1.5-0.7,1.7c1.2,0.8,1.8,1.1,3.1,1.8c0.8,0.4,1.5,0.8,1.6,0.9
	C75.3,41.7,75.4,41.6,76.2,41.1L76.2,41.1z M94.2,38.6c1.2-0.6,2.8-1.4,3.7-1.9l1.6-0.9l0-0.6c0-0.3-0.1-1.6-0.3-2.8
	c-0.4-2.9-0.6-6.1-0.6-8.5c0-1.9,0.2-5.6,0.4-6.6c0.1-0.3-0.2,0.1-0.8,1.1c-2.2,3.9-4.9,7.4-8.8,11.7C88.7,31,88,31.7,88,31.8
	c-0.1,0.2,2.3,5.1,3.5,7.3c0.2,0.3,0.4,0.6,0.4,0.6C92,39.7,93,39.2,94.2,38.6L94.2,38.6z M70.7,36.6c0.6-0.8,1.2-1.7,1.4-2
	c0.2-0.3,0.5-0.8,0.7-1.1c0.2-0.4,0.5-0.9,0.7-1.1c0.2-0.2,0.4-0.7,0.6-1l0.3-0.6l-1-1.3c-3.1-4.2-6.4-10-7.8-13.5l-0.4-1l-0.1,1.9
	C64.9,22.2,64,27.6,62.5,33c-0.1,0.3,0.2,0.5,1.3,1.4c2,1.5,5.6,3.9,5.7,3.8C69.6,38.2,70.2,37.4,70.7,36.6L70.7,36.6z M81.9,36.7
	c0.3-0.3,1.2-1,1.9-1.7c2.2-1.9,3.6-3.3,3.5-3.5C85,26,83.3,20.6,82.6,15.9l-0.4-2.3L82,14.9c-0.4,1.7-1.8,5.8-2.6,7.6
	c-0.7,1.6-2.8,5.9-3.5,7c-0.4,0.7-0.7,1.3-0.7,1.4c0,0.2,2.3,3,4.6,5.5C80.9,37.7,80.7,37.7,81.9,36.7L81.9,36.7z M65.3,14.7
	C65.3,14.6,65.3,14.6,65.3,14.7c-0.1-0.1-0.2,0-0.2,0C65.1,14.7,65.2,14.7,65.3,14.7C65.3,14.7,65.3,14.7,65.3,14.7z"/>
</svg>
