<?xml version="1.0" encoding="utf-8"?>
<!-- Generator: Adobe Illustrator 28.0.0, SVG Export Plug-In . SVG Version: 6.00 Build 0)  -->
<svg version="1.1" id="Layer_1" xmlns="http://www.w3.org/2000/svg" xmlns:xlink="http://www.w3.org/1999/xlink" x="0px" y="0px"
	 viewBox="0 0 225 248" style="enable-background:new 0 0 225 248;" xml:space="preserve">
<path id="path3446" d="M104.3,156.6c-0.8-0.3-1.5-1.3-1.7-2.6c-0.3-1.8,0.3-4.1,1.6-6c0.3-0.5,0.4-0.6,0.8-1l0.2-0.2l-0.4-0.5
	c-0.2-0.3-0.5-0.6-0.6-0.7c-0.3-0.4-1.7-1.6-1.9-1.7c-0.1,0-0.3,0-0.7,0.2c-0.6,0.3-1.4,0.8-1.8,1.2l-0.2,0.2l0.3,0.9
	c0.1,0.5,0.4,1.3,0.5,1.8c0.2,0.9,0.2,1.1,0.2,2.6c0,1.4,0,1.7-0.1,2.3c-0.3,1-0.6,1.7-1.2,2.3c-0.5,0.5-1,0.7-1.6,0.7
	c-0.7,0-1.4-0.5-1.8-1.2c-1.2-2.4,0-6.1,2.8-8.9l0.7-0.7l-0.4-0.9c-0.2-0.5-0.6-1.2-0.8-1.5l-0.3-0.5l-0.6,0.1
	c-1.1,0.3-1,0.2-1.1,1.2c-0.1,2.7-1,5.4-2.3,7.2c-1.8,2.5-4.3,3.2-5.2,1.2c-0.1-0.3-0.1-0.5-0.1-1.1c0-1.2,0.3-2.2,1.2-3.5
	c1.2-1.8,3.4-3.6,5.7-4.5l0.7-0.3l0-1c0-0.5,0-1-0.1-1c-0.1-0.1-0.6-0.2-1.4-0.3l-0.7-0.1l-0.1,0.4c-0.1,0.2-0.4,0.7-0.6,1.2
	c-1.5,2.6-3.8,4.5-6.1,5.1c-0.8,0.2-2,0.1-2.6-0.1c-0.8-0.3-1.1-0.9-1.2-1.7c0-2,2.8-4.1,6.5-4.8c0.9-0.1,2.5-0.3,3.3-0.2l0.7,0
	l0.1-0.3c0.1-0.2,0.2-0.6,0.3-1c0.2-0.7,0.3-0.5-0.6-1.3c-0.8-0.6-1.3-0.9-1.7-1.2l-0.3-0.2l-0.5,0.5c-0.9,1-1.8,1.6-3,2.2
	c-3.2,1.6-6.8,0.8-6.8-1.6c0-0.5,0.3-1.2,0.8-1.6c0.4-0.4,1.3-0.8,1.9-1c0.7-0.2,2.4-0.3,3.5-0.1c1,0.1,2.4,0.6,3.3,1.1l0.6,0.3
	l0.1-0.1c0.2-0.2,1.2-1.7,1.5-2.3l0.2-0.5l-0.3-0.5c-0.6-0.8-1.1-1.5-2.1-2.4c-0.4-0.4-0.5-0.5-0.6-0.3c-0.8,0.8-2.2,1.7-3.5,2.1
	c-2,0.6-4,0.5-5.2-0.5c-0.6-0.5-0.7-0.8-0.7-1.6c0-0.6,0.1-0.9,0.6-1.5c0.3-0.4,1.1-0.8,1.8-1c0.8-0.2,2.1-0.1,3.1,0.1
	c1.3,0.3,2.4,0.9,3.6,1.7l0.7,0.5l0.5-0.5c0.6-0.7,1.2-1.5,1.7-2.3l0.4-0.6l-0.1-0.2c-0.4-0.8-1.7-2.5-2.3-3.1l-0.2-0.2l-0.7,0.5
	c-1.8,1.2-3.3,1.8-5.1,1.8c-1.5,0-2.5-0.3-3.1-1.1c-0.4-0.5-0.6-0.8-0.6-1.5c0-0.7,0.1-1,0.7-1.6c1.8-1.7,5.4-1.2,8.2,1.1
	c0.3,0.2,0.6,0.4,0.6,0.4c0.1,0,1.5-1.4,1.8-1.9c0.3-0.4,0.4-0.6,0.8-1.1l0.2-0.3l-0.3-0.5c-0.3-0.6-1-1.6-1.4-2.1l-0.3-0.4
	l-0.5,0.2c-0.8,0.4-1.6,0.7-2.6,1c-0.8,0.2-1,0.2-2.4,0.2c-1.7,0-2.1,0-3-0.5c-0.8-0.3-1.2-0.7-1.5-1.2c-0.6-1.3,0-2.5,1.8-3.2
	c0.8-0.3,2-0.3,3.1,0c1.5,0.4,3.1,1.3,4.4,2.6l0.7,0.7l0.4-0.2c0.4-0.2,0.9-0.6,1.7-1.2c0.3-0.2,0.6-0.5,0.7-0.5
	c0.1,0,0-0.2-0.1-0.8c-0.1-0.4-0.3-0.8-0.4-1l-0.1-0.1l-0.7,0c-1.3,0.1-3.6-0.1-4.9-0.6c-1.3-0.4-2.7-1.1-3.5-1.8
	c-0.5-0.4-1-1.2-1.2-1.7c-0.1-0.4-0.1-1.2,0-1.6c0.4-1,2-1.5,3.6-1.1c2.5,0.6,4.9,2.8,6.5,5.9c0.3,0.7,0.4,0.8,0.6,0.7
	c0.1,0,0.5-0.1,1-0.1c0.5-0.1,0.8-0.1,0.9-0.2c0-0.1,0.1-0.4,0.1-1V109l-0.8-0.3c-3.4-1.4-6-4-6.7-6.8c-0.2-0.7-0.2-1.8,0-2.3
	c0.4-0.9,1.2-1.3,2.1-1.2c2.1,0.4,4.3,3.3,5.1,7.1c0.2,0.8,0.4,2.3,0.4,2.9v0.5l0.3,0.1c0.8,0.3,1.3,0.3,1.4,0.3
	c0.1-0.1,0.5-0.7,1-1.8l0.5-1l-0.7-0.7c-2.9-2.8-4.1-6.5-2.9-8.9c0.4-0.8,1.3-1.3,2-1.3c1.1,0.1,2.1,1.3,2.6,3.1
	c0.1,0.5,0.1,0.8,0.1,2.2c0,1.9-0.1,2.7-0.7,4.4l-0.3,1l0.1,0.1c0.3,0.3,1.4,1,1.9,1.3l0.5,0.3l0.4-0.3c0.6-0.4,1.7-1.6,2.2-2.2
	l0.4-0.5l-0.2-0.2c-0.4-0.5-0.5-0.6-0.8-1.1c-1.6-2.5-2-5.3-1.1-7.2c0.5-1,1.6-1.6,2.5-1.4c1.5,0.4,2.3,2.7,1.9,5.2
	c-0.2,1.4-0.9,3-1.7,4.2c-0.3,0.5-0.3,0.4,0.3,1.1c0.5,0.5,1.6,1.3,2.2,1.7l0.4,0.2l0.6-0.3c1.1-0.7,3-2.4,2.8-2.6
	c0,0-0.2-0.3-0.3-0.5c-1.5-2-2.2-4.8-1.7-6.9c0.4-1.8,1.9-2.8,3.2-2.1c1.7,0.8,2.1,4.2,0.8,7.1c-0.3,0.6-1,1.7-1.4,2.2l-0.2,0.3
	l0.4,0.4c0.5,0.6,1.6,1.5,2.5,2.2c0.3,0.2,0.4,0.3,0.6,0.2c0.3-0.1,2-1.2,2.7-1.9l0.3-0.3l-0.5-1c-0.8-1.7-1.2-3-1.3-4.6
	c-0.1-2.2,0.6-3.9,1.9-4.5c0.8-0.3,1.7-0.1,2.3,0.5c1.7,2,0.9,6.2-1.7,9.2c-0.5,0.5-0.5,0.5,0,1.2c0.5,0.7,0.9,1.2,1.4,1.8l0.5,0.5
	l0.6-0.3c0.8-0.3,1.4-0.6,1.4-0.7c0,0,0-0.4-0.1-0.8c-0.1-1-0.1-3.6,0-4.4c0.3-2.2,1-3.8,2-4.8c0.8-0.8,1.7-1.1,2.4-0.8
	c0.7,0.2,1.2,1.1,1.4,2.1c0.4,2.8-1.7,6.5-5.1,8.6l-0.4,0.3l0,0.3c0,0.3,0.5,2.1,0.6,2.2c0,0,0.4,0,0.8,0c0.9,0,0.8,0.1,1.2-1.3
	c1.1-3.7,3.6-6.6,6.2-7.5c0.4-0.1,0.7-0.2,1.2-0.2c1.3,0,1.9,0.6,1.9,2c0,1.2-0.6,2.4-1.9,3.7c-1.6,1.6-4.3,2.9-7,3.3
	c-0.4,0.1-0.6,0.1-0.6,0.2c0,0.1-0.3,1.4-0.3,1.5c0,0,1.2,0.6,1.8,0.8c0.9,0.3,0.8,0.4,1.4-0.4c1.9-2.5,4.7-4.1,7.1-4.1
	c1.1,0,1.7,0.2,2.3,0.7c0.5,0.4,0.6,0.8,0.6,1.5c0,0.8-0.2,1.3-0.9,1.9c-1.6,1.5-4.9,2-8.4,1.2c-0.5-0.1-1-0.2-1.1-0.3
	c-0.1,0-0.2,0-0.5,0.6c-0.2,0.3-0.5,0.9-0.6,1.2l-0.3,0.6l0.2,0.3c0.5,0.6,2.2,2.3,2.6,2.5c0,0,0.3-0.1,0.6-0.4c1.3-1.2,3-2,4.5-2.3
	c0.6-0.1,1.8-0.1,2.4,0c1,0.2,1.9,0.8,2.2,1.6c0.2,0.5,0.2,1.2,0,1.7c-0.8,1.7-3.5,2.2-6.4,1.3c-0.7-0.2-2.1-0.9-2.7-1.3l-0.4-0.3
	l-0.1,0.1c-0.6,0.6-2.2,2.9-2.2,3.2c0,0.1,0.8,1.3,1.3,1.9c0.5,0.7,1.4,1.5,1.5,1.5c0,0,0.3-0.2,0.7-0.5c0.7-0.5,2-1.2,2.8-1.5
	c2.5-0.8,4.9-0.3,5.7,1.2c0.4,0.8,0.3,1.7-0.4,2.5c-0.6,0.7-1.6,1-3,1c-1.7,0-3.5-0.6-5.1-1.8c-0.3-0.3-0.7-0.5-0.7-0.5
	c-0.1,0-0.9,0.8-1.5,1.5c-0.5,0.6-1.3,1.8-1.3,1.9c0,0.3,1.6,2.6,2.2,3.2l0.1,0.1l0.4-0.3c0.6-0.4,2.1-1.1,2.9-1.4
	c2.3-0.7,4.5-0.5,5.6,0.6c0.5,0.5,0.8,1,0.8,1.7c0,0.6-0.2,1.2-0.7,1.6c-0.7,0.6-1.5,0.8-2.8,0.8c-2,0-3.9-0.8-5.7-2.4
	c-0.3-0.3-0.5-0.4-0.6-0.4c-0.4,0.2-2.1,1.9-2.6,2.5l-0.2,0.3l0.3,0.6c0.1,0.3,0.4,0.9,0.6,1.2l0.3,0.6l0.8-0.2
	c1.3-0.3,2-0.4,3.2-0.5c2.4-0.1,4.4,0.5,5.6,1.6c0.8,0.7,1.1,1.6,0.9,2.4c-0.4,1.8-3.3,2.3-6,1c-1.5-0.6-2.9-1.9-4.1-3.4l-0.6-0.8
	l-0.3,0.1c-0.2,0.1-0.5,0.2-0.7,0.3c-0.2,0.1-0.6,0.3-1,0.4l-0.6,0.3l0,0.3c0,0.2,0.1,0.6,0.1,0.8c0.1,0.4,0.1,0.4,0.3,0.5
	c2,0.4,3,0.7,4.3,1.3c1.7,0.8,3.3,2.1,4.1,3.4c0.6,1,0.8,1.4,0.8,2.4c0,0.8,0,0.8-0.2,1.2c-0.1,0.2-0.3,0.4-0.6,0.5
	c-0.6,0.3-1.5,0.3-2.3,0c-2.1-0.7-4.1-2.9-5.4-5.7c-0.3-0.7-0.7-1.8-0.9-2.6c-0.1-0.4-0.1-0.4-1.1-0.4l-0.6,0l-0.1,0.5
	c-0.1,0.3-0.2,0.8-0.3,1.2c-0.1,0.6-0.1,0.7,0,0.8c0.3,0.2,1.5,1,2.1,1.6c2,1.8,3.3,4.3,3.4,6.5c0,1.9-0.8,3-2.2,2.9
	c-1.7-0.1-3.2-2.3-3.8-5.7c-0.1-0.9-0.1-3.4,0-4.4c0.1-0.7,0.1-0.9,0-0.9c-0.2-0.1-1.6-0.8-1.8-0.8c-0.1,0-0.3,0-0.7,0.5
	c-0.6,0.6-1,1.2-1.5,1.9c-0.3,0.5-0.3,0.5-0.2,0.6c0.5,0.6,0.7,0.8,1.1,1.3c0.6,0.8,1.3,2.3,1.5,3.2c0.3,1,0.3,2.4,0.1,3.2
	c-0.2,1-0.8,1.9-1.4,2.2c-0.4,0.2-1.2,0.2-1.7,0c-0.8-0.3-1.5-1.5-1.7-2.8c-0.1-0.5-0.1-0.9-0.1-1.7c0.1-1.6,0.4-2.9,1.3-4.6l0.5-1
	l-0.3-0.3c-0.6-0.6-1.5-1.3-2.4-1.7l-0.3-0.2l-0.4,0.3c-0.8,0.5-1.5,1.1-2.2,1.9c-0.6,0.7-0.7,0.7-0.6,0.9c0.4,0.6,1.3,2,1.5,2.4
	c0.6,1.3,0.8,2.3,0.8,3.6c0,2.2-1,3.7-2.5,3.7c-0.6,0-1-0.1-1.4-0.6c-0.7-0.7-1-1.7-1-3.1c0-2,0.8-4,2.2-5.9l0.1-0.2l-0.5-0.5
	c-0.9-0.9-2.7-2.3-3-2.3c-0.1,0-1.2,0.8-1.8,1.3c-0.8,0.6-1.5,1.3-1.4,1.4c0,0,0.2,0.3,0.3,0.5c0.8,1.2,1.4,2.7,1.6,4.1
	c0.1,0.9,0.1,2.2-0.1,2.9C106.9,156.2,105.6,157.1,104.3,156.6L104.3,156.6z M105.8,156.4c0.5-0.2,0.9-0.7,1.2-1.3
	c0.3-0.8,0.4-1.2,0.4-2.4c0-1.2-0.1-1.9-0.6-3.1c-0.2-0.6-1-2-1.3-2.4l-0.1-0.2l-0.1,0.2c-0.3,0.4-0.5,0.5-0.8,1.1
	c-1.6,2.4-2,5.2-1.1,7C103.7,156.4,104.8,156.9,105.8,156.4z M113.2,156.4c1.7-0.8,2-3.9,0.6-6.8c-0.3-0.6-1.3-2.2-1.5-2.3
	c0,0-0.2,0.1-0.4,0.4c-1,1.4-1.7,3.1-1.9,4.7c-0.2,1.8,0.5,3.5,1.5,4C112.1,156.6,112.7,156.6,113.2,156.4L113.2,156.4z
	 M120.8,156.1c1.3-0.9,1.7-3.4,0.8-5.8c-0.5-1.2-1.2-2.5-2.1-3.5l-0.4-0.4l-0.5,1c-0.8,1.7-1.2,3-1.2,4.5c0,1.2,0.1,2,0.5,2.9
	c0.4,0.8,0.6,1.1,1.2,1.3c0.3,0.1,0.5,0.2,0.9,0.1C120.4,156.4,120.5,156.4,120.8,156.1L120.8,156.1z M98.1,155.9
	c0.9-0.3,1.7-1.4,2.1-2.9c0.1-0.6,0.1-0.9,0.1-2.2c0-1.3,0-1.6-0.1-2.4c-0.2-0.9-0.7-2.7-0.8-2.8s-1.3,1.1-2,2
	c-1.3,1.8-2.1,4.1-1.9,5.7c0.1,1.3,0.7,2.2,1.5,2.5C97.3,156.1,97.6,156.1,98.1,155.9L98.1,155.9z M128.2,154.9
	c1.3-0.6,1.6-2.9,0.6-5.2c-0.5-1.3-1.4-2.5-2.5-3.6c-0.6-0.6-2-1.6-2.2-1.7c-0.1,0-0.4,2.4-0.3,3.8c0.1,2.2,0.6,4,1.5,5.4
	C126,154.8,127.2,155.3,128.2,154.9z M91,153.1c1.7-0.6,3.4-3,4.2-6c0.3-1.2,0.7-4,0.5-4s-1.5,0.6-2,0.9c-2.6,1.5-4.6,3.8-5.2,6
	c-0.2,0.7-0.1,1.7,0,2.2c0.2,0.5,0.6,0.9,1,1c0.1,0,0.3,0,0.3,0.1C90,153.3,90.6,153.2,91,153.1L91,153.1z M135,150.3
	c0.6-0.3,0.8-0.6,0.8-1.4c0-0.6-0.1-1.1-0.4-1.8c-1-2-3.8-4-6.8-4.8c-0.6-0.1-1.9-0.4-2-0.4c0,0,0,0,0.3,1.2
	c1.1,3.6,3.4,6.5,5.9,7.4C133.5,150.5,134.4,150.5,135,150.3L135,150.3z M86.6,147c1.8-0.4,3.6-1.7,5-3.5c0.5-0.6,1.3-1.9,1.6-2.6
	l0.1-0.3l-0.6,0c-0.8,0-2.4,0-3.3,0.2c-2.5,0.5-4.8,1.6-5.8,3c-0.4,0.6-0.6,1-0.6,1.6s0.1,0.8,0.5,1.2
	C84.1,147.1,85.4,147.3,86.6,147L86.6,147z M114.5,144.9c0.3-0.3,0.8-0.6,0.9-0.6c0.1-0.1,0.3-0.2,0.3-0.2c0-0.1-1.7-0.8-2.6-1.1
	l-0.6-0.2l-0.8,0.3c-0.9,0.3-2.5,1-2.5,1c0,0,0.4,0.3,0.9,0.7c0.5,0.3,1.2,1,1.6,1.4l0.7,0.7l0.7-0.7
	C113.5,145.7,114.1,145.1,114.5,144.9L114.5,144.9z M105.8,146.2c0.8-0.7,2-1.7,2.7-2l0.2-0.1l-0.8-0.4c-1.1-0.6-2.5-1-2.8-1
	c-0.3,0.1-1.7,0.5-2.3,0.8l-0.4,0.2l0.3,0.2c0.4,0.3,2.2,2.1,2.4,2.4c0.1,0.1,0.2,0.3,0.2,0.3C105.3,146.6,105.5,146.4,105.8,146.2
	L105.8,146.2z M120,144.7c0.1-0.2,0.5-0.6,0.8-1c0.3-0.3,0.5-0.5,0.5-0.6c0,0-1.1-0.4-1.8-0.5l-0.5-0.1l-0.5,0.2
	c-0.5,0.2-2.1,1-2.3,1.1c-0.1,0.1-0.1,0.1,0.3,0.3c0.5,0.3,1.6,1.1,2.2,1.6l0.3,0.3l0.3-0.5C119.6,145.4,119.8,144.9,120,144.7z
	 M100.1,144.7c0.2-0.1,0.7-0.4,1.1-0.6c0.6-0.3,0.7-0.4,0.6-0.5c-0.2-0.1-1.3-0.8-1.8-1.1c-0.4-0.2-0.5-0.2-1-0.2
	c-0.7,0.1-1,0.1-1,0.2c0,0,0.1,0.3,0.2,0.5c0.1,0.2,0.5,0.8,0.7,1.4l0.4,0.9l0.2-0.1C99.7,145.1,99.9,144.8,100.1,144.7L100.1,144.7
	z M123.9,143.6c0-0.2,0.2-0.8,0.3-1.2c0.1-0.4,0.2-0.8,0.2-0.8c0,0-0.2,0-0.4,0c-0.4,0-0.5,0-0.9,0.4c-0.3,0.2-0.6,0.5-0.8,0.7
	l-0.3,0.3l0.9,0.5c0.5,0.2,1,0.5,1,0.5C123.8,144,123.8,143.8,123.9,143.6L123.9,143.6z M111.2,143c0.5-0.1,0.9-0.3,0.8-0.3
	s-0.3,0-0.7-0.1c-1.2-0.2-2.5-0.3-3.5-0.2c-1.2,0.1-2,0.2-2,0.3c0,0,0,0,0.1,0c0.1,0,1.7,0.6,2.4,1l0.6,0.3l0.7-0.3
	C109.9,143.4,110.7,143.1,111.2,143L111.2,143z M116.5,143.5c0.3-0.1,0.9-0.5,1.4-0.6c1-0.4,1-0.4-0.5-0.5c-1-0.1-2.3,0-3.5,0.1
	c-1.2,0.2-1.2,0.2-0.6,0.4c0.6,0.2,1.6,0.6,2.1,0.8c0.2,0.1,0.4,0.2,0.4,0.2C115.9,143.8,116.2,143.6,116.5,143.5z M102.7,143.3
	c0.3-0.1,0.8-0.3,1.2-0.5c0.4-0.1,0.8-0.3,0.8-0.3c0.1-0.1-1.5-0.3-2.7-0.4c-0.6,0-1.3,0-1.6,0l-0.6,0l0.3,0.2
	c0.5,0.3,1.5,0.8,1.7,1c0.1,0.1,0.2,0.1,0.2,0.1C102.2,143.5,102.4,143.5,102.7,143.3z M137.7,143.3c1.2-0.3,1.9-1.3,1.7-2.3
	c-0.1-0.5-0.4-0.9-0.9-1.4c-1.3-1.2-3.7-1.8-6.4-1.5c-0.7,0.1-2,0.3-2.7,0.5l-0.3,0.1l0.6,0.8c1.1,1.4,2.4,2.4,3.8,3.2
	C134.8,143.4,136.4,143.6,137.7,143.3L137.7,143.3z M122.4,142.3c0.1-0.1,0.4-0.3,0.5-0.4l0.2-0.1l-0.5,0c-0.6,0-1.8,0.3-2.6,0.5
	l-0.6,0.1l0.6,0.1c0.3,0.1,0.8,0.2,1.1,0.3l0.4,0.1l0.3-0.2C122,142.7,122.3,142.4,122.4,142.3L122.4,142.3z M97.1,142.4
	c0.2,0,0.4-0.1,0.4-0.1c0,0-0.2-0.3-0.4-0.6c-0.4-0.5-0.4-0.6-0.8-0.7c-0.2-0.1-0.4-0.1-0.4-0.1s0,0.4,0,1l0,1l0.4-0.1
	C96.6,142.6,96.9,142.5,97.1,142.4z M106.1,142.3c1.7-0.3,3.9-0.3,5.6,0c0.7,0.1,0.8,0.1,1.3,0c0.3,0,0.8-0.1,1.2-0.2
	c0.8-0.1,3.5-0.1,4.3,0c0.6,0.1,0.6,0.1,1.2-0.1c0.8-0.2,2.3-0.5,3.1-0.6c0.5,0,0.7-0.1,0.8-0.2c0.1-0.1,0.4-0.3,0.6-0.5
	c0.5-0.3,0.5-0.3,1-1.3l0.5-1.1l0-0.9c0.1-1.4,0.2-2.3,0.4-3.3l0.2-1l-0.1-0.7c-0.2-1-0.2-4.3,0-5.4c0.1-0.4,0.1-0.9,0.1-1.1
	c0-0.2-0.1-0.7-0.1-1.1c-0.2-1-0.2-4.3,0-5.4c0.1-0.7,0.1-0.7,0-1.3c-0.3-1.1-0.3-1.8-0.4-3.2l-0.1-1.3l-0.4-0.9
	c-0.2-0.5-0.4-1-0.4-1c0,0-0.2-0.2-0.5-0.4c-0.3-0.2-0.6-0.4-0.8-0.5c-0.2-0.1-0.3-0.2-0.9-0.2c-0.8,0-1.8-0.3-2.9-0.5
	c-0.6-0.2-0.7-0.2-1.3-0.1c-1.5,0.2-3.6,0.1-5.2-0.1c-0.8-0.1-0.8-0.1-2,0c-1.8,0.3-3.6,0.3-5.3,0c-0.6-0.1-0.6-0.1-1.6,0.1
	c-1.3,0.3-2.8,0.4-3.8,0.3l-0.8,0l-0.7,0c-0.4,0.1-1,0.4-1.4,0.5c-0.6,0.2-0.6,0.2-1.2,0.8l-0.5,0.6l-0.1,0.9
	c-0.2,0.9-0.6,2.3-0.7,2.5c0,0.1,0,0.3,0,0.8c0.1,1.5,0,3.8-0.3,5.2c-0.1,0.5-0.1,0.6,0,1.3c0.3,1.6,0.3,4.5,0,6.2
	c-0.1,0.5-0.1,0.6,0,1c0.3,1.3,0.4,3.9,0.3,5.3c0,0.5,0,0.6,0.2,1.5c0.1,0.5,0.4,1.3,0.5,1.8c0.1,0.7,0.2,0.9,0.4,1.1
	c0.1,0.1,0.3,0.4,0.5,0.6c0.2,0.3,0.3,0.3,0.6,0.4c0.2,0,0.8,0.3,1.3,0.5l1,0.4l1.5,0c1.6,0,2.5,0.1,3.7,0.4
	c0.3,0.1,0.6,0.1,0.7,0.1C105.5,142.5,105.7,142.4,106.1,142.3L106.1,142.3z M98.6,142.1l0.5-0.1l-0.5-0.2c-0.3-0.1-0.8-0.3-1.1-0.4
	l-0.6-0.2l0.4,0.6c0.3,0.5,0.4,0.5,0.6,0.5C98,142.2,98.3,142.2,98.6,142.1L98.6,142.1z M126.3,141.5c0,0,0-0.2-0.1-0.4
	c0-0.2-0.1-0.5-0.1-0.6c0-0.1-0.1-0.3-0.1-0.3c0,0-0.3,0.1-0.5,0.3c-0.4,0.2-0.4,0.3-0.6,0.6c-0.1,0.2-0.1,0.4-0.1,0.4s0.1,0,0.3,0
	C125.8,141.5,126.3,141.5,126.3,141.5L126.3,141.5z M124.7,141.1c0.1-0.2,0.1-0.3,0-0.3c-0.4,0.3-0.9,0.6-0.9,0.6s0.1,0,0.3,0
	C124.5,141.4,124.5,141.4,124.7,141.1z M96.2,140.4c-0.1-0.2-0.3-0.3-0.3-0.3s0,0.1,0,0.3c0,0.2,0.1,0.3,0.3,0.3
	c0.1,0,0.3,0.1,0.3,0.1C96.5,140.8,96.3,140.7,96.2,140.4L96.2,140.4z M95.7,140.3c0-0.1,0-0.3,0-0.4c0-0.1-0.3-0.4-0.6-0.8
	l-0.6-0.6l-0.3,0.8c-0.1,0.4-0.3,0.8-0.3,0.9c0,0,1.3,0.3,1.8,0.3C95.7,140.6,95.7,140.6,95.7,140.3z M126,139.3c0-0.3,0-0.5,0-0.5
	c0,0-0.2,0.3-0.4,0.7c-0.2,0.4-0.3,0.8-0.4,0.8c0,0,0.1,0,0.4-0.2l0.4-0.3L126,139.3L126,139.3z M85.2,139.7
	c0.8-0.1,1.7-0.4,2.6-0.9c1-0.5,1.6-1,2.5-1.8l0.6-0.6l-0.1-0.1c-0.5-0.4-2.8-1.2-4-1.3c-0.8-0.1-2.5,0-3.1,0.1
	c-0.6,0.2-1.3,0.5-1.8,0.9c-0.4,0.3-0.8,1.1-0.8,1.5C81,139,82.9,140,85.2,139.7L85.2,139.7z M128,139l0.8-0.3l-0.3-0.5
	c-0.1-0.3-0.4-0.8-0.6-1.2l-0.3-0.6l-0.1,0.2c-0.1,0.1-0.4,0.6-0.7,1l-0.5,0.8v0.5c0,0.3,0,0.6,0,0.7c0,0.1,0,0.1,0.5-0.1
	C127,139.4,127.6,139.1,128,139L128,139z M95.3,138.6c-0.1-0.4-0.3-1.1-0.4-1.5l-0.2-0.7l0,0.4c0,0.2-0.1,0.6-0.2,0.9l-0.1,0.5
	l0.6,0.5c0.3,0.3,0.6,0.5,0.6,0.5C95.5,139.4,95.5,139,95.3,138.6z M94.3,137.6c0.3-1.4,0.3-1.4,0.1-2c-0.2-0.5-0.8-1.6-1-2.1
	l-0.1-0.2l-0.2,0.4c-0.3,0.6-1,1.7-1.3,2.1c-0.2,0.3-0.3,0.4-0.2,0.4c0,0,0.3,0.2,0.5,0.3c0.2,0.1,0.8,0.5,1.3,0.9
	c0.4,0.3,0.8,0.6,0.9,0.6C94.2,138.1,94.3,137.9,94.3,137.6z M126.6,137.3c0.3-0.4,0.5-0.8,0.6-1l0.1-0.2l-0.3-1.1
	c-0.2-0.6-0.3-1.1-0.3-1.2c0-0.3-0.1,0-0.3,0.7c-0.2,0.9-0.5,3.7-0.3,3.6C126.1,138,126.3,137.7,126.6,137.3L126.6,137.3z
	 M128.6,134.8c0.7-0.7,1.7-1.6,1.9-1.6c0,0-0.1-0.1-0.3-0.3c-0.6-0.6-1.4-1.7-1.9-2.6c-0.1-0.1-0.2-0.3-0.2-0.3
	c-0.1,0-0.8,1.7-1.1,2.7l-0.2,0.6l0.1,0.7c0.1,0.4,0.3,1,0.4,1.4l0.2,0.6l0.1-0.2C127.8,135.6,128.2,135.1,128.6,134.8L128.6,134.8z
	 M138.1,135.8c2.1-0.5,2.8-2.4,1.5-3.7c-0.6-0.6-1.9-1.1-3.1-1.1c-1.5,0-3.7,0.7-5.2,1.7c-0.6,0.4-0.6,0.3,0.3,1.1
	c1.2,1,2.5,1.6,3.9,1.9C136.1,135.9,137.5,135.9,138.1,135.8L138.1,135.8z M94.8,133.8c0-1.2-0.1-3-0.3-3.6c0,0-0.1,0.2-0.2,0.6
	c-0.1,0.4-0.3,1-0.5,1.5l-0.3,0.8l0.3,0.4c0.3,0.5,1,2,1,2.1C94.7,136,94.8,134.7,94.8,133.8z M93.6,132c0.2-0.5,0.4-1.2,0.5-1.6
	l0.2-0.7l-0.3-0.8c-0.3-1-0.7-2-0.9-2.4l-0.1-0.2l-0.3,0.6c-0.5,0.8-1.1,1.6-1.7,2.2l-0.5,0.5l0.8,0.8c0.7,0.7,1.8,2.1,1.9,2.4
	c0,0.1,0,0.1,0.1,0.1C93.2,132.9,93.4,132.5,93.6,132z M127.1,131.7c0.1-0.3,0.4-1,0.6-1.3l0.3-0.7l-0.3-0.6
	c-0.1-0.3-0.4-1.1-0.6-1.6c-0.3-1.1-0.3-1.1-0.5,0.4c-0.1,1.3-0.1,3.6,0.1,5.1c0,0,0,0,0.1-0.2C126.8,132.5,126.9,132.1,127.1,131.7
	L127.1,131.7z M85.2,132.1c1.5-0.2,3.3-1.1,4.5-2.1l0.3-0.3l-0.7-0.5c-1.7-1.2-3.3-1.8-5-1.8c-1.6,0-2.9,0.6-3.4,1.7
	c-0.2,0.4-0.2,1.2,0,1.6C81.6,131.8,83.3,132.4,85.2,132.1L85.2,132.1z M128.5,128.8c0.5-0.7,1.4-1.9,2-2.4l0.4-0.4l-0.4-0.4
	c-0.5-0.5-1.5-1.7-2-2.4c-0.2-0.3-0.4-0.6-0.4-0.6c-0.1,0-1.2,3-1.2,3.4c0,0.4,1.1,3.4,1.2,3.4C128.2,129.4,128.3,129.2,128.5,128.8
	z M94.6,128.1c0.2-1.5,0.1-3.7-0.1-5l-0.1-0.4l-0.2,0.7c-0.3,1-0.6,1.8-0.9,2.2l-0.1,0.3l0.4,0.8c0.4,0.9,0.8,2.1,0.8,2.4
	C94.3,129.5,94.5,128.9,94.6,128.1z M138,128.2c2.2-0.4,3-2.3,1.7-3.7c-1.6-1.6-5-1.3-7.8,0.8c-0.3,0.3-0.6,0.5-0.6,0.5
	c0,0.1,1,0.8,1.6,1.2c0.8,0.5,2.1,0.9,3.1,1.1C136.4,128.4,137.5,128.3,138,128.2L138,128.2z M93.6,124.5c0.1-0.4,0.4-1.1,0.5-1.5
	l0.2-0.8l-0.2-0.8c-0.1-0.4-0.3-1.1-0.5-1.6c-0.3-0.7-0.3-0.8-0.4-0.7c-0.6,1-1.3,1.7-2,2.5c-0.3,0.3-0.6,0.6-0.6,0.7
	c0,0,0.2,0.3,0.4,0.5c0.6,0.7,1.6,1.9,1.9,2.6l0.1,0.2l0.1-0.2C93.2,125.3,93.4,124.9,93.6,124.5z M127.7,122.9l0.3-0.6l-0.3-0.7
	c-0.3-0.7-0.9-2.1-0.9-2.3c0,0,0-0.1,0,0c0,0-0.1,0.4-0.1,0.8c-0.2,1.5-0.1,3.6,0.1,5.3c0,0.3,0,0.3,0.3-0.7
	C127.2,124.1,127.5,123.3,127.7,122.9z M85.9,124.4c0.6-0.1,1.5-0.4,2.2-0.8c0.7-0.3,1.8-1.2,1.8-1.3c0,0-0.2-0.2-0.4-0.4
	c-1.5-1.2-3-1.8-4.6-2.1c-0.8-0.1-1.7,0-2.4,0.3c-0.5,0.2-1.2,0.8-1.5,1.2c-0.7,1.4,0.4,2.9,2.4,3.2C84,124.6,85.2,124.5,85.9,124.4
	z M128.3,121.7c0.5-0.8,1.2-1.9,1.9-2.6c0.2-0.2,0.3-0.3,0.3-0.3c-0.2,0-2.3-1.9-2.7-2.5l-0.1-0.2l-0.2,0.6c-0.1,0.3-0.3,1-0.4,1.4
	l-0.2,0.7l0.3,0.8c0.3,0.8,1,2.4,1.1,2.4C128.1,122.1,128.2,121.9,128.3,121.7L128.3,121.7z M94.5,121.4c0.2-1.2,0.3-2.2,0.3-3.2
	c0-0.9-0.1-2.2-0.1-1.9c0,0.1-0.6,1.4-1,2l-0.3,0.6l0.1,0.3c0.2,0.5,0.6,1.5,0.7,2c0.1,0.3,0.1,0.5,0.2,0.5
	C94.4,121.7,94.5,121.5,94.5,121.4L94.5,121.4z M137.6,120.7c0.3,0,0.8-0.2,1.1-0.3c2.3-1.1,1.8-3.7-0.7-4.3c-2-0.5-4.7,0.4-6.8,2.3
	l-0.4,0.4l0.7,0.4C133.5,120.6,135.8,121.1,137.6,120.7L137.6,120.7z M93.9,117.3c0.7-1.5,0.7-1.3,0.5-2.1c-0.2-1.1-0.3-1.5-0.4-1.4
	c-0.1,0.1-1.8,1.3-2.4,1.7l-0.3,0.2l0.1,0.2c0.5,0.6,1.2,1.6,1.4,2.1c0.3,0.5,0.3,0.5,0.4,0.4C93.4,118.3,93.7,117.8,93.9,117.3
	L93.9,117.3z M126.7,118.1c0,0,0.1-0.6,0.3-1.2l0.3-1.1l-0.2-0.3c-0.1-0.1-0.4-0.6-0.6-1c-0.2-0.4-0.5-0.7-0.5-0.6
	c0,0,0.1,2.2,0.2,2.7C126.4,117.5,126.6,118.2,126.7,118.1C126.7,118.2,126.7,118.2,126.7,118.1z M87.1,117c0.8-0.1,2-0.5,2.9-0.9
	c1.1-0.5,1.1-0.4,0.4-1.1c-1.6-1.6-3.5-2.6-5.4-2.9c-2.2-0.3-4,0.8-4,2.3c0,0.3,0.3,1,0.6,1.3c0.4,0.5,1.4,1,2.4,1.2
	C84.6,117.2,86.4,117.1,87.1,117z M128.5,113.7l0.3-0.5l-0.6-0.2c-0.3-0.1-0.9-0.4-1.3-0.5s-0.6-0.3-0.6-0.2c0,0,0,0.3-0.1,0.7
	c0,0.6,0,0.6,0.3,1.2c0.1,0.3,0.5,0.8,0.7,1l0.4,0.5l0.3-0.7C128.1,114.5,128.4,114,128.5,113.7L128.5,113.7z M95,114.8
	c0.1-0.5,0.6-2.2,0.6-2.3c0,0-0.3,0.2-0.6,0.5l-0.6,0.6l0.1,0.3c0,0.2,0.1,0.6,0.2,0.9s0.1,0.5,0.1,0.5
	C94.7,115.4,94.9,115.1,95,114.8L95,114.8z M134.7,113.8c1.5-0.2,2.9-0.7,3.7-1.5c1.2-1.1,1.2-2.4,0-3.3c-1.7-1.3-5.1-0.4-7.6,2
	c-0.7,0.6-1.9,2.1-1.8,2.2c0.1,0.1,2,0.5,3,0.6C132.7,113.9,134.2,113.8,134.7,113.8z M95.1,112.6c0.4-0.4,0.5-0.5,0.5-0.8
	c0-0.2,0-0.4,0-0.4c0,0-0.4,0-0.8,0.1c-1.2,0.2-1.2,0.1-1.1,0.3c0,0.1,0.1,0.5,0.3,0.9l0.3,0.8l0.2-0.1
	C94.6,113.1,94.9,112.8,95.1,112.6z M125.9,112c0,0-0.1-0.1-0.1-0.1s-0.2-0.1-0.4-0.2c-0.2-0.1-0.3-0.1-0.3-0.1c0,0,0.2,0.4,0.4,0.8
	l0.3,0.8l0-0.5C126,112.3,126,112.1,125.9,112z M96.5,111.1c0,0-0.1,0-0.3,0.1c-0.3,0.1-0.3,0.1-0.3,0.3c0,0.1,0,0.3,0,0.3
	c0,0.1,0.1,0,0.3-0.3C96.4,111.3,96.5,111.1,96.5,111.1z M126.1,111.6c0.1-0.8,0.2-1.2,0.1-1.3c0,0-0.4,0-0.8,0l-0.8,0l0.1,0.3
	c0.1,0.2,0.1,0.4,0.1,0.4c0,0.1,0.9,0.6,1,0.6C126,111.8,126,111.7,126.1,111.6L126.1,111.6z M93.3,111.4c0,0-0.1-0.3-0.2-0.6
	c-1-2-2.7-3.9-4.3-4.9c-1.7-1-3.4-1.4-4.6-0.8c-1.9,0.8-1.4,3.1,1,4.7c1.8,1.2,4.6,1.8,7.2,1.7C92.9,111.4,93.3,111.4,93.3,111.4
	L93.3,111.4z M124.6,110.8l-0.1-0.4h-0.3c-0.2,0-0.3,0-0.3,0.1c0,0,0.9,0.6,1,0.6C124.8,111.2,124.7,111,124.6,110.8L124.6,110.8z
	 M96.4,110.9c0.2-0.1,0.3-0.1,0.7-0.6c0.2-0.3,0.4-0.6,0.4-0.6c0,0-0.3-0.1-0.6-0.2c-0.3-0.1-0.7-0.2-0.8-0.2c-0.1,0-0.1,0-0.2,0.9
	c0,0.8,0,1,0.1,0.9C96.1,111,96.3,110.9,96.4,110.9z M98.7,110.1l0.5-0.2l-0.5,0c-0.3,0-0.6-0.1-0.8-0.1c-0.2,0-0.2,0-0.5,0.4
	c-0.1,0.2-0.3,0.5-0.4,0.5C97,110.8,97.9,110.5,98.7,110.1L98.7,110.1z M124.4,110.1c-0.1-0.3-0.5-1.7-0.5-2l0-0.3l-0.5,0.3
	c-0.3,0.1-0.7,0.3-1,0.4c-0.2,0.1-0.4,0.2-0.4,0.2c0,0,1,1,1.4,1.3c0.2,0.1,0.3,0.1,0.7,0.1C124.4,110.3,124.4,110.3,124.4,110.1
	L124.4,110.1z M122.9,110.1c-0.1-0.1-0.6-0.5-1-0.9l-0.3-0.3l-0.9,0.3c-0.5,0.1-1,0.3-1.1,0.3c-0.3,0,0,0.1,0.6,0.3
	c0.8,0.2,2.2,0.4,2.5,0.4C123,110.2,123.1,110.2,122.9,110.1L122.9,110.1z M127.3,110c2.7-0.5,5.1-1.6,6.7-3.2
	c1.3-1.3,1.9-2.5,1.9-3.7c0-0.5,0-0.6-0.2-0.9c-0.5-0.7-1.5-0.9-2.7-0.5c-2.1,0.7-4.1,2.9-5.4,5.7c-0.4,1-1,2.8-0.9,2.8
	C126.6,110.1,126.9,110.1,127.3,110L127.3,110z M102.3,109.7c1-0.1,2.7-0.4,2.4-0.4c-0.3,0-1.5-0.5-2-0.7l-0.5-0.2l-0.5,0.3
	c-0.7,0.5-1.5,0.9-1.6,0.9c0,0,0,0,0.1,0.1C100.4,109.8,101.3,109.8,102.3,109.7z M100,109.4c0.3-0.1,0.7-0.4,0.9-0.5
	c0.2-0.1,0.5-0.3,0.7-0.4l0.3-0.2l-0.7-0.4c-0.8-0.4-1.4-0.8-1.7-1.1l-0.2-0.2l-0.5,1c-0.3,0.5-0.5,1.1-0.6,1.2
	c-0.3,0.5-0.4,0.7-0.3,0.7c0,0,0.4,0,0.7,0.1s0.6,0.1,0.7,0.1C99.4,109.7,99.7,109.6,100,109.4z M110.9,109.4c0.4,0,0.8-0.1,0.9-0.1
	c0,0-0.3-0.2-0.8-0.3c-0.5-0.1-1.2-0.5-1.6-0.6l-0.6-0.3l-0.8,0.4c-0.4,0.2-1.1,0.5-1.6,0.6l-0.8,0.3l0.6,0.1
	C107.7,109.7,109.5,109.7,110.9,109.4L110.9,109.4z M118.2,109.5c0.2,0,0.3-0.1,0.3-0.1c0,0-0.1-0.1-0.3-0.2c-0.5-0.2-1.8-0.8-2.1-1
	c-0.2-0.1-0.2-0.1-0.5,0c-0.4,0.2-2,0.8-2.4,0.9c-0.2,0-0.3,0.1-0.3,0.1c0,0,1.1,0.2,2,0.3C115.3,109.7,117.8,109.6,118.2,109.5
	L118.2,109.5z M120.5,109c0.4-0.1,0.8-0.2,0.9-0.3c0,0-0.1-0.3-0.4-0.6c-0.5-0.5-1.2-1.4-1.6-2c-0.1-0.2-0.2-0.3-0.2-0.4
	c0,0-0.1,0.1-0.3,0.3c-0.6,0.6-2.4,1.8-2.6,1.8c0,0,0,0,0,0.1c0,0.1,2,1.1,2.5,1.3C119,109.4,119.4,109.3,120.5,109L120.5,109z
	 M106.2,108.9c0.9-0.3,1.7-0.6,2-0.9l0.2-0.1l-0.4-0.2c-0.7-0.4-1.8-1.3-2.3-1.8l-0.5-0.5l-0.2,0.3c-0.3,0.4-1.8,1.9-2.3,2.3
	l-0.4,0.3l0.3,0.1c0.6,0.3,2.3,0.8,2.5,0.8C105.3,109.2,105.8,109.1,106.2,108.9L106.2,108.9z M113.2,109c0.8-0.2,2.1-0.8,2.4-0.9
	c0.1-0.1,0.1-0.1-0.1-0.3c-0.7-0.5-1.6-1.2-2.3-1.9l-0.7-0.7l-0.4,0.5c-0.6,0.6-1.5,1.4-2.3,1.9c-0.3,0.2-0.6,0.4-0.5,0.4
	c0.1,0.1,2.9,1.3,3.3,1.3C112.4,109.2,112.7,109.1,113.2,109L113.2,109z M95.8,108.1c-0.1-1.4-0.4-3.1-0.9-4.4c-1-2.7-3-4.9-4.6-5
	c-0.6-0.1-0.8,0-1.2,0.4c-0.4,0.4-0.6,0.9-0.6,1.7c0,2.4,2.2,5.4,5.3,7.1c0.7,0.4,2,1,2.1,1C95.8,108.9,95.8,108.5,95.8,108.1z
	 M125.2,106.7c2.5-1.8,4.1-4.7,4.1-7.1c0-1.3-0.4-2.3-1.3-2.7c-1.1-0.5-2.5,0.4-3.4,2.3c-0.4,0.8-0.5,1.2-0.7,2.2
	c-0.3,1.6-0.4,3.9-0.1,5.7l0.1,0.5l0.4-0.3C124.5,107.1,125,106.9,125.2,106.7L125.2,106.7z M99.6,105.3c0.1-0.5,0.4-1.3,0.5-1.8
	c0.1-0.8,0.2-1.1,0.2-2.4s0-1.6-0.1-2.2c-0.4-1.7-1.4-2.9-2.5-3.1c-0.8-0.1-1.8,0.7-2.1,2c-0.5,1.8,0.1,4.3,1.7,6.4
	c0.6,0.8,1.9,2.1,2,2.1C99.3,106.2,99.4,105.8,99.6,105.3L99.6,105.3z M120.3,104c2-2.9,2.4-6.2,0.9-7.9c-1-1.2-2.5-0.8-3.3,0.9
	c-0.4,0.9-0.6,1.7-0.5,2.9c0.1,1.5,0.4,2.8,1.2,4.5l0.5,1l0.4-0.4C119.7,104.7,120.1,104.3,120.3,104z M105.6,104.5
	c2-3.1,2.4-6.8,0.8-8.6c-1.5-1.6-3.5-0.2-3.7,2.5c-0.1,1.6,0.5,3.5,1.6,5.2c0.2,0.3,0.4,0.6,0.4,0.6c0,0,0.1,0.1,0.3,0.3
	c0.1,0.1,0.2,0.3,0.3,0.3C105.4,104.9,105.5,104.7,105.6,104.5z M113,103.8c1.5-2.2,2-4.5,1.5-6.4c-0.2-0.9-0.7-1.6-1.4-2
	c-1.7-0.8-3.3,1.3-3,4.1c0.2,1.6,0.8,3.3,1.9,4.7c0.2,0.3,0.3,0.4,0.4,0.4C112.4,104.7,112.7,104.3,113,103.8L113,103.8z"/>
</svg>
