<?xml version="1.0" encoding="utf-8"?>
<!-- Generator: Adobe Illustrator 28.0.0, SVG Export Plug-In . SVG Version: 6.00 Build 0)  -->
<svg version="1.1" id="Layer_1" xmlns="http://www.w3.org/2000/svg" xmlns:xlink="http://www.w3.org/1999/xlink" x="0px" y="0px"
	 viewBox="0 0 1448 463" style="enable-background:new 0 0 1448 463;" xml:space="preserve">
<style type="text/css">
	.st0{clip-path:url(#SVGID_00000141450785903605313360000015288053670273432983_);}
	.st1{fill:none;stroke:#AAFFFF;}
	.st2{fill:none;stroke:#66FFFF;}
	.st3{fill:none;stroke:#F4E736;stroke-width:3;}
</style>
<g>
	<defs>
		<rect id="SVGID_1_" width="1448" height="463"/>
	</defs>
	<clipPath id="SVGID_00000043438173304974200120000001186184059420257442_">
		<use xlink:href="#SVGID_1_"  style="overflow:visible;"/>
	</clipPath>
	<g style="clip-path:url(#SVGID_00000043438173304974200120000001186184059420257442_);">
		<path class="st1" d="M-75.8,0v463 M-65.8,0v463 M-55.8,0v463 M-45.8,0v463 M-35.8,0v463 M-25.8,0v463 M-15.8,0v463 M-5.8,0v463
			 M4.2,0v463 M14.2,0v463 M24.2,0v463 M34.2,0v463 M44.2,0v463 M54.2,0v463 M64.2,0v463 M74.2,0v463 M84.2,0v463 M94.2,0v463
			 M104.2,0v463 M114.2,0v463 M124.2,0v463 M134.2,0v463 M144.2,0v463 M154.2,0v463 M164.2,0v463 M174.2,0v463 M184.2,0v463
			 M194.2,0v463 M204.2,0v463 M214.2,0v463 M224.2,0v463 M234.2,0v463 M244.2,0v463 M254.2,0v463 M264.2,0v463 M274.2,0v463
			 M284.2,0v463 M294.2,0v463 M304.2,0v463 M314.2,0v463 M324.2,0v463 M334.2,0v463 M344.2,0v463 M354.2,0v463 M364.2,0v463
			 M374.2,0v463 M384.2,0v463 M394.2,0v463 M404.2,0v463 M414.2,0v463 M424.2,0v463 M434.2,0v463 M444.2,0v463 M454.2,0v463
			 M464.2,0v463 M474.2,0v463 M484.2,0v463 M494.2,0v463 M504.2,0v463 M514.2,0v463 M524.2,0v463 M534.2,0v463 M544.2,0v463
			 M554.2,0v463 M564.2,0v463 M574.2,0v463 M584.2,0v463 M594.2,0v463 M604.2,0v463 M614.2,0v463 M624.2,0v463 M634.2,0v463
			 M644.2,0v463 M654.2,0v463 M664.2,0v463 M674.2,0v463 M684.2,0v463 M694.2,0v463 M704.2,0v463 M714.2,0v463 M724.2,0v463
			 M734.2,0v463 M744.2,0v463 M754.2,0v463 M764.2,0v463 M774.2,0v463 M784.2,0v463 M794.2,0v463 M804.2,0v463 M814.2,0v463
			 M824.2,0v463 M834.2,0v463 M844.2,0v463 M854.2,0v463 M864.2,0v463 M874.2,0v463 M884.2,0v463 M894.2,0v463 M904.2,0v463
			 M914.2,0v463 M924.2,0v463 M934.2,0v463 M944.2,0v463 M954.2,0v463 M964.2,0v463 M974.2,0v463 M984.2,0v463 M994.2,0v463
			 M1004.2,0v463 M1014.2,0v463 M1024.2,0v463 M1034.2,0v463 M1044.2,0v463 M1054.2,0v463 M1064.2,0v463 M1074.2,0v463 M1084.2,0
			v463 M1094.2,0v463 M1104.2,0v463 M1114.2,0v463 M1124.2,0v463 M1134.2,0v463 M1144.2,0v463 M1154.2,0v463 M1164.2,0v463
			 M1174.2,0v463 M1184.2,0v463 M1194.2,0v463 M1204.2,0v463 M1214.2,0v463 M1224.2,0v463 M1234.2,0v463 M1244.2,0v463 M1254.2,0
			v463 M1264.2,0v463 M1274.2,0v463 M1284.2,0v463 M1294.2,0v463 M1304.2,0v463 M1314.2,0v463 M1324.2,0v463 M1334.2,0v463
			 M1344.2,0v463 M1354.2,0v463 M1364.2,0v463 M1374.2,0v463 M1384.2,0v463 M1394.2,0v463 M1404.2,0v463 M1414.2,0v463 M1424.2,0
			v463 M1434.2,0v463 M1444.2,0v463 M0-68.5h1448 M0-58.5h1448 M0-48.5h1448 M0-38.5h1448 M0-28.5h1448 M0-18.5h1448 M0-8.5h1448
			 M0,1.5h1448 M0,11.5h1448 M0,21.5h1448 M0,31.5h1448 M0,41.5h1448 M0,51.5h1448 M0,61.5h1448 M0,71.5h1448 M0,81.5h1448 M0,91.5
			h1448 M0,101.5h1448 M0,111.5h1448 M0,121.5h1448 M0,131.5h1448 M0,141.5h1448 M0,151.5h1448 M0,161.5h1448 M0,171.5h1448
			 M0,181.5h1448 M0,191.5h1448 M0,201.5h1448 M0,211.5h1448 M0,221.5h1448 M0,231.5h1448 M0,241.5h1448 M0,251.5h1448 M0,261.5
			h1448 M0,271.5h1448 M0,281.5h1448 M0,291.5h1448 M0,301.5h1448 M0,311.5h1448 M0,321.5h1448 M0,331.5h1448 M0,341.5h1448
			 M0,351.5h1448 M0,361.5h1448 M0,371.5h1448 M0,381.5h1448 M0,391.5h1448 M0,401.5h1448 M0,411.5h1448 M0,421.5h1448 M0,431.5
			h1448 M0,441.5h1448 M0,451.5h1448 M0,461.5h1448"/>
		<path class="st2" d="M-75.8,0v463 M24.2,0v463 M124.2,0v463 M224.2,0v463 M324.2,0v463 M424.2,0v463 M524.2,0v463 M624.2,0v463
			 M724.2,0v463 M824.2,0v463 M924.2,0v463 M1024.2,0v463 M1124.2,0v463 M1224.2,0v463 M1324.2,0v463 M1424.2,0v463 M0-68.5h1448
			 M0,31.5h1448 M0,131.5h1448 M0,231.5h1448 M0,331.5h1448 M0,431.5h1448"/>
		<path class="st3" d="M918.1,231.5l0,0.4l0,0.4l-0.1,0.4l-0.1,0.4l-0.1,0.4l-0.2,0.4l-0.2,0.4l-0.2,0.4l-0.3,0.4l-0.3,0.4l-0.3,0.4
			l-0.4,0.4l-0.4,0.4l-0.4,0.4l-0.5,0.4l-0.5,0.4l-0.5,0.4l-0.5,0.4l-0.6,0.4l-0.6,0.5l-0.6,0.5l-0.7,0.5l-0.7,0.5l-0.7,0.5
			l-0.7,0.5l-0.8,0.5l-0.8,0.5l-0.8,0.6l-0.8,0.6l-0.9,0.6l-0.9,0.6l-0.9,0.6l-1,0.6l-1,0.6l-1,0.6l-1,0.7l-1,0.7l-1,0.7l-1.1,0.7
			l-1.1,0.7l-1.1,0.7l-1.1,0.8l-1.2,0.8l-1.2,0.8l-1.2,0.8l-1.2,0.8l-1.2,0.8l-1.2,0.8l-1.3,0.9l-1.3,0.9l-1.3,0.9l-1.3,0.9
			l-1.3,0.9l-1.3,1l-1.4,1l-1.4,1l-1.4,1l-1.4,1l-1.4,1.1l-1.4,1.1l-1.4,1.1l-1.4,1.1l-1.4,1.1l-1.4,1.1l-1.4,1.2l-1.5,1.2l-1.5,1.2
			l-1.5,1.2l-1.5,1.2l-1.5,1.2l-1.5,1.3l-1.5,1.3l-1.5,1.3l-1.5,1.3l-1.5,1.3l-1.5,1.3L844,290l-1.5,1.4l-1.5,1.4l-1.5,1.4l-1.5,1.4
			l-1.5,1.4l-1.5,1.4l-1.5,1.5l-1.5,1.5l-1.5,1.5l-1.5,1.5l-1.4,1.5l-1.4,1.5l-1.4,1.5l-1.4,1.5l-1.4,1.5l-1.4,1.6l-1.4,1.6
			l-1.4,1.6l-1.4,1.6l-1.4,1.6l-1.3,1.6l-1.4,1.6l-1.3,1.6l-1.3,1.6l-1.3,1.6l-1.3,1.6l-1.3,1.6l-1.3,1.6l-1.3,1.6l-1.2,1.6
			l-1.2,1.6l-1.2,1.6l-1.2,1.6l-1.2,1.6l-1.2,1.6l-1.2,1.6l-1.1,1.6l-1.1,1.6l-1.1,1.6l-1.1,1.6l-1.1,1.6l-1.1,1.6l-1,1.6l-1,1.6
			l-1,1.6l-1,1.6l-1,1.6l-1,1.6l-1,1.6l-0.9,1.5l-0.9,1.6l-0.9,1.5l-0.9,1.5l-0.9,1.5l-0.9,1.5l-0.8,1.5l-0.8,1.5l-0.8,1.5l-0.8,1.4
			L772,383l-0.8,1.4l-0.7,1.4l-0.7,1.4l-0.7,1.3l-0.7,1.3l-0.7,1.3l-0.7,1.3l-0.7,1.3l-0.6,1.2l-0.6,1.2l-0.6,1.2l-0.6,1.2l-0.6,1.2
			l-0.6,1.1l-0.6,1.1l-0.5,1.1l-0.5,1.1l-0.5,1l-0.5,1l-0.5,1l-0.5,1l-0.5,0.9l-0.5,0.9l-0.5,0.9l-0.5,0.9l-0.4,0.8l-0.4,0.8
			l-0.4,0.8l-0.4,0.8l-0.4,0.7l-0.4,0.7l-0.4,0.7l-0.4,0.6l-0.4,0.6l-0.4,0.6l-0.4,0.5l-0.4,0.5l-0.4,0.5L752,421l-0.4,0.4l-0.4,0.4
			l-0.3,0.4l-0.4,0.3l-0.4,0.3l-0.3,0.3l-0.4,0.2l-0.4,0.2l-0.3,0.2l-0.4,0.1l-0.4,0.1l-0.4,0.1l-0.4,0l-0.4,0l-0.4,0l-0.4,0
			l-0.4-0.1l-0.4-0.1l-0.4-0.1l-0.4-0.2l-0.4-0.2l-0.4-0.2l-0.4-0.3l-0.4-0.3l-0.4-0.3l-0.5-0.4l-0.5-0.4l-0.5-0.4l-0.5-0.4
			l-0.5-0.5l-0.5-0.5l-0.5-0.5l-0.5-0.6l-0.5-0.6l-0.6-0.6l-0.6-0.6l-0.6-0.7l-0.6-0.7l-0.6-0.7l-0.6-0.7l-0.6-0.8l-0.7-0.8
			l-0.7-0.8l-0.7-0.8l-0.7-0.9l-0.7-0.9l-0.8-0.9l-0.8-0.9l-0.8-0.9l-0.8-1l-0.8-1l-0.8-1l-0.9-1l-0.9-1l-0.9-1.1l-0.9-1.1l-0.9-1.1
			l-1-1.1l-1-1.1l-1-1.1l-1-1.1l-1-1.2l-1-1.2l-1.1-1.2l-1.1-1.2l-1.1-1.2l-1.1-1.2l-1.2-1.2l-1.2-1.2l-1.2-1.2l-1.2-1.2l-1.2-1.3
			l-1.2-1.3l-1.2-1.3l-1.3-1.3l-1.3-1.3l-1.3-1.3l-1.3-1.3l-1.4-1.3l-1.4-1.3l-1.4-1.3l-1.4-1.3l-1.4-1.3l-1.4-1.3l-1.5-1.3
			l-1.5-1.3l-1.5-1.3l-1.5-1.3l-1.5-1.3l-1.5-1.3l-1.6-1.3l-1.6-1.3l-1.6-1.3l-1.6-1.3l-1.6-1.3l-1.6-1.3l-1.6-1.3l-1.6-1.3
			l-1.7-1.3l-1.7-1.2l-1.7-1.2l-1.7-1.2l-1.7-1.2L657,339l-1.7-1.2l-1.7-1.2l-1.7-1.2l-1.7-1.2l-1.7-1.2l-1.8-1.2l-1.7-1.1l-1.8-1.1
			l-1.8-1.1l-1.8-1.1l-1.8-1.1l-1.8-1.1l-1.8-1.1l-1.8-1.1l-1.8-1.1l-1.8-1l-1.8-1l-1.8-1l-1.8-1l-1.8-1l-1.8-1l-1.8-0.9l-1.8-0.9
			l-1.8-0.9l-1.8-0.9l-1.7-0.9l-1.7-0.9l-1.7-0.9l-1.7-0.8l-1.7-0.8l-1.7-0.8l-1.7-0.8l-1.7-0.8l-1.7-0.8l-1.7-0.7l-1.6-0.7
			l-1.6-0.7l-1.6-0.7l-1.6-0.7l-1.6-0.7l-1.6-0.6l-1.6-0.6l-1.5-0.6l-1.5-0.6l-1.5-0.6l-1.5-0.6l-1.5-0.6l-1.5-0.5l-1.4-0.6
			l-1.4-0.5l-1.4-0.5l-1.4-0.5l-1.3-0.5l-1.3-0.5l-1.3-0.5l-1.3-0.5l-1.3-0.4l-1.2-0.4l-1.2-0.4l-1.2-0.4l-1.2-0.4l-1.1-0.4
			l-1.1-0.4l-1.1-0.4l-1.1-0.4l-1-0.4l-1-0.4l-1-0.3l-1-0.4l-0.9-0.3l-0.9-0.3l-0.9-0.3l-0.8-0.3l-0.8-0.3l-0.8-0.3l-0.8-0.3
			l-0.7-0.3l-0.7-0.3l-0.7-0.3l-0.6-0.3l-0.6-0.3l-0.6-0.3l-0.5-0.3l-0.5-0.3l-0.5-0.3l-0.5-0.3l-0.4-0.3l-0.4-0.3l-0.4-0.3
			l-0.3-0.3l-0.3-0.3l-0.2-0.3l-0.2-0.3l-0.2-0.3l-0.2-0.3l-0.1-0.3l-0.1-0.4l-0.1-0.4l-0.1-0.4l0-0.4l0-0.4l0-0.4l0.1-0.4l0.1-0.4
			l0.1-0.4l0.2-0.4l0.2-0.5l0.2-0.5l0.2-0.5l0.3-0.5l0.3-0.5l0.3-0.5l0.4-0.5l0.4-0.6l0.4-0.6l0.5-0.6l0.5-0.6l0.5-0.6l0.5-0.6
			l0.5-0.6l0.6-0.7l0.6-0.7l0.6-0.7l0.7-0.7l0.7-0.7l0.7-0.8l0.7-0.8l0.7-0.8l0.8-0.8l0.8-0.8l0.8-0.9l0.8-0.9l0.8-0.9l0.9-0.9
			l0.9-0.9l0.9-0.9l0.9-1l0.9-1l0.9-1l0.9-1l1-1l1-1.1l1-1.1l1-1.1l1-1.1l1-1.1l1-1.2l1-1.2l1.1-1.2l1.1-1.2l1.1-1.2l1.1-1.3
			l1.1-1.3l1.1-1.3l1.1-1.3l1.1-1.3l1.1-1.4l1.1-1.4l1.1-1.4l1.1-1.4l1.1-1.4l1.1-1.5l1.1-1.5l1.1-1.5l1.1-1.5l1.1-1.5l1.1-1.6
			l1.1-1.6l1.1-1.6l1.1-1.6l1.1-1.6l1.1-1.6l1.1-1.7l1.1-1.7l1.1-1.7l1.1-1.7l1.1-1.7l1.1-1.7l1.1-1.7l1.1-1.8l1.1-1.8l1.1-1.8
			l1.1-1.8l1.1-1.8l1-1.8l1-1.8l1-1.8l1-1.8l1-1.8l1-1.9l1-1.8l1-1.9l1-1.9l1-1.9l0.9-1.9l0.9-1.9l0.9-1.9l0.9-1.9l0.9-1.9l0.9-1.9
			l0.9-1.9l0.8-1.9l0.8-1.9l0.8-1.9l0.8-1.9l0.8-1.9l0.8-1.9l0.8-1.9l0.8-1.9l0.7-1.9l0.7-1.9l0.7-1.9l0.7-1.8l0.7-1.8l0.7-1.8
			l0.6-1.8l0.6-1.8l0.6-1.8l0.6-1.8l0.6-1.8l0.6-1.8l0.6-1.8l0.5-1.8l0.5-1.7l0.5-1.7l0.5-1.7l0.5-1.7l0.5-1.7l0.5-1.7l0.4-1.6
			l0.4-1.6l0.4-1.6l0.4-1.6l0.4-1.6l0.4-1.5l0.4-1.5l0.4-1.5l0.4-1.5l0.4-1.5l0.3-1.4l0.3-1.4l0.3-1.4l0.3-1.4l0.3-1.3l0.3-1.3
			l0.3-1.3l0.3-1.3l0.3-1.2l0.3-1.2l0.3-1.2l0.2-1.2l0.2-1.1l0.2-1.1l0.2-1.1l0.2-1.1l0.2-1l0.2-1l0.2-1l0.2-0.9l0.2-0.9l0.2-0.9
			l0.2-0.9l0.2-0.8l0.2-0.8l0.2-0.8l0.2-0.7l0.2-0.7l0.2-0.7l0.2-0.7l0.2-0.6l0.2-0.6l0.2-0.6l0.2-0.5l0.2-0.5l0.2-0.5l0.3-0.4
			l0.3-0.4l0.3-0.4l0.3-0.3l0.3-0.3l0.3-0.3l0.3-0.2l0.3-0.2l0.3-0.2l0.3-0.2l0.3-0.1L656,50l0.4-0.1l0.4,0l0.4,0l0.4,0l0.4,0
			l0.4,0.1l0.5,0.1l0.5,0.1l0.5,0.1l0.5,0.2l0.5,0.2l0.5,0.2l0.5,0.3l0.6,0.3l0.6,0.3l0.6,0.3l0.6,0.4l0.6,0.4l0.7,0.4l0.7,0.4
			l0.7,0.5l0.7,0.5l0.7,0.5l0.8,0.5l0.8,0.5l0.8,0.6l0.8,0.6l0.8,0.6l0.9,0.6l0.9,0.6l0.9,0.7l0.9,0.7l1,0.7l1,0.7l1,0.7l1,0.7
			l1,0.8l1.1,0.8l1.1,0.8l1.1,0.8l1.1,0.8l1.1,0.8l1.2,0.8l1.2,0.8l1.2,0.9l1.2,0.9l1.2,0.9l1.3,0.9l1.3,0.9l1.3,0.9l1.3,0.9
			l1.4,0.9l1.4,0.9l1.4,0.9l1.4,0.9l1.5,0.9l1.5,0.9l1.5,0.9l1.5,0.9l1.5,0.9l1.5,0.9l1.6,0.9l1.6,0.9l1.6,0.9l1.6,0.9l1.6,0.9
			l1.7,0.9l1.7,0.9l1.7,0.9l1.7,0.9l1.7,0.9l1.7,0.9l1.8,0.9l1.8,0.9l1.8,0.9l1.8,0.9l1.8,0.9l1.8,0.9l1.8,0.9l1.9,0.9l1.9,0.9
			l1.9,0.9l1.9,0.8l1.9,0.8l1.9,0.8l1.9,0.8l1.9,0.8l1.9,0.8l1.9,0.8l1.9,0.8l2,0.8l1.9,0.8l2,0.7l2,0.7l2,0.7l2,0.7l2,0.7l2,0.7
			l2,0.7l2,0.7l2,0.6l2,0.6l2,0.6l2,0.6l2,0.6l2,0.6l2,0.6l2,0.6l2,0.5l2,0.5l1.9,0.5l1.9,0.5l1.9,0.5l1.9,0.5l1.9,0.4l1.9,0.4
			l1.9,0.4l1.9,0.4l1.9,0.4l1.8,0.4l1.9,0.4l1.8,0.4l1.8,0.3l1.8,0.3l1.8,0.3l1.8,0.3l1.8,0.3l1.7,0.3l1.7,0.3l1.7,0.3l1.7,0.3
			l1.7,0.2l1.7,0.2l1.6,0.2l1.6,0.2l1.6,0.2l1.6,0.2l1.5,0.2l1.5,0.2l1.5,0.2l1.5,0.2l1.5,0.2l1.4,0.1l1.4,0.1l1.4,0.1l1.4,0.1
			l1.3,0.1l1.3,0.1l1.3,0.1l1.3,0.1l1.2,0.1l1.2,0.1l1.2,0.1l1.1,0.1l1.1,0.1l1.1,0.1l1.1,0.1l1,0.1l1,0.1l1,0.1l1,0.1l0.9,0.1
			l0.9,0.1l0.9,0.1l0.8,0.1l0.8,0.1l0.8,0.1l0.7,0.1l0.7,0.1l0.7,0.1l0.6,0.2l0.6,0.1l0.6,0.2l0.6,0.2l0.5,0.2l0.5,0.2l0.5,0.2
			l0.4,0.2l0.4,0.2l0.4,0.2l0.4,0.2l0.3,0.2l0.3,0.3l0.3,0.3l0.2,0.3l0.2,0.3l0.2,0.3l0.2,0.3l0.1,0.4l0.1,0.4l0.1,0.4l0,0.4l0,0.4
			l0,0.4l0,0.4l0,0.5l-0.1,0.5l-0.1,0.5l-0.1,0.5l-0.2,0.5l-0.2,0.6l-0.2,0.6l-0.2,0.6l-0.2,0.6l-0.3,0.6l-0.3,0.7l-0.3,0.7
			l-0.3,0.7l-0.4,0.7l-0.4,0.8l-0.4,0.8l-0.4,0.8l-0.4,0.8l-0.5,0.8l-0.5,0.9l-0.5,0.9l-0.5,0.9l-0.5,0.9l-0.5,1l-0.5,1l-0.6,1
			l-0.6,1l-0.6,1.1l-0.6,1.1l-0.6,1.1l-0.6,1.1l-0.6,1.1l-0.7,1.2l-0.7,1.2l-0.7,1.2l-0.7,1.2l-0.7,1.3l-0.7,1.3l-0.7,1.3l-0.7,1.3
			l-0.7,1.4l-0.7,1.4l-0.7,1.4l-0.7,1.4L875,187l-0.7,1.5l-0.7,1.5l-0.8,1.5L872,193l-0.8,1.6l-0.8,1.6l-0.8,1.6l-0.8,1.6l-0.8,1.6
			l-0.8,1.7l-0.7,1.7L866,206l-0.7,1.7l-0.7,1.7l-0.7,1.8l-0.7,1.8l-0.7,1.8l-0.7,1.8l-0.7,1.8l-0.7,1.8l-0.7,1.9l-0.7,1.9l-0.7,1.9
			l-0.7,1.9l-0.7,1.9l-0.7,1.9l-0.7,1.9l-0.6,1.9l-0.6,1.9l-0.6,1.9l-0.6,2l-0.6,2l-0.6,2l-0.6,2l-0.6,2l-0.6,2l-0.6,2l-0.5,2
			l-0.5,2l-0.5,2l-0.5,2l-0.5,2l-0.5,2l-0.5,2l-0.5,2l-0.5,2l-0.4,2l-0.4,2l-0.4,2l-0.4,2l-0.4,2l-0.4,2l-0.4,2l-0.3,2l-0.3,2
			l-0.3,2l-0.3,2l-0.3,2l-0.3,2l-0.3,2l-0.2,2l-0.2,2l-0.2,2l-0.2,1.9l-0.2,1.9l-0.2,1.9l-0.2,1.9l-0.2,1.9l-0.2,1.9l-0.1,1.9
			l-0.1,1.9l-0.1,1.8l-0.1,1.8l-0.1,1.8l-0.1,1.8l-0.1,1.8l-0.1,1.8l-0.1,1.7l-0.1,1.7l-0.1,1.7l0,1.7l0,1.7l0,1.6l0,1.6l0,1.6
			l0,1.6v1.5l0,1.5l0,1.5l0,1.5l0,1.5l0,1.4l0,1.4l0,1.4l0,1.4l0,1.3l0,1.3l0,1.3l0,1.2l0,1.2l0,1.2l0,1.2l0,1.1l0,1.1l0,1.1l0,1.1
			l0,1l0,1l0,1v0.9v0.9v0.9l0,0.9l0,0.8l0,0.8l0,0.8l0,0.7l0,0.7l-0.1,0.7l-0.1,0.7l-0.1,0.6l-0.1,0.6l-0.1,0.6l-0.1,0.5l-0.1,0.5
			l-0.2,0.5l-0.2,0.5l-0.2,0.4l-0.2,0.4l-0.2,0.4l-0.2,0.3l-0.2,0.3l-0.3,0.3l-0.3,0.3l-0.3,0.2l-0.3,0.2l-0.3,0.2l-0.3,0.2
			l-0.4,0.1l-0.4,0.1l-0.4,0.1l-0.4,0.1l-0.4,0l-0.5,0l-0.5,0l-0.5,0l-0.5-0.1l-0.5-0.1l-0.6-0.1l-0.6-0.1l-0.6-0.1l-0.6-0.2
			l-0.7-0.2l-0.7-0.2l-0.7-0.2l-0.7-0.2l-0.8-0.3l-0.8-0.3l-0.8-0.3l-0.8-0.3l-0.9-0.3l-0.9-0.3l-0.9-0.4l-0.9-0.4l-1-0.4l-1-0.4
			l-1-0.4l-1-0.4l-1.1-0.4l-1.1-0.4l-1.1-0.5l-1.1-0.5l-1.2-0.5l-1.2-0.5l-1.2-0.5l-1.2-0.5l-1.2-0.5l-1.3-0.5l-1.3-0.5l-1.3-0.5
			l-1.3-0.5l-1.4-0.5l-1.4-0.5l-1.4-0.5l-1.5-0.5l-1.5-0.6l-1.5-0.5l-1.5-0.6l-1.5-0.5l-1.6-0.6l-1.6-0.6l-1.6-0.6l-1.6-0.6
			l-1.7-0.6l-1.7-0.5l-1.7-0.5l-1.7-0.6l-1.7-0.5l-1.7-0.5l-1.8-0.5l-1.8-0.5l-1.8-0.5l-1.8-0.5l-1.8-0.5l-1.8-0.5l-1.9-0.5
			l-1.9-0.5l-1.9-0.5l-1.9-0.5l-1.9-0.5L747,364l-2-0.5l-2-0.4l-2-0.4l-2-0.4l-2-0.4l-2-0.4l-2-0.4l-2-0.4l-2-0.4l-2-0.4l-2-0.3
			l-2.1-0.3l-2-0.3l-2.1-0.3l-2.1-0.3l-2.1-0.3l-2.1-0.3l-2.1-0.3l-2.1-0.3l-2.1-0.2l-2.1-0.2l-2.1-0.2l-2.1-0.2L698,356l-2.1-0.2
			l-2.1-0.2l-2.1-0.2l-2.1-0.1l-2.1-0.1l-2.1-0.1l-2.1-0.1l-2-0.1l-2-0.1l-2-0.1l-2,0l-2-0.1l-2,0l-2,0h-2h-2l-2,0l-2,0l-1.9,0
			l-1.9,0l-1.9,0.1l-1.9,0.1l-1.9,0.1l-1.9,0.1l-1.9,0.1l-1.8,0.1l-1.8,0.1l-1.8,0.1l-1.8,0.1l-1.8,0.1l-1.7,0.1l-1.7,0.1l-1.7,0.2
			l-1.7,0.2l-1.7,0.2l-1.6,0.2l-1.6,0.2l-1.6,0.2l-1.6,0.2l-1.6,0.2l-1.5,0.2l-1.5,0.2l-1.5,0.2l-1.5,0.2l-1.4,0.2l-1.4,0.2
			l-1.4,0.2l-1.4,0.2l-1.3,0.2l-1.3,0.2l-1.3,0.2l-1.2,0.2l-1.2,0.2l-1.2,0.2l-1.2,0.2l-1.1,0.2l-1.1,0.2l-1.1,0.2l-1.1,0.1l-1,0.1
			l-1,0.1l-1,0.1l-1,0.1l-0.9,0.1l-0.9,0.1l-0.9,0.1l-0.8,0.1l-0.8,0.1L589,362l-0.8,0.1l-0.7,0l-0.7,0l-0.7,0h-0.6l-0.6,0l-0.6,0
			l-0.6-0.1l-0.5-0.1l-0.5-0.1l-0.5-0.1l-0.4-0.1l-0.4-0.1l-0.4-0.1l-0.4-0.2l-0.3-0.2l-0.3-0.2l-0.3-0.2l-0.3-0.2l-0.2-0.3
			l-0.2-0.3l-0.2-0.3l-0.2-0.3l-0.2-0.4l-0.2-0.4L578,358l-0.1-0.4l-0.1-0.4l-0.1-0.5l0-0.5l0-0.5v-0.5l0-0.6l0-0.6l0.1-0.6l0.1-0.6
			l0.1-0.7l0.1-0.7l0.1-0.7l0.1-0.7l0.2-0.8l0.2-0.8l0.2-0.8l0.2-0.9l0.2-0.9l0.2-0.9l0.2-0.9l0.2-0.9l0.3-1l0.3-1l0.3-1l0.3-1.1
			l0.3-1.1l0.3-1.1l0.3-1.1l0.3-1.2l0.3-1.2l0.3-1.2l0.3-1.2l0.3-1.3l0.3-1.3l0.4-1.3l0.4-1.4l0.4-1.4l0.4-1.4l0.4-1.4l0.4-1.5
			l0.4-1.5l0.4-1.5l0.4-1.5l0.4-1.5l0.4-1.6l0.4-1.6l0.4-1.6l0.4-1.6l0.4-1.6l0.4-1.7l0.4-1.7l0.3-1.7l0.3-1.7l0.3-1.8l0.3-1.8
			l0.3-1.8l0.3-1.8l0.3-1.8l0.3-1.9l0.3-1.9l0.3-1.9l0.3-1.9l0.3-1.9l0.3-1.9l0.3-1.9l0.2-2l0.2-2l0.2-2l0.2-2l0.2-2l0.2-2l0.2-2
			l0.2-2l0.2-2l0.2-2l0.1-2.1l0.1-2.1l0.1-2.1l0.1-2.1l0.1-2.1l0.1-2.1l0.1-2.1l0-2.1l0.1-2.1l0-2.1l0-2.1l0-2.1l0-2.1l0-2.1l0-2.1
			l0-2.1l-0.1-2.1l-0.1-2.1l-0.1-2.1l-0.1-2.1l-0.1-2.1l-0.1-2.1l-0.1-2.1l-0.1-2l-0.1-2.1l-0.2-2l-0.2-2l-0.2-2l-0.2-2l-0.2-2
			l-0.2-2l-0.2-2l-0.2-2l-0.2-2l-0.3-1.9l-0.3-1.9l-0.3-1.9l-0.3-1.9l-0.3-1.9l-0.3-1.9l-0.3-1.9l-0.3-1.8l-0.3-1.8l-0.3-1.8
			l-0.3-1.8l-0.3-1.8l-0.3-1.7l-0.4-1.7l-0.3-1.7l-0.4-1.7l-0.4-1.7l-0.4-1.6l-0.4-1.6l-0.4-1.6l-0.4-1.6l-0.4-1.5l-0.4-1.5
			l-0.4-1.5l-0.4-1.5l-0.4-1.4l-0.4-1.4l-0.4-1.4l-0.4-1.4l-0.4-1.4l-0.4-1.3l-0.3-1.3l-0.3-1.3l-0.4-1.2l-0.3-1.2l-0.3-1.2
			l-0.3-1.2l-0.3-1.2l-0.3-1.1l-0.3-1.1l-0.3-1.1l-0.3-1l-0.3-1l-0.3-1l-0.2-1l-0.2-0.9l-0.2-0.9l-0.2-0.9l-0.2-0.9l-0.2-0.8
			l-0.2-0.8l-0.2-0.8l-0.2-0.8l-0.1-0.7l-0.1-0.7l-0.1-0.7l-0.1-0.7l-0.1-0.6l0-0.6l0-0.6l0-0.5l0-0.5l0-0.5l0.1-0.5l0.1-0.4
			l0.1-0.4l0.1-0.4l0.1-0.4l0.2-0.4l0.2-0.3l0.2-0.3l0.2-0.3l0.2-0.3l0.3-0.3l0.3-0.2l0.3-0.2l0.3-0.2l0.4-0.2l0.4-0.2l0.4-0.1
			l0.5-0.1l0.5-0.1l0.5-0.1l0.5-0.1l0.5-0.1l0.6,0l0.6,0l0.6,0h0.7l0.7,0l0.7,0l0.7,0l0.8,0.1l0.8,0.1l0.8,0.1l0.8,0.1l0.9,0.1
			l0.9,0.1l0.9,0.1l1,0.1l1,0.1l1,0.1l1,0.2l1.1,0.2l1.1,0.2l1.1,0.2l1.2,0.2l1.2,0.2l1.2,0.2l1.2,0.2l1.3,0.2l1.3,0.2l1.3,0.2
			l1.3,0.2l1.4,0.2l1.4,0.2l1.4,0.2l1.4,0.2l1.5,0.2l1.5,0.2l1.5,0.2l1.5,0.2l1.6,0.2l1.6,0.2l1.6,0.2l1.6,0.2l1.6,0.2l1.7,0.2
			l1.7,0.1l1.7,0.2l1.7,0.2l1.8,0.1l1.8,0.1l1.8,0.1l1.8,0.1l1.8,0.1l1.8,0.1l1.9,0.1l1.9,0.1l1.9,0.1l1.9,0.1l1.9,0l1.9,0l1.9,0
			l2,0l2,0h2l2,0l2,0l2,0l2,0l2-0.1l2-0.1l2-0.1l2-0.1l2.1-0.1l2.1-0.1l2.1-0.1l2.1-0.2l2.1-0.2l2.1-0.2l2.1-0.2l2.1-0.2l2.1-0.2
			l2.1-0.2l2.1-0.2l2.1-0.2l2.1-0.3l2.1-0.3l2.1-0.3l2.1-0.3l2.1-0.3l2.1-0.3l2-0.3l2-0.3l2-0.4l2-0.4l2-0.4l2-0.4l2-0.4l2-0.4
			l2-0.4l2-0.4l2-0.4l2-0.5l1.9-0.5l1.9-0.5l1.9-0.5l1.9-0.5l1.9-0.5l1.9-0.5l1.9-0.5l1.8-0.5l1.8-0.5l1.8-0.5l1.8-0.5l1.8-0.5
			l1.8-0.5l1.7-0.5l1.7-0.6l1.7-0.5l1.7-0.6l1.6-0.6l1.6-0.6l1.6-0.6l1.6-0.6l1.6-0.6l1.5-0.6l1.5-0.6l1.5-0.6l1.5-0.6l1.5-0.6
			l1.4-0.5l1.4-0.5l1.4-0.5l1.4-0.5l1.3-0.5l1.3-0.5l1.3-0.5l1.3-0.5l1.2-0.5l1.2-0.5l1.2-0.5l1.2-0.5l1.1-0.5l1.1-0.5l1.1-0.5
			l1.1-0.4l1-0.4l1-0.4l1-0.4l1-0.4l0.9-0.4l0.9-0.4l0.9-0.3l0.9-0.3l0.8-0.3l0.8-0.3l0.8-0.3l0.8-0.3l0.7-0.2l0.7-0.2l0.7-0.2
			l0.7-0.2l0.6-0.2l0.6-0.2l0.6-0.1l0.6-0.1l0.6-0.1l0.5-0.1l0.5,0l0.5,0h0.5l0.4,0l0.4,0l0.4,0.1l0.4,0.1l0.4,0.1l0.3,0.2l0.3,0.2
			l0.3,0.2l0.3,0.2l0.3,0.2l0.3,0.3l0.2,0.3l0.2,0.3l0.2,0.3l0.2,0.4l0.2,0.4l0.2,0.4l0.2,0.5l0.1,0.5l0.1,0.5l0.1,0.6l0.1,0.6
			l0.1,0.6l0.1,0.6l0.1,0.7l0.1,0.7l0,0.7l0,0.8l0,0.8l0,0.8l0,0.8l0,0.9v0.9v0.9l0,1l0,1l0,1l0,1l0,1.1l0,1.1l0,1.1l0,1.2l0,1.2
			l0,1.2l0,1.2l0,1.3l0,1.3l0,1.3l0,1.3l0,1.4l0,1.4l0,1.4l0,1.4l0,1.5l0,1.5l0,1.5v1.5v1.6l0,1.6l0,1.6l0,1.6l0,1.6l0,1.7l0,1.7
			l0,1.7l0.1,1.7l0.1,1.8l0.1,1.8l0.1,1.8l0.1,1.8l0.1,1.8l0.1,1.8l0.1,1.9l0.1,1.9l0.1,1.9l0.2,1.9l0.2,1.9l0.2,1.9l0.2,1.9
			l0.2,1.9l0.2,1.9l0.2,2l0.2,2l0.3,2l0.3,2l0.3,2l0.3,2l0.3,2l0.3,2l0.3,2l0.3,2l0.4,2l0.4,2l0.4,2l0.4,2l0.4,2l0.4,2.1l0.4,2
			l0.5,2l0.5,2l0.5,2l0.5,2l0.5,2l0.5,2l0.5,2l0.5,2l0.5,2l0.6,2l0.6,2l0.6,2l0.6,2l0.6,2l0.6,2l0.6,2l0.6,1.9l0.7,1.9l0.7,1.9
			l0.7,1.9l0.7,1.9l0.7,1.9l0.7,1.9l0.7,1.9l0.7,1.8l0.7,1.8l0.7,1.8l0.7,1.8l0.7,1.8l0.7,1.8l0.7,1.8l0.7,1.7l0.7,1.7l0.8,1.7
			l0.7,1.7l0.8,1.7l0.8,1.6l0.8,1.6l0.8,1.6l0.8,1.6l0.8,1.6l0.7,1.6l0.8,1.5l0.7,1.5l0.8,1.5l0.7,1.5l0.7,1.4l0.7,1.4l0.7,1.4
			l0.7,1.4l0.7,1.4l0.7,1.3l0.7,1.3l0.7,1.3l0.7,1.3l0.7,1.2l0.7,1.2l0.7,1.2l0.6,1.2l0.6,1.1l0.6,1.1l0.6,1.1l0.6,1.1l0.6,1l0.6,1
			l0.6,1l0.5,1l0.5,0.9l0.5,0.9l0.5,0.9l0.5,0.9l0.5,0.9l0.4,0.8l0.4,0.8l0.4,0.8l0.4,0.8l0.4,0.7l0.3,0.7l0.3,0.7l0.3,0.7l0.3,0.7
			l0.3,0.6l0.2,0.6l0.2,0.6l0.2,0.6l0.2,0.5l0.1,0.5l0.1,0.5l0.1,0.5l0.1,0.5l0,0.5l0,0.4l0,0.4l0,0.4l-0.1,0.4l-0.1,0.4l-0.1,0.4
			l-0.1,0.3l-0.2,0.3l-0.2,0.3l-0.2,0.3l-0.3,0.3l-0.3,0.3l-0.3,0.3l-0.4,0.2l-0.4,0.2l-0.4,0.2l-0.4,0.2l-0.5,0.2l-0.5,0.2
			l-0.5,0.2l-0.6,0.2l-0.6,0.2l-0.6,0.2l-0.6,0.1l-0.7,0.1l-0.7,0.1l-0.7,0.1l-0.8,0.1l-0.8,0.1l-0.8,0.1l-0.9,0.1l-0.9,0.1
			l-0.9,0.1l-0.9,0.1l-1,0.1l-1,0.1l-1,0.1l-1,0.1l-1.1,0.1l-1.1,0.1l-1.1,0.1l-1.2,0.1l-1.2,0.1l-1.2,0.1l-1.2,0.1l-1.3,0.1
			l-1.3,0.1l-1.3,0.1l-1.3,0.1l-1.4,0.1l-1.4,0.1l-1.4,0.2l-1.5,0.1l-1.5,0.2l-1.5,0.2l-1.5,0.2l-1.5,0.2l-1.6,0.2l-1.6,0.2
			l-1.6,0.2l-1.6,0.2l-1.6,0.2l-1.7,0.2l-1.7,0.3l-1.7,0.3l-1.7,0.3l-1.7,0.3l-1.8,0.3l-1.8,0.3l-1.8,0.3l-1.8,0.3l-1.8,0.3
			l-1.8,0.4l-1.8,0.4l-1.8,0.4l-1.9,0.4l-1.9,0.4l-1.9,0.4l-1.9,0.4l-1.9,0.4l-1.9,0.5l-1.9,0.5l-1.9,0.5l-1.9,0.5l-1.9,0.5l-2,0.5
			l-2,0.5l-2,0.6l-2,0.6l-2,0.6l-2,0.6l-2,0.6l-2,0.6l-2,0.6l-2,0.7l-2,0.7l-2,0.7l-2,0.7l-2,0.7l-2,0.7l-2,0.7l-2,0.7l-2,0.8
			l-2,0.8l-2,0.8l-1.9,0.8l-1.9,0.8l-1.9,0.8l-1.9,0.8l-1.9,0.8l-1.9,0.8l-1.9,0.8l-1.9,0.9l-1.9,0.9l-1.9,0.9l-1.8,0.9l-1.8,0.9
			l-1.8,0.9l-1.8,0.9l-1.8,0.9l-1.8,0.9L731,367l-1.7,0.9l-1.7,0.9l-1.7,0.9l-1.7,0.9l-1.7,0.9l-1.7,0.9l-1.6,0.9l-1.6,0.9l-1.6,1
			l-1.6,0.9l-1.6,0.9l-1.6,0.9l-1.5,0.9l-1.5,0.9l-1.5,0.9l-1.5,0.9l-1.5,0.9l-1.4,0.9l-1.4,0.9l-1.4,0.9l-1.4,0.9l-1.3,0.9
			l-1.3,0.9l-1.3,0.9l-1.3,0.9l-1.3,0.9l-1.2,0.9l-1.2,0.9l-1.2,0.9l-1.2,0.8l-1.2,0.8l-1.1,0.8l-1.1,0.8l-1.1,0.8l-1.1,0.8l-1,0.8
			l-1,0.8l-1,0.7l-1,0.7l-1,0.7l-0.9,0.7l-0.9,0.7l-0.9,0.6l-0.9,0.6l-0.9,0.6l-0.8,0.6l-0.8,0.6l-0.8,0.5l-0.8,0.5l-0.7,0.5
			l-0.7,0.5l-0.7,0.5l-0.7,0.4l-0.7,0.4l-0.6,0.4l-0.6,0.4l-0.6,0.3l-0.6,0.3l-0.6,0.3l-0.5,0.3l-0.5,0.2l-0.5,0.2l-0.5,0.2
			l-0.5,0.2l-0.5,0.1l-0.5,0.1l-0.5,0.1l-0.4,0.1l-0.4,0h-0.4l-0.4,0l-0.4-0.1l-0.4-0.1l-0.4-0.1l-0.3-0.1l-0.3-0.2l-0.3-0.2
			l-0.3-0.2l-0.3-0.3l-0.3-0.3l-0.3-0.3l-0.3-0.4l-0.3-0.4l-0.3-0.4l-0.2-0.4l-0.2-0.5l-0.2-0.5l-0.2-0.5l-0.2-0.6l-0.2-0.6
			l-0.2-0.6l-0.2-0.7l-0.2-0.7l-0.2-0.7l-0.2-0.8l-0.2-0.8l-0.2-0.8l-0.2-0.8L649,400l-0.2-0.9l-0.2-0.9l-0.2-1l-0.2-1l-0.2-1
			l-0.2-1l-0.2-1.1l-0.2-1.1l-0.2-1.1l-0.2-1.2l-0.2-1.2l-0.3-1.2l-0.3-1.2l-0.3-1.3l-0.3-1.3l-0.3-1.3l-0.3-1.3l-0.3-1.4l-0.3-1.4
			l-0.3-1.4l-0.3-1.4l-0.3-1.5l-0.4-1.5l-0.4-1.5l-0.4-1.5l-0.4-1.5l-0.4-1.6l-0.4-1.6l-0.4-1.6l-0.4-1.6l-0.5-1.6l-0.5-1.7
			l-0.5-1.7l-0.5-1.7l-0.5-1.7l-0.5-1.7l-0.5-1.7l-0.5-1.7l-0.6-1.8l-0.6-1.8l-0.6-1.8l-0.6-1.8l-0.6-1.8l-0.6-1.8l-0.6-1.8
			l-0.7-1.8l-0.7-1.8l-0.7-1.8l-0.7-1.9l-0.7-1.9l-0.7-1.9l-0.7-1.9l-0.8-1.9l-0.8-1.9l-0.8-1.9l-0.8-1.9l-0.8-1.9l-0.8-1.9
			l-0.8-1.9l-0.9-1.9l-0.9-1.9l-0.9-1.9l-0.9-1.9l-0.9-1.9l-0.9-1.9l-0.9-1.9l-0.9-1.9l-1-1.9l-1-1.9l-1-1.9l-1-1.8l-1-1.8l-1-1.8
			l-1-1.8l-1-1.8l-1-1.8l-1-1.8l-1-1.8l-1.1-1.8l-1.1-1.8l-1.1-1.8l-1.1-1.8l-1.1-1.7l-1.1-1.7l-1.1-1.7l-1.1-1.7l-1.1-1.7l-1.1-1.7
			l-1.1-1.6l-1.1-1.6l-1.1-1.6l-1.1-1.6l-1.1-1.6l-1.1-1.6l-1.1-1.5l-1.1-1.5l-1.1-1.5l-1.1-1.5l-1.1-1.5l-1.1-1.5l-1.1-1.4
			l-1.1-1.4l-1.1-1.4l-1.1-1.4l-1.1-1.4l-1.1-1.3l-1.1-1.3l-1.1-1.3l-1.1-1.3l-1.1-1.3l-1.1-1.2l-1-1.2l-1-1.2l-1-1.2l-1-1.2l-1-1.1
			l-1-1.1l-1-1.1l-1-1.1l-1-1.1l-1-1l-0.9-1l-0.9-1l-0.9-1l-0.9-0.9l-0.9-0.9l-0.8-0.9l-0.8-0.9l-0.8-0.9l-0.8-0.8l-0.8-0.8
			l-0.8-0.8l-0.7-0.8l-0.7-0.8l-0.7-0.8l-0.7-0.7l-0.7-0.7l-0.6-0.7l-0.6-0.7l-0.6-0.7l-0.6-0.6l-0.5-0.6l-0.5-0.6l-0.5-0.6
			l-0.5-0.6l-0.4-0.6l-0.4-0.6l-0.4-0.5l-0.3-0.5l-0.3-0.5l-0.3-0.5l-0.3-0.5l-0.2-0.5l-0.2-0.5l-0.2-0.4l-0.1-0.4l-0.1-0.4
			l-0.1-0.4l-0.1-0.4l0-0.4l0-0.4l0-0.4l0.1-0.4l0.1-0.4l0.1-0.4l0.1-0.3l0.2-0.3l0.2-0.3l0.2-0.3l0.3-0.3l0.3-0.3l0.3-0.3l0.4-0.3
			l0.4-0.3l0.4-0.3l0.5-0.3l0.5-0.3l0.5-0.3l0.6-0.3l0.6-0.3l0.6-0.3l0.6-0.3l0.7-0.3l0.7-0.3l0.7-0.3l0.8-0.3l0.8-0.3l0.8-0.3
			l0.8-0.3l0.9-0.3l0.9-0.3l0.9-0.3l1-0.4l1-0.3l1-0.4l1.1-0.4l1.1-0.4l1.1-0.4l1.1-0.4l1.2-0.4l1.2-0.4l1.2-0.4l1.2-0.4l1.2-0.4
			l1.3-0.4l1.3-0.5l1.3-0.5l1.3-0.5l1.4-0.5l1.4-0.5l1.4-0.5l1.4-0.5l1.4-0.5l1.5-0.6l1.5-0.6l1.5-0.6l1.5-0.6l1.5-0.6l1.6-0.6
			l1.6-0.6l1.6-0.7l1.6-0.7l1.6-0.7l1.6-0.7l1.6-0.7l1.7-0.7l1.7-0.8l1.7-0.8l1.7-0.8l1.7-0.8l1.7-0.8l1.7-0.8l1.7-0.9l1.7-0.9
			l1.7-0.9l1.8-0.9l1.7-0.9l1.8-0.9l1.8-0.9l1.8-0.9l1.8-1l1.8-1l1.8-1l1.8-1l1.8-1l1.8-1l1.8-1.1l1.8-1.1l1.8-1.1l1.8-1.1l1.8-1.1
			l1.8-1.1l1.8-1.1l1.8-1.1l1.8-1.2l1.7-1.2l1.7-1.2l1.7-1.2l1.7-1.2l1.7-1.2l1.7-1.2l1.7-1.2l1.7-1.2l1.7-1.2l1.7-1.3l1.7-1.2
			l1.6-1.3l1.6-1.3l1.6-1.3l1.6-1.3l1.6-1.3l1.6-1.3l1.6-1.3l1.5-1.3l1.5-1.3l1.5-1.3l1.5-1.3l1.5-1.3l1.5-1.3l1.5-1.3l1.4-1.3
			l1.4-1.3l1.4-1.3l1.4-1.3l1.4-1.3l1.4-1.3l1.3-1.3l1.3-1.3l1.3-1.3l1.3-1.3l1.3-1.3l1.2-1.3l1.2-1.3l1.2-1.3l1.2-1.2l1.2-1.2
			l1.1-1.2l1.1-1.2l1.1-1.2l1.1-1.2l1.1-1.2l1.1-1.2l1-1.2l1-1.2l1-1.1l1-1.1l1-1.1l0.9-1.1l0.9-1.1l0.9-1l0.9-1l0.9-1l0.8-1l0.8-1
			l0.8-1l0.8-0.9l0.8-0.9l0.8-0.9l0.7-0.9l0.7-0.9l0.7-0.8l0.7-0.8l0.7-0.8l0.7-0.8l0.6-0.7l0.6-0.7l0.6-0.7l0.6-0.7l0.6-0.6
			l0.6-0.6l0.5-0.6l0.5-0.6l0.5-0.5l0.5-0.5l0.5-0.5l0.5-0.5l0.5-0.4l0.5-0.4l0.5-0.4l0.5-0.3l0.4-0.3l0.4-0.3l0.4-0.2l0.4-0.2
			l0.4-0.2l0.4-0.2l0.4-0.1l0.4-0.1l0.4-0.1l0.4,0h0.4l0.4,0L748,39l0.4,0.1l0.4,0.1l0.4,0.2l0.4,0.2l0.4,0.2l0.3,0.3l0.4,0.3
			l0.3,0.3l0.4,0.3l0.4,0.4l0.4,0.4l0.4,0.4l0.4,0.5l0.4,0.5l0.4,0.5l0.4,0.6l0.4,0.6l0.4,0.6l0.4,0.6l0.4,0.7l0.4,0.7l0.4,0.7
			l0.4,0.8l0.4,0.8l0.4,0.8l0.4,0.9l0.5,0.9l0.5,0.9l0.5,0.9l0.5,1l0.5,1l0.5,1l0.5,1l0.5,1.1l0.5,1.1l0.5,1.1l0.6,1.1l0.6,1.2
			l0.6,1.2l0.6,1.2l0.6,1.2l0.6,1.2l0.6,1.3l0.6,1.3l0.7,1.3l0.7,1.3l0.7,1.3l0.7,1.4l0.7,1.4l0.7,1.4l0.8,1.4l0.8,1.4l0.8,1.4
			l0.8,1.5l0.8,1.5l0.8,1.5l0.9,1.5l0.9,1.5l0.9,1.5l0.9,1.5l0.9,1.6l0.9,1.6l1,1.6l1,1.6l1,1.6l1,1.6l1,1.6l1,1.6l1,1.6l1.1,1.6
			l1.1,1.6l1.1,1.6l1.1,1.6l1.1,1.6l1.2,1.6l1.2,1.6l1.2,1.6l1.2,1.6l1.2,1.6l1.2,1.6l1.2,1.6l1.2,1.6l1.3,1.6l1.3,1.6l1.3,1.6
			l1.3,1.6l1.3,1.6l1.3,1.6l1.3,1.6l1.4,1.6l1.4,1.6l1.4,1.6l1.4,1.6l1.4,1.6l1.4,1.6l1.4,1.6l1.4,1.5l1.4,1.5l1.4,1.5l1.5,1.5
			l1.4,1.5l1.5,1.5l1.5,1.5l1.5,1.5l1.5,1.4l1.5,1.4l1.5,1.4l1.5,1.4l1.5,1.4l1.5,1.4l1.5,1.4l1.5,1.3l1.5,1.3l1.5,1.3l1.5,1.3
			l1.5,1.3l1.5,1.3l1.5,1.2l1.5,1.2l1.5,1.2l1.5,1.2l1.5,1.2l1.5,1.2l1.4,1.2l1.4,1.1l1.4,1.1l1.4,1.1l1.4,1.1l1.4,1.1l1.4,1l1.4,1
			l1.4,1l1.3,1l1.4,1l1.3,0.9l1.3,0.9l1.3,0.9l1.3,0.9l1.3,0.9l1.3,0.9l1.2,0.8l1.2,0.8l1.2,0.8l1.2,0.8l1.2,0.8l1.2,0.8l1.1,0.8
			l1.1,0.7l1.1,0.7l1.1,0.7l1,0.7l1,0.7l1,0.6l1,0.6l1,0.6l0.9,0.6l0.9,0.6l0.9,0.6l0.8,0.6l0.8,0.6l0.8,0.6l0.8,0.5l0.8,0.5
			l0.7,0.5l0.7,0.5l0.7,0.5l0.6,0.5l0.6,0.5l0.6,0.5l0.6,0.4l0.5,0.4l0.5,0.4l0.5,0.4l0.4,0.4l0.4,0.4l0.4,0.4l0.3,0.4l0.3,0.4
			l0.3,0.4l0.2,0.4l0.2,0.4l0.2,0.4l0.2,0.4l0.1,0.4l0.1,0.4l0.1,0.4l0,0.4"/>
	</g>
</g>
</svg>
