<?xml version="1.0" encoding="utf-8"?>
<!-- Generator: Adobe Illustrator 27.3.1, SVG Export Plug-In . SVG Version: 6.00 Build 0)  -->
<svg version="1.1" id="Layer_2_00000035489868244459770820000009955184435101432508_"
	 xmlns="http://www.w3.org/2000/svg" xmlns:xlink="http://www.w3.org/1999/xlink" x="0px" y="0px" viewBox="0 0 198 199"
	 style="enable-background:new 0 0 198 199;" xml:space="preserve">
<style type="text/css">
	.st0{fill:none;stroke:#C677AF;stroke-width:2;}
</style>
<g id="foo">
	<path class="st0" d="M197.5,99.5v3l-1,3l-1,4l-2,3l-2,4l-3,4l-3,5l-3,4l-3,5l-4,5l-3,5l-3,5l-3,5l-4,5l-2,5l-3,5l-3,4l-3,4l-2,4
		l-3,3l-2,3l-3,2l-3,1l-3,1l-4,1h-12l-5-1l-5-1l-6-1l-5-1l-5-1l-6-1l-6-1l-7-1h-5l-6-1l-5-1h-6l-4-1l-5-1l-3-1l-4-1l-3-2l-2-2l-2-3
		l-2-2l-2-4l-2-4l-1-4l-1-5l-2-5l-1-6l-2-5l-1-6l-2-6l-2-6l-1-6l-2-5l-2-6l-2-4l-1-5l-1-4l-1-4l-1-4v-7l1-3l2-3l2-3l2-3l3-3l4-3l3-4
		l5-3l4-4l5-3l4-4l5-4l4-4l5-4l4-4l4-4l4-4l4-3l4-3l3-3l3-2l4-1l3-1h10l4,1l3,2l4,2l5,2l5,2l5,3l5,3l6,2l5,3l6,2l5,3l6,2l5,2l5,2
		l4,2l4,2l4,2l3,2l3,3l2,2l2,3l1,3l1,4v89l-1,3l-1,4l-2,3l-2,2l-2,3l-3,2l-3,2l-4,2l-5,2l-5,2l-5,2l-5,3l-5,2l-6,2l-6,3l-5,3l-5,2
		l-6,3l-5,2l-4,2l-5,2l-3,2l-4,1l-3,1h-7l-3-1l-4-1l-3-2l-3-2l-4-3l-3-3l-4-4l-4-3l-5-4l-4-4l-5-4l-4-4l-5-4l-4-4l-5-4l-4-3l-4-3
		l-4-4l-3-3l-3-3l-2-3l-1-3l-1-3l-1-3v-7l1-4l1-5l2-5l1-4l2-5l2-6l2-5l2-6l1-6l2-6l1-6l2-5l1-5l2-5l1-5l1-4l2-3l2-4l2-2l2-2l3-2l4-2
		l3-1l4-1l5-1h5l5-1l6-1h6l6-1l6-1l6-1l6-1l4-1l6-1l5-1h5l5-1h12l3,1l3,2l3,1l2,3l3,3l3,3l2,4l3,4l3,5l2,5l4,5l3,5l3,5l3,5l4,5l3,5
		l3,5l3,4l3,4l2,4l2,4l2,4l1,3v9l-2,4l-1,3l-2,4l-3,4l-3,4l-3,5l-3,4l-3,5l-4,5l-3,5l-3,6l-4,5l-3,5l-2,5l-3,4l-3,4l-2,4l-3,3l-3,3
		l-2,2l-3,2l-3,1l-4,1h-12l-4-1l-5-1l-6-1l-6-1l-4-1l-6-1l-6-1h-7l-5-1l-6-1h-6l-5-1l-5-1h-4l-4-1l-4-2l-3-1l-2-2l-3-3l-2-2l-2-4
		l-1-4l-2-4l-1-4l-1-5l-2-6l-1-5l-2-6l-1-6l-2-6l-2-6l-2-5l-2-6l-1-4l-2-5l-1-5l-1-4l-1-4v-7l1-3l1-3l2-3l2-3l3-3l3-3l4-4l4-3l5-4
		l4-3l5-4l4-4l5-4l5-4l4-4l4-4l4-4l4-3l4-3l3-3l3-2l4-2l3-1h10l4,1l3,1l4,2l4,2l5,3l5,2l5,3l6,2l5,3l6,2l5,3l6,2l5,2l5,2l5,2l4,3
		l4,2l3,2l3,2l2,2l2,3l1,3l1,4l1,4v84l-1,4l-1,4l-1,3l-2,3l-2,2l-3,2l-3,2l-4,3l-4,2l-5,2l-5,2l-5,2l-6,2l-5,3l-6,2l-5,3l-6,2l-5,3
		l-5,2l-5,3l-4,2l-4,2l-3,1l-4,1h-10l-3-1l-4-2l-3-2l-3-3l-4-3l-4-3l-4-4l-4-4l-5-4l-4-4l-5-4l-4-4l-5-4l-5-4l-4-3l-4-3l-4-4l-3-3
		l-3-3l-2-3l-2-3l-1-3l-1-3v-7l1-4l1-4l1-5l2-5l2-4l1-6l2-5l2-6l2-6l1-6l2-6l1-5l2-6l1-5l1-4l2-5l1-3l2-4l2-2l3-3l2-2l3-1l4-2l4-1h4
		l5-1l5-1h6l6-1l6-1h6l6-1l6-1l5-1l5-1l6-1l5-1l4-1h13l3,1l3,1l3,2l3,2l2,3l3,3l2,4l3,4l3,5l3,4l3,5l3,5l3,6l3,5l4,5l3,5l3,4l3,5
		l3,4l3,4l2,4l1,4l2,3v9l-1,3l-2,4l-2,4l-2,4l-3,4l-3,4l-3,5l-3,5l-4,5l-3,5l-3,5l-4,5l-3,5l-2,5l-3,5l-3,4l-3,4l-2,3l-3,3l-2,3
		l-3,1l-3,2l-3,1h-12l-5-1h-5l-5-1l-6-1l-4-1l-6-1l-6-1l-7-1l-6-1h-5l-6-1l-5-1h-5l-5-1l-4-1l-4-1l-3-2l-3-2l-2-2l-2-2l-2-4l-2-3
		l-1-4l-2-5l-1-5l-1-5l-2-5l-1-6l-2-6l-2-6l-1-6l-2-6l-2-5l-2-5l-1-4l-2-5l-1-5l-1-4v-7l1-3l1-3l1-3l3-3l2-3l3-3l4-4l4-3l4-3l5-4
		l4-4l5-4l4-4l5-4l4-4l5-4l4-3l4-4l3-3l4-3l3-2l4-2l3-1l3-1h7l3,1l4,1l3,2l5,2l4,2l5,2l6,3l5,2l6,3l5,3l6,2l5,2l5,3l6,2l4,2l5,2l4,2
		l3,2l3,2l3,3l1,2l2,3l1,4l1,3v89l-1,4l-2,3l-1,3l-2,2l-3,3l-3,2l-4,2l-4,2l-4,2l-5,2l-5,2l-6,2l-5,3l-6,2l-5,3l-6,2l-5,3l-5,3l-5,2
		l-5,2l-4,2l-3,2l-4,1h-10l-3-1l-4-1l-3-2l-3-3l-4-3l-4-3l-4-4l-4-4l-4-4l-5-4l-4-4l-5-4l-4-4l-5-3l-4-4l-5-3l-3-4l-4-3l-3-3l-2-3
		l-2-3l-2-3l-1-3v-7l1-4l1-4l1-4l1-5l2-4l2-6l2-5l1-6l2-6l2-6l1-6l2-6l1-5l2-5l1-5l1-4l2-4l2-4l2-3l2-2l2-2l3-2l4-1l4-1l4-1l5-1h5
		l5-1l6-1h6l6-1l6-1l6-1l5-1l5-1l6-1l5-1l5-1h12l4,1l3,1l3,1l3,2l2,3l3,3l2,4l3,4l3,4l3,5l3,5l3,5l3,5l3,5l4,5l3,5l3,5l3,4l3,5l3,4
		l2,4l2,3l1,4l1,3V99.5z"/>
</g>
</svg>
