<?xml version="1.0" encoding="utf-8"?>
<!-- Generator: Adobe Illustrator 28.0.0, SVG Export Plug-In . SVG Version: 6.00 Build 0)  -->
<svg version="1.1" id="Layer_1" xmlns="http://www.w3.org/2000/svg" xmlns:xlink="http://www.w3.org/1999/xlink" x="0px" y="0px"
	 viewBox="0 0 159.7 168" style="enable-background:new 0 0 159.7 168;" xml:space="preserve">
<path id="path3446" d="M64.1,157.4c-2-0.7-3.6-3.1-4.1-6.1c-0.7-4.3,0.8-9.6,3.8-14.1c0.8-1.1,1-1.4,1.8-2.4l0.5-0.6l-0.9-1.2
	c-0.5-0.6-1.2-1.4-1.5-1.8c-0.8-0.9-4.1-3.8-4.6-4c-0.3-0.2-0.6-0.1-1.8,0.6c-1.6,0.9-3.4,2-4.2,2.8l-0.6,0.5l0.7,2.1
	c0.4,1.1,0.9,3.1,1.2,4.4c0.5,2.1,0.5,2.7,0.5,6.1c0,3.4,0,4-0.4,5.4c-0.6,2.5-1.5,4.1-2.9,5.6c-1.3,1.3-2.4,1.8-3.8,1.8
	c-1.7,0-3.4-1.2-4.2-2.9c-2.9-5.7-0.1-14.5,6.7-21l1.8-1.7l-1.1-2.2c-0.6-1.2-1.4-2.8-1.9-3.5l-0.8-1.2l-1.5,0.4
	c-2.7,0.7-2.5,0.5-2.6,2.8c-0.3,6.3-2.5,12.8-5.6,17.1c-4.4,6.1-10.3,7.5-12.3,2.9c-0.3-0.7-0.4-1.2-0.4-2.6c0-2.8,0.8-5.2,2.9-8.3
	c2.8-4.3,8.1-8.4,13.5-10.6l1.7-0.7l-0.1-2.3c0-1.3-0.1-2.4-0.2-2.4c-0.2-0.2-1.4-0.4-3.4-0.7l-1.7-0.2l-0.4,0.9
	c-0.2,0.5-0.9,1.8-1.6,2.9c-3.6,6.1-9,10.6-14.4,12c-2.1,0.5-4.7,0.4-6.1-0.3c-1.9-0.9-2.7-2.1-2.8-4.1c0-4.9,6.6-9.8,15.4-11.4
	c2.2-0.4,6-0.7,7.9-0.5l1.6,0.1l0.3-0.8c0.2-0.4,0.5-1.5,0.8-2.3c0.6-1.7,0.8-1.3-1.5-3.1c-1.8-1.4-3-2.2-4.1-2.8l-0.8-0.5l-1.2,1.2
	c-2.2,2.3-4.4,3.9-7.2,5.3c-7.7,3.9-16.1,1.8-16.1-3.8c0-1.2,0.8-2.9,1.9-3.9c1-0.9,3-1.9,4.6-2.4c1.8-0.5,5.8-0.7,8.2-0.2
	c2.3,0.4,5.8,1.5,7.9,2.6l1.6,0.8l0.4-0.4c0.5-0.5,2.9-4,3.7-5.5l0.6-1.1l-0.8-1.1c-1.4-2-2.6-3.5-4.9-5.7c-1.1-1.1-1.2-1.1-1.5-0.9
	c-1.9,1.9-5.4,3.9-8.3,4.9c-4.9,1.6-9.6,1.1-12.2-1.2C8.4,96.3,8,95.5,8,93.8c0-1.6,0.3-2.3,1.4-3.5c0.8-0.9,2.7-1.9,4.3-2.4
	c1.8-0.5,5-0.4,7.3,0.2c3.1,0.8,5.8,2.1,8.4,4.1l1.2,0.9l1.2-1.3c1.5-1.6,3-3.6,4.2-5.5l0.9-1.5l-0.3-0.6c-1-1.9-4-5.9-5.5-7.3
	l-0.6-0.5l-1.7,1.2c-4.2,2.9-7.9,4.2-12.1,4.2c-3.5,0-5.9-0.9-7.4-2.6C8.3,77.9,8,77.2,8,75.7c0-1.7,0.4-2.5,1.8-3.8
	c4.3-3.9,12.7-2.8,19.5,2.7c0.7,0.6,1.4,1.1,1.5,1.1c0.2,0,3.5-3.4,4.4-4.5c0.8-1,1.1-1.4,1.9-2.6l0.5-0.7l-0.6-1.2
	c-0.8-1.5-2.3-3.8-3.3-5l-0.7-0.9l-1.1,0.6c-1.8,0.9-3.9,1.7-6.2,2.3c-2.1,0.6-2.3,0.6-5.8,0.6c-4.1,0-5-0.1-7.2-1.3
	C10.9,62,9.8,61,9.2,59.7c-1.6-3.1,0.1-6.1,4.2-7.5c1.9-0.7,4.9-0.7,7.4,0c3.6,0.9,7.3,3.1,10.5,6.3l1.7,1.7l0.9-0.5
	c1.1-0.6,2.3-1.4,4.1-2.9c0.8-0.6,1.5-1.2,1.7-1.3c0.2-0.1,0.1-0.6-0.4-2c-0.3-1-0.8-2.1-0.9-2.3l-0.3-0.5l-1.7,0.1
	c-3.1,0.2-8.5-0.4-11.7-1.4c-3-0.9-6.4-2.7-8.3-4.4c-1.2-1-2.4-2.8-2.9-4c-0.4-1.1-0.4-2.9,0-3.7c1.1-2.5,4.7-3.7,8.6-2.7
	c6,1.4,11.7,6.6,15.5,13.9c0.9,1.7,1,1.8,1.4,1.8c0.3,0,1.3-0.2,2.4-0.4c1.3-0.2,2-0.4,2.1-0.6c0.2-0.2,0.2-1,0.2-2.4v-2.1L42,44
	c-8.1-3.4-14.1-9.6-15.9-16c-0.5-1.7-0.4-4.3,0.1-5.5c0.9-2.1,2.9-3.2,5.1-2.8c5,0.9,10.1,7.9,12,16.7c0.5,2,0.9,5.5,0.9,7v1.2
	l0.9,0.3c1.9,0.6,3.2,0.9,3.4,0.7c0.3-0.3,1.1-1.8,2.4-4.3l1.2-2.4L50.2,37c-6.8-6.5-9.6-15.3-6.7-21c1-1.9,3.1-3.2,4.9-3
	c2.6,0.3,5,3.1,6.1,7.3c0.4,1.3,0.4,1.9,0.4,5.4c0,4.5-0.3,6.3-1.7,10.5l-0.8,2.4l0.4,0.4c0.8,0.6,3.3,2.3,4.6,3l1.3,0.7l1-0.8
	c1.4-1.1,4.2-3.8,5.3-5.2l0.9-1.2l-0.5-0.6c-1-1.1-1.2-1.4-2-2.7c-3.8-5.8-4.9-12.6-2.6-16.9c1.3-2.5,3.8-3.9,6-3.3
	c3.5,0.9,5.5,6.5,4.5,12.3c-0.6,3.3-2.1,7.1-4.1,10c-0.8,1.2-0.9,1.1,0.8,2.7c1.2,1.1,3.8,3.2,5.3,4.1l1,0.6l1.5-0.9
	c2.7-1.6,7.1-5.6,6.7-6.1c-0.1-0.1-0.5-0.7-0.9-1.2c-3.7-4.9-5.3-11.4-4.1-16.2c1.1-4.3,4.6-6.6,7.6-5.1c4.2,2.1,5,9.9,1.8,16.7
	c-0.7,1.5-2.3,4.1-3.3,5.4l-0.5,0.7l0.9,1.1c1.3,1.5,3.8,3.7,6,5.2c0.7,0.5,1.1,0.6,1.4,0.6c0.9-0.2,4.7-2.9,6.4-4.5l0.7-0.7
	l-1.2-2.4c-2-4-2.8-7.1-3-10.9c-0.2-5.2,1.5-9.3,4.6-10.7c1.9-0.9,4.1-0.3,5.4,1.3c4,4.9,2.1,14.7-4.2,21.6
	c-1.2,1.3-1.2,1.1,0.1,2.9c1.2,1.7,2.2,2.9,3.4,4.2l1.2,1.3l1.5-0.6c1.9-0.8,3.3-1.5,3.4-1.7c0.1-0.1,0-1-0.2-2
	c-0.4-2.3-0.4-8.5-0.1-10.5c0.8-5.2,2.5-9,4.8-11.4c1.9-1.8,4.1-2.6,5.8-2.1c1.7,0.5,3,2.6,3.4,5.1c1,6.7-4.1,15.3-12,20.4l-1.1,0.7
	l0.1,0.8c0.1,0.8,1.3,5,1.4,5.2c0,0,0.9,0,2-0.1c2.2-0.2,1.9,0.2,2.9-3.1c2.7-8.7,8.4-15.7,14.6-17.8c1-0.3,1.8-0.5,2.8-0.5
	c3.1,0,4.6,1.5,4.6,4.7c0,2.9-1.4,5.6-4.5,8.7c-3.9,3.9-10.2,6.8-16.6,7.9c-1,0.2-1.4,0.3-1.5,0.5c-0.1,0.3-0.6,3.4-0.6,3.6
	c0,0.2,2.8,1.5,4.4,2.1c2.2,0.8,1.9,0.9,3.4-1.1c4.6-5.9,11.1-9.7,16.8-9.7c2.6,0,4.1,0.5,5.6,1.8c1.1,1,1.5,1.9,1.5,3.5
	c0,1.8-0.6,3-2.2,4.5c-3.9,3.7-11.7,4.8-19.8,2.9c-1.2-0.3-2.4-0.6-2.7-0.6c-0.3-0.1-0.5,0.1-1.2,1.4c-0.5,0.8-1.2,2.1-1.6,2.9
	l-0.7,1.5l0.6,0.7c1.2,1.5,5.2,5.4,6.3,6c0.1,0.1,0.7-0.3,1.5-0.9c3.2-2.8,7.1-4.9,10.6-5.6c1.6-0.3,4.4-0.4,5.8-0.1
	c2.3,0.5,4.5,2.1,5.2,3.8c0.5,1.2,0.5,3-0.1,4.1c-1.8,4-8.3,5.3-15.1,3.2c-1.8-0.6-5.1-2.1-6.5-3.1l-1.1-0.7l-0.4,0.4
	c-1.5,1.4-5.3,6.8-5.3,7.5c0,0.3,1.9,3.2,3.1,4.6c1.3,1.6,3.3,3.7,3.6,3.7c0.1,0,0.9-0.5,1.7-1.2c1.7-1.3,4.7-2.9,6.6-3.6
	c5.8-2.1,11.6-0.9,13.5,2.8c1,2.1,0.7,4.2-1,5.8c-1.6,1.6-3.9,2.5-7,2.5c-4,0-8.4-1.6-12.1-4.4c-0.8-0.6-1.6-1.2-1.7-1.2
	c-0.3,0-2.2,2.1-3.6,3.7c-1.1,1.4-3.1,4.3-3.1,4.6c0,0.8,3.8,6.1,5.3,7.5l0.4,0.4l1.1-0.7c1.5-1,5.1-2.7,6.9-3.3
	c5.5-1.7,10.5-1.2,13.3,1.4c1.3,1.2,1.8,2.4,1.8,4c0,1.6-0.6,2.8-1.7,3.8c-1.7,1.5-3.7,2.1-6.7,2.1c-4.7,0-9.1-1.8-13.6-5.7
	c-0.8-0.7-1.3-1-1.5-0.9c-1,0.6-5.1,4.5-6.3,6l-0.6,0.7l0.7,1.5c0.4,0.8,1.1,2.1,1.5,2.9l0.8,1.4l2-0.5c3-0.8,4.9-1.1,7.6-1.2
	c5.6-0.2,10.4,1.1,13.3,3.7c1.9,1.7,2.6,3.8,2.1,5.7c-1.1,4.3-7.8,5.5-14.1,2.5c-3.4-1.6-7-4.5-9.7-8l-1.5-1.9l-0.9,0.4
	c-0.5,0.2-1.3,0.5-1.8,0.7c-0.5,0.2-1.5,0.6-2.3,1l-1.4,0.7l0.1,0.9c0.1,0.5,0.2,1.4,0.3,1.9c0.2,1,0.2,1.1,0.8,1.2
	c4.8,0.9,7.1,1.7,10.1,3.1c4,1.9,7.8,5,9.8,8c1.6,2.4,1.9,3.3,1.9,5.7c0,2,0,2-0.5,2.8c-0.4,0.5-0.9,1-1.5,1.3
	c-1.4,0.7-3.6,0.7-5.5,0.1c-4.9-1.7-9.8-6.8-12.9-13.6c-0.8-1.7-1.7-4.3-2.1-6.1c-0.2-1-0.3-1-2.6-1.1l-1.6,0l-0.4,1.3
	c-0.2,0.7-0.6,2-0.8,3c-0.3,1.5-0.4,1.7-0.1,1.8c0.8,0.5,3.5,2.5,4.9,3.7c4.9,4.3,7.9,10.1,8,15.4c0,4.6-1.9,7.2-5.2,7
	c-4.2-0.3-7.6-5.4-8.9-13.4c-0.3-2.1-0.3-8,0.1-10.5c0.3-1.7,0.3-2.1,0.1-2.2c-0.5-0.3-3.9-1.9-4.3-2c-0.4-0.1-0.6,0.1-1.7,1.2
	c-1.4,1.5-2.5,2.9-3.6,4.6c-0.8,1.2-0.8,1.2-0.5,1.6c1.3,1.5,1.7,1.9,2.6,3.2c1.5,2,3.1,5.5,3.7,7.7c0.6,2.4,0.8,5.6,0.4,7.5
	c-0.5,2.4-1.9,4.5-3.4,5.2c-1,0.5-3,0.5-4.1,0c-1.9-0.9-3.6-3.6-4.1-6.6c-0.2-1.2-0.3-2.2-0.2-4c0.2-3.8,1-6.9,3-10.9l1.2-2.4
	l-0.8-0.8c-1.5-1.4-3.7-3.1-5.6-4.2l-0.8-0.5l-1.1,0.7c-1.9,1.3-3.6,2.7-5.3,4.5c-1.6,1.6-1.7,1.7-1.4,2.1c1.1,1.5,3.1,4.7,3.5,5.6
	c1.4,3,1.9,5.5,1.9,8.5c0,5.4-2.3,8.7-5.9,8.7c-1.5,0-2.4-0.4-3.4-1.5c-1.6-1.6-2.4-4-2.4-7.2c0-4.6,1.8-9.5,5.2-13.8l0.4-0.5
	l-1.2-1.2c-2.1-2.2-6.4-5.5-7.2-5.5c-0.3,0-3,1.8-4.4,3c-1.9,1.5-3.5,3.2-3.3,3.4c0.1,0.1,0.4,0.7,0.8,1.2c1.9,2.8,3.3,6.5,3.9,9.8
	c0.4,2.1,0.3,5.2-0.2,6.8C70.2,156.3,67.2,158.5,64.1,157.4L64.1,157.4z M67.5,156.9c1.1-0.5,2.2-1.7,2.8-3.1c0.8-1.8,1-2.9,1-5.6
	c0-2.8-0.4-4.5-1.5-7.4c-0.6-1.5-2.4-4.9-3.1-5.7l-0.4-0.5l-0.4,0.5c-0.9,1-1.1,1.3-2,2.6c-3.8,5.8-4.8,12.2-2.7,16.5
	C62.7,156.9,65.1,158,67.5,156.9z M85.1,156.8c4.1-2,4.8-9.4,1.6-16.2c-0.7-1.4-3.1-5.3-3.5-5.6c-0.1,0-0.5,0.4-0.9,1
	c-2.5,3.3-4.1,7.3-4.5,11.2c-0.5,4.3,1.1,8.4,3.7,9.6C82.5,157.5,84,157.4,85.1,156.8L85.1,156.8z M103.2,156.3
	c3.2-2.2,3.9-8,1.9-13.7c-1.1-3-2.9-6-5-8.3l-1-1.1l-1.2,2.4c-1.9,4-2.8,7-3,10.6c-0.1,2.8,0.2,4.9,1.2,6.9c0.9,1.9,1.6,2.7,2.8,3.3
	c0.8,0.4,1.1,0.5,2.3,0.4C102.2,156.9,102.5,156.8,103.2,156.3L103.2,156.3z M49.3,155.7c2.1-0.6,4-3.3,4.9-6.9
	c0.4-1.4,0.4-2.1,0.4-5.2c0-3-0.1-3.8-0.4-5.6c-0.4-2.1-1.7-6.3-2-6.6c-0.3-0.3-3,2.6-4.7,4.8c-3.3,4.3-5.1,9.7-4.5,13.6
	c0.4,3.1,1.7,5.3,3.6,5.9C47.4,156.1,48.1,156.1,49.3,155.7L49.3,155.7z M120.5,153.3c3.1-1.4,3.8-7,1.5-12.4
	c-1.3-3-3.4-5.9-6.1-8.5c-1.5-1.4-4.7-3.9-5.3-4.1c-0.4-0.1-1,5.8-0.8,8.9c0.3,5.2,1.5,9.6,3.6,12.8
	C115.4,153,118.2,154.4,120.5,153.3z M32.4,148.9c4.2-1.6,8.1-7.2,10.1-14.3c0.8-2.9,1.7-9.4,1.3-9.4c-0.4,0-3.5,1.4-4.9,2.2
	c-6.3,3.6-10.9,9-12.4,14.3c-0.5,1.7-0.4,4,0.1,5.2c0.5,1.2,1.6,2.2,2.5,2.3c0.4,0.1,0.8,0.1,0.9,0.2
	C30.3,149.5,31.6,149.3,32.4,148.9L32.4,148.9z M136.6,142.4c1.4-0.7,1.9-1.6,2-3.4c0.1-1.6-0.2-2.6-1.1-4.4
	c-2.4-4.8-9-9.5-16.1-11.4c-1.4-0.4-4.5-1-4.8-1c-0.1,0-0.1,0.1,0.8,2.8c2.6,8.5,8.2,15.4,14,17.4
	C133.1,142.9,135.3,143,136.6,142.4L136.6,142.4z M22.1,134.5c4.2-1.1,8.5-4.1,11.9-8.4c1.1-1.4,3-4.5,3.8-6.1l0.4-0.8l-1.6-0.1
	c-1.9-0.1-5.7,0.1-7.8,0.5c-6.1,1.1-11.3,3.9-13.6,7.2c-1,1.4-1.4,2.5-1.4,3.7c0,1.2,0.3,2.1,1.2,2.9
	C16.2,134.7,19.2,135.2,22.1,134.5L22.1,134.5z M88.1,129.5c0.8-0.6,1.8-1.4,2.2-1.6c0.4-0.2,0.7-0.5,0.7-0.5c0-0.2-4.1-1.9-6.3-2.6
	l-1.5-0.5l-2.1,0.7c-2.1,0.7-6,2.3-5.9,2.5c0,0.1,1,0.8,2.2,1.6c1.2,0.9,3,2.3,3.9,3.3l1.8,1.7l1.7-1.7
	C85.8,131.5,87.2,130.2,88.1,129.5L88.1,129.5z M67.5,132.7c1.8-1.8,4.9-4.1,6.3-4.8l0.5-0.3l-1.9-0.9c-2.7-1.4-5.9-2.4-6.7-2.3
	c-0.9,0.2-4.2,1.3-5.4,1.8l-1,0.5l0.7,0.6c1,0.8,5.1,5,5.8,5.8c0.3,0.4,0.5,0.7,0.6,0.7S66.9,133.3,67.5,132.7L67.5,132.7z
	 M101.4,129.2c0.4-0.6,1.3-1.6,2-2.3c0.7-0.7,1.2-1.3,1.2-1.4c0-0.1-2.6-0.9-4.3-1.3l-1.3-0.3l-1.2,0.5c-1.3,0.5-5,2.3-5.6,2.7
	c-0.3,0.2-0.2,0.3,0.7,0.8c1.2,0.7,3.9,2.7,5.2,3.9l0.9,0.8l0.8-1.2C100.2,130.8,100.9,129.8,101.4,129.2z M54.2,129.2
	c0.5-0.3,1.7-1,2.6-1.5c1.5-0.9,1.7-1,1.4-1.2c-0.4-0.4-3-2-4.4-2.7c-1.1-0.6-1.2-0.6-2.4-0.5c-1.7,0.2-2.4,0.3-2.5,0.6
	c0,0.1,0.2,0.7,0.6,1.3c0.4,0.6,1.2,2.1,1.8,3.3l1.1,2.2l0.5-0.4C53.1,130,53.7,129.5,54.2,129.2L54.2,129.2z M110.4,126.5
	c0.1-0.6,0.5-1.8,0.7-2.8s0.5-1.8,0.5-1.9s-0.5-0.1-1-0.1c-1,0-1.1,0.1-2.2,1c-0.7,0.5-1.6,1.3-2,1.8l-0.9,0.8l2.2,1.1
	c1.2,0.6,2.3,1.1,2.4,1.1S110.3,127.1,110.4,126.5L110.4,126.5z M80.4,124.9c1.2-0.4,2.1-0.8,2-0.8s-0.9-0.1-1.7-0.3
	c-2.8-0.5-5.9-0.7-8.4-0.5c-2.8,0.2-4.9,0.6-4.9,0.8c0,0.1,0.1,0.2,0.2,0.2c0.4,0,4.1,1.5,5.7,2.3l1.4,0.7l1.7-0.8
	C77.4,126,79.2,125.3,80.4,124.9L80.4,124.9z M93,126.3c0.7-0.4,2.2-1.1,3.3-1.6c2.3-1,2.3-1-1.2-1.3c-2.5-0.2-5.6-0.1-8.4,0.3
	c-3,0.4-3,0.4-1.4,0.9c1.6,0.5,3.9,1.4,5,2c0.5,0.2,0.9,0.4,1,0.4C91.6,127,92.3,126.7,93,126.3z M60.2,125.9c0.6-0.3,2-0.8,3-1.1
	c1-0.3,1.9-0.7,2-0.7c0.2-0.2-3.7-0.9-6.4-1.1c-1.4-0.1-3.1-0.2-3.9-0.1l-1.4,0.1l0.9,0.5c1.2,0.6,3.5,2,4.1,2.5
	c0.3,0.2,0.6,0.4,0.6,0.4C59,126.5,59.5,126.2,60.2,125.9z M143,125.8c2.9-0.8,4.6-3.1,4-5.4c-0.3-1.3-0.9-2.2-2.2-3.4
	c-3.1-2.9-8.8-4.2-15-3.5c-1.7,0.2-4.9,0.8-6.5,1.3l-0.8,0.2l1.5,1.9c2.6,3.3,5.6,5.8,8.9,7.5C136.3,126,140.2,126.6,143,125.8
	L143,125.8z M107,123.3c0.4-0.4,0.9-0.8,1.2-1l0.5-0.4l-1.2,0.1c-1.5,0.2-4.3,0.7-6.2,1.2l-1.5,0.4l1.6,0.4c0.9,0.2,2.1,0.6,2.6,0.8
	l1,0.3l0.6-0.6C106,124.2,106.6,123.7,107,123.3L107,123.3z M47,123.8c0.5-0.1,1-0.3,1-0.3c0,0-0.5-0.7-1-1.5
	c-0.9-1.3-1.1-1.4-1.9-1.7c-0.5-0.2-0.9-0.3-0.9-0.3c0,0,0,1.1,0.1,2.3l0.1,2.3l0.9-0.3C45.7,124.1,46.5,123.9,47,123.8z
	 M68.3,123.5c4.1-0.8,9.1-0.7,13.2,0.1c1.7,0.3,1.9,0.4,3.2,0.1c0.7-0.2,2-0.4,2.8-0.5c2-0.3,8.3-0.3,10.2,0.1
	c1.5,0.3,1.6,0.3,2.9-0.2c1.8-0.6,5.4-1.3,7.3-1.4c1.2-0.1,1.6-0.2,2-0.5c0.2-0.2,1-0.7,1.6-1.1c1.1-0.7,1.1-0.7,2.4-3.3l1.2-2.5
	l0.1-2.2c0.2-3.4,0.4-5.4,1-8l0.5-2.3l-0.3-1.7c-0.5-2.5-0.4-10.2,0-12.7c0.2-1,0.4-2.2,0.4-2.6c0-0.4-0.2-1.6-0.4-2.6
	c-0.5-2.5-0.5-10.2,0-12.7c0.3-1.6,0.3-1.7-0.1-3.2c-0.6-2.7-0.9-4.4-1.1-7.7l-0.2-3.2l-1.1-2.2c-0.6-1.2-1.1-2.3-1.1-2.4
	c0-0.1-0.6-0.6-1.3-1.1c-0.7-0.5-1.6-1.1-1.9-1.3c-0.5-0.4-0.8-0.5-2.2-0.6c-1.8-0.1-4.5-0.6-6.9-1.3c-1.6-0.4-1.8-0.5-3.1-0.3
	c-3.6,0.5-8.5,0.4-12.3-0.3c-2-0.4-2-0.4-4.8,0.1c-4.2,0.7-8.4,0.7-12.6-0.1c-1.6-0.3-1.6-0.3-3.9,0.2c-3.1,0.6-6.6,0.9-9.1,0.8
	l-2-0.1l-1.8,0.8c-1,0.4-2.5,1-3.3,1.2c-1.4,0.5-1.5,0.5-2.8,2l-1.3,1.5l-0.4,2.1c-0.4,2.1-1.4,5.4-1.7,6c-0.1,0.2-0.1,0.9,0,2
	c0.4,3.6,0.1,9-0.6,12.4c-0.2,1.1-0.2,1.4,0.1,3.1c0.7,3.8,0.7,10.8-0.1,14.6c-0.2,1.1-0.2,1.4,0,2.5c0.7,3.2,1,9.2,0.6,12.5
	c-0.2,1.3-0.1,1.5,0.6,3.6c0.4,1.2,0.9,3.2,1.1,4.4c0.4,1.8,0.5,2.2,1,2.7c0.3,0.3,0.9,1,1.2,1.5c0.5,0.6,0.9,0.9,1.5,1
	c0.4,0.1,1.8,0.6,3.1,1.1l2.3,0.9l3.7,0c3.8,0,5.9,0.3,8.7,1c0.7,0.2,1.5,0.3,1.6,0.3C66.6,123.8,67.4,123.6,68.3,123.5L68.3,123.5z
	 M50.7,123l1.3-0.2l-1.2-0.5c-0.7-0.3-1.9-0.8-2.7-1.1l-1.5-0.5l0.9,1.3c0.8,1.2,1,1.3,1.4,1.3C49.1,123.2,49.9,123.1,50.7,123
	L50.7,123z M116,121.4c0-0.1-0.1-0.6-0.2-1c-0.1-0.5-0.2-1.2-0.3-1.6c-0.1-0.4-0.2-0.7-0.3-0.7c-0.1,0-0.6,0.3-1.2,0.6
	c-0.9,0.5-1.1,0.7-1.4,1.6c-0.2,0.5-0.3,1-0.3,1s0.4,0.1,0.9,0.1C115,121.6,116,121.6,116,121.4L116,121.4z M112.2,120.5
	c0.2-0.5,0.2-0.7,0.1-0.6c-1,0.6-2.1,1.4-2.1,1.4c0,0.1,0.4,0.1,0.8,0C111.9,121.3,111.9,121.3,112.2,120.5z M44.7,119
	c-0.4-0.5-0.8-0.9-0.8-0.9s0,0.4,0,0.7c0.1,0.6,0.2,0.7,0.7,0.8c0.3,0.1,0.6,0.2,0.7,0.2C45.4,119.9,45.1,119.5,44.7,119L44.7,119z
	 M43.6,118.8c-0.1-0.3-0.1-0.7-0.1-0.9c0-0.2-0.7-1-1.6-1.9l-1.6-1.6l-0.7,2c-0.4,1.1-0.7,2-0.7,2.1c0,0.1,3.1,0.7,4.4,0.8
	C43.6,119.4,43.7,119.3,43.6,118.8z M115.3,116.3c-0.1-0.7-0.1-1.2-0.2-1.3c0,0-0.4,0.7-0.9,1.7s-0.9,1.9-0.9,1.9
	c0,0.1,0.4-0.2,1-0.5l1.1-0.6L115.3,116.3L115.3,116.3z M18.7,117.2c2-0.3,4-1,6.2-2.1c2.3-1.2,3.9-2.4,6-4.4l1.6-1.5l-0.4-0.3
	c-1.3-1-6.7-2.8-9.6-3.2c-2.1-0.3-5.9-0.1-7.5,0.3c-1.5,0.5-3.2,1.3-4.2,2.2c-1,0.9-1.9,2.6-1.9,3.7C9,115.6,13.2,118,18.7,117.2
	L18.7,117.2z M120.1,115.5l1.8-0.7l-0.7-1.3c-0.4-0.7-1.1-2-1.5-2.8l-0.8-1.6l-0.3,0.5c-0.2,0.3-0.9,1.4-1.7,2.4l-1.3,2l0,1.3
	c0,0.7,0,1.5,0.1,1.7c0.1,0.4,0.1,0.4,1.3-0.2C117.7,116.5,119.1,115.9,120.1,115.5L120.1,115.5z M42.8,114.7c-0.2-1-0.7-2.6-1-3.5
	l-0.5-1.6l-0.1,0.9c-0.1,0.5-0.3,1.5-0.5,2.2l-0.3,1.3l1.4,1.3c0.8,0.7,1.4,1.3,1.4,1.3C43.2,116.6,43.1,115.7,42.8,114.7z
	 M40.4,112.3c0.8-3.4,0.8-3.3,0.2-4.6c-0.5-1.2-1.9-3.9-2.5-5l-0.3-0.6l-0.5,1c-0.8,1.5-2.4,4-3.3,5c-0.6,0.7-0.7,0.9-0.5,1
	c0.1,0.1,0.7,0.5,1.3,0.8c0.6,0.4,2,1.3,3.1,2.2c1.1,0.8,2,1.5,2.1,1.5C40.1,113.6,40.3,113,40.4,112.3z M116.8,111.6
	c0.6-0.9,1.3-2,1.6-2.3l0.4-0.6l-0.8-2.5c-0.5-1.4-0.8-2.7-0.8-2.9c0-0.8-0.3,0-0.7,1.7c-0.5,2.2-1.1,8.8-0.9,8.5
	C115.6,113.3,116.1,112.5,116.8,111.6L116.8,111.6z M121.5,105.7c1.8-1.8,4.2-3.9,4.5-3.9c0.1,0-0.2-0.4-0.6-0.9
	c-1.5-1.6-3.4-4.1-4.5-6.2c-0.2-0.4-0.5-0.8-0.5-0.8c-0.2,0-2,4-2.7,6.3l-0.5,1.5l0.4,1.7c0.2,0.9,0.7,2.4,1,3.3l0.6,1.6l0.4-0.5
	C119.7,107.6,120.6,106.6,121.5,105.7L121.5,105.7z M144.1,108.1c5-1.2,6.7-5.6,3.5-8.8c-1.5-1.5-4.6-2.5-7.3-2.5
	c-3.6,0-8.7,1.7-12.3,4.1c-1.5,1-1.5,0.8,0.7,2.6c3,2.4,5.9,3.9,9.3,4.6C139.4,108.4,142.7,108.4,144.1,108.1L144.1,108.1z
	 M41.4,103.3c0-3-0.4-7.2-0.8-8.4c-0.1-0.1-0.3,0.5-0.6,1.4c-0.3,0.9-0.8,2.5-1.3,3.5l-0.8,1.9l0.6,1c0.7,1.2,2.4,4.7,2.5,5.1
	C41.2,108.6,41.4,105.5,41.4,103.3z M38.6,99.1c0.5-1.2,1-2.9,1.3-3.8l0.5-1.7l-0.7-2.1c-0.7-2.3-1.7-4.8-2.2-5.6l-0.3-0.5l-0.9,1.4
	c-1.1,1.9-2.6,3.8-4.1,5.3L31,93.3l1.9,1.9c1.8,1.8,4.3,4.9,4.6,5.7c0.1,0.2,0.2,0.3,0.2,0.3C37.8,101.2,38.2,100.2,38.6,99.1z
	 M117.9,98.3c0.3-0.9,1-2.3,1.4-3.2l0.8-1.6l-0.7-1.6c-0.4-0.9-1.1-2.6-1.5-3.9c-0.9-2.7-0.8-2.7-1.3,1c-0.4,3.1-0.3,8.6,0.3,12
	c0,0,0.1-0.2,0.2-0.5S117.6,99.2,117.9,98.3L117.9,98.3z M18.9,99.2c3.6-0.6,7.8-2.6,10.6-5.1l0.8-0.7l-1.7-1.2
	c-4.1-2.8-7.9-4.2-11.8-4.2c-3.9,0-6.8,1.5-8.1,4c-0.5,1-0.4,2.8,0.1,3.8C10.3,98.6,14.2,99.9,18.9,99.2L18.9,99.2z M121.4,91.5
	c1.1-1.8,3.3-4.6,4.7-5.8l1-1l-1-1c-1.3-1.2-3.6-4-4.7-5.8c-0.5-0.8-0.9-1.4-1-1.4c-0.4,0-3,7.1-3,8.2c0,1.1,2.6,8.2,3,8.2
	C120.5,92.9,120.9,92.3,121.4,91.5z M41,89.7c0.5-3.5,0.3-8.7-0.3-11.8l-0.2-1l-0.6,1.8c-0.7,2.3-1.6,4.3-2.1,5.2l-0.4,0.7l0.9,2
	c1,2.1,2,5.1,2,5.7C40.4,93.1,40.7,91.7,41,89.7z M143.8,90.1c5.2-1.1,7.2-5.5,4-8.7c-3.8-3.9-11.7-3-18.5,2
	c-0.9,0.7-1.6,1.3-1.6,1.3c0,0.2,2.4,2,3.9,2.9c2,1.2,5,2.2,7.3,2.6C140.1,90.4,142.7,90.3,143.8,90.1L143.8,90.1z M38.5,81.3
	c0.4-1,1-2.6,1.3-3.6l0.6-1.8l-0.5-1.8c-0.3-1-0.9-2.7-1.3-3.9c-0.7-1.8-0.8-2-1-1.7c-1.6,2.3-3.1,4.1-4.8,5.8
	c-0.9,0.8-1.6,1.6-1.6,1.7s0.5,0.7,1.1,1.3c1.6,1.7,3.8,4.6,4.6,6.3l0.3,0.6l0.4-0.6C37.7,83.3,38.2,82.3,38.5,81.3z M119.4,77.6
	l0.7-1.6l-0.9-1.8c-0.9-1.8-2.2-5.1-2.2-5.5c0-0.1,0-0.2-0.1-0.1c-0.1,0.1-0.2,1-0.4,2.1c-0.5,3.5-0.3,8.5,0.4,12.5
	c0.1,0.7,0.2,0.6,0.9-1.6C118.3,80.3,119,78.5,119.4,77.6z M20.5,81c1.5-0.3,3.5-1.1,5.3-2c1.7-0.9,4.4-2.8,4.3-3c0-0.1-0.5-0.5-1-1
	c-3.5-2.8-7.2-4.5-10.9-5c-2-0.3-4,0-5.8,0.7c-1.3,0.5-3,1.9-3.5,3c-1.7,3.3,1,6.8,5.8,7.6C15.9,81.5,18.9,81.4,20.5,81z
	 M120.9,74.7c1.1-2,3-4.6,4.5-6.2c0.5-0.5,0.7-0.9,0.6-0.9c-0.5,0-5.4-4.6-6.5-6.1l-0.4-0.5l-0.6,1.6c-0.3,0.9-0.8,2.4-1,3.3
	l-0.4,1.7l0.7,2c0.7,2,2.4,5.8,2.6,5.8C120.4,75.5,120.7,75.2,120.9,74.7L120.9,74.7z M40.8,73.8c0.4-2.9,0.6-5.3,0.6-7.6
	c0-2.2-0.2-5.3-0.3-4.6c0,0.4-1.5,3.3-2.3,4.8L38,67.9l0.3,0.8c0.6,1.3,1.4,3.6,1.8,4.8c0.2,0.6,0.4,1.1,0.4,1.1
	C40.6,74.6,40.7,74.2,40.8,73.8L40.8,73.8z M143,72.3c0.8-0.1,2-0.5,2.7-0.9c5.5-2.6,4.4-8.7-1.8-10.2c-4.8-1.1-11.2,1.1-16.2,5.6
	l-1.1,1l1.7,1.1C133.3,71.9,138.5,73.2,143,72.3L143,72.3z M39.5,64.2c1.7-3.5,1.6-3.2,1.3-5c-0.5-2.6-0.8-3.6-1-3.3
	c-0.3,0.4-4.2,3.3-5.7,4.1l-0.9,0.5l0.4,0.5c1.1,1.5,2.8,3.9,3.4,5.1c0.7,1.3,0.7,1.3,1,0.9C38.2,66.7,38.9,65.5,39.5,64.2
	L39.5,64.2z M117.1,66.2c0-0.2,0.4-1.4,0.8-2.8l0.8-2.5l-0.5-0.7c-0.3-0.4-1-1.4-1.6-2.4c-0.6-0.9-1.1-1.7-1.2-1.6
	c-0.1,0.1,0.3,5.3,0.5,6.4c0.4,2.3,0.8,3.9,0.9,3.9C117,66.4,117.1,66.3,117.1,66.2z M23.3,63.6c2.1-0.4,4.8-1.2,6.8-2.1
	c2.7-1.2,2.6-1,1-2.6c-3.8-3.8-8.4-6.2-12.7-6.8C13.3,51.4,9,54,9,57.6c0,0.9,0.6,2.3,1.4,3.2c1.1,1.3,3.4,2.4,5.7,2.9
	C17.4,64,21.7,63.9,23.3,63.6z M121.3,55.8l0.6-1.1l-1.6-0.6c-0.9-0.3-2.2-0.9-3-1.3c-0.8-0.4-1.5-0.6-1.5-0.6s-0.1,0.8-0.2,1.6
	c-0.1,1.5-0.1,1.5,0.7,2.8c0.4,0.7,1.2,1.8,1.7,2.5l0.9,1.3l0.9-1.7C120.3,57.7,121,56.4,121.3,55.8L121.3,55.8z M41.9,58.3
	c0.4-1.2,1.3-5.2,1.3-5.5c0,0-0.7,0.6-1.5,1.3l-1.5,1.4l0.3,0.9c0.1,0.5,0.4,1.5,0.5,2.2c0.1,0.7,0.2,1.3,0.3,1.3
	C41.4,59.8,41.7,59.1,41.9,58.3L41.9,58.3z M136.1,55.9c3.7-0.5,6.9-1.7,8.9-3.5c2.8-2.6,2.9-5.8,0.2-7.8c-4.1-3-12-1-18,4.7
	c-1.7,1.6-4.5,5-4.3,5.2c0.3,0.3,4.7,1.2,7.2,1.5C131.3,56.1,134.7,56.1,136.1,55.9z M42.3,53c1-1,1.1-1.2,1.2-2.1
	c0.1-0.5,0.1-1,0-1c0,0-1,0.1-2,0.2c-2.9,0.4-2.8,0.4-2.7,0.8c0.1,0.2,0.4,1.1,0.8,2.2l0.7,1.8l0.4-0.4C41,54.4,41.7,53.7,42.3,53z
	 M115.2,51.8c-0.1-0.1-0.3-0.2-0.3-0.2c-0.1,0-0.5-0.2-0.9-0.5c-0.4-0.3-0.7-0.4-0.7-0.3c0,0.1,0.5,1,1,2l0.9,1.8l0.1-1.3
	C115.4,52.5,115.3,51.9,115.2,51.8z M45.6,49.4c0,0-0.4,0.1-0.8,0.2c-0.7,0.2-0.8,0.3-0.8,0.7c0,0.3,0,0.7-0.1,0.8
	c-0.1,0.2,0.3-0.1,0.8-0.7C45.2,49.9,45.6,49.5,45.6,49.4z M115.5,50.9c0.4-2.1,0.5-3,0.4-3.1c-0.1-0.1-0.9,0-1.9,0l-1.8,0.1
	l0.3,0.8c0.2,0.4,0.3,0.9,0.3,1c0,0.2,2.1,1.6,2.4,1.6C115.4,51.4,115.5,51.1,115.5,50.9L115.5,50.9z M38,50.2c0,0-0.2-0.7-0.6-1.4
	C34.9,44,31,39.5,27.2,37.2c-4.1-2.5-8.2-3.3-10.8-2.1c-4.5,2-3.3,7.4,2.5,11.1c4.2,2.8,10.8,4.4,17,4.1C37,50.3,37.9,50.2,38,50.2
	L38,50.2z M112.2,48.8l-0.4-0.9h-0.9c-0.6,0-0.9,0.1-0.8,0.2c0.1,0.1,2.2,1.6,2.4,1.6C112.5,49.7,112.4,49.3,112.2,48.8L112.2,48.8z
	 M45.4,49c0.6-0.2,0.9-0.4,1.6-1.5c0.5-0.7,0.9-1.4,0.9-1.5s-0.7-0.3-1.5-0.6c-0.8-0.2-1.6-0.5-1.8-0.5c-0.4-0.1-0.4-0.1-0.5,2.1
	c0,2,0,2.3,0.2,2.2C44.5,49.3,45,49.1,45.4,49z M50.9,47.1l1.2-0.5l-1.3-0.1c-0.7-0.1-1.5-0.2-1.8-0.3c-0.5-0.1-0.6-0.1-1.3,1
	c-0.4,0.6-0.9,1.2-0.9,1.3C46.7,48.7,48.8,48,50.9,47.1L50.9,47.1z M111.6,47.2c-0.2-0.6-1.1-4-1.3-4.7l-0.1-0.7l-1.3,0.7
	c-0.7,0.4-1.8,0.9-2.3,1.1s-1,0.5-1,0.6c0,0.1,2.4,2.4,3.3,3c0.5,0.3,0.8,0.4,1.7,0.4C111.6,47.6,111.7,47.5,111.6,47.2L111.6,47.2z
	 M108.1,47.1c-0.4-0.3-1.5-1.3-2.5-2.2l-0.7-0.6l-2.2,0.6c-1.2,0.4-2.4,0.6-2.6,0.6c-0.7,0-0.1,0.3,1.5,0.7c2,0.5,5.1,1.1,6.1,1.1
	C108.4,47.4,108.4,47.3,108.1,47.1L108.1,47.1z M118.4,46.9c6.4-1.2,12-3.9,15.8-7.6c3.2-3.1,4.6-5.9,4.5-8.8
	c-0.1-1.2-0.1-1.5-0.6-2.2c-1.2-1.7-3.6-2.3-6.3-1.3c-4.9,1.7-9.8,6.8-12.9,13.6c-1.1,2.5-2.4,6.6-2.1,6.6
	C116.8,47.2,117.6,47.1,118.4,46.9L118.4,46.9z M59.3,46.3c2.3-0.2,6.3-0.9,5.8-1.1c-0.7-0.2-3.6-1.1-4.9-1.7L58.9,43l-1.3,0.9
	c-1.7,1.1-3.6,2.2-3.8,2.2c-0.1,0,0,0.1,0.3,0.2C54.9,46.5,57.1,46.5,59.3,46.3z M53.9,45.6c0.7-0.4,1.7-0.9,2.2-1.3
	s1.3-0.8,1.7-1.1l0.7-0.5l-1.7-0.9c-1.9-1.1-3.3-2-4-2.6l-0.5-0.4l-1.2,2.4c-0.7,1.3-1.3,2.6-1.4,2.8c-0.8,1.3-1,1.7-0.8,1.7
	c0.1,0,0.9,0.1,1.8,0.3c0.8,0.1,1.6,0.3,1.7,0.3C52.5,46.3,53.2,46,53.9,45.6z M79.8,45.6c1-0.2,1.9-0.3,2.1-0.4s-0.7-0.4-1.9-0.9
	c-1.2-0.4-2.9-1.1-3.8-1.5l-1.6-0.8L72.8,43c-1,0.5-2.7,1.2-3.8,1.6l-2,0.7l1.4,0.2C72,46.1,76.3,46.2,79.8,45.6L79.8,45.6z
	 M97,45.8c0.5-0.1,0.9-0.2,0.9-0.2c0-0.1-0.4-0.3-0.9-0.5c-1.1-0.4-4.2-2-5-2.5c-0.6-0.4-0.6-0.4-1.2,0c-1,0.5-4.7,2-5.7,2.2
	c-0.5,0.1-0.8,0.3-0.8,0.4c0.1,0.1,2.6,0.5,4.8,0.8C90,46.1,95.9,46,97,45.8L97,45.8z M102.3,44.6c1.1-0.3,2-0.6,2.1-0.7
	c0.1,0-0.4-0.7-1.1-1.4c-1.2-1.3-2.8-3.3-3.8-4.8c-0.3-0.4-0.6-0.9-0.6-0.9c0,0-0.4,0.2-0.8,0.6c-1.5,1.4-5.7,4.4-6.1,4.4
	c-0.1,0-0.1,0.1-0.1,0.2c0,0.2,4.7,2.5,5.9,3C98.7,45.5,99.9,45.3,102.3,44.6L102.3,44.6z M68.6,44.3c2.1-0.8,4-1.6,4.9-2.1l0.6-0.4
	l-1-0.6c-1.7-1.1-4.2-3-5.5-4.3l-1.3-1.3l-0.6,0.8c-0.8,1.1-4.3,4.6-5.6,5.6l-1,0.7l0.8,0.3c1.4,0.6,5.5,1.9,6.1,1.9
	C66.4,45,67.5,44.7,68.6,44.3L68.6,44.3z M85,44.5c1.8-0.6,5.1-1.9,5.6-2.2c0.3-0.2,0.2-0.3-0.4-0.7c-1.7-1.1-3.9-3-5.5-4.6L83,35.2
	L82,36.3c-1.4,1.5-3.7,3.4-5.4,4.5c-0.8,0.5-1.4,1-1.3,1c0.3,0.4,7,3.1,7.9,3.1C83.2,45,84,44.8,85,44.5L85,44.5z M43.8,42.4
	c-0.2-3.3-1-7.2-2.2-10.5c-2.3-6.5-7.1-11.7-10.9-11.9c-1.4-0.1-2.1,0.2-3,1c-1,1-1.5,2.2-1.5,4c0,5.8,5.2,12.8,12.5,16.9
	c1.7,0.9,4.8,2.4,5.1,2.4C43.8,44.3,43.8,43.5,43.8,42.4z M113.6,39.1c5.8-4.4,9.7-11.1,9.8-16.7c0-3.2-1.1-5.5-3.1-6.4
	c-2.6-1.2-5.9,1-8,5.5c-0.9,1.8-1.2,2.8-1.8,5.2c-0.9,3.9-1,9.2-0.2,13.4l0.2,1.1l1-0.7C112,40.2,113,39.5,113.6,39.1L113.6,39.1z
	 M52.9,35.9c0.4-1.1,0.9-3.1,1.2-4.2c0.4-1.9,0.5-2.6,0.5-5.8c0-3.2,0-3.8-0.4-5.3c-1-4-3.3-6.8-5.9-7.3C46.3,13,44,15,43.2,18
	c-1.2,4.2,0.4,10.2,4.1,15.1c1.4,1.9,4.5,5.1,4.8,5C52.2,38,52.6,37.1,52.9,35.9L52.9,35.9z M101.9,32.7c4.8-6.8,5.7-14.7,2.1-18.7
	c-2.5-2.8-6-1.8-8,2.3c-1,2.1-1.4,4.1-1.2,7c0.2,3.6,1,6.7,3,10.6l1.2,2.4l1-1.1C100.5,34.5,101.4,33.4,101.9,32.7z M67.1,33.9
	c4.9-7.3,5.7-16.2,1.9-20.2c-3.5-3.8-8.2-0.6-8.7,5.9c-0.3,3.7,1.1,8.3,3.8,12.4c0.5,0.8,1,1.4,1,1.5s0.3,0.4,0.6,0.8
	c0.3,0.4,0.6,0.7,0.7,0.7S66.7,34.4,67.1,33.9z M84.7,32.3c3.5-5.3,4.8-10.5,3.6-15.1c-0.6-2.2-1.8-3.9-3.4-4.7
	c-4-2-7.9,3.2-7.2,9.7c0.4,3.9,2,7.9,4.5,11.2c0.5,0.6,0.9,1.1,1,1C83.3,34.3,84,33.4,84.7,32.3L84.7,32.3z"/>
</svg>
