<?xml version="1.0" encoding="UTF-8"?>
<svg id="Layer_2" data-name="Layer 2" xmlns="http://www.w3.org/2000/svg" viewBox="0 0 312.06 315.07">
  <defs>
    <style>
      .cls-1 {
        fill: none;
        stroke: #4e7dff;
        stroke-miterlimit: 10;
        stroke-width: 3px;
      }
    </style>
  </defs>
  <g id="Layer_2-2" data-name="Layer 2">
    <g id="foo">
      <path class="cls-1" d="m310.53,157.54l-2-9-5-8-8-8-11-5-13-3h-14l-16,3-16,6-15,9-14,12-12,13-10,16-8,17-4,18-2,17,2,17,4,15,6,13,9,10,9,8,10,3,10,1,9-3,8-6,5-8,3-11v-12l-3-13-7-14-10-13-12-11-15-10-17-8-18-4-18-2h-18l-18,4-16,7-15,8-11,10-9,12-5,12-2,11,1,11,4,9,7,6,8,4,11,1,11-2,11-6,10-9,9-12,8-14,5-17,2-17-1-19-3-18-6-17-9-17-12-14-12-12-14-8-14-6-14-3-13,1-11,3-9,6-6,7-2,9v10l4,10,7,8,10,8,13,4,15,3,17,1,17-3,17-5,16-8,15-12,13-13,10-15,8-17,5-16,2-16-1-15-4-14-6-11-7-8-9-5-9-2-9,2-9,5-7,8-4,11-2,12v14l4,15,7,15,10,15,13,13,15,11,16,8,18,6,18,3h18l17-3,15-5,13-7,10-10,7-10,4-10v-11l-3-9-6-7-8-5-10-3-12,1-13,4-12,7-12,10-10,13-9,15-6,18-3,18-1,18,3,18,5,18,8,16,9,14,12,11,12,8,13,5,12,2,11-2,9-4,7-7,3-8,1-10-2-11-6-10-10-10-12-8-14-6-17-4-17-1-18,2-18,5-18,8-14,11-14,12-11,14-8,15-5,15-2,14,2,13,4,12,6,9,8,6,9,2h9l9-4,8-7,6-10,5-13,2-15-1-16-4-16-7-16-9-16-12-14-15-12-16-10-17-6-17-3-17-1-15,2-14,4-11,7-8,8-5,10-2,10,2,9,5,8,8,6,10,5,12,1,14-2,14-4,14-8,13-11,12-14,10-15,7-17,5-18,1-19-1-18-4-17-7-15-9-13-10-9-11-7-11-4h-10l-10,3-7,6-5,8-2,10,1,11,4,12,8,12,10,11,14,9,15,7,18,5,18,2,19-2,17-4,18-6,15-9,14-11,10-13,8-13,4-13,1-13-2-11-4-10-7-7-9-3-9-1-10,3-10,6-9,9-7,12-5,15-2,16v17l3,18,7,18,9,16,12,15,13,11,15,10,16,7,16,4,15,1,13-2,12-4,9-7,6-8,3-9-1-9-4-9-7-8-10-6-12-3-14-1-16,2-16,5-15,8-15,11-13,12-10,16-9,16-5,18-3,18,1,17,3,16,6,13,8,11,9,9,10,5,10,1,9-2,8-4,7-8,3-10,1-12-2-13-5-13-9-13-12-13-14-10-16-8-18-6-18-3h-18l-18,3-17,5-15,8-13,10-9,11-7,12-3,11v11l3,10,6,7,8,5,10,2,11-1,11-5,11-8,9-11,9-13,5-16,4-18v-18l-3-18-5-18-8-16-11-15-12-13-14-10-14-7-14-3-13-1-12,3-9,5-7,7-4,8v10l2,10,7,9,9,8,12,6,14,3,16,1,17-2,17-4,17-7,16-11,13-13,11-14,9-16,6-17,3-16v-16l-3-14-6-11-7-10-8-6-9-2h-10l-8,4-8,7-5,10-3,12v14l3,14,6,15,9,15,12,13,14,12,15,10,18,7,18,4,18,1,17-2,16-5,14-7,11-8,8-10,5-11,1-10-2-10-4-8-8-6-10-3-11-1-13,3-12,6-12,9-11,12-9,15-7,17-5,18-1,18,1,18,5,18,7,17,9,15,11,12,12,9,13,6,12,3,11-1,10-3,8-6,4-8,2-10-1-10-5-11-8-10-11-8-14-7-16-5-17-2-18,1-19,5-17,6-15,10-15,12-11,13-10,15-5,15-3,15v13l3,12,5,10,8,7,9,4h9l9-2,8-7,7-9,6-12,3-14v-15l-3-17-6-16-9-16-11-15-14-12-15-11-17-8-17-3-17-2-16,1-14,3-12,6-10,8-6,10-3,9,1,10,4,8,7,8,10,5,11,2,13-1,15-3,14-7,13-10,12-13,11-15,8-17,5-17,3-18v-19l-4-17-6-16-8-14-9-11-11-7-11-5-11-1-10,2-8,5-6,7-3,10v11l3,11,7,12,9,11,13,10,15,8,17,5,18,3h19l17-3,18-6,16-8,15-11,11-12,9-13,5-13,2-13-1-12-3-10-7-8-8-4-9-2-10,1-10,6-9,8-8,11-6,14-3,15v18l2,17,5,18,9,17,11,15,13,13,14,10,16,8,15,5,16,2,14-1,12-4,10-6,7-7,4-9,1-9-3-9-6-8-9-7-12-4-14-2-15,1-15,4-16,7-15,10-14,11-11,15-9,17-7,17-3,18v17l2,17,5,14,7,12,9,9,10,6,10,3,9-1,9-4,7-6,4-10,2-11-1-13-4-13-8-13-11-13-13-11-16-9-17-7-17-4-19-1-19,2-17,5-16,7-13,10-11,10-7,12-4,12-1,11,2,10,5,8,7,6,10,3h10l11-4,11-7,10-10,9-12,7-16,4-17,1-18-1-18-5-19-7-16-10-16-12-13-13-11-14-8-14-5-14-1-12,1-10,5-8,6-5,8-2,10,2,9,5,10,8,8,12,7,13,4,16,2,16-1,18-3,17-6,16-10,14-12,12-14,9-16,7-16,4-17,1-16-2-14-5-13-6-10-8-7-9-4h-9l-10,2-7,6-7,9-3,12-2,13,2,15,5,15,8,14,11,14,14,13,15,10,17,8,18,5,18,2,18-1,16-4,15-6,12-8,9-10,6-10,2-11-1-10-4-8-6-7-9-4-11-2-12,2-13,5-12,8-12,11-10,14-7,16-5,18-3,18,1,18,3,19,6,17,9,15,10,13,12,10,13,7,12,4,12,1,10-3,8-5,6-7,3-10v-10l-4-10-7-11-10-9-13-7-16-6-17-2h-17l-19,3-18,6-15,9-15,11-13,13-10,14-7,15-4,15v14l2,13,4,10,7,8,9,5,9,2,9-2,9-5,7-8,6-12,4-13,1-15-2-16-5-17-8-16-10-15-13-14-15-11-17-8-17-5-17-3-16,1-15,3-13,4-10,8-7,9-4,9v10l2,9,6,7,9,6,11,3,13,1,14-3,14-6,14-9,13-11,11-15,9-16,6-17,3-18,1-19-2-18-5-16-8-14-9-12-11-9-11-6-11-2-10,1-9,4-6,7-4,8-1,11,2,12,5,11,9,12,12,10,14,9,16,6,18,4h19l17-2,19-5,16-7,15-10,13-12,9-12,7-14,3-13v-12l-3-11-5-8-8-6-9-3-10,1-10,3-9,8-9,10-6,13-4,15-2,17,2,17,4,18,8,17,10,16,12,13,14,12,16,9,15,6,16,3h14l13-3,11-5,8-8,5-8"/>
    </g>
  </g>
</svg>