<?xml version="1.0" encoding="utf-8"?>
<!-- Generator: Adobe Illustrator 28.0.0, SVG Export Plug-In . SVG Version: 6.00 Build 0)  -->
<svg version="1.1" id="Layer_1" xmlns="http://www.w3.org/2000/svg" xmlns:xlink="http://www.w3.org/1999/xlink" x="0px" y="0px"
	 viewBox="0 0 225 232.9" style="enable-background:new 0 0 225 232.9;" xml:space="preserve">
<path id="path3448" d="M114.2,145.3c0-0.1-0.1-0.3-0.2-0.6c-0.4-1.9-1.5-4.9-2.8-7.1l-0.3-0.5l-0.2,0.2c-1.5,1.9-3.5,5.4-3.8,7.1
	c-0.1,0.4-0.2,0.6-0.3,0.4c-0.1-0.1-0.1-0.4,0-0.8c0.2-1.9-0.4-5.8-1.2-8c-0.1-0.1-1.1,0.7-2.3,1.9c-1.5,1.4-2.7,3-3.4,4.1
	c-0.3,0.6-0.4,0.4-0.2-0.3c0.2-0.7,0.5-1.9,0.6-2.8c0.3-2.1,0.4-5.4,0.2-5.4c-0.1,0-0.6,0.2-1.1,0.5c-2.1,1.1-4.2,2.4-5.5,3.6
	c-0.4,0.3-0.7,0.6-0.7,0.6c-0.1-0.1,0.1-0.3,0.3-0.6c0.7-1.2,1.3-2.6,1.9-4.3c0.3-0.9,1-3.4,0.9-3.4c0-0.1-2,0.4-2.9,0.6
	c-1.8,0.4-3.6,1.1-4.7,1.8c-0.6,0.4-0.8,0.3-0.4-0.1c0.9-0.8,2.3-2.8,3.4-4.5c0.5-0.9,1.3-2.4,1.2-2.5c-0.1-0.1-2.4-0.2-3.1-0.2
	c-1.7,0-3.8,0.2-4.9,0.6c-0.5,0.2-0.6,0.2-0.6,0.1c0-0.1,0.3-0.2,0.6-0.4c0.6-0.3,1.8-1.2,2.3-1.7c1.2-1.1,2.4-2.2,3.5-3.5l0.2-0.2
	l-0.7-0.2c-2.1-0.8-4.9-1.3-6.9-1.5c-0.5,0-1,0-1,0s0-0.1,0.1-0.1c0,0,0.3-0.2,0.7-0.2c1.3-0.3,3.2-1.2,4.6-2
	c0.7-0.4,2.5-1.6,2.5-1.7c0,0-1.9-1.2-2.5-1.7c-1.4-0.8-3.3-1.7-4.6-2c-0.3-0.1-0.6-0.2-0.7-0.2c-0.1,0-0.1,0-0.1,0
	c0.1,0,0.5-0.1,1-0.1c2,0,4.8-0.6,6.9-1.4c0.6-0.2,0.7-0.3,0.6-0.3c0-0.1-0.2-0.3-0.4-0.5c-0.8-1-2-2.1-3.2-3.2
	c-0.5-0.4-1.8-1.3-2.3-1.7c-0.4-0.2-0.6-0.3-0.6-0.4c0-0.1,0.1-0.1,0.6,0.1c1.1,0.3,3.2,0.6,4.9,0.6c0.8,0,3.1-0.2,3.1-0.2
	c0.1-0.1-0.3-0.6-0.8-1.6c-1-1.8-2.3-3.7-3.5-5c-0.4-0.4-0.7-0.7-0.7-0.8c0.1,0,0.3,0.1,0.6,0.3c1.1,0.6,3,1.3,4.7,1.8
	c0.8,0.2,2.9,0.6,2.9,0.6c0.1,0-0.1-0.6-0.3-1.2c-0.7-2.8-1.6-5.2-2.6-6.8c-0.2-0.2-0.2-0.4-0.2-0.4c0,0,0.3,0.2,0.7,0.6
	c1.2,1.2,3.3,2.6,5.5,3.6c0.6,0.3,1.1,0.5,1.2,0.5c0.2,0,0.2-3.3-0.2-5.4c-0.2-0.8-0.4-2.1-0.6-2.8c-0.2-0.7-0.2-0.9,0.2-0.3
	c0.5,0.9,1.7,2.3,2.7,3.4c1.2,1.2,3,2.8,3,2.7c0.1-0.1,0.5-1.6,0.6-2.4c0.4-2,0.7-4.3,0.6-5.5c-0.1-0.4-0.1-0.7,0-0.8
	c0.1-0.1,0.2,0.1,0.3,0.5c0.4,1.6,2.3,5.2,3.8,7.1l0.2,0.2l0.3-0.5c0.5-1,1.4-2.8,1.8-3.7c0.5-1.5,0.8-2.2,1-3.3
	c0.1-0.4,0.2-0.8,0.2-0.8c0,0,0.1,0.3,0.1,0.7c0.1,1.4,0.4,2.9,0.9,4.7c0.3,1.1,1.1,3,1.2,3.2c0.1,0.1,0.2,0,1-0.9
	c0.4-0.4,1.2-1.4,1.8-2.1c0.6-0.8,1.5-2.2,2-3.2c0.5-1,0.7-1.2,0.6-0.5c-0.4,1.9-0.4,5,0,8l0.1,0.6l0.7-0.4c0.8-0.6,1.9-1.3,2.8-2
	c0.8-0.7,2.3-2.1,2.8-2.8c0.2-0.3,0.4-0.5,0.4-0.5c0.1,0,0.1,0.2-0.1,0.5c-0.8,1.7-1.5,4.6-1.8,7.3l-0.1,0.8l0.2,0
	c0.4-0.1,2.2-0.7,3.1-1.1c1.6-0.7,3.1-1.6,4.1-2.3c0.4-0.3,0.6-0.3,0.3,0c-0.6,0.7-1.6,2.2-2.3,3.7c-0.8,1.5-1.7,3.8-1.6,3.9
	c0.1,0,2.4-0.1,3.4-0.3c1.8-0.2,3.3-0.7,4.4-1.2c0.3-0.2,0.6-0.2,0.6-0.2c0.1,0.1-0.2,0.3-0.6,0.5c-1.3,1-3,2.8-4.2,4.5
	c-0.7,1-1.1,1.6-1.1,1.6c0.1,0.1,1.6,0.4,2.8,0.6c1.9,0.3,4.4,0.3,5.6,0c0.3,0,0.4,0,0.3,0.1c-0.1,0.1-0.2,0.2-0.4,0.2
	c-0.9,0.3-2.4,1.1-3.7,2c-1.2,0.8-3.2,2.4-3.1,2.5c0.1,0.1,1.8,1,2.6,1.2c1.7,0.7,3.4,1.2,4.7,1.3c0.4,0.1,0.8,0.2,0.8,0.2
	c0,0.1-0.3,0.1-0.8,0.2c-1.4,0.2-3.3,0.8-5.1,1.6c-0.7,0.3-2.1,1-2.2,1.1c-0.1,0,0.2,0.2,0.4,0.4c1.9,1.8,4.2,3.3,6,4
	c0.3,0.2,0.6,0.3,0.7,0.3c0.1,0.1,0.1,0.2-0.1,0.2c-0.1,0-0.4-0.1-0.7-0.1c-0.7-0.1-2.9-0.1-3.9,0c-1.3,0.2-3.8,0.6-3.9,0.7
	c-0.1,0.1,0.2,0.3,0.4,0.7c1.5,2.2,3.3,4.2,4.9,5.4c0.4,0.2,0.6,0.4,0.6,0.5c0,0.1-0.3-0.1-0.6-0.1c-1.2-0.5-3-0.9-4.7-1.2
	c-1-0.2-2.3-0.2-2.8-0.2c-0.4,0-0.4-0.1-0.1,0.9c0.6,1.6,1.5,3.6,2.2,4.7c0.4,0.7,1.1,1.7,1.4,1.9c0.3,0.4,0.1,0.4-0.3,0.1
	c-1.1-0.8-2.6-1.6-4.1-2.3c-0.9-0.4-2.7-1.1-3.1-1.1l-0.2-0.1l0.1,0.8c0.3,2.9,1.1,5.8,1.8,7.4c0.2,0.4,0.2,0.6,0.1,0.6
	c-0.1,0-0.2-0.2-0.4-0.6c-0.6-0.6-1.9-2.1-2.8-2.8c-0.8-0.6-1.9-1.4-2.8-1.9l-0.7-0.4l-0.1,0.6c-0.4,3.1-0.4,6.1,0,8.1
	c0.2,0.6-0.1,0.4-0.6-0.5c-0.4-0.9-1.3-2.4-2-3.2c-0.5-0.7-1.2-1.4-1.6-1.9c-0.9-1-1-1.1-1.1-1.1c0,0.1-0.2,0.5-0.4,1.1
	c-0.9,2.2-1.6,4.9-1.7,6.8C114.3,145.3,114.2,145.6,114.2,145.3L114.2,145.3z M114.7,141.3c0.3-1.4,0.9-3.1,1.6-4.7
	c0-0.1-0.5-0.6-2.3-2.3l-0.4-0.3l-0.3,0.3c-1.1,1.2-2.1,2.4-2.1,2.5c0,0.1,0.2,0.3,0.3,0.6c1,1.7,2.2,4.6,2.6,6.2l0.2,0.5l0.2-1
	C114.4,142.7,114.6,141.8,114.7,141.3L114.7,141.3z M106.9,143.8C106.9,143.8,106.9,143.8,106.9,143.8
	C106.8,143.8,106.8,143.8,106.9,143.8C106.8,143.9,106.9,143.9,106.9,143.8C106.9,143.8,106.9,143.8,106.9,143.8z M107.9,141.5
	c0.8-1.5,1.6-2.9,2.6-4.1l0.4-0.6l-0.2-0.2c-0.2-0.3-0.6-1.1-0.8-1.3c-0.1-0.1-0.3-0.5-0.6-0.9c-0.3-0.4-0.5-0.7-0.6-0.7
	c-0.2,0-3,2.1-3,2.1c0,0.1,0,0.3,0.2,0.5c0.6,2,0.9,4.2,1,6.4l0.1,0.9l0.2-0.6C107.2,142.8,107.6,142.1,107.9,141.5z M121.2,142.3
	c-0.2-1.5-0.2-4.1,0.1-6.1c0.2-1.5,0.2-1.3-0.4-1.8c-1-0.6-2.7-1.3-2.7-1.3c-0.1,0.1-1.3,2.6-1.6,3.1c-0.1,0.2-0.1,0.2,0.2,0.5
	c0.2,0.1,0.3,0.3,0.3,0.3c0.3,0.2,1.6,1.8,2.2,2.6c0.4,0.5,1.4,2.1,1.7,2.6c0.2,0.2,0.2,0.4,0.2,0.4
	C121.3,142.8,121.3,142.6,121.2,142.3L121.2,142.3z M100.5,140.8c1.1-1.5,3-3.4,4.4-4.6c0.3-0.2,0.5-0.4,0.5-0.4
	c0-0.1-0.4-1.4-0.8-2.5l-0.4-1.1l-1.1,0.4c-0.6,0.2-1.3,0.5-1.7,0.6l-0.6,0.3l0,0.9c0.1,2.1-0.2,4.9-0.7,6.8
	C100,141.4,100,141.4,100.5,140.8L100.5,140.8z M127.7,139.2c-0.6-1.6-1.1-3.8-1.3-6c-0.2-1.4-0.1-1.3-1.1-1.6
	c-1.3-0.3-2.6-0.6-2.7-0.5c-0.1,0.1-0.8,3.2-0.8,3.6c0,0.1,0.1,0.1,0.2,0.2c1.7,0.9,3.8,2.6,5.2,4.1c0.3,0.4,0.6,0.6,0.6,0.6
	C127.9,139.6,127.8,139.4,127.7,139.2L127.7,139.2z M95.4,136.2c1.3-0.9,3.2-2.1,4.8-2.7l0.4-0.2l0-0.7c-0.1-0.8-0.2-1.7-0.2-2.5
	l-0.1-0.6l-0.8,0.1c-1,0.1-2.8,0.2-2.8,0.3c0,0.1-0.2,0.6-0.3,1.3c-0.5,2.1-1.2,3.9-1.9,5.4l-0.4,0.8l0.3-0.3
	C94.4,136.9,94.9,136.5,95.4,136.2L95.4,136.2z M111.6,136c0.2-0.2,0.3-0.4,0.3-0.4c0.1-0.1,0.2-0.2,0.4-0.4
	c0.2-0.2,0.4-0.4,0.5-0.6c0.1-0.2,0.3-0.3,0.4-0.4l0.2-0.2l-0.5-0.3c-0.2-0.2-0.4-0.4-0.5-0.4c0-0.1-0.2-0.1-0.2-0.1
	c-0.1-0.1-0.2-0.2-0.2-0.2c0-0.1-0.2-0.1-0.4-0.3c-0.3-0.2-0.3-0.2-0.5-0.1c-0.1,0.1-0.4,0.2-0.7,0.4c-0.5,0.3-0.8,0.4-1.2,0.7
	c-0.2,0.1-0.2,0.1,0.3,0.9c0.7,1.1,0.8,1.1,1.2,1.7c0.2,0.3,0.3,0.6,0.3,0.6C110.9,136.7,111.1,136.5,111.6,136L111.6,136z M117,135
	c0.3-0.6,0.6-1.2,0.8-1.5l0.3-0.5l-1-0.4c-0.6-0.2-1.2-0.4-1.2-0.5c-0.2-0.1-0.3,0.1-1.1,0.8c-0.5,0.5-0.9,0.9-0.9,0.9
	c0,0.1,0.4,0.4,0.9,0.9s1.1,1,1.3,1.2c0.4,0.3,0.4,0.4,0.5,0.2C116.5,136.1,116.8,135.6,117,135z M107.3,134.4
	c0.5-0.3,1-0.6,1.1-0.7c0.2-0.1,0.2-0.1,0.2-0.1c0-0.1-0.8-1.1-1.4-1.8c-0.1-0.2-0.3-0.3-0.3-0.3c-0.1,0-2.4,0.6-2.5,0.6
	c0,0.1,0.2,0.5,0.3,1.1c0.2,0.6,0.5,1.3,0.6,1.7c0.1,0.3,0.2,0.6,0.2,0.7c0.1,0.1,0.2-0.1,0.5-0.3
	C106.2,135.1,106.8,134.7,107.3,134.4L107.3,134.4z M133.2,134.5c-1.1-1.6-2.4-4.2-3.1-6.3l-0.1-0.4l-1.7,0.1
	c-0.9,0.1-1.7,0.1-1.8,0.1l-0.2,0.1v1.3c0,0.8,0.1,1.6,0.1,1.9l0.1,0.5l1.3,0.4c2.2,0.7,4.3,1.7,5.5,2.6c0.2,0.1,0.3,0.2,0.4,0.2
	C133.6,134.9,133.4,134.7,133.2,134.5L133.2,134.5z M121.6,134.4c0.1-0.1,0.1-0.6,0.2-1.1s0.3-1.2,0.4-1.6c0.1-0.4,0.2-0.8,0.2-0.8
	c-0.1-0.1-1.8-0.2-2.3-0.3c-0.3-0.1-0.3-0.1-0.4,0.2c0,0.1-0.3,0.5-0.5,0.8c-0.4,0.6-0.7,1.2-0.7,1.2c0,0,0.2,0.1,0.3,0.2
	c0.8,0.3,2.3,1.1,2.7,1.3C121.6,134.6,121.6,134.6,121.6,134.4L121.6,134.4z M114.1,133.1c0.3-0.3,0.8-0.7,0.9-0.9
	c0.2-0.2,0.3-0.3,0.3-0.3c0-0.1-0.5-0.2-1-0.4c-0.6-0.2-1-0.3-1.1-0.3c-0.2,0.1-1.3,0.6-1.6,0.8l-0.2,0.2l0.4,0.2
	c0.2,0.1,0.7,0.4,1,0.8c0.4,0.3,0.7,0.5,0.7,0.5C113.5,133.8,113.8,133.4,114.1,133.1L114.1,133.1z M109.5,133
	c0.4-0.2,0.8-0.5,1.1-0.6c0.2-0.1,0.4-0.2,0.4-0.2s-0.9-0.6-1.5-1l-0.3-0.1l-1,0.2c-0.5,0.1-1,0.2-1,0.2c-0.1,0.1,0.2,0.3,0.5,0.7
	c0.3,0.3,0.7,0.8,0.8,1c0.2,0.1,0.3,0.3,0.3,0.3C108.8,133.4,109.1,133.2,109.5,133L109.5,133z M101.4,133c0.3-0.2,1-0.4,1.6-0.6
	c0.6-0.2,1-0.4,1.1-0.4c0-0.1-0.3-0.9-0.8-1.8l-0.3-0.7h-1.3h-1.3l0.1,0.3c0,0.4,0.2,2.1,0.3,2.8c0.1,0.4,0.1,0.6,0.1,0.6
	C100.8,133.2,101,133.1,101.4,133L101.4,133z M118.4,132.5c0.2-0.4,0.8-1.4,0.9-1.6c0.1-0.1,0.1-0.2,0.2-0.2
	c0.1-0.2,0.1-0.2-1.4-0.3l-0.6-0.1l-0.8,0.6c-0.8,0.7-0.9,0.8-0.8,0.8c0.1,0,1.6,0.6,2.1,0.9c0.2,0.1,0.3,0.1,0.3,0.1
	C118.2,132.8,118.2,132.7,118.4,132.5z M112.2,131.6l0.9-0.4l-0.8-0.2c-0.4-0.1-0.9-0.2-1.1-0.2c-0.3,0-1.5,0.2-1.6,0.2
	c0,0.1,1.5,1.1,1.6,1.1C111.2,132,111.7,131.8,112.2,131.6L112.2,131.6z M90.2,131.3c1.5-0.6,3-1.1,4.9-1.4l1.2-0.2l0.1-0.6
	c0.1-0.6,0.3-2,0.4-2.8c0-0.4,0.1-0.3-0.9-0.6c-1.1-0.2-2.7-0.4-2.7-0.4c0,0.1-0.2,0.3-0.3,0.7c-1.2,2.2-2.2,3.8-3.3,5.2
	c-0.7,0.8-0.7,0.8-0.3,0.6C89.3,131.7,89.8,131.5,90.2,131.3z M105.6,131.6l1.2-0.3l-0.3-0.3c-0.2-0.1-0.5-0.6-0.7-0.8l-0.5-0.5
	l-0.5-0.1c-0.7-0.1-1.6-0.1-1.5,0c0,0.1,0.2,0.3,0.3,0.7c0.2,0.3,0.4,0.8,0.5,1.1c0.2,0.3,0.2,0.6,0.3,0.6
	C104.3,131.9,104.9,131.7,105.6,131.6z M116.1,131.3c0.3-0.2,0.6-0.6,0.7-0.6c0.1-0.1,0.2-0.2,0.2-0.2c0-0.1-0.4-0.1-0.8-0.1h-0.8
	l-0.8,0.3c-0.4,0.2-0.8,0.4-0.7,0.4c0,0.1,1.7,0.6,1.8,0.6C115.5,131.8,115.8,131.6,116.1,131.3L116.1,131.3z M126.2,129.8
	c-0.1-1.1-0.1-1.8-0.1-1.9c-0.1-0.1-1.5,0.2-2.2,0.3l-0.4,0.1l-0.3,0.9c-0.2,0.5-0.3,1.1-0.4,1.2c-0.2,0.4-0.1,0.5,0.1,0.6
	c1.5,0.3,3.2,0.7,3.3,0.8C126.2,131.6,126.2,130.8,126.2,129.8L126.2,129.8z M108.1,131c0.7-0.2,0.8-0.2,0.7-0.2
	c0-0.1-0.4-0.3-0.8-0.4c-0.6-0.4-0.8-0.4-1.3-0.4c-0.3-0.1-0.7-0.1-0.9-0.1l-0.3-0.1l0.7,0.8c0.6,0.6,0.7,0.8,0.8,0.7
	C107.2,131.2,107.7,131.1,108.1,131L108.1,131z M114.2,130.6c0.2-0.1,0.3-0.1,0.3-0.1c-0.1-0.1-0.5,0-1.1,0.1
	c-0.5,0.1-1.2,0.1-1.2,0.1c-0.4,0-0.2,0.1,0.4,0.3l0.7,0.1l0.3-0.1C113.8,130.8,114.1,130.7,114.2,130.6L114.2,130.6z M110.2,130.4
	c-0.7-0.1-2.1-0.4-2.1-0.4c-0.1,0.1,0.2,0.1,0.3,0.2c0.2,0.1,0.4,0.3,0.6,0.3c0.2,0.2,0.2,0.2,0.9,0.1l0.7-0.1L110.2,130.4
	L110.2,130.4z M122.8,129.4c0.2-0.4,0.3-0.9,0.3-1c0.1-0.1,0.1-0.1-1.1,0.1l-0.9,0.2l-0.4,0.6c-0.2,0.3-0.5,0.7-0.7,0.9l-0.2,0.3
	l0.2,0.1c0.5,0.1,2.3,0.3,2.3,0.4c0.1,0.1,0.1-0.1,0.1-0.3C122.6,130.3,122.8,129.8,122.8,129.4L122.8,129.4z M112.5,130.4
	c0.4-0.1,1.2-0.1,1.8-0.1l1.1-0.1l1.8-0.6c1.8-0.6,2.1-0.7,2.4-1c0.3-0.2,0.3-0.2,0.8-0.6c0.3-0.2,0.5-0.3,0.5-0.3
	c0.1-0.1,0.2-0.1,0.3-0.2s0.2-0.2,0.3-0.2s0.2-0.1,0.2-0.2c0.3-0.2,0.7-0.4,0.8-0.6c0.1-0.1,0.2-0.3,0.4-0.4
	c0.2-0.2,0.4-0.4,0.6-0.7c0.2-0.2,0.6-0.7,1-1.1c0.6-0.6,0.7-0.8,1-1.4c0.2-0.4,0.6-1.2,0.9-1.8c0.5-0.8,0.6-1,0.7-1.7
	c0.2-0.9,0.6-2.6,0.7-2.8c0.1-0.2,0.1-1,0.1-2.4s-0.1-2.3-0.1-2.4c-0.1-0.3-0.6-1.9-0.7-2.8c-0.2-0.7-0.2-0.8-0.6-1.6
	c-0.2-0.4-0.7-1.2-0.9-1.7c-0.4-0.8-0.6-1.1-1.1-1.6c-0.3-0.3-0.8-0.8-1-1.1c-0.2-0.2-0.4-0.5-0.6-0.7c-0.2-0.2-0.3-0.3-0.4-0.4
	c-0.2-0.2-0.6-0.4-0.8-0.6c-0.1,0-0.2-0.2-0.2-0.2c-0.1,0-0.2-0.1-0.3-0.2c-0.2,0-0.2-0.2-0.3-0.2c-0.1,0-0.2-0.2-0.5-0.3
	c-0.5-0.3-0.5-0.3-0.8-0.6c-0.3-0.3-0.5-0.3-2.4-1l-1.8-0.6l-1,0c-0.5-0.1-1.4-0.1-2-0.2l-1.1-0.1l-0.9,0.2
	c-0.6,0.1-1.4,0.3-1.9,0.4c-1,0.2-1,0.2-2,0.7c-0.6,0.3-1.3,0.7-1.8,0.8c-0.7,0.3-0.8,0.4-1.6,1.1c-0.5,0.4-1.2,1-1.5,1.3
	c-0.5,0.5-0.7,0.6-1.2,1.4c-0.3,0.5-0.7,1-0.7,1.1c-0.1,0.1-0.2,0.3-0.3,0.4c0,0.1-0.3,0.3-0.4,0.6c-0.2,0.2-0.3,0.6-0.5,1.1
	c-0.2,0.4-0.5,1.2-0.7,1.9c-0.4,1.1-0.4,1.2-0.5,2c-0.1,0.5-0.2,1.3-0.2,2.1l-0.2,1.2l0.2,1.2c0.1,0.7,0.2,1.6,0.2,2
	c0,0.7,0.1,0.9,0.4,1.7c0.2,0.4,0.5,1.3,0.7,1.9c0.3,0.8,0.5,1.2,0.7,1.4c0.2,0.2,0.3,0.4,0.4,0.6c0.1,0.1,0.2,0.3,0.3,0.4
	c0,0.1,0.4,0.6,0.7,1.1c0.6,0.8,0.7,0.9,1.2,1.4c0.3,0.3,1,0.8,1.5,1.3c0.8,0.7,0.9,0.8,1.6,1.1c0.4,0.2,1.2,0.6,1.8,0.9
	c1,0.6,1,0.6,2.2,0.7c0.6,0.1,1.4,0.3,1.8,0.3C111.2,130.5,111.4,130.5,112.5,130.4L112.5,130.4z M119.9,130
	c0.1-0.2,0.2-0.4,0.3-0.4c0.3-0.3,0.7-0.9,0.6-0.9s-0.4,0.1-0.8,0.2c-0.8,0.2-0.9,0.2-1.8,0.9l-0.4,0.3l0.3,0.1
	c0.3,0.1,0.7,0.1,1.5,0.1C119.7,130.4,119.7,130.4,119.9,130z M117.8,129.9c0.3-0.2,0.5-0.4,0.5-0.4c-0.1-0.1-1.8,0.6-2.2,0.7
	c-0.2,0.1-0.2,0.1,0.6,0.1h0.7L117.8,129.9L117.8,129.9z M98.2,129.5c0.6-0.1,1.2-0.1,1.4-0.1c0.4,0,0.4-0.1,0.4-0.1
	c0-0.2-0.4-2.3-0.4-2.5c-0.1-0.1-0.3-0.2-0.8-0.3c-1.2-0.3-1.7-0.4-1.8-0.4c0,0.1-0.1,0.5-0.2,1.1c-0.2,1-0.3,2-0.4,2.4
	c0,0.1,0,0.1,0.3,0.1C97.1,129.6,97.7,129.5,98.2,129.5L98.2,129.5z M106.6,129.5c-0.3-0.2-2-1.1-2.2-1.1c0,0,0.2,0.2,0.5,0.5
	l0.5,0.5l0.5,0.1C106.2,129.5,106.5,129.5,106.6,129.5C106.8,129.6,106.8,129.6,106.6,129.5L106.6,129.5z M105,129.4
	c0-0.1-0.3-0.3-0.7-0.6c-0.7-0.6-0.7-0.6-2.1-1.2c-0.1-0.1,0,0.1,0.1,0.3c0.1,0.2,0.3,0.6,0.5,0.9l0.3,0.6l0.7,0.1
	c0.3,0.1,0.8,0.1,0.9,0.1C104.9,129.4,105,129.4,105,129.4L105,129.4z M118.5,129.4C118.5,129.3,118.4,129.3,118.5,129.4
	C118.4,129.3,118.4,129.4,118.5,129.4C118.4,129.4,118.4,129.4,118.5,129.4C118.4,129.4,118.5,129.4,118.5,129.4z M102.8,129.3
	c0-0.1-0.8-1.6-0.9-1.7c-0.2-0.2-0.3-0.3-1.1-0.5c-0.5-0.2-0.9-0.3-0.9-0.3c-0.1,0.1,0,0.6,0.2,1.2l0.2,1.2h1.2
	C102.2,129.3,102.8,129.3,102.8,129.3L102.8,129.3z M120.4,128.6l0.6-0.1l0.4-0.6c0.2-0.3,0.4-0.6,0.4-0.6c-0.3,0.2-2.3,1.5-2.2,1.4
	C119.7,128.8,120.1,128.7,120.4,128.6L120.4,128.6z M137.2,128.3c-1.4-1.2-2.9-3.1-4.2-4.9c-0.2-0.3-0.4-0.6-0.4-0.6
	c-0.3,0-3.5,1-3.5,1.1s0.5,1.9,0.7,2.6c0.1,0.4,0.2,0.8,0.2,0.8c0.1,0.2,0.1,0.2,1,0.2c2.2,0.1,4.8,0.5,6.2,1
	c0.2,0.1,0.4,0.2,0.4,0.2C137.8,128.7,137.6,128.5,137.2,128.3L137.2,128.3z M122.5,128.2c0.5-0.1,0.8-0.1,0.9-0.1
	c0,0,0.1-0.3,0.2-0.7s0.3-0.8,0.3-0.9l0.2-0.3l-0.6,0.3c-1,0.6-1.1,0.6-2,1.8c-0.2,0.3-0.2,0.3-0.1,0.3
	C121.5,128.3,122,128.3,122.5,128.2L122.5,128.2z M125.4,127.7l0.7-0.1l0.1-1c0.1-0.6,0.1-1.2,0.1-1.3c0.1-0.2,0.1-0.3-0.1-0.3
	c-0.1,0-1.8,0.8-1.8,0.9c-0.1,0.1-0.8,1.8-0.8,1.9c0,0.1,0.2,0.1,0.6-0.1C124.5,127.8,125,127.8,125.4,127.7L125.4,127.7z
	 M103.4,127.7C103.4,127.7,103.3,127.7,103.4,127.7C103.3,127.7,103.3,127.7,103.4,127.7C103.3,127.8,103.3,127.8,103.4,127.7
	C103.4,127.8,103.4,127.8,103.4,127.7z M103.2,127.6c0-0.1-0.8-0.7-1-0.8c-0.3-0.2-0.8-0.7-0.8-0.7c0,0.1,0.1,0.2,0.2,0.3
	s0.2,0.4,0.3,0.6c0.2,0.3,0.2,0.3,0.8,0.6c0.3,0.2,0.7,0.2,0.7,0.2C103.2,127.7,103.2,127.6,103.2,127.6L103.2,127.6z M128.2,127.5
	c1.6-0.1,1.6-0.1,1.6-0.2c-0.1-0.1-0.1-0.4-0.2-0.7c-0.1-0.3-0.3-1.1-0.4-1.7s-0.3-1.1-0.3-1.1s-0.1,0.1-0.2,0.1
	c-0.1,0.1-0.4,0.2-0.7,0.3c-0.3,0.1-0.6,0.2-0.7,0.3s-0.4,0.2-0.5,0.2c-0.2,0.1-0.2,0.1-0.3,0.5c-0.1,0.2-0.1,0.8-0.1,1.4l-0.1,1
	l0.2-0.1C126.6,127.6,127.3,127.6,128.2,127.5L128.2,127.5z M101.6,126.9c-0.1-0.1-0.2-0.3-0.3-0.6c-0.1-0.2-0.3-0.4-0.3-0.6
	c-0.1-0.2-0.2-0.3-0.3-0.4c-0.2-0.1-0.3-0.2-0.3-0.2c0-0.1-0.2-0.2-0.4-0.3s-0.3-0.3-0.4-0.3c-0.1-0.1,0,0.1,0.2,1
	c0.2,0.5,0.3,0.9,0.3,1c0.1,0.1,1.6,0.6,1.7,0.6C101.6,127.1,101.6,127,101.6,126.9L101.6,126.9z M99.5,126.3c0-0.1-0.1-0.6-0.3-1.1
	l-0.3-1l-0.8-0.6c-0.7-0.4-0.8-0.6-0.9-0.4c-0.1,0.1-0.1,0.6-0.1,1.2c-0.1,0.6-0.1,1.2-0.1,1.2c-0.1,0.2,0,0.2,0.6,0.3
	c0.3,0.1,0.9,0.2,1.2,0.3C99.5,126.4,99.5,126.4,99.5,126.3z M124.2,125.6c0.1-0.1,0.2-0.4,0.3-0.7l0.2-0.6l-0.5,0.6
	c-0.4,0.5-0.8,0.9-1.2,1.3c-0.1,0.2,0,0.1,0.5-0.2C124,125.9,124.2,125.7,124.2,125.6z M96.9,125.6c0.1-0.1,0.1-0.6,0.1-1.1
	c0.1-0.5,0.1-1.1,0.1-1.2l0-0.3l-0.6-0.3c-0.3-0.2-0.8-0.5-1.2-0.7l-0.6-0.3l0,0.2c-0.2,0.6-1,2.5-1.2,2.8c-0.1,0.2-0.2,0.4-0.2,0.4
	s0.4,0.1,0.9,0.2C95,125.3,96.1,125.5,96.9,125.6C96.8,125.7,96.9,125.6,96.9,125.6z M125.3,125.2c0.4-0.2,0.8-0.4,0.9-0.4
	c0.1-0.1,0.2-0.3,0.2-1.1c0.1-0.6,0.1-1,0.1-1s-0.3,0.3-0.7,0.6c-0.7,0.6-0.7,0.7-1,1.4c-0.2,0.4-0.3,0.8-0.3,0.8
	C124.6,125.6,124.8,125.4,125.3,125.2L125.3,125.2z M86.4,125.1c0.8-0.2,2.3-0.2,3.3-0.2c0.8,0,2.7,0.1,3.1,0.2
	c0.2,0.1,0.2-0.1,0.4-0.5c0.2-0.6,1.1-2.6,1.2-2.8c0.1-0.2,0-0.2-0.9-0.6c-0.5-0.2-1.2-0.6-1.7-0.8l-0.7-0.3l-1.1,1.1
	c-1.5,1.7-2.8,2.8-4.3,3.8c-0.5,0.3-0.5,0.3-0.2,0.3C85.7,125.3,86.1,125.2,86.4,125.1L86.4,125.1z M99.9,124.4
	c-0.2-0.3-0.5-0.7-0.6-0.8s-0.2-0.3-0.3-0.4c-0.1-0.2-0.2-0.2-0.2-0.1c0.1,0.1,0.1,0.3,0.2,0.7l0.2,0.5l0.6,0.4
	c0.3,0.2,0.5,0.4,0.6,0.4C100.3,124.9,100.2,124.7,99.9,124.4L99.9,124.4z M127.2,124.4c0.2-0.1,0.5-0.2,0.8-0.3
	c0.9-0.3,0.9-0.4,0.9-0.6c-0.1-0.1-0.1-0.6-0.2-1.2c-0.2-1.2-0.2-1.2-0.3-1.2c-0.1,0-0.4,0.3-0.8,0.7l-0.8,0.7l-0.1,0.6
	c-0.1,0.3-0.1,0.8-0.2,1.1l-0.1,0.6l0.2-0.1C126.8,124.5,127,124.4,127.2,124.4L127.2,124.4z M98.8,123.8c-0.1-0.1-0.2-0.5-0.3-0.8
	c-0.2-0.7-0.3-0.8-0.9-1.6l-0.4-0.4v1v1.1l0.8,0.5c0.4,0.3,0.8,0.5,0.8,0.6C98.9,124,98.9,123.9,98.8,123.8L98.8,123.8z
	 M129.5,123.5c0.5-0.2,1.8-0.6,2.4-0.8c0.3-0.1,0.5-0.2,0.6-0.2c0.1-0.1-0.1-0.3-0.3-0.6c-0.4-0.8-1.4-2.5-1.4-2.6c0,0-0.1,0-0.1,0
	c-0.1,0-1.6,1.1-1.9,1.4l-0.2,0.2l0.1,0.8c0.2,0.9,0.4,1.8,0.4,1.8C129.1,123.6,129.3,123.5,129.5,123.5L129.5,123.5z M126.1,122.8
	l0.5-0.4l0.1-0.7c0.1-0.3,0.1-0.7,0.1-0.7c-0.1,0-0.8,1.4-1.1,1.8c-0.1,0.2-0.2,0.4-0.2,0.4C125.6,123.3,125.8,123.1,126.1,122.8z
	 M98.8,122.8C98.8,122.8,98.8,122.8,98.8,122.8C98.7,122.8,98.7,122.8,98.8,122.8C98.7,122.9,98.8,122.9,98.8,122.8
	C98.8,122.9,98.8,122.8,98.8,122.8z M97,120.5c0,0-0.3-0.4-0.7-0.8s-0.6-0.7-0.6-0.7c0-0.2-0.2-0.1-0.2,0.4c0,0.2-0.2,0.8-0.4,1.2
	c-0.2,0.4-0.3,0.8-0.2,0.8c0.1,0,0.1,0.1,0.2,0.1c0.1,0.1,0.5,0.3,0.8,0.4c0.4,0.2,0.8,0.4,1,0.6l0.2,0.2l0-1.1
	C97.1,120.9,97,120.6,97,120.5L97,120.5z M133.6,122.3c1.9-0.4,3.4-0.6,5.3-0.6h1.4l-0.4-0.2c-1.8-0.9-4.1-2.5-5.6-3.9
	c-0.1-0.2-0.3-0.3-0.4-0.3c-0.1,0-0.9,0.5-2.2,1.2c-0.8,0.6-1,0.7-0.9,0.8c0.1,0.1,0.3,0.6,0.6,1.2c1.1,1.9,1.1,2,1.3,2
	C132.9,122.4,133.3,122.4,133.6,122.3L133.6,122.3z M127.3,121.7c0.2-0.2,0.4-0.4,0.6-0.4c0.1-0.1,0.3-0.2,0.3-0.3
	c0.2-0.1,0.2,0-0.1-1.8c-0.1-0.4-0.1-0.3-0.6,0.6c-0.3,0.6-0.4,0.7-0.5,1.3c-0.1,0.4-0.2,0.8-0.2,0.9c-0.1,0.2-0.1,0.2,0.1,0.1
	C127,122,127.2,121.9,127.3,121.7L127.3,121.7z M98,121.2c-0.1-0.2-0.3-0.8-0.5-1.2l-0.3-0.8l0.1,0.7l0,0.7l0.4,0.5
	c0.2,0.3,0.4,0.5,0.5,0.5C98.2,121.6,98.1,121.4,98,121.2L98,121.2z M94.9,120.5c0.2-0.4,0.3-1,0.4-1.2l0.2-0.5l-0.9-0.9
	c-0.5-0.5-1-0.9-1-0.9c-0.1,0-0.2,0.2-0.3,0.3c-0.5,0.8-0.6,1-1.6,2.2l-0.3,0.4l0.9,0.4c0.5,0.2,1.2,0.6,1.6,0.7
	c0.3,0.1,0.7,0.3,0.8,0.3C94.6,121.3,94.7,121,94.9,120.5L94.9,120.5z M128.9,120.4c0.1-0.1,0.6-0.4,0.9-0.7
	c0.4-0.3,0.7-0.6,0.7-0.6c0,0-0.1-0.3-0.3-0.7c-0.1-0.3-0.4-0.8-0.6-1.2c-0.3-0.6-0.1-0.6-0.7,0.2c-0.8,1.1-0.7,1-0.7,1.5
	c0.1,1.1,0.2,1.7,0.3,1.7C128.6,120.6,128.8,120.5,128.9,120.4L128.9,120.4z M97,119.3c0-0.8,0-0.9-0.4-1.6
	c-0.2-0.4-0.3-0.8-0.4-0.8c0-0.1-0.2,0.2-0.3,0.8c-0.2,0.5-0.2,1-0.2,1c0,0.1,0.2,0.3,0.4,0.6c0.2,0.2,0.6,0.6,0.7,0.7
	c0.2,0.2,0.2,0.3,0.2,0.3C97,120.2,97,119.9,97,119.3z M91.6,119.1c0.2-0.2,0.3-0.4,0.4-0.5c0.1,0,0.1-0.2,0.2-0.3
	c0.1-0.2,0.2-0.2,0.2-0.3c0.1,0,0.1-0.2,0.2-0.3c0.1-0.2,0.3-0.4,0.4-0.7c0.2-0.2,0.2-0.4,0.2-0.5c0,0-0.3-0.3-0.6-0.5
	c-0.3-0.3-0.7-0.6-0.7-0.6c0-0.1-0.2-0.2-0.3-0.3c-0.2-0.1-0.3-0.2-0.4-0.3c-0.1-0.1-0.3-0.2-0.4-0.3l-0.2-0.2l-0.8,0.6
	c-1.9,1.3-3.9,2.3-5.5,2.9c-0.6,0.2-0.6,0.3-0.1,0.3c1.3,0,4.4,0.7,6.4,1.5C91.1,119.9,91,119.9,91.6,119.1L91.6,119.1z
	 M127.9,118.7c0.2-0.2,0.2-0.5,0.1-1.3l-0.1-0.4l-0.3,1.3c-0.2,0.7-0.3,1.3-0.3,1.3s0.1-0.2,0.2-0.3
	C127.7,119.1,127.8,118.8,127.9,118.7z M131.9,118.3c0.4-0.3,1.1-0.7,1.4-0.8l0.6-0.3l-0.9-1c-0.5-0.5-1.1-1.1-1.2-1.3l-0.3-0.4
	l-0.4,0.4c-0.2,0.2-0.6,0.7-0.8,1c-0.4,0.5-0.4,0.7-0.4,0.8c0.1,0.2,0.2,0.6,0.7,1.6c0.4,0.8,0.4,0.8,0.5,0.7
	C131,118.9,131.4,118.6,131.9,118.3L131.9,118.3z M95.8,117.5c0.3-1,0.3-1-0.3-2.2l-0.4-0.7l-0.2,0.3c-0.2,0.2-0.4,0.6-0.5,0.9
	c-0.2,0.3-0.4,0.6-0.5,0.7l-0.2,0.2l0.9,0.8c0.6,0.5,1,0.8,1,0.8C95.5,118.4,95.6,117.9,95.8,117.5L95.8,117.5z M128.8,117.4
	c0.1,0,0.2-0.3,0.3-0.4c0.3-0.4,0.3-0.5,0.2-0.8c-0.1-0.2-0.2-0.5-0.4-0.9l-0.2-0.7l-0.3,0.8l-0.3,0.8l0.1,0.8
	c0.1,0.4,0.1,0.8,0.1,0.9C128.2,118.2,128.3,118.2,128.8,117.4L128.8,117.4z M96.7,116.4c0-0.6-0.2-1.2-0.2-1.2
	c0-0.3-0.2,0.1-0.2,0.7l-0.1,0.6l0.3,0.6c0.2,0.3,0.3,0.6,0.3,0.6C96.8,117.5,96.8,117,96.7,116.4L96.7,116.4z M136.4,115.9
	c1.6-0.7,3.4-1.2,4.6-1.5c0.2,0,0.3-0.1,0.3-0.1c-0.1,0-0.7-0.2-1.2-0.3c-1.7-0.5-3.6-1.2-5.2-2l-0.8-0.4l-0.2,0.2
	c-0.1,0.1-0.7,0.7-1.3,1.3l-1.1,1.2l0.2,0.2c0.1,0.2,0.7,0.8,1.3,1.3l1.1,1.1l0.8-0.4C135.3,116.4,135.9,116,136.4,115.9
	L136.4,115.9z M94.3,115.3c0.2-0.2,0.3-0.6,0.4-0.7l0.2-0.3l-0.3-0.5c-0.2-0.2-0.3-0.6-0.5-0.8c-0.1-0.2-0.3-0.5-0.4-0.7l-0.2-0.3
	l-0.8,0.7c-0.5,0.4-1.1,0.9-1.4,1.2c-0.3,0.2-0.6,0.5-0.6,0.5s0.2,0.2,0.3,0.3c0.6,0.5,1,0.8,1.8,1.4l0.7,0.6l0.3-0.4
	C93.9,115.9,94.1,115.5,94.3,115.3L94.3,115.3z M129.9,115.8c0.2-0.2,0.4-0.5,0.9-1.1c0.2-0.2,0.4-0.5,0.4-0.5c0,0-0.1-0.2-0.4-0.5
	c-0.2-0.2-0.4-0.5-0.6-0.7s-0.2-0.3-0.3-0.3c-0.1-0.1-0.2-0.2-0.2-0.3l-0.2-0.2l-0.1,0.2c-0.1,0.2-0.2,0.6-0.4,1l-0.3,0.8l0.3,0.8
	c0.2,0.4,0.4,0.8,0.4,1l0.1,0.3l0.2-0.2C129.8,116.1,129.9,115.9,129.9,115.8L129.9,115.8z M96.3,115.1l0.2-0.8l-0.2-0.8
	c-0.1-0.4-0.2-0.8-0.2-0.8s-0.2,0.4-0.5,0.8l-0.5,0.8l0.4,0.8c0.2,0.5,0.5,0.8,0.5,1C96,116.2,96.1,116.1,96.3,115.1L96.3,115.1z
	 M128.3,113.6l-0.2-0.7v1.3v1.3l0.2-0.7l0.2-0.7L128.3,113.6L128.3,113.6z M91.2,113.6c0.3-0.3,0.5-0.4,0.7-0.5
	c0-0.1,0.4-0.3,0.8-0.6c0.3-0.3,0.6-0.6,0.6-0.6c0,0-0.1-0.2-0.2-0.4s-0.3-0.5-0.4-0.7c-0.1-0.2-0.2-0.3-0.2-0.3
	c0,0-0.1-0.2-0.2-0.3c-0.1-0.2-0.2-0.2-0.2-0.3c0,0-0.2-0.2-0.4-0.5c-0.2-0.2-0.4-0.5-0.4-0.5c-0.1-0.1-0.2-0.1-0.7,0.1
	c-2,0.8-5.2,1.5-6.4,1.5c-0.5,0-0.4,0,0.2,0.3c1.6,0.6,3.6,1.6,5.5,3l0.8,0.5l0.2-0.2C90.8,113.9,91,113.7,91.2,113.6L91.2,113.6z
	 M132.9,112.4l0.9-1l-0.6-0.3c-0.4-0.2-1-0.6-2.4-1.5c-0.1-0.1-0.1-0.1-0.5,0.7c-0.4,1-0.6,1.3-0.7,1.6c-0.1,0.1,0.1,0.3,0.4,0.8
	c0.2,0.3,0.6,0.8,0.8,1l0.4,0.4l0.3-0.4C131.9,113.5,132.4,112.9,132.9,112.4L132.9,112.4z M95.4,113.2c0.2-0.4,0.4-0.9,0.5-1
	c0-0.2-0.3-1.8-0.5-2.1c0,0-0.4,0.3-0.9,0.8l-0.9,0.8l0.1,0.2c0,0.1,0.3,0.5,0.5,0.8c0.2,0.3,0.4,0.7,0.5,0.9
	c0.1,0.2,0.2,0.3,0.2,0.3C95,114.1,95.2,113.7,95.4,113.2L95.4,113.2z M128.9,113.3c0.2-0.3,0.3-0.8,0.4-0.8
	c0.1-0.3,0.1-0.3-0.2-0.8c-0.1-0.2-0.3-0.4-0.3-0.5c-0.5-0.7-0.6-0.8-0.6-0.7c0,0.1-0.1,0.5-0.1,0.9l-0.1,0.8l0.3,0.8
	c0.2,0.5,0.3,0.8,0.3,0.8S128.8,113.7,128.9,113.3z M96.8,111.4l0-0.5l-0.3,0.6l-0.3,0.6l0.1,0.6c0.1,0.3,0.2,0.7,0.2,0.7
	C96.5,113.6,96.7,112.3,96.8,111.4z M130.1,110.5c0.2-0.5,0.4-0.9,0.4-1c0,0-0.3-0.3-0.6-0.5c-0.3-0.2-0.8-0.6-1.1-0.8l-0.4-0.3
	l-0.1,0.6c-0.1,0.3-0.1,0.8-0.1,1.2l-0.1,0.5l0.3,0.5c0.2,0.3,0.4,0.7,0.6,0.8l0.2,0.3l0.1-0.2C129.6,111.5,129.9,111,130.1,110.5z
	 M96.4,111.4c0.5-1,0.6-1.2,0.6-2.2l0.1-0.9l-0.4,0.4c-0.2,0.3-0.6,0.6-0.7,0.8l-0.2,0.3l0.2,0.9c0.2,0.6,0.2,1,0.2,1
	C96.1,111.8,96.3,111.6,96.4,111.4L96.4,111.4z M94.4,110.7l0.9-0.9l-0.2-0.5c-0.2-0.8-0.6-1.9-0.7-2c-0.1-0.1-0.4,0.1-0.9,0.3
	c-0.5,0.2-1.2,0.5-1.6,0.7l-0.8,0.3l0.3,0.4c1,1.2,1.1,1.4,1.6,2.2c0.1,0.2,0.2,0.3,0.3,0.3C93.5,111.7,93.9,111.3,94.4,110.7
	L94.4,110.7z M128.1,110.5c0-0.3-0.1-0.4-0.2-0.7c-0.1-0.2-0.3-0.4-0.4-0.6c-0.1-0.2-0.2-0.3-0.2-0.3c0,0,0.2,0.7,0.3,1.3l0.3,1.3
	l0.1-0.4C128,111.1,128.1,110.7,128.1,110.5z M134.3,111.1c0.2-0.2,0.3-0.3,0.4-0.3c0.1-0.1,0.4-0.4,0.9-0.8
	c1.2-1.1,2.9-2.1,4.2-2.8l0.6-0.3l-0.7,0.1c-1.7,0.1-4.6-0.2-6.8-0.8c-0.2-0.1-0.2-0.1-1.3,2c-0.3,0.6-0.6,1.1-0.6,1.2
	c-0.1,0.2,0.1,0.2,0.9,0.7c0.9,0.6,2.1,1.3,2.2,1.3C134.1,111.3,134.2,111.2,134.3,111.1L134.3,111.1z M128.2,108.5
	c0.1-0.6,0.1-0.7,0.1-0.8c-0.2-0.2-0.9-0.8-1.3-1.1c-0.2-0.2-0.2-0.2-0.2,0c0.1,0,0.1,0.4,0.2,0.8c0.1,0.7,0.2,1,0.6,1.6
	c0.1,0.2,0.3,0.5,0.3,0.6l0.1,0.2l0.1-0.3C128.1,109.3,128.2,108.9,128.2,108.5L128.2,108.5z M95.7,109.5c0,0,0.3-0.3,0.6-0.7
	c0.3-0.3,0.6-0.7,0.7-0.8c0-0.1,0.1-0.4,0-1.2l0-1.1l-0.2,0.2c-0.2,0.1-0.6,0.3-1,0.6c-0.4,0.2-0.8,0.4-0.8,0.4
	c-0.1,0.1-0.2,0.1-0.2,0.1c0,0,0.1,0.4,0.2,0.8s0.3,1,0.4,1.2C95.6,109.6,95.6,109.7,95.7,109.5L95.7,109.5z M98,107.6
	c0.1-0.3,0.2-0.5,0.2-0.5s-0.2,0.2-0.4,0.5l-0.4,0.5l-0.1,0.7l0,0.7l0.3-0.7C97.6,108.4,97.8,107.9,98,107.6L98,107.6z M130.8,109.2
	c0-0.1,1.3-2.4,1.6-2.8c0.1-0.2,0.1-0.3,0.1-0.3s-0.1-0.1-0.4-0.2c-1-0.3-1.5-0.4-2.2-0.7c-0.4-0.2-0.8-0.2-0.8-0.2
	c-0.1,0-0.3,1.2-0.4,1.9c-0.1,0.5-0.1,0.7-0.1,0.8c0.2,0.2,1.9,1.5,2.1,1.5C130.8,109.3,130.8,109.2,130.8,109.2L130.8,109.2z
	 M92.1,108.2c0.7-0.3,2.3-1,2.3-1.1c0.1,0-0.8-2.2-1.2-2.9c-0.2-0.6-0.3-0.6-0.4-0.6c-0.3,0.1-2.3,0.2-3.1,0.2c-1.3,0-3-0.2-4.2-0.4
	c-0.2,0-0.2,0,0.2,0.3c1.7,1.2,3.3,2.7,4.9,4.4c0.2,0.2,0.5,0.4,0.5,0.4C91.3,108.5,91.7,108.3,92.1,108.2z M97.8,107.1
	c0.4-0.6,0.5-0.7,0.8-1.3c0.3-0.8,0.3-1,0.3-1c0,0-0.4,0.2-0.8,0.5l-0.8,0.5v1.1c0,0.6,0,1,0,1C97.3,107.8,97.5,107.4,97.8,107.1
	L97.8,107.1z M126.7,106.9l-0.1-0.7l-0.5-0.4c-0.3-0.3-0.5-0.5-0.5-0.5c-0.1,0.1,0.5,1.1,0.9,1.8c0.2,0.3,0.3,0.4,0.3,0.4
	C126.8,107.6,126.8,107.3,126.7,106.9z M128.4,107.2c0.1-0.1,0.1-0.6,0.2-1.2c0.1-0.6,0.2-1.1,0.2-1.1c-0.1,0-0.4-0.2-0.7-0.3
	c-0.3-0.2-0.7-0.3-0.8-0.3c-0.2-0.1-0.3-0.2-0.4-0.2l-0.3-0.1l0.1,0.6c0.1,0.3,0.1,0.8,0.2,1l0.1,0.6l0.8,0.7
	c0.4,0.4,0.8,0.6,0.8,0.6C128.3,107.4,128.4,107.3,128.4,107.2L128.4,107.2z M96.5,106l0.6-0.3L97,105c0-1-0.2-2.1-0.2-2.1
	c0,0-0.4,0.1-0.8,0.2s-1.2,0.2-1.8,0.3c-0.5,0-0.9,0.2-1,0.2c0,0,0.1,0.2,0.2,0.4c0.2,0.3,1,2.2,1.2,2.8l0.1,0.2l0.6-0.3
	C95.7,106.4,96.2,106.1,96.5,106z M126.4,104.9c-0.1-0.7-0.2-1-0.2-1.1c-0.3-0.2-1.7-0.8-1.7-0.8c0,0,0.2,0.4,0.3,0.8
	c0.3,0.8,0.4,0.8,1,1.4c0.3,0.3,0.7,0.6,0.7,0.6C126.5,105.9,126.5,105.4,126.4,104.9L126.4,104.9z M98.8,105.8
	C98.8,105.8,98.8,105.8,98.8,105.8C98.7,105.8,98.7,105.8,98.8,105.8C98.7,105.9,98.8,105.9,98.8,105.8
	C98.8,105.9,98.8,105.8,98.8,105.8z M133.1,105.2c1.4-2,2.7-3.5,4.1-4.8c0.3-0.3,0.5-0.5,0.5-0.5c-0.1,0-0.2,0.1-0.4,0.2
	c-1.6,0.6-4,1-6.2,1.1c-0.9,0-1,0-1,0.2c-0.1,0.1-0.1,0.6-0.3,1.2c-0.3,0.9-0.6,2.2-0.6,2.3c0,0.1,3.1,1.1,3.4,1.1
	C132.6,105.8,132.8,105.6,133.1,105.2L133.1,105.2z M99,105.6c0-0.1,0.2-0.3,0.3-0.4c0.5-0.7,1.1-1.5,0.9-1.4c0,0.1-0.3,0.2-0.4,0.3
	c-0.2,0.2-0.4,0.3-0.5,0.3c0,0.1-0.2,0.3-0.2,0.6c0,0.3-0.2,0.6-0.2,0.7C98.8,105.8,99,105.7,99,105.6L99,105.6z M98.3,104.8
	l0.7-0.5l0.3-1c0.2-0.6,0.2-1.1,0.2-1.1c-0.1,0-0.6,0.1-1.2,0.3c-0.6,0.2-1.2,0.3-1.2,0.3s-0.1,0.1-0.1,0.2c0.1,0.1,0.1,0.6,0.1,1.1
	c0.1,0.6,0.1,1.1,0.1,1.2l0,0.2l0.2-0.2C97.5,105.3,98,105,98.3,104.8L98.3,104.8z M129.2,103.6c0.2-0.6,0.4-1.3,0.4-1.7
	c0.1-0.3,0.2-0.7,0.2-0.7c0.1-0.2,0.1-0.2-1.6-0.2c-0.9,0-1.7,0-1.8-0.1l-0.2,0l0.1,1c0.1,0.5,0.1,1.2,0.1,1.4l0.1,0.4l0.3,0.2
	c0.2,0,0.4,0.2,0.4,0.2c0.3,0.2,1.6,0.7,1.6,0.7C128.9,104.7,129.1,104.2,129.2,103.6L129.2,103.6z M124.6,103.7
	c-0.2-0.3-0.3-0.6-0.3-0.7c-0.1-0.1-0.3-0.3-0.7-0.5l-0.6-0.3l0.2,0.2c0.2,0.2,1.7,1.8,1.7,1.8C124.8,104.2,124.7,104,124.6,103.7z
	 M100.4,103.3c0.2-0.2,0.4-0.3,0.4-0.5c0-0.1,0.3-0.4,0.4-0.8c0.2-0.3,0.3-0.5,0.3-0.5c-0.1-0.1-1.7,0.5-1.8,0.6
	c0,0-0.5,1.8-0.5,1.9C99.3,104.1,99.5,104,100.4,103.3L100.4,103.3z M126.2,103.3c-0.1-0.2-0.1-0.8-0.1-1.3l-0.1-1l-0.7-0.1
	c-0.4,0-0.9-0.1-1.2-0.2c-0.3,0-0.6,0-0.6,0c0,0.1,0.7,1.9,0.8,1.9c0.1,0.1,1.7,0.9,1.8,0.9C126.2,103.6,126.2,103.5,126.2,103.3
	L126.2,103.3z M94.2,103.2c0.8-0.2,2.2-0.4,2.5-0.4c0.2-0.1,0.2,0-0.1-1.7c0-0.6-0.2-1.2-0.2-1.6l-0.1-0.6l-1.2-0.2
	c-2.2-0.5-4.5-1.2-5.9-1.8l-0.3-0.2l0.2,0.2c0.1,0.1,0.3,0.3,0.4,0.4c1.1,1.2,2.8,3.8,3.6,5.6c0.1,0.2,0.2,0.4,0.2,0.4
	C93.3,103.3,93.7,103.2,94.2,103.2L94.2,103.2z M98.4,102.3c0.7-0.2,1.2-0.3,1.2-0.3c0.1-0.1,0.5-2.3,0.5-2.6c0-0.2,0-0.2-0.8-0.2
	c-0.4,0-1.2-0.1-1.8-0.2C97,99,96.6,99,96.6,99c-0.1,0.1,0,0.2,0,0.5c0.1,0.3,0.2,1,0.2,1.6c0.2,1.6,0.2,1.6,0.3,1.6
	C97.2,102.6,97.8,102.5,98.4,102.3L98.4,102.3z M101.7,102.2c0.2-0.2,0.4-0.3,0.4-0.3c0.2-0.2,0.9-0.8,1-0.8
	c0.1-0.1,0.1-0.1,0.1-0.1c-0.1,0-0.3,0.1-0.7,0.2c-0.6,0.2-0.7,0.3-0.8,0.5c-0.1,0.2-0.2,0.4-0.3,0.6c-0.1,0.2-0.2,0.3-0.2,0.3
	S101.6,102.4,101.7,102.2z M124,102.2c-0.1-0.2-0.2-0.6-0.3-1c-0.2-0.3-0.2-0.6-0.2-0.6c0,0-0.4-0.1-1-0.2c-0.9-0.2-0.9-0.2-0.9-0.1
	c0.2,0.2,0.9,1.2,1.1,1.3c0.2,0.2,1.4,0.8,1.5,0.8C124.1,102.5,124,102.4,124,102.2z M100.8,101.6c0.4-0.2,0.9-0.3,1-0.4
	c0.1-0.1,1-1.7,1-1.8c0-0.1-0.5-0.1-1.2-0.1h-1.2l-0.2,1.1c-0.1,0.6-0.2,1.2-0.2,1.2c0,0.1,0,0.2,0.1,0.2
	C100,101.8,100.4,101.7,100.8,101.6L100.8,101.6z M121.7,100.9c-0.2-0.2-0.3-0.4-0.4-0.6c-0.2-0.2-0.3-0.2-0.8-0.3
	c-0.3-0.1-0.7-0.2-0.7-0.2c-0.1,0,0.3,0.2,0.8,0.6c1,0.7,1.4,0.9,1.5,0.9C122,101.3,121.8,101.2,121.7,100.9z M103.7,100.5
	c0.2-0.2,1.3-1.2,1.2-1.2c-0.1-0.1-0.5-0.1-1,0l-0.9,0l-0.5,0.9c-0.2,0.5-0.4,0.9-0.4,0.9C102.2,101.1,103.6,100.6,103.7,100.5
	L103.7,100.5z M103.4,100.9C103.4,100.8,103.3,100.8,103.4,100.9C103.3,100.8,103.3,100.9,103.4,100.9
	C103.3,100.9,103.3,100.9,103.4,100.9C103.4,100.9,103.4,100.9,103.4,100.9z M130.1,100.4c0.7-2,2.1-4.8,3.1-6.2l0.3-0.4l-0.3,0.2
	c-1.4,1-3.3,1.8-5.5,2.6l-1.3,0.5l-0.1,0.5c-0.1,0.3-0.1,1.2-0.1,1.9v1.4l0.3,0c0.4,0.1,0.9,0.1,2.2,0.1l1.2,0.1L130.1,100.4
	L130.1,100.4z M126.1,99.3c0-0.8,0.1-1.6,0.1-1.9l0.1-0.4l-0.4,0.2c-0.3,0.1-2,0.4-2.9,0.7c-0.2,0-0.2,0.1-0.1,0.5
	c0.1,0.2,0.2,0.7,0.4,1.2l0.3,0.9l0.4,0c0.6,0.1,1.8,0.3,2.1,0.3h0.2L126.1,99.3L126.1,99.3z M123.2,100.2c-0.1-0.2-0.6-1.8-0.7-2.1
	l-0.1-0.3l-0.8,0.1c-0.4,0.1-1.1,0.2-1.3,0.2l-0.5,0.1l0.2,0.3c0.2,0.2,0.4,0.6,0.7,0.9l0.4,0.5l0.9,0.2
	C123.1,100.4,123.2,100.4,123.2,100.2L123.2,100.2z M105.7,99.6c0.6-0.3,1.1-0.6,1.1-0.6c0,0-0.3,0-0.7,0.1l-0.7,0.1l-0.5,0.5
	c-0.3,0.3-0.4,0.5-0.4,0.5S105,99.9,105.7,99.6L105.7,99.6z M120.6,99.5c-0.2-0.2-0.3-0.5-0.3-0.5c-0.1-0.1-0.2-0.2-0.3-0.4
	l-0.2-0.3l-0.7,0c-0.4,0.1-0.8,0.1-1.1,0.1l-0.3,0l0.4,0.3c0.9,0.7,1,0.8,1.8,0.9C120.9,99.9,120.8,100,120.6,99.5L120.6,99.5z
	 M118.5,99.2C118.5,99.2,118.4,99.2,118.5,99.2C118.4,99.2,118.4,99.2,118.5,99.2C118.4,99.3,118.4,99.3,118.5,99.2
	C118.4,99.3,118.5,99.3,118.5,99.2z M118.1,98.9c-0.7-0.6-0.7-0.6-1.5-0.5l-0.7,0l1.2,0.4c0.6,0.2,1.2,0.4,1.2,0.4
	C118.2,99.2,118.2,99.1,118.1,98.9L118.1,98.9z M103.2,98.5c0.4-0.8,0.8-1.8,0.8-1.8c0-0.1-0.2-0.1-0.4-0.2
	c-0.5-0.2-1.5-0.6-2.3-0.8c-0.3-0.2-0.6-0.2-0.6-0.2c0,0,0,0.3-0.1,0.7c0,0.7-0.2,2.3-0.3,2.8l-0.1,0.3h1.3h1.3L103.2,98.5z
	 M100.2,98.5c0.1-0.8,0.2-1.7,0.2-2.5c0-0.7,0-0.7-0.1-0.8c-0.5-0.2-2.3-1.2-3.2-1.6c-1-0.6-2.3-1.5-3-2.1l-0.4-0.3l0.2,0.4
	c0.7,1.2,1.5,3.3,2.1,5.8l0.3,1.4l0.4,0.1c0.7,0.1,2.2,0.2,2.8,0.2h0.5L100.2,98.5L100.2,98.5z M105.4,98.9c0.1-0.1,0.2-0.2,0.3-0.2
	c0.1-0.1,0.2-0.2,0.3-0.4c0.2-0.2,0.3-0.4,0.5-0.6l0.3-0.3l-0.3-0.1c-0.2-0.1-0.8-0.2-1.2-0.3c-0.5-0.2-0.9-0.2-0.9-0.2
	s-0.2,0.5-0.5,1.1c-0.2,0.5-0.5,1-0.5,1.1c-0.2,0.2,0,0.2,0.9,0.2C104.9,99,105.2,98.9,105.4,98.9L105.4,98.9z M106.8,98.8
	c0.6-0.1,0.7-0.1,1.2-0.4c1.1-0.6,1.1-0.6,0-0.8l-1-0.2l-0.6,0.7c-0.3,0.3-0.7,0.7-0.7,0.8c0,0.1,0,0.1,0.2,0.1
	C106,98.9,106.4,98.8,106.8,98.8z M108.9,98.4c0.4,0,1-0.2,1.2-0.3l0.5-0.1l-0.7-0.1l-0.7-0.1l-0.3,0.2c-0.2,0.1-0.4,0.3-0.6,0.3
	C108,98.6,108,98.6,108.9,98.4L108.9,98.4z M114.6,98.1c-0.1-0.1-0.3-0.2-0.6-0.2c-0.3-0.2-0.6-0.2-0.6-0.3c-0.1,0-0.3,0.1-0.6,0.1
	c-0.3,0.1-0.6,0.2-0.7,0.2s-0.2,0.1-0.2,0.1c0,0,0.4,0.1,0.8,0.1c0.5,0,0.9,0,0.9,0C114,98.2,114.6,98.2,114.6,98.1L114.6,98.1z
	 M117,98.1c0-0.1-0.7-0.7-1.3-1.2c-0.2-0.1-0.2-0.1-1,0.2c-0.5,0.2-0.9,0.3-0.9,0.3c-0.1,0,0.3,0.2,0.7,0.3l0.7,0.3h0.9
	C116.6,98.2,117,98.1,117,98.1L117,98.1z M119.1,98.1c0.4,0,0.4,0,0.3-0.2c-0.2-0.2-1.2-1.9-1.2-2c-0.1-0.1-0.2,0-0.3,0.1
	c-0.2,0.1-0.7,0.3-1.2,0.5l-0.9,0.4l0.6,0.5c0.3,0.3,0.7,0.6,0.8,0.7c0.2,0.2,0.2,0.2,0.8,0.2C118.4,98.1,118.9,98.1,119.1,98.1
	L119.1,98.1z M121.3,97.8c0.9-0.2,1.1-0.2,1.1-0.3c-0.1-0.2-0.4-1.8-0.6-2.6c-0.1-0.5-0.2-0.8-0.2-0.8c-0.1-0.1-0.2,0-0.3,0.1
	c-0.5,0.3-2.2,1.2-2.7,1.4c-0.2,0-0.2,0.1-0.2,0.2c0,0,0.7,1.2,1.1,1.9c0.2,0.4,0.3,0.4,0.5,0.4C120.1,97.9,120.7,97.9,121.3,97.8
	L121.3,97.8z M112,97.7c0.3-0.1,0.7-0.2,0.8-0.2l0.2,0l-0.9-0.5c-0.5-0.2-0.9-0.4-0.9-0.4c-0.1,0-0.2,0.2-0.5,0.3
	c-0.2,0.2-0.6,0.4-0.8,0.6c-0.2,0.2-0.3,0.2-0.3,0.2c0.1,0,0.3,0,0.7,0.1C111.1,97.9,111.4,97.9,112,97.7L112,97.7z M109.6,97.4
	c0.5-0.3,1.3-0.9,1.3-1c0,0-0.2-0.2-0.4-0.2c-0.2-0.1-0.7-0.4-1.1-0.6c-0.4-0.2-0.7-0.4-0.7-0.4c-0.1,0-1.6,1.9-1.6,2
	c0,0,1.6,0.4,1.8,0.4C109.2,97.6,109.4,97.5,109.6,97.4z M123.6,97.4c0.3,0,0.9-0.2,1.5-0.3c0.8-0.2,1.1-0.3,1.1-0.4
	c0.1-0.1,0.1-0.5,0.2-0.9c0.2-2.2,0.8-4.7,1.4-6.3l0.2-0.4l-1,0.9c-1.1,1-1.6,1.5-2.7,2.2c-0.7,0.5-1.8,1.2-2.2,1.5
	c-0.2,0.1-0.2,0.2-0.2,0.2c0,0.3,0.7,3.4,0.8,3.6C122.6,97.6,122.8,97.6,123.6,97.4L123.6,97.4z M114.4,97c0.5-0.2,0.9-0.3,0.9-0.3
	c0-0.1-0.2-0.2-0.3-0.3c-0.2-0.2-0.6-0.5-1-0.9l-0.7-0.6l-0.2,0.2c-0.2,0.2-0.4,0.3-0.7,0.5c-0.2,0.2-0.5,0.4-0.7,0.5
	c-0.2,0.2-0.4,0.3-0.3,0.3c0,0,1.8,0.9,1.8,0.9C113.4,97.3,113.9,97.2,114.4,97L114.4,97z M107.1,97c0.4-0.5,1.5-1.9,1.5-1.9
	c0-0.1-0.4-0.3-0.8-0.6c-0.4-0.3-1.1-0.8-1.4-1c-0.4-0.2-0.6-0.5-0.7-0.4c-0.1,0-0.2,0.3-0.3,0.7c-0.3,0.8-0.5,1.7-0.6,1.8
	c0,0.2-0.3,0.8-0.3,0.9c0,0,1,0.3,2.1,0.6C106.8,97.2,107,97.1,107.1,97z M117,96.1l1.1-0.4l-0.3-0.5c-0.2-0.5-1.2-2.3-1.3-2.7
	c0-0.2-0.1-0.2-0.4,0.2c-0.2,0.2-0.8,0.7-1.3,1.2c-0.5,0.5-0.9,0.8-0.9,0.8c-0.1,0.1,0.3,0.4,0.8,1c0.8,0.8,0.9,0.9,1.1,0.9
	C115.8,96.5,116.4,96.3,117,96.1L117,96.1z M104.2,96.1c0.1-0.2,0.2-0.4,0.2-0.6c0.2-0.4,0.9-2.6,0.9-2.7c0-0.1-0.2-0.2-0.6-0.5
	c-1.5-1.2-3.5-3.3-4.5-4.7c-0.2-0.2-0.3-0.4-0.3-0.4c-0.1,0.1,0,0.3,0.1,0.6c0.4,1.6,0.5,3.3,0.6,5.6l0,1.8l0.5,0.2
	c0.2,0.1,0.6,0.2,0.7,0.3c0.2,0,0.7,0.3,1.2,0.4c0.5,0.2,0.9,0.3,1,0.3C104.1,96.4,104.2,96.3,104.2,96.1L104.2,96.1z M111.6,96.1
	c0.2-0.2,0.3-0.2,0.4-0.3c0.1-0.1,0.2-0.1,0.2-0.2c0.1-0.1,0.2-0.2,0.2-0.2c0.1-0.1,0.3-0.2,0.5-0.4l0.5-0.3l-0.2-0.2
	c-0.1-0.1-0.3-0.3-0.4-0.4c-0.1-0.1-0.3-0.4-0.5-0.6s-0.3-0.4-0.4-0.4c0-0.1-0.2-0.2-0.3-0.4c-0.4-0.6-0.7-0.8-0.7-0.7
	c0,0-0.1,0.2-0.2,0.4c-0.1,0.2-0.3,0.4-0.3,0.5c-0.1,0.2-0.2,0.4-0.3,0.6s-0.4,0.5-0.7,0.9c-0.5,0.6-0.5,0.7-0.3,0.7
	c0.5,0.3,0.8,0.5,1.3,0.8c0.3,0.2,0.7,0.3,0.7,0.4C111.2,96.3,111.2,96.3,111.6,96.1L111.6,96.1z M119.2,95c0.5-0.2,1.2-0.6,1.6-0.8
	l0.7-0.4v-0.3c0-0.2-0.1-0.7-0.1-1.2c-0.2-1.2-0.2-2.6-0.2-3.6c0-0.8,0.1-2.4,0.2-2.8c0.1-0.1-0.1,0.1-0.3,0.5c-0.9,1.6-2,3.1-3.8,5
	c-0.3,0.3-0.6,0.7-0.6,0.7c0,0.1,1,2.2,1.5,3.1c0.1,0.2,0.2,0.3,0.2,0.3C118.3,95.5,118.7,95.3,119.2,95L119.2,95z M109.2,94.2
	c0.2-0.3,0.5-0.7,0.6-0.8c0.1-0.1,0.2-0.3,0.3-0.5s0.2-0.3,0.3-0.4c0-0.1,0.2-0.3,0.3-0.4l0.2-0.2l-0.4-0.6
	c-1.3-1.8-2.8-4.2-3.3-5.7l-0.2-0.4l0,0.8c-0.2,2.2-0.5,4.5-1.2,6.8c-0.1,0.1,0,0.2,0.5,0.6c0.8,0.7,2.3,1.7,2.5,1.6
	C108.8,94.8,109,94.5,109.2,94.2L109.2,94.2z M114,94.2c0.2-0.1,0.5-0.5,0.8-0.7c0.9-0.8,1.5-1.4,1.5-1.5c-1-2.3-1.7-4.6-2-6.6
	l-0.2-1l-0.2,0.5c-0.2,0.7-0.8,2.5-1.1,3.2c-0.3,0.7-1.2,2.5-1.5,3c-0.2,0.3-0.3,0.6-0.3,0.6c0,0.1,1,1.2,1.9,2.3
	C113.6,94.7,113.5,94.6,114,94.2L114,94.2z M106.9,84.8C106.9,84.8,106.9,84.8,106.9,84.8C106.8,84.8,106.8,84.8,106.9,84.8
	L106.9,84.8C106.9,84.8,106.9,84.8,106.9,84.8z"/>
</svg>
