<?xml version="1.0" encoding="utf-8"?>
<!-- Generator: Adobe Illustrator 28.0.0, SVG Export Plug-In . SVG Version: 6.00 Build 0)  -->
<svg version="1.1" id="Layer_1" xmlns="http://www.w3.org/2000/svg" xmlns:xlink="http://www.w3.org/1999/xlink" x="0px" y="0px"
	 viewBox="0 0 225 248" style="enable-background:new 0 0 225 248;" xml:space="preserve">
<path id="path3446" d="M88.1,236.3c-3-1.1-5.5-4.7-6.2-9.3c-1.1-6.5,1.2-14.6,5.8-21.4c1.2-1.8,1.5-2.1,2.8-3.7l0.7-0.9l-1.4-1.8
	c-0.8-1-1.8-2.2-2.3-2.7c-1.2-1.4-6.3-5.8-6.9-6.2c-0.5-0.2-1-0.1-2.7,0.8c-2.3,1.3-5.1,3.1-6.4,4.2l-0.9,0.7l1.1,3.2
	c0.6,1.8,1.4,4.7,1.9,6.7c0.7,3.2,0.7,4,0.8,9.3c0,5.1-0.1,6.1-0.6,8.2c-1,3.7-2.3,6.3-4.5,8.4c-1.9,1.9-3.6,2.7-5.8,2.7
	c-2.5,0-5.1-1.8-6.4-4.4c-4.4-8.7-0.2-22,10.1-31.9l2.7-2.5l-1.6-3.4c-0.9-1.9-2.2-4.2-2.8-5.3l-1.2-1.9l-2.3,0.6
	c-4.1,1.1-3.7,0.7-3.9,4.3c-0.5,9.6-3.7,19.4-8.4,26c-6.7,9.2-15.6,11.4-18.7,4.4c-0.5-1.1-0.6-1.9-0.6-4c0-4.2,1.3-7.9,4.4-12.6
	c4.2-6.5,12.2-12.8,20.4-16.1l2.5-1.1l-0.1-3.5c-0.1-1.9-0.2-3.6-0.3-3.7c-0.3-0.3-2.2-0.7-5.1-1.1l-2.5-0.4l-0.6,1.4
	c-0.4,0.7-1.4,2.7-2.3,4.4c-5.5,9.3-13.6,16.1-21.9,18.2c-3.1,0.8-7.1,0.6-9.3-0.4c-2.8-1.3-4.1-3.2-4.2-6.2
	c-0.1-7.4,10.1-14.8,23.4-17.3c3.3-0.6,9.2-1,12-0.8l2.5,0.2l0.5-1.2c0.3-0.7,0.8-2.2,1.3-3.5c0.9-2.5,1.2-2-2.3-4.7
	c-2.8-2.1-4.6-3.3-6.2-4.3l-1.3-0.7l-1.8,1.8c-3.4,3.5-6.7,5.9-10.8,8c-11.6,5.8-24.4,2.8-24.4-5.8c0-1.9,1.3-4.4,2.9-5.9
	c1.5-1.4,4.6-3,7-3.7c2.7-0.8,8.7-1,12.5-0.4c3.6,0.6,8.8,2.3,12,3.9l2.4,1.2l0.6-0.6c0.8-0.7,4.4-6.1,5.6-8.4l0.9-1.7l-1.2-1.8
	c-2.1-3.1-4-5.3-7.5-8.7c-1.6-1.6-1.9-1.7-2.2-1.3c-2.9,2.9-8.1,6-12.6,7.5c-7.4,2.4-14.5,1.8-18.5-1.9c-2.1-2-2.7-3.1-2.7-5.7
	c0-2.3,0.4-3.4,2.1-5.3c1.2-1.4,4-3,6.6-3.7c2.8-0.7,7.6-0.6,11,0.3c4.7,1.2,8.8,3.2,12.8,6.3l1.9,1.4l1.9-2
	c2.3-2.5,4.5-5.4,6.3-8.4l1.4-2.3l-0.5-0.9c-1.5-2.9-6-8.9-8.3-11l-0.8-0.8l-2.5,1.8c-6.4,4.4-12,6.4-18.4,6.4
	c-5.3,0-9-1.3-11.3-3.9c-1.6-1.9-2.1-3-2.1-5.3c0-2.5,0.6-3.8,2.7-5.7c6.5-6,19.3-4.2,29.5,4.1c1.1,0.9,2.1,1.6,2.2,1.6
	c0.3,0,5.4-5.1,6.7-6.9c1.2-1.5,1.6-2.1,2.9-3.9l0.7-1.1l-1-1.8c-1.2-2.2-3.5-5.7-5-7.6l-1.1-1.4l-1.7,0.8c-2.8,1.4-5.8,2.5-9.3,3.5
	c-3.1,0.8-3.5,0.8-8.8,0.9c-6.2,0-7.5-0.2-10.9-2C7.6,91.6,6,90.1,5,88.1c-2.3-4.7,0.2-9.2,6.4-11.4c2.8-1,7.4-1,11.3,0
	c5.4,1.4,11,4.8,15.9,9.5l2.7,2.5l1.4-0.7c1.6-0.9,3.4-2.1,6.3-4.4c1.2-0.9,2.3-1.8,2.5-1.9c0.3-0.2,0.2-0.8-0.6-3
	c-0.5-1.5-1.2-3.1-1.4-3.6l-0.4-0.8l-2.5,0.2c-4.7,0.3-13-0.6-17.7-2.1c-4.6-1.4-9.7-4.1-12.6-6.7c-1.8-1.5-3.7-4.2-4.4-6
	c-0.6-1.6-0.6-4.4-0.1-5.7c1.6-3.8,7.1-5.5,13-4.1c9,2.2,17.7,10,23.5,21.1c1.3,2.6,1.5,2.8,2.2,2.7c0.4-0.1,2-0.3,3.6-0.5
	c1.9-0.3,3-0.6,3.2-0.9c0.2-0.3,0.3-1.5,0.3-3.6v-3.2l-2.8-1.2c-12.2-5.2-21.4-14.5-24-24.3c-0.7-2.7-0.7-6.6,0.1-8.4
	c1.4-3.2,4.4-4.8,7.7-4.2c7.6,1.4,15.3,12,18.2,25.3c0.7,3.1,1.4,8.4,1.4,10.6V65l1.3,0.4c2.9,1,4.8,1.3,5.1,1
	c0.5-0.5,1.7-2.7,3.6-6.5l1.8-3.6l-2.7-2.5C56.9,43.8,52.7,30.5,57,21.9c1.5-2.9,4.7-4.9,7.4-4.6c4,0.5,7.6,4.7,9.3,11
	c0.5,1.9,0.6,2.9,0.6,8.1c0,6.8-0.4,9.6-2.5,15.9l-1.2,3.7l0.6,0.5c1.2,1,5,3.5,7,4.6l2,1.1l1.6-1.2c2.1-1.6,6.3-5.8,8.1-8l1.4-1.8
	l-0.7-0.9c-1.4-1.7-1.8-2.2-3.1-4.1c-5.8-8.9-7.4-19.1-4-25.7c2-3.8,5.8-5.9,9.1-5c5.3,1.4,8.4,9.9,6.8,18.7
	c-0.9,5-3.2,10.8-6.3,15.2c-1.3,1.9-1.3,1.6,1.3,4.1c1.8,1.8,5.8,4.8,8.1,6.2l1.4,0.9l2.2-1.3c4.1-2.5,10.7-8.5,10.2-9.3
	c-0.1-0.2-0.7-1-1.3-1.9c-5.6-7.4-8.1-17.3-6.3-24.6c1.6-6.5,7-10,11.6-7.7c6.3,3.1,7.6,15,2.8,25.4c-1.1,2.2-3.5,6.2-5,8.1l-0.8,1
	l1.4,1.6c2,2.3,5.7,5.6,9,7.9c1,0.7,1.6,1,2.1,0.8c1.3-0.3,7.2-4.5,9.7-6.8l1.1-1.1l-1.8-3.7c-3-6.1-4.3-10.8-4.6-16.5
	c-0.4-8,2.3-14.1,6.9-16.3c2.8-1.3,6.2-0.5,8.2,2c6.1,7.4,3.2,22.3-6.3,32.8c-1.8,1.9-1.8,1.7,0.1,4.4c1.8,2.5,3.3,4.4,5.2,6.4
	l1.9,2l2.2-1c2.8-1.2,5-2.3,5.2-2.7c0.1-0.2-0.1-1.5-0.3-3.1c-0.6-3.5-0.6-12.8-0.2-15.9c1.3-7.9,3.8-13.7,7.4-17.2
	c2.8-2.8,6.2-4,8.8-3.1c2.5,0.8,4.5,3.9,5.1,7.7c1.5,10.2-6.2,23.2-18.3,30.9l-1.6,1l0.2,1.2c0.2,1.2,2,7.6,2.2,7.9
	c0.1,0.1,1.4,0,3-0.1c3.4-0.2,2.9,0.3,4.4-4.7c4-13.2,12.8-23.8,22.2-27c1.5-0.5,2.7-0.7,4.2-0.7c4.7,0,7,2.3,7,7.1
	c0,4.5-2.1,8.5-6.8,13.2c-5.9,5.9-15.4,10.4-25.1,11.9c-1.5,0.3-2.2,0.5-2.3,0.8c-0.2,0.5-1,5.2-1,5.5c0,0.2,4.2,2.2,6.6,3.1
	c3.2,1.2,2.9,1.4,5.2-1.6c7-9,16.9-14.7,25.4-14.7c3.9,0,6.3,0.7,8.4,2.7c1.7,1.5,2.3,2.9,2.3,5.3c0,2.8-0.8,4.6-3.3,6.8
	c-5.9,5.6-17.7,7.3-30.1,4.4c-1.9-0.4-3.7-0.9-4-1c-0.5-0.2-0.7,0.2-1.9,2.1c-0.7,1.2-1.8,3.2-2.4,4.5l-1.1,2.2l0.9,1.1
	c1.8,2.3,8,8.2,9.5,9.1c0.2,0.1,1-0.4,2.2-1.4c4.8-4.2,10.8-7.4,16.1-8.4c2.4-0.5,6.7-0.6,8.8-0.1c3.5,0.7,6.8,3.1,8,5.7
	c0.7,1.8,0.7,4.5-0.2,6.3c-2.8,6-12.6,8.1-22.9,4.9c-2.7-0.8-7.7-3.2-9.9-4.7l-1.6-1.1l-0.6,0.6c-2.3,2.1-8,10.3-8,11.5
	c0,0.5,2.9,4.9,4.6,7c2,2.5,5,5.6,5.4,5.6c0.2,0,1.3-0.8,2.7-1.8c2.6-2,7.1-4.4,10.1-5.5c8.9-3.1,17.6-1.3,20.4,4.2
	c1.5,3.1,1,6.3-1.4,8.9c-2.4,2.5-5.9,3.7-10.7,3.7c-6,0-12.7-2.4-18.4-6.7c-1.3-1-2.5-1.8-2.7-1.8c-0.4,0-3.4,3.1-5.4,5.6
	c-1.7,2.2-4.6,6.6-4.6,7c0,1.2,5.7,9.3,8,11.5l0.6,0.6l1.6-1.1c2.2-1.5,7.7-4.1,10.5-5c8.3-2.6,16-1.8,20.2,2.2
	c2,1.9,2.8,3.6,2.8,6.1c0,2.4-0.8,4.3-2.5,5.8c-2.5,2.2-5.5,3.1-10.1,3.1c-7.2,0-13.9-2.8-20.6-8.6c-1.2-1-2-1.5-2.2-1.4
	c-1.5,0.9-7.7,6.8-9.5,9.1l-0.9,1.1l1.1,2.2c0.6,1.2,1.6,3.2,2.3,4.4l1.3,2.2l3.1-0.8c4.6-1.2,7.4-1.6,11.5-1.8
	c8.5-0.4,15.8,1.7,20.2,5.7c2.8,2.6,4,5.7,3.2,8.7c-1.6,6.5-11.8,8.3-21.4,3.8c-5.3-2.4-10.6-6.8-14.7-12.1l-2.2-2.9l-1.3,0.5
	c-0.7,0.3-1.9,0.8-2.7,1.1s-2.3,1-3.5,1.5l-2.1,1l0.2,1.3c0.1,0.7,0.3,2.1,0.5,2.9c0.3,1.5,0.4,1.6,1.3,1.8
	c7.2,1.4,10.8,2.5,15.3,4.7c6.1,2.9,11.8,7.5,14.9,12.1c2.4,3.7,2.9,5,2.9,8.7c0,3,0,3.1-0.8,4.2c-0.5,0.8-1.3,1.4-2.3,2
	c-2.1,1.1-5.4,1.1-8.4,0.1c-7.5-2.5-14.9-10.3-19.5-20.6c-1.2-2.6-2.5-6.6-3.2-9.3c-0.4-1.5-0.4-1.5-3.9-1.6l-2.4-0.1l-0.6,1.9
	c-0.3,1.1-0.9,3.1-1.2,4.5c-0.5,2.2-0.5,2.6-0.2,2.8c1.2,0.7,5.3,3.8,7.5,5.7c7.4,6.5,12,15.3,12.1,23.3c0.1,7-2.8,10.9-7.9,10.6
	c-6.3-0.4-11.5-8.2-13.5-20.3c-0.5-3.2-0.4-12.2,0.2-15.9c0.4-2.5,0.4-3.2,0.1-3.4c-0.7-0.5-5.9-2.9-6.6-3.1c-0.6-0.2-1,0.1-2.6,1.9
	c-2.1,2.3-3.7,4.4-5.5,7c-1.2,1.8-1.2,1.9-0.7,2.4c2,2.2,2.5,2.9,4,4.9c2.2,3.1,4.7,8.3,5.6,11.6c1,3.6,1.2,8.5,0.5,11.4
	c-0.8,3.7-2.8,6.8-5.2,8c-1.6,0.7-4.5,0.8-6.2,0.1c-2.9-1.3-5.4-5.4-6.3-10c-0.4-1.9-0.4-3.3-0.3-6.1c0.3-5.7,1.5-10.5,4.6-16.5
	l1.8-3.7l-1.2-1.2c-2.2-2.1-5.6-4.6-8.5-6.3l-1.3-0.7l-1.6,1.1c-2.9,2-5.4,4.1-8.1,6.8c-2.4,2.5-2.5,2.6-2.1,3.2
	c1.6,2.2,4.7,7.1,5.4,8.5c2.1,4.6,2.9,8.3,2.9,12.8c0,8.1-3.5,13.2-8.9,13.2c-2.2,0-3.6-0.6-5.2-2.2c-2.5-2.5-3.7-6.1-3.7-11
	c0-7.1,2.8-14.4,7.9-21l0.6-0.7l-1.8-1.9c-3.2-3.3-9.8-8.4-10.9-8.4c-0.4,0-4.5,2.8-6.7,4.6c-2.9,2.3-5.3,4.8-5,5.1
	c0.1,0.2,0.7,1,1.2,1.9c2.8,4.2,5,9.8,5.9,14.8c0.5,3.2,0.4,7.9-0.3,10.4C97.4,234.7,92.8,238,88.1,236.3L88.1,236.3z M93.3,235.5
	c1.8-0.8,3.3-2.5,4.2-4.7c1.2-2.8,1.5-4.4,1.5-8.5c-0.1-4.2-0.6-6.8-2.3-11.3c-0.8-2.2-3.7-7.4-4.7-8.7l-0.6-0.7l-0.6,0.7
	c-1.3,1.5-1.7,2-3,4c-5.7,8.7-7.3,18.6-4,25C86,235.5,89.7,237.2,93.3,235.5z M120.1,235.5c6.2-3.1,7.3-14.2,2.4-24.5
	c-1-2.2-4.8-8.1-5.3-8.4c-0.1-0.1-0.7,0.6-1.4,1.6c-3.8,5-6.2,11.1-6.8,17c-0.7,6.5,1.7,12.7,5.6,14.5
	C116.1,236.4,118.4,236.3,120.1,235.5L120.1,235.5z M147.4,234.6c4.8-3.4,6-12.1,2.8-20.7c-1.7-4.5-4.5-9.1-7.6-12.6l-1.5-1.6
	l-1.8,3.7c-2.9,6-4.2,10.7-4.5,16.1c-0.2,4.2,0.3,7.4,1.9,10.5c1.4,2.8,2.4,4,4.2,4.9c1.2,0.6,1.7,0.7,3.4,0.6
	C146,235.5,146.4,235.4,147.4,234.6L147.4,234.6z M65.7,233.8c3.2-1,6.1-5.1,7.5-10.5c0.5-2.1,0.6-3.2,0.6-7.8s-0.1-5.8-0.6-8.5
	c-0.7-3.2-2.6-9.6-3.1-10c-0.4-0.4-4.6,3.9-7.2,7.3c-4.9,6.5-7.7,14.8-6.9,20.6c0.6,4.7,2.6,8,5.5,9
	C62.9,234.4,63.9,234.4,65.7,233.8L65.7,233.8z M173.7,230.2c4.7-2.2,5.7-10.6,2.3-18.7c-2-4.6-5.1-9-9.2-13
	c-2.3-2.2-7.1-5.9-8.1-6.3c-0.6-0.2-1.5,8.8-1.3,13.5c0.4,7.9,2.3,14.5,5.5,19.4C165.9,229.7,170.2,231.7,173.7,230.2z M40.2,223.5
	c6.3-2.4,12.3-10.9,15.2-21.7c1.2-4.5,2.5-14.3,1.9-14.3c-0.5,0-5.3,2.1-7.4,3.4c-9.5,5.4-16.6,13.6-18.7,21.7
	c-0.7,2.6-0.6,6.1,0.2,7.9c0.8,1.8,2.4,3.3,3.8,3.5c0.6,0.1,1.2,0.2,1.3,0.3C36.9,224.3,38.9,224,40.2,223.5L40.2,223.5z
	 M198.2,213.5c2.1-1,3-2.4,3.1-5.1c0.1-2.4-0.3-3.9-1.6-6.7c-3.7-7.3-13.7-14.4-24.4-17.3c-2.1-0.6-6.8-1.5-7.3-1.5
	c-0.2,0-0.1,0.2,1.2,4.2c4,12.8,12.4,23.3,21.2,26.4C192.9,214.4,196.2,214.4,198.2,213.5L198.2,213.5z M24.5,201.6
	c6.4-1.6,12.9-6.3,18-12.7c1.7-2.1,4.6-6.8,5.7-9.3l0.6-1.3l-2.4-0.2c-2.8-0.2-8.6,0.2-11.9,0.8c-9.2,1.7-17.1,5.9-20.7,10.9
	c-1.5,2.2-2.2,3.8-2.2,5.7c0,1.9,0.5,3.1,1.8,4.4C15.6,202,20.1,202.7,24.5,201.6L24.5,201.6z M124.6,194.1c1.3-1,2.8-2.1,3.3-2.4
	c0.6-0.4,1-0.7,1-0.8c0-0.4-6.3-2.9-9.5-3.9l-2.2-0.7l-3.1,1c-3.2,1.1-9,3.6-9,3.8c0,0.1,1.5,1.2,3.3,2.5c1.9,1.3,4.5,3.5,5.9,5
	l2.7,2.7l2.6-2.7C121,197,123.2,195.1,124.6,194.1L124.6,194.1z M93.3,198.9c2.8-2.7,7.4-6.2,9.6-7.3l0.7-0.4l-2.9-1.4
	c-4.1-2.1-8.9-3.7-10.1-3.5c-1.3,0.3-6.3,1.9-8.2,2.8l-1.6,0.7l1.1,0.8c1.5,1.2,7.8,7.5,8.8,8.8c0.4,0.6,0.8,1,0.8,1
	C91.7,200.4,92.4,199.7,93.3,198.9L93.3,198.9z M144.7,193.6c0.6-0.8,2-2.4,3-3.6c1-1.1,1.8-2,1.8-2.1c0-0.2-4-1.4-6.5-2l-2-0.4
	l-1.9,0.7c-2,0.8-7.6,3.5-8.4,4.1c-0.5,0.3-0.4,0.4,1.1,1.3c1.8,1,5.9,4,7.9,5.8l1.3,1.2l1.2-1.8C143,196,144,194.4,144.7,193.6z
	 M73.2,193.5c0.7-0.5,2.5-1.5,3.9-2.3c2.3-1.3,2.5-1.4,2.1-1.9c-0.7-0.6-4.6-3-6.6-4c-1.6-0.8-1.9-0.9-3.6-0.7
	c-2.7,0.3-3.7,0.5-3.8,0.8c-0.1,0.2,0.3,1.1,0.9,1.9c0.6,0.8,1.8,3.1,2.7,5l1.6,3.4l0.7-0.6C71.5,194.8,72.5,194,73.2,193.5
	L73.2,193.5z M158.4,189.5c0.2-0.8,0.7-2.8,1.1-4.2c0.4-1.5,0.8-2.8,0.8-2.8c0-0.1-0.7-0.2-1.6-0.2c-1.5,0-1.7,0.1-3.4,1.4
	c-1,0.8-2.4,2-3.1,2.7l-1.3,1.2l3.4,1.7c1.9,0.9,3.5,1.7,3.6,1.8S158.2,190.4,158.4,189.5L158.4,189.5z M112.8,187.1
	c1.8-0.6,3.2-1.2,3-1.2s-1.3-0.2-2.6-0.4c-4.2-0.7-8.9-1-12.7-0.7c-4.2,0.3-7.4,0.8-7.4,1.2c0,0.1,0.2,0.2,0.4,0.2
	c0.6,0,6.2,2.3,8.6,3.5l2.2,1.1l2.7-1.2C108.4,188.8,111,187.7,112.8,187.1L112.8,187.1z M132,189.1c1.1-0.6,3.3-1.7,5-2.4
	c3.5-1.5,3.5-1.5-1.8-2c-3.8-0.4-8.4-0.2-12.7,0.4c-4.5,0.7-4.5,0.7-2.2,1.4c2.4,0.7,5.8,2.1,7.6,3c0.7,0.4,1.4,0.7,1.6,0.7
	C129.8,190.2,130.9,189.7,132,189.1z M82.2,188.6c1-0.4,3-1.2,4.5-1.7c1.5-0.5,2.9-1,3-1.1c0.4-0.3-5.6-1.3-9.7-1.6
	c-2.1-0.2-4.7-0.2-5.9-0.1l-2.1,0.2l1.3,0.7c1.8,1,5.3,3.1,6.3,3.8c0.5,0.4,0.8,0.6,0.8,0.6C80.5,189.4,81.2,189.1,82.2,188.6z
	 M207.9,188.4c4.5-1.2,7-4.6,6.1-8.2c-0.5-1.9-1.4-3.4-3.3-5.1c-4.7-4.4-13.4-6.4-22.8-5.4c-2.5,0.3-7.4,1.3-9.9,2l-1.2,0.3l2.3,2.9
	c4,5,8.5,8.8,13.5,11.4C197.7,188.8,203.5,189.6,207.9,188.4L207.9,188.4z M153.3,184.7c0.6-0.5,1.4-1.2,1.8-1.5l0.7-0.6l-1.8,0.2
	c-2.3,0.2-6.5,1.1-9.4,1.8l-2.3,0.6l2.4,0.6c1.3,0.4,3.1,0.8,4,1.2l1.5,0.5l1-0.9C151.7,186.1,152.7,185.2,153.3,184.7L153.3,184.7z
	 M62.3,185.3c0.8-0.2,1.4-0.4,1.4-0.4c0-0.1-0.7-1.1-1.5-2.2c-1.4-1.9-1.6-2.2-3-2.6c-0.8-0.3-1.4-0.4-1.4-0.4s0.1,1.6,0.1,3.5
	l0.1,3.5l1.4-0.5C60.2,185.9,61.5,185.5,62.3,185.3z M94.5,184.9c6.3-1.2,13.9-1.1,20,0.2c2.6,0.5,2.9,0.5,4.8,0.2
	c1.1-0.2,3.1-0.6,4.2-0.8c3-0.5,12.5-0.4,15.5,0.1c2.2,0.4,2.4,0.4,4.4-0.3c2.8-0.9,8.3-2,11.1-2.2c1.9-0.2,2.5-0.3,3-0.8
	c0.4-0.3,1.5-1.1,2.4-1.7c1.8-1.1,1.8-1.1,3.6-4.9l1.9-3.9l0.2-3.3c0.3-5.1,0.7-8.2,1.5-12l0.8-3.6l-0.5-2.5
	c-0.7-3.8-0.7-15.5,0.1-19.3c0.3-1.5,0.5-3.3,0.5-4s-0.3-2.5-0.5-4c-0.7-3.8-0.8-15.5-0.1-19.3c0.5-2.5,0.5-2.6-0.1-4.9
	c-1-4.1-1.3-6.7-1.6-11.7l-0.3-4.8l-1.6-3.3c-0.9-1.9-1.6-3.5-1.6-3.7c0-0.2-0.9-0.9-2-1.6c-1.1-0.7-2.4-1.6-2.9-2
	c-0.7-0.6-1.2-0.7-3.3-0.9c-2.8-0.2-6.7-1-10.5-2c-2.4-0.7-2.7-0.7-4.7-0.4c-5.5,0.8-12.8,0.6-18.7-0.4c-3-0.6-3.1-0.6-7.2,0.1
	c-6.4,1.1-12.8,1.1-19.1-0.1c-2.3-0.4-2.4-0.4-5.9,0.3c-4.7,1-10,1.4-13.7,1.2l-3.1-0.2l-2.7,1.1c-1.5,0.6-3.7,1.5-5,1.9
	c-2.2,0.7-2.3,0.8-4.2,3l-2,2.3l-0.5,3.3c-0.7,3.2-2.1,8.2-2.5,9.1c-0.2,0.4-0.2,1.3,0,3c0.6,5.5,0.2,13.7-1,18.8
	c-0.4,1.7-0.4,2.1,0.2,4.7c1.1,5.8,1,16.3-0.2,22.1c-0.4,1.7-0.4,2.1,0,3.8c1.1,4.8,1.6,13.9,1,19c-0.2,2-0.2,2.2,0.8,5.5
	c0.6,1.9,1.4,4.9,1.8,6.6c0.5,2.7,0.8,3.3,1.5,4.1c0.5,0.5,1.3,1.5,1.9,2.2c0.8,1,1.3,1.3,2.3,1.6c0.7,0.2,2.8,1,4.7,1.8l3.5,1.4
	l5.6,0.1c5.7,0.1,9,0.4,13.2,1.5c1.1,0.3,2.2,0.5,2.5,0.4S93.2,185.2,94.5,184.9L94.5,184.9z M67.8,184.1l2-0.3L68,183
	c-1-0.4-2.9-1.2-4.1-1.6l-2.2-0.8l1.4,2.1c1.2,1.8,1.5,2,2.1,1.9C65.5,184.5,66.7,184.4,67.8,184.1L67.8,184.1z M166.9,181.8
	c0-0.2-0.1-0.8-0.3-1.6c-0.2-0.7-0.3-1.8-0.4-2.3c-0.1-0.6-0.3-1-0.4-1c-0.2,0-1,0.4-1.8,1c-1.4,0.8-1.6,1.1-2.1,2.4
	c-0.3,0.8-0.5,1.5-0.5,1.5s0.6,0.1,1.3,0.2C165.4,182,166.9,182,166.9,181.8L166.9,181.8z M161.2,180.4c0.3-0.7,0.4-1.1,0.2-1
	c-1.6,1-3.2,2.1-3.2,2.2c0,0.1,0.6,0.1,1.3,0.1C160.6,181.6,160.7,181.5,161.2,180.4z M58.8,178.1c-0.6-0.7-1.2-1.3-1.2-1.3
	s0,0.5,0.1,1.1c0.1,0.8,0.3,1.1,1,1.3c0.5,0.2,1,0.3,1.1,0.3S59.4,178.9,58.8,178.1L58.8,178.1z M57,177.8c-0.1-0.5-0.2-1.1-0.2-1.4
	c0-0.3-1.1-1.6-2.4-2.9l-2.4-2.4l-1.1,3c-0.6,1.6-1.1,3.1-1.1,3.2c-0.1,0.2,4.8,1.1,6.6,1.2C57.1,178.7,57.2,178.6,57,177.8z
	 M165.9,174.1c-0.1-1-0.2-1.9-0.2-2s-0.7,1.1-1.4,2.6c-0.7,1.5-1.3,2.8-1.4,2.9s0.6-0.2,1.5-0.7l1.6-1L165.9,174.1L165.9,174.1z
	 M19.4,175.4c3.1-0.4,6.1-1.4,9.4-3.2c3.5-1.8,5.9-3.6,9.2-6.7l2.4-2.3l-0.6-0.5c-2-1.5-10.2-4.3-14.5-4.9c-3.1-0.5-9-0.2-11.3,0.5
	c-2.3,0.7-4.8,2-6.4,3.4c-1.5,1.3-2.9,4-2.9,5.6C4.6,173,11.1,176.5,19.4,175.4L19.4,175.4z M173.1,172.8l2.8-1.1l-1.1-1.9
	c-0.6-1.1-1.6-3-2.3-4.2l-1.2-2.3l-0.5,0.7c-0.3,0.4-1.4,2.1-2.5,3.7l-2,3v2c0,1.1,0.1,2.2,0.2,2.5c0.2,0.6,0.2,0.6,2-0.3
	C169.5,174.3,171.6,173.4,173.1,172.8L173.1,172.8z M55.9,171.5c-0.4-1.6-1-4-1.4-5.4l-0.8-2.5l-0.2,1.4c-0.1,0.8-0.4,2.3-0.7,3.4
	l-0.5,2l2.1,2c1.2,1.1,2.1,2,2.2,2C56.6,174.4,56.3,173.1,55.9,171.5z M52.3,167.9c1.2-5.1,1.2-5,0.3-7.1c-0.7-1.8-2.9-5.9-3.8-7.6
	l-0.5-0.8l-0.8,1.5c-1.2,2.3-3.7,6.1-4.9,7.6c-0.9,1.1-1,1.4-0.7,1.6c0.2,0.2,1.1,0.7,2,1.2c0.9,0.5,3,2,4.7,3.3
	c1.6,1.3,3.1,2.3,3.2,2.3C51.8,169.9,52.1,169,52.3,167.9z M168,166.8c1-1.4,2-3,2.4-3.5l0.6-0.9l-1.3-3.9c-0.7-2.1-1.3-4.1-1.3-4.5
	c0-1.2-0.5-0.1-1.1,2.5c-0.7,3.3-1.8,13.3-1.3,12.9C166.2,169.5,167.1,168.3,168,166.8L168,166.8z M175.3,157.9
	c2.7-2.7,6.3-5.9,6.8-5.9c0.2,0-0.3-0.6-1-1.3c-2.3-2.4-5.1-6.3-6.8-9.3c-0.4-0.6-0.7-1.2-0.8-1.2c-0.3,0-3,6.1-4.1,9.6l-0.8,2.3
	l0.6,2.5c0.4,1.4,1.1,3.7,1.5,5l0.9,2.4l0.6-0.8C172.5,160.8,173.9,159.2,175.3,157.9L175.3,157.9z M209.5,161.5
	c7.6-1.8,10.2-8.5,5.3-13.3c-2.3-2.3-6.9-3.9-11.1-3.9c-5.4,0-13.2,2.6-18.6,6.2c-2.2,1.5-2.3,1.3,1.1,4c4.5,3.7,9,5.9,14.1,7
	C202.3,162,207.4,162,209.5,161.5L209.5,161.5z M53.8,154.4c0.1-4.5-0.6-10.9-1.3-12.8c-0.1-0.2-0.5,0.7-0.9,2.1
	c-0.4,1.4-1.3,3.8-1.9,5.3l-1.2,2.9l1,1.5c1.1,1.8,3.7,7.2,3.8,7.7C53.5,162.3,53.8,157.6,53.8,154.4z M49.5,147.9
	c0.7-1.8,1.6-4.4,2-5.8l0.7-2.6l-1-3.1c-1.1-3.5-2.6-7.2-3.4-8.5l-0.5-0.8l-1.3,2.1c-1.7,2.8-3.9,5.7-6.2,8.1l-1.9,2l2.9,2.9
	c2.7,2.7,6.5,7.5,7,8.7c0.1,0.3,0.2,0.5,0.3,0.4C48.2,151.1,48.9,149.6,49.5,147.9z M169.8,146.7c0.5-1.3,1.5-3.5,2.1-4.9l1.2-2.5
	l-1.1-2.4c-0.6-1.3-1.6-4-2.3-5.9c-1.3-4-1.2-4.1-1.9,1.5c-0.6,4.8-0.5,13,0.4,18.2c0,0.1,0.2-0.2,0.3-0.7
	C168.8,149.5,169.3,148,169.8,146.7L169.8,146.7z M19.6,148c5.5-0.9,11.8-4,16-7.7l1.3-1.1l-2.6-1.8c-6.2-4.3-12-6.4-17.8-6.4
	c-5.9,0-10.4,2.2-12.3,6.1c-0.7,1.4-0.7,4.2,0.1,5.7C6.6,147.1,12.5,149.2,19.6,148L19.6,148z M175,136.4c1.7-2.7,5.1-6.9,7.1-8.8
	l1.5-1.4l-1.5-1.4c-2-1.9-5.4-6.1-7.1-8.8c-0.7-1.2-1.4-2.1-1.4-2.1c-0.6,0-4.5,10.8-4.5,12.4c0,1.6,3.9,12.4,4.5,12.4
	C173.7,138.5,174.3,137.6,175,136.4z M53.2,133.7c0.7-5.4,0.5-13.2-0.4-17.9l-0.3-1.5l-0.9,2.7c-1.1,3.5-2.4,6.6-3.2,7.9l-0.6,1
	l1.4,3.1c1.4,3.2,3.1,7.7,3.1,8.7C52.3,138.8,52.7,136.7,53.2,133.7z M209.1,134.2c7.8-1.6,10.9-8.3,6.1-13.2
	c-5.8-5.9-17.8-4.6-28,3c-1.3,1-2.4,1.9-2.4,2c0,0.3,3.7,3,5.9,4.4c3.1,1.8,7.5,3.4,11.1,4C203.5,134.8,207.4,134.6,209.1,134.2
	L209.1,134.2z M49.5,121c0.6-1.5,1.4-3.9,1.9-5.4l0.8-2.8l-0.8-2.8c-0.4-1.5-1.3-4.1-2-5.8c-1.1-2.7-1.3-3-1.5-2.6
	c-2.4,3.5-4.7,6.3-7.3,8.9c-1.3,1.3-2.4,2.4-2.4,2.5s0.7,1,1.6,1.9c2.4,2.5,5.7,7,7,9.5l0.5,0.9l0.5-0.9
	C48.1,124,48.9,122.4,49.5,121z M172.1,115.3l1.1-2.4l-1.3-2.7c-1.3-2.7-3.3-7.7-3.3-8.3c0-0.2-0.1-0.3-0.2-0.2
	c-0.1,0.1-0.3,1.5-0.5,3.1c-0.7,5.3-0.5,12.9,0.6,18.9c0.2,1,0.2,1,1.3-2.5C170.4,119.4,171.4,116.7,172.1,115.3z M22.1,120.5
	c2.3-0.5,5.3-1.6,8-3c2.7-1.3,6.7-4.2,6.6-4.6c-0.1-0.2-0.8-0.8-1.5-1.4c-5.3-4.2-10.9-6.7-16.6-7.5c-3-0.4-6.2-0.1-8.8,1
	c-2,0.8-4.5,2.9-5.3,4.5c-2.5,5,1.6,10.4,8.8,11.5C15.2,121.2,19.6,121,22.1,120.5z M174.3,110.9c1.7-3.1,4.5-6.9,6.8-9.3
	c0.7-0.7,1.1-1.3,1-1.3c-0.8,0-8.2-7-9.9-9.2l-0.6-0.8l-0.9,2.4c-0.5,1.3-1.2,3.6-1.5,5l-0.7,2.5l1.1,3c1.1,3,3.6,8.8,3.9,8.8
	C173.6,112.1,174,111.6,174.3,110.9L174.3,110.9z M52.8,109.6c0.7-4.4,1-8,1-11.5c0-3.3-0.3-8.1-0.5-7c-0.1,0.6-2.2,5-3.5,7.3
	l-1.2,2.1l0.5,1.2c0.9,2,2.2,5.5,2.7,7.3c0.3,1,0.6,1.7,0.7,1.7C52.6,110.7,52.7,110.2,52.8,109.6L52.8,109.6z M207.8,107.3
	c1.2-0.2,3-0.8,4.1-1.3c8.3-4,6.7-13.2-2.7-15.4c-7.3-1.7-17,1.6-24.5,8.4l-1.6,1.5l2.6,1.6C193.1,106.7,201.1,108.6,207.8,107.3
	L207.8,107.3z M50.9,94.9c2.6-5.3,2.5-4.9,2-7.6c-0.7-4-1.2-5.5-1.5-5c-0.4,0.6-6.4,4.9-8.7,6.3l-1.3,0.7L42,90
	c1.8,2.3,4.2,5.9,5.1,7.7c1.1,2,1.1,2,1.5,1.4C49,98.8,49.9,96.9,50.9,94.9L50.9,94.9z M168.6,97.9c0-0.2,0.6-2.2,1.3-4.2l1.3-3.9
	l-0.7-1c-0.4-0.6-1.5-2.2-2.4-3.6c-0.9-1.4-1.7-2.5-1.8-2.4c-0.2,0.2,0.4,8,0.7,9.7c0.6,3.5,1.2,5.9,1.4,5.9
	C168.5,98.4,168.6,98.2,168.6,97.9z M26.4,94.1c3.1-0.5,7.3-1.8,10.4-3.2c4-1.8,3.9-1.5,1.5-3.9c-5.7-5.7-12.7-9.4-19.3-10.4
	C11.2,75.6,4.6,79.5,4.6,85c0,1.3,1,3.5,2.1,4.8c1.6,1.9,5.1,3.7,8.7,4.4C17.4,94.6,23.9,94.5,26.4,94.1z M175,82.2l1-1.7l-2.4-0.9
	c-1.3-0.5-3.4-1.4-4.6-2c-1.2-0.6-2.2-1-2.3-0.9c-0.1,0.1-0.2,1.2-0.3,2.5c-0.1,2.3-0.1,2.3,1.1,4.2c0.6,1,1.8,2.8,2.5,3.8l1.4,2
	l1.3-2.7C173.5,85.1,174.5,83.2,175,82.2L175,82.2z M54.5,86c0.6-1.9,2.1-7.9,2.1-8.3c0-0.1-1,0.8-2.2,2l-2.2,2.1l0.4,1.3
	c0.2,0.7,0.5,2.2,0.7,3.3c0.2,1.1,0.4,2,0.4,1.9S54.2,87.3,54.5,86L54.5,86z M197.4,82.4c5.6-0.7,10.5-2.7,13.4-5.4
	c4.2-3.9,4.4-8.7,0.2-11.8c-6.3-4.6-18.3-1.5-27.3,7.1c-2.6,2.4-6.8,7.6-6.5,7.9c0.5,0.5,7.1,1.9,10.9,2.3
	C190.1,82.8,195.3,82.7,197.4,82.4z M55.1,78.1c1.5-1.5,1.7-1.9,1.9-3.1c0.1-0.8,0.1-1.4,0.1-1.5c-0.1-0.1-1.5,0.1-3.1,0.3
	c-4.4,0.7-4.3,0.6-4.1,1.2c0.1,0.3,0.6,1.8,1.2,3.3l1,2.8l0.7-0.6C53.1,80,54.2,79,55.1,78.1z M165.8,76.2c-0.2-0.2-0.4-0.3-0.5-0.3
	s-0.7-0.3-1.4-0.7s-1.1-0.6-1-0.5c0.1,0.1,0.7,1.5,1.4,3l1.3,2.8l0.2-1.9C165.9,77.3,165.9,76.4,165.8,76.2z M60.1,72.6
	c-0.1-0.1-0.6,0.1-1.2,0.3c-1,0.3-1.2,0.4-1.2,1.1c0,0.4-0.1,1-0.2,1.3s0.5-0.2,1.2-1C59.5,73.4,60.1,72.6,60.1,72.6z M166.2,74.8
	c0.6-3.1,0.8-4.5,0.6-4.6c-0.1-0.1-1.4-0.1-2.9,0.1l-2.8,0.2l0.5,1.2c0.3,0.7,0.5,1.4,0.5,1.5c0,0.3,3.2,2.3,3.6,2.4
	C166,75.5,166.1,75.2,166.2,74.8L166.2,74.8z M48.6,73.7c0.1-0.1-0.3-1-0.9-2.1C44,64.3,38,57.5,32.3,53.9c-6.2-3.8-12.4-5-16.5-3.1
	c-6.8,3.1-5,11.2,3.8,16.9c6.4,4.2,16.4,6.6,25.7,6.2C47.1,73.9,48.5,73.8,48.6,73.7L48.6,73.7z M161.1,71.7l-0.6-1.4h-1.3
	c-0.8,0-1.3,0.1-1.2,0.3c0.2,0.2,3.4,2.4,3.6,2.4C161.6,73,161.4,72.5,161.1,71.7L161.1,71.7z M59.7,72c0.9-0.3,1.3-0.6,2.5-2.3
	c0.7-1.1,1.4-2.1,1.4-2.2s-1-0.5-2.2-0.8c-1.2-0.3-2.5-0.7-2.8-0.8c-0.6-0.2-0.6-0.2-0.7,3.2c-0.1,3,0,3.5,0.3,3.3
	C58.5,72.4,59.2,72.1,59.7,72z M68.2,69l1.9-0.8L68.2,68c-1.1-0.1-2.3-0.3-2.8-0.4c-0.8-0.2-0.9-0.2-2,1.4c-0.6,0.9-1.3,1.9-1.4,2
	C61.8,71.5,65,70.4,68.2,69L68.2,69z M160.2,69.3c-0.4-1-1.8-6-1.9-7.1l-0.2-1.1l-2,1c-1.1,0.6-2.7,1.3-3.6,1.6
	c-0.8,0.4-1.6,0.7-1.6,0.8c0,0.2,3.7,3.6,5,4.6c0.7,0.5,1.2,0.6,2.7,0.6C160.2,69.8,160.3,69.7,160.2,69.3L160.2,69.3z M155,69.1
	c-0.6-0.4-2.3-2-3.8-3.3l-1-1l-3.3,1c-1.9,0.5-3.6,1-3.9,1c-1.1,0-0.1,0.5,2.3,1.1c3,0.7,7.8,1.6,9.2,1.6
	C155.4,69.5,155.5,69.4,155,69.1L155,69.1z M170.5,68.8c9.7-1.8,18.2-5.9,23.9-11.6c4.9-4.8,7-8.9,6.8-13.3
	c-0.1-1.9-0.2-2.3-0.9-3.4c-1.8-2.7-5.5-3.4-9.6-2c-7.5,2.5-14.9,10.4-19.5,20.6c-1.6,3.7-3.7,10-3.2,10
	C168.1,69.2,169.3,69,170.5,68.8L170.5,68.8z M80.9,67.8c3.5-0.3,9.6-1.4,8.8-1.6c-1.1-0.2-5.4-1.7-7.4-2.5l-2-0.8l-2,1.3
	c-2.6,1.8-5.4,3.3-5.8,3.4c-0.2,0,0.1,0.1,0.5,0.3C74.2,68.2,77.5,68.2,80.9,67.8z M72.7,66.8c1.1-0.5,2.5-1.4,3.3-1.9
	c0.8-0.5,2-1.2,2.5-1.6l1.1-0.7l-2.5-1.4c-2.9-1.6-5-3-6.1-3.9l-0.7-0.7l-1.8,3.7c-1,2-2,3.9-2.2,4.2c-1.3,2-1.6,2.6-1.2,2.7
	c0.2,0,1.4,0.2,2.7,0.4c1.3,0.2,2.4,0.4,2.6,0.4C70.7,67.8,71.6,67.4,72.7,66.8z M112,66.8c1.5-0.2,2.9-0.5,3.2-0.6
	c0.2-0.1-1.1-0.7-2.9-1.3c-1.8-0.6-4.4-1.7-5.8-2.3l-2.4-1.2l-2.8,1.4c-1.5,0.7-4.1,1.9-5.7,2.4l-3,1.1l2.2,0.4
	C100.3,67.6,106.7,67.7,112,66.8L112,66.8z M138.1,67.1c0.7-0.1,1.3-0.3,1.3-0.3c0-0.1-0.6-0.4-1.3-0.7c-1.7-0.7-6.4-3-7.6-3.7
	c-0.8-0.5-0.9-0.5-1.9-0.1c-1.4,0.8-7.1,3-8.6,3.3c-0.7,0.2-1.2,0.4-1.2,0.5c0.1,0.2,4,0.8,7.3,1.2
	C127.4,67.6,136.4,67.3,138.1,67.1L138.1,67.1z M146.2,65.3c1.6-0.5,3.1-0.9,3.2-1c0.1-0.1-0.6-1-1.6-2.1c-1.9-2-4.2-5.1-5.7-7.3
	c-0.4-0.7-0.8-1.3-0.9-1.4c-0.1-0.1-0.6,0.4-1.3,1c-2.3,2.2-8.6,6.7-9.3,6.7c-0.1,0-0.2,0.1-0.2,0.3c0,0.3,7.1,3.9,8.9,4.6
	C140.7,66.6,142.5,66.4,146.2,65.3L146.2,65.3z M95,64.9c3.2-1.2,6-2.4,7.4-3.2l0.9-0.5l-1.4-0.9c-2.6-1.6-6.4-4.6-8.4-6.5l-2-1.9
	L90.7,53c-1.2,1.6-6.5,7-8.4,8.4l-1.4,1.1l1.2,0.5c2.1,1,8.3,2.9,9.2,2.9C91.7,65.9,93.4,65.5,95,64.9L95,64.9z M119.9,65.1
	c2.8-0.8,7.7-2.8,8.5-3.4c0.4-0.3,0.4-0.4-0.5-1c-2.5-1.7-5.9-4.5-8.3-7l-2.7-2.7l-1.6,1.7c-2.2,2.3-5.6,5.1-8.2,6.8
	c-1.2,0.7-2.1,1.5-2,1.6c0.5,0.6,10.6,4.7,11.9,4.7C117.1,65.9,118.4,65.6,119.9,65.1L119.9,65.1z M57.4,62C57,57,55.8,51,54,46.1
	C50.5,36.3,43.2,28.4,37.4,28c-2.1-0.2-3.1,0.2-4.5,1.5c-1.6,1.5-2.2,3.3-2.2,6.1c0,8.8,7.9,19.4,19,25.5c2.5,1.4,7.2,3.6,7.7,3.6
	C57.4,64.8,57.4,63.6,57.4,62z M163.2,56.9c8.9-6.7,14.8-16.8,14.8-25.4c0.1-4.9-1.6-8.3-4.6-9.7c-3.9-1.8-8.9,1.6-12.2,8.3
	c-1.4,2.8-1.9,4.2-2.7,8c-1.3,5.8-1.5,14-0.4,20.3l0.3,1.7l1.5-1C160.8,58.6,162.3,57.6,163.2,56.9L163.2,56.9z M71.3,52.1
	c0.6-1.8,1.4-4.6,1.8-6.4c0.6-2.9,0.7-3.9,0.7-8.8c0-4.8-0.1-5.8-0.6-8c-1.5-6.1-5-10.3-8.9-11c-3.1-0.6-6.5,2.5-7.7,7.1
	c-1.8,6.4,0.6,15.4,6.2,22.8c2.1,2.8,6.8,7.7,7.3,7.6C70.1,55.3,70.7,53.9,71.3,52.1L71.3,52.1z M145.6,47.2
	c7.2-10.4,8.6-22.3,3.2-28.4c-3.8-4.2-9.1-2.8-12,3.4c-1.5,3.2-2.1,6.3-1.9,10.6c0.3,5.5,1.5,10.1,4.5,16.1l1.8,3.7l1.5-1.6
	C143.5,50,144.8,48.4,145.6,47.2z M92.7,49c7.4-11.1,8.6-24.5,2.8-30.7c-5.3-5.7-12.5-0.9-13.3,8.9C81.8,32.9,84,39.9,88,46
	c0.7,1.2,1.5,2.2,1.5,2.3c0.1,0.1,0.5,0.6,1,1.2c0.4,0.6,0.8,1,1,1S92.2,49.8,92.7,49z M119.4,46.6c5.3-8,7.2-16,5.5-22.9
	c-0.8-3.4-2.7-5.9-5.1-7.2c-6.2-3.1-12,4.8-10.9,14.7c0.7,5.9,3.1,11.9,6.8,17c0.7,1,1.3,1.6,1.5,1.6
	C117.3,49.7,118.3,48.3,119.4,46.6L119.4,46.6z"/>
</svg>
