<?xml version="1.0" encoding="utf-8"?>
<!-- Generator: Adobe Illustrator 28.0.0, SVG Export Plug-In . SVG Version: 6.00 Build 0)  -->
<svg version="1.1" id="Layer_1" xmlns="http://www.w3.org/2000/svg" xmlns:xlink="http://www.w3.org/1999/xlink" x="0px" y="0px"
	 viewBox="0 0 424 463" style="enable-background:new 0 0 424 463;" xml:space="preserve">
<style type="text/css">
	.st0{display:none;fill:none;stroke:#AAFFFF;}
	.st1{display:none;fill:none;stroke:#66FFFF;}
	.st2{fill:none;stroke:#0053A5;stroke-width:3;}
</style>
<g>
	<g>
		<g>
			<path class="st0" d="M-594.8,0v463 M-584.8,0v463 M-574.8,0v463 M-564.8,0v463 M-554.8,0v463 M-544.8,0v463 M-534.8,0v463
				 M-524.8,0v463 M-514.8,0v463 M-504.8,0v463 M-494.8,0v463 M-484.8,0v463 M-474.8,0v463 M-464.8,0v463 M-454.8,0v463 M-444.8,0
				v463 M-434.8,0v463 M-424.8,0v463 M-414.8,0v463 M-404.8,0v463 M-394.8,0v463 M-384.8,0v463 M-374.8,0v463 M-364.8,0v463
				 M-354.8,0v463 M-344.8,0v463 M-334.8,0v463 M-324.8,0v463 M-314.8,0v463 M-304.8,0v463 M-294.8,0v463 M-284.8,0v463 M-274.8,0
				v463 M-264.8,0v463 M-254.8,0v463 M-244.8,0v463 M-234.8,0v463 M-224.8,0v463 M-214.8,0v463 M-204.8,0v463 M-194.8,0v463
				 M-184.8,0v463 M-174.8,0v463 M-164.8,0v463 M-154.8,0v463 M-144.8,0v463 M-134.8,0v463 M-124.8,0v463 M-114.8,0v463 M-104.8,0
				v463 M-94.8,0v463 M-84.8,0v463 M-74.8,0v463 M-64.8,0v463 M-54.8,0v463 M-44.8,0v463 M-34.8,0v463 M-24.8,0v463 M-14.8,0v463
				 M-4.8,0v463 M5.2,0v463 M15.2,0v463 M25.2,0v463 M35.2,0v463 M45.2,0v463 M55.2,0v463 M65.2,0v463 M75.2,0v463 M85.2,0v463
				 M95.2,0v463 M105.2,0v463 M115.2,0v463 M125.2,0v463 M135.2,0v463 M145.2,0v463 M155.2,0v463 M165.2,0v463 M175.2,0v463
				 M185.2,0v463 M195.2,0v463 M205.2,0v463 M215.2,0v463 M225.2,0v463 M235.2,0v463 M245.2,0v463 M255.2,0v463 M265.2,0v463
				 M275.2,0v463 M285.2,0v463 M295.2,0v463 M305.2,0v463 M315.2,0v463 M325.2,0v463 M335.2,0v463 M345.2,0v463 M355.2,0v463
				 M365.2,0v463 M375.2,0v463 M385.2,0v463 M395.2,0v463 M405.2,0v463 M415.2,0v463 M425.2,0v463 M435.2,0v463 M445.2,0v463
				 M455.2,0v463 M465.2,0v463 M475.2,0v463 M485.2,0v463 M495.2,0v463 M505.2,0v463 M515.2,0v463 M525.2,0v463 M535.2,0v463
				 M545.2,0v463 M555.2,0v463 M565.2,0v463 M575.2,0v463 M585.2,0v463 M595.2,0v463 M605.2,0v463 M615.2,0v463 M625.2,0v463
				 M635.2,0v463 M645.2,0v463 M655.2,0v463 M665.2,0v463 M675.2,0v463 M685.2,0v463 M695.2,0v463 M705.2,0v463 M715.2,0v463
				 M725.2,0v463 M735.2,0v463 M745.2,0v463 M755.2,0v463 M765.2,0v463 M775.2,0v463 M785.2,0v463 M795.2,0v463 M805.2,0v463
				 M815.2,0v463 M825.2,0v463 M835.2,0v463 M845.2,0v463 M855.2,0v463 M865.2,0v463 M875.2,0v463 M885.2,0v463 M895.2,0v463
				 M905.2,0v463 M915.2,0v463 M925.2,0v463 M-519-68.5H929 M-519-58.5H929 M-519-48.5H929 M-519-38.5H929 M-519-28.5H929
				 M-519-18.5H929 M-519-8.5H929 M-519,1.5H929 M-519,11.5H929 M-519,21.5H929 M-519,31.5H929 M-519,41.5H929 M-519,51.5H929
				 M-519,61.5H929 M-519,71.5H929 M-519,81.5H929 M-519,91.5H929 M-519,101.5H929 M-519,111.5H929 M-519,121.5H929 M-519,131.5H929
				 M-519,141.5H929 M-519,151.5H929 M-519,161.5H929 M-519,171.5H929 M-519,181.5H929 M-519,191.5H929 M-519,201.5H929 M-519,211.5
				H929 M-519,221.5H929 M-519,231.5H929 M-519,241.5H929 M-519,251.5H929 M-519,261.5H929 M-519,271.5H929 M-519,281.5H929
				 M-519,291.5H929 M-519,301.5H929 M-519,311.5H929 M-519,321.5H929 M-519,331.5H929 M-519,341.5H929 M-519,351.5H929 M-519,361.5
				H929 M-519,371.5H929 M-519,381.5H929 M-519,391.5H929 M-519,401.5H929 M-519,411.5H929 M-519,421.5H929 M-519,431.5H929
				 M-519,441.5H929 M-519,451.5H929 M-519,461.5H929"/>
			<path class="st1" d="M-594.8,0v463 M-494.8,0v463 M-394.8,0v463 M-294.8,0v463 M-194.8,0v463 M-94.8,0v463 M5.2,0v463 M105.2,0
				v463 M205.2,0v463 M305.2,0v463 M405.2,0v463 M505.2,0v463 M605.2,0v463 M705.2,0v463 M805.2,0v463 M905.2,0v463 M-519-68.5H929
				 M-519,31.5H929 M-519,131.5H929 M-519,231.5H929 M-519,331.5H929 M-519,431.5H929"/>
			<path class="st2" d="M399.1,231.5v0.4v0.4l-0.1,0.4l-0.1,0.4l-0.1,0.4l-0.2,0.4l-0.2,0.4l-0.2,0.4l-0.3,0.4l-0.3,0.4l-0.3,0.4
				l-0.4,0.4l-0.4,0.4l-0.4,0.4l-0.5,0.4l-0.5,0.4l-0.5,0.4l-0.5,0.4l-0.6,0.4l-0.6,0.5l-0.6,0.5l-0.7,0.5l-0.7,0.5l-0.7,0.5
				l-0.7,0.5l-0.8,0.5l-0.8,0.5l-0.8,0.6l-0.8,0.6l-0.9,0.6l-0.9,0.6l-0.9,0.6l-1,0.6l-1,0.6l-1,0.6l-1,0.7l-1,0.7l-1,0.7l-1.1,0.7
				l-1.1,0.7l-1.1,0.7l-1.1,0.8l-1.2,0.8l-1.2,0.8l-1.2,0.8l-1.2,0.8l-1.2,0.8l-1.2,0.8l-1.3,0.9l-1.3,0.9l-1.3,0.9l-1.3,0.9
				l-1.3,0.9l-1.3,1l-1.4,1l-1.4,1l-1.4,1l-1.4,1l-1.4,1.1l-1.4,1.1l-1.4,1.1l-1.4,1.1l-1.4,1.1l-1.4,1.1l-1.4,1.2l-1.5,1.2
				l-1.5,1.2l-1.5,1.2l-1.5,1.2l-1.5,1.2l-1.5,1.3l-1.5,1.3l-1.5,1.3l-1.5,1.3l-1.5,1.3l-1.5,1.3L325,290l-1.5,1.4l-1.5,1.4
				l-1.5,1.4l-1.5,1.4l-1.5,1.4l-1.5,1.4l-1.5,1.5l-1.5,1.5l-1.5,1.5l-1.5,1.5l-1.4,1.5l-1.4,1.5l-1.4,1.5l-1.4,1.5l-1.4,1.5
				l-1.4,1.6l-1.4,1.6l-1.4,1.6l-1.4,1.6l-1.4,1.6l-1.3,1.6l-1.4,1.6l-1.3,1.6l-1.3,1.6l-1.3,1.6l-1.3,1.6l-1.3,1.6l-1.3,1.6
				l-1.3,1.6l-1.2,1.6l-1.2,1.6l-1.2,1.6l-1.2,1.6l-1.2,1.6l-1.2,1.6l-1.2,1.6l-1.1,1.6l-1.1,1.6l-1.1,1.6l-1.1,1.6l-1.1,1.6
				l-1.1,1.6l-1,1.6l-1,1.6l-1,1.6l-1,1.6l-1,1.6l-1,1.6l-1,1.6l-0.9,1.5l-0.9,1.6l-0.9,1.5l-0.9,1.5l-0.9,1.5l-0.9,1.5l-0.8,1.5
				l-0.8,1.5l-0.8,1.5l-0.8,1.4L253,383l-0.8,1.4l-0.7,1.4l-0.7,1.4l-0.7,1.3l-0.7,1.3l-0.7,1.3l-0.7,1.3l-0.7,1.3l-0.6,1.2
				l-0.6,1.2l-0.6,1.2l-0.6,1.2l-0.6,1.2l-0.6,1.1l-0.6,1.1l-0.5,1.1l-0.5,1.1l-0.5,1l-0.5,1l-0.5,1l-0.5,1l-0.5,0.9l-0.5,0.9
				l-0.5,0.9l-0.5,0.9l-0.4,0.8l-0.4,0.8l-0.4,0.8l-0.4,0.8l-0.4,0.7l-0.4,0.7l-0.4,0.7l-0.4,0.6l-0.4,0.6l-0.4,0.6l-0.4,0.5
				l-0.4,0.5l-0.4,0.5l0.1,0.7l-0.4,0.4l-0.4,0.4l-0.3,0.4l-0.4,0.3l-0.4,0.3l-0.3,0.3l-0.4,0.2l-0.4,0.2l-0.3,0.2l-0.4,0.1
				l-0.4,0.1l-0.4,0.1h-0.4h-0.4h-0.4h-0.4l-0.4-0.1l-0.4-0.1l-0.4-0.1l-0.4-0.2l-0.4-0.2l-0.4-0.2l-0.4-0.3l-0.4-0.3l-0.4-0.3
				l-0.5-0.4l-0.5-0.4l-0.5-0.4l-0.5-0.4l-0.5-0.5l-0.5-0.5l-0.5-0.5l-0.5-0.6l-0.5-0.6l-0.6-0.6l-0.6-0.6L217,416l-0.6-0.7
				l-0.6-0.7l-0.6-0.7l-0.6-0.8l-0.7-0.8l-0.7-0.8l-0.7-0.8l-0.7-0.9l-0.7-0.9l-0.8-0.9l-0.8-0.9l-0.8-0.9l-0.8-1l-0.8-1l-0.8-1
				l-0.9-1l-0.9-1l-0.9-1.1l-0.9-1.1l-0.9-1.1l-1-1.1l-1-1.1l-1-1.1l-1-1.1l-1-1.2l-1-1.2l-1.1-1.2l-1.1-1.2l-1.1-1.2l-1.1-1.2
				l-1.2-1.2l-1.2-1.2l-1.2-1.2l-1.2-1.2l-1.2-1.3l-1.2-1.3l-1.2-1.3l-1.3-1.3l-1.3-1.3l-1.3-1.3l-1.3-1.3l-1.4-1.3l-1.4-1.3
				l-1.4-1.3l-1.4-1.3l-1.4-1.3l-1.4-1.3l-1.5-1.3l-1.5-1.3l-1.5-1.3l-1.5-1.3l-1.5-1.3l-1.5-1.3l-1.6-1.3l-1.6-1.3l-1.6-1.3
				l-1.6-1.3l-1.6-1.3l-1.6-1.3l-1.6-1.3l-1.6-1.3l-1.7-1.3l-1.7-1.2l-1.7-1.2l-1.7-1.2l-1.7-1.2L138,339l-1.7-1.2l-1.7-1.2
				l-1.7-1.2l-1.7-1.2l-1.7-1.2l-1.8-1.2l-1.7-1.1l-1.8-1.1l-1.8-1.1l-1.8-1.1l-1.8-1.1l-1.8-1.1l-1.8-1.1l-1.8-1.1l-1.8-1.1l-1.8-1
				l-1.8-1l-1.8-1l-1.8-1l-1.8-1l-1.8-1L99,315l-1.8-0.9l-1.8-0.9l-1.8-0.9l-1.7-0.9l-1.7-0.9l-1.7-0.9l-1.7-0.8l-1.7-0.8l-1.7-0.8
				l-1.7-0.8l-1.7-0.8l-1.7-0.8l-1.7-0.7l-1.6-0.7l-1.6-0.7l-1.6-0.7l-1.6-0.7l-1.6-0.7L67,300l-1.6-0.6l-1.5-0.6l-1.5-0.6l-1.5-0.6
				l-1.5-0.6l-1.5-0.6l-1.5-0.5l-1.4-0.6l-1.4-0.5l-1.4-0.5l-1.4-0.5l-1.3-0.5l-1.3-0.5l-1.3-0.5l-1.3-0.5l-1.3-0.4l-1.2-0.4
				l-1.2-0.4l-1.2-0.4l-1.2-0.4l-1.1-0.4l-1.1-0.4l-1.1-0.4l-1.1-0.4l-1-0.4l-1-0.4l-1-0.3l-1-0.4l-0.9-0.3l-0.9-0.3l-0.9-0.3
				l-0.8-0.3l-0.8-0.3l-0.8-0.3l-0.8-0.3l-0.7-0.3l-0.7-0.3l-0.7-0.3l-0.6-0.3l-0.6-0.3l-0.6-0.3l-0.5-0.3l-0.5-0.3l-0.5-0.3
				l-0.5-0.3l-0.4-0.3l-0.4-0.3l-0.4-0.3l-0.3-0.3l-0.3-0.3l-0.2-0.3l-0.2-0.3l-0.2-0.3l-0.2-0.3l-0.1-0.3l-0.1-0.4l-0.1-0.4
				l-0.1-0.4V277v-0.4v-0.4l0.1-0.4l0.1-0.4l0.1-0.4l0.2-0.4l0.2-0.5l0.2-0.5l0.2-0.5l0.3-0.5l0.3-0.5l0.3-0.5l0.4-0.5l0.4-0.6
				l0.4-0.6l0.5-0.6l0.5-0.6l0.5-0.6l0.5-0.6l0.5-0.6l0.6-0.7l0.6-0.7l0.6-0.7l0.7-0.7l0.7-0.7l0.7-0.8l0.7-0.8l0.7-0.8l0.8-0.8
				l0.8-0.8l0.8-0.9l0.8-0.9l0.8-0.9l0.9-0.9l0.9-0.9L34,254l0.9-1l0.9-1l0.9-1l0.9-1l1-1l1-1.1l1-1.1l1-1.1l1-1.1l1-1.1l1-1.2
				l1-1.2l1.1-1.2l1.1-1.2l1.1-1.2l1.1-1.3l1.1-1.3l1.1-1.3l1.1-1.3l1.1-1.3l1.1-1.4l1.1-1.4l1.1-1.4l1.1-1.4l1.1-1.4l1.1-1.5
				l1.1-1.5l1.1-1.5l1.1-1.5l1.1-1.5l1.1-1.6l1.1-1.6l1.1-1.6l1.1-1.6l1.1-1.6l1.1-1.6l1.1-1.7l1.1-1.7l1.1-1.7l1.1-1.7l1.1-1.7
				l1.1-1.7l1.1-1.7l1.1-1.8l1.1-1.8l1.1-1.8l1.1-1.8l1.1-1.8l1-1.8l1-1.8l1-1.8l1-1.8l1-1.8l1-1.9l1-1.8l1-1.9l1-1.9l1-1.9l0.9-1.9
				l0.9-1.9l0.9-1.9l0.9-1.9l0.9-1.9l0.9-1.9l0.9-1.9l0.8-1.9l0.8-1.9l0.8-1.9l0.8-1.9l0.8-1.9l0.8-1.9l0.8-1.9l0.8-1.9l0.7-1.9
				l0.7-1.9l0.7-1.9l0.7-1.8l0.7-1.8l0.7-1.8l0.6-1.8l0.6-1.8l0.6-1.8l0.6-1.8l0.6-1.8l0.6-1.8l0.6-1.8l0.5-1.8l0.5-1.7l0.5-1.7
				l0.5-1.7l0.5-1.7l0.5-1.7l0.5-1.7l0.4-1.6l0.4-1.6l0.4-1.6l0.4-1.6l0.4-1.6l0.4-1.5l0.4-1.5l0.4-1.5l0.4-1.5l0.4-1.5l0.3-1.4
				l0.3-1.4l0.3-1.4l0.3-1.4l0.3-1.3l0.3-1.3l0.3-1.3l0.3-1.3l0.3-1.2l0.3-1.2l0.3-1.2l0.2-1.2l0.2-1.1l0.2-1.1l0.2-1.1l0.2-1.1
				l0.2-1l0.2-1l0.2-1l0.2-0.9l0.2-0.9l0.2-0.9l0.2-0.9l0.2-0.8l0.2-0.8l0.2-0.8l0.2-0.7l0.2-0.7l0.2-0.7l0.2-0.7l0.2-0.6l0.2-0.6
				l0.2-0.6l0.2-0.5l0.2-0.5l0.2-0.5l0.3-0.4l0.3-0.4l0.3-0.4l0.3-0.3l0.3-0.3l0.3-0.3l0.3-0.2l0.3-0.2l0.3-0.2l0.3-0.2l0.3-0.1
				L137,50l0.4-0.1h0.4h0.4h0.4h0.4l0.4,0.1l0.5,0.1l0.5,0.1l0.5,0.1l0.5,0.2l0.5,0.2l0.5,0.2l0.5,0.3l0.6,0.3l0.6,0.3l0.6,0.3
				l0.6,0.4l0.6,0.4l0.7,0.4l0.7,0.4l0.7,0.5l0.7,0.5l0.7,0.5l0.8,0.5l0.8,0.5l0.8,0.6l0.8,0.6l0.8,0.6l0.9,0.6l0.9,0.6l0.9,0.7
				l0.9,0.7l1,0.7l1,0.7l1,0.7l1,0.7l1,0.8l1.1,0.8l1.1,0.8l1.1,0.8l1.1,0.8l1.1,0.8l1.2,0.8l1.2,0.8l1.2,0.9l1.2,0.9l1.2,0.9
				l1.3,0.9l1.3,0.9l1.3,0.9l1.3,0.9l1.4,0.9l1.4,0.9l1.4,0.9l1.4,0.9l1.5,0.9l1.5,0.9l1.5,0.9l1.5,0.9l1.5,0.9l1.5,0.9l1.6,0.9
				l1.6,0.9l1.6,0.9l1.6,0.9l1.6,0.9l1.7,0.9l1.7,0.9l1.7,0.9l1.7,0.9l1.7,0.9l1.7,0.9l1.8,0.9l1.8,0.9l1.8,0.9l1.8,0.9l1.8,0.9
				l1.8,0.9l1.8,0.9l1.9,0.9l1.9,0.9l1.9,0.9l1.9,0.8l1.9,0.8l1.9,0.8l1.9,0.8l1.9,0.8l1.9,0.8l1.9,0.8l1.9,0.8l2,0.8l1.9,0.8l2,0.7
				l2,0.7l2,0.7l2,0.7l2,0.7l2,0.7l2,0.7l2,0.7l2,0.6l2,0.6l2,0.6l2,0.6l2,0.6l2,0.6l2,0.6l2,0.6l2,0.5l2,0.5l1.9,0.5l1.9,0.5
				l1.9,0.5l1.9,0.5l1.9,0.4l1.9,0.4l1.9,0.4l1.9,0.4l1.9,0.4l1.8,0.4l1.9,0.4l1.8,0.4l1.8,0.3l1.8,0.3l1.8,0.3l1.8,0.3l1.8,0.3
				l1.7,0.3l1.7,0.3l1.7,0.3l1.7,0.3l1.7,0.2l1.7,0.2l1.6,0.2l1.6,0.2l1.6,0.2l1.6,0.2l1.5,0.2l1.5,0.2l1.5,0.2l1.5,0.2l1.5,0.2
				l1.4,0.1l1.4,0.1l1.4,0.1l1.4,0.1l1.3,0.1l1.3,0.1l1.3,0.1l1.3,0.1l1.2,0.1l1.2,0.1l1.2,0.1l1.1,0.1l1.1,0.1l1.1,0.1l1.1,0.1
				l1,0.1l1,0.1l1,0.1l1,0.1l0.9,0.1l0.9,0.1l0.9,0.1l0.8,0.1l0.8,0.1l0.8,0.1l0.7,0.1l0.7,0.1l0.7,0.1l0.6,0.2l0.6,0.1l0.6,0.2
				l0.6,0.2l0.5,0.2l0.5,0.2l0.5,0.2l0.4,0.2l0.4,0.2l0.4,0.2l0.4,0.2l0.3,0.2l0.3,0.3l0.3,0.3l0.2,0.3l0.2,0.3l0.2,0.3l0.2,0.3
				l0.1,0.4l0.1,0.4l0.1,0.4v0.4v0.4v0.4v0.4v0.5l-0.1,0.5l-0.1,0.5l-0.1,0.5l-0.2,0.5l-0.2,0.6l-0.2,0.6l-0.2,0.6l-0.2,0.6
				l-0.3,0.6l-0.3,0.7l-0.3,0.7l-0.3,0.7l-0.4,0.7l-0.4,0.8l-0.4,0.8l-0.4,0.8l-0.4,0.8l-0.5,0.8l-0.5,0.9l-0.5,0.9l-0.5,0.9
				l-0.5,0.9l-0.5,1l-0.5,1l-0.6,1l-0.6,1l-0.6,1.1l-0.6,1.1l-0.6,1.1l-0.6,1.1l-0.6,1.1l-0.7,1.2l-0.7,1.2l-0.7,1.2l-0.7,1.2
				l-0.7,1.3l-0.7,1.3l-0.7,1.3l-0.7,1.3l-0.7,1.4l-0.7,1.4l-0.7,1.4l-0.7,1.4L356,187l-0.7,1.5l-0.7,1.5l-0.8,1.5L353,193l-0.8,1.6
				l-0.8,1.6l-0.8,1.6l-0.8,1.6L349,201l-0.8,1.7l-0.7,1.7L347,206l-0.7,1.7l-0.7,1.7l-0.7,1.8l-0.7,1.8l-0.7,1.8l-0.7,1.8l-0.7,1.8
				l-0.7,1.8l-0.7,1.9L340,224l-0.7,1.9l-0.7,1.9l-0.7,1.9l-0.7,1.9l-0.7,1.9l-0.6,1.9l-0.6,1.9l-0.6,1.9l-0.6,2l-0.6,2l-0.6,2
				l-0.6,2l-0.6,2l-0.6,2l-0.6,2l-0.5,2l-0.5,2l-0.5,2l-0.5,2l-0.5,2l-0.5,2l-0.5,2l-0.5,2l-0.5,2l-0.4,2l-0.4,2l-0.4,2l-0.4,2
				l-0.4,2l-0.4,2l-0.4,2l-0.3,2l-0.3,2l-0.3,2l-0.3,2l-0.3,2l-0.3,2l-0.3,2l-0.2,2l-0.2,2l-0.2,2l-0.2,1.9l-0.2,1.9l-0.2,1.9
				l-0.2,1.9l-0.2,1.9l-0.2,1.9l-0.1,1.9l-0.1,1.9l-0.1,1.8l-0.1,1.8l-0.1,1.8l-0.1,1.8l-0.1,1.8l-0.1,1.8l-0.1,1.7l-0.1,1.7
				l-0.1,1.7v1.7v1.7v1.6v1.6v1.6v1.6v1.5v1.5v1.5v1.5v1.5v1.4v1.4v1.4v1.4v1.3v1.3v1.3v1.2v1.2v1.2v1.2v1.1v1.1v1.1v1.1v1v1v1v0.9
				v0.9v0.9v0.9v0.8v0.8v0.8v0.7v0.7l-0.1,0.7l-0.1,0.7l-0.1,0.6l-0.1,0.6l-0.1,0.6l-0.1,0.5l-0.1,0.5l-0.2,0.5l-0.2,0.5l-0.2,0.4
				l-0.2,0.4l-0.2,0.4l-0.2,0.3l-0.2,0.3l-0.3,0.3l-0.3,0.3l-0.3,0.2l-0.3,0.2l-0.3,0.2l-0.3,0.2l-0.4,0.1l-0.4,0.1l-0.4,0.1
				l-0.4,0.1h-0.4h-0.5h-0.5h-0.5l-0.5-0.1l-0.5-0.1l-0.6-0.1l-0.6-0.1L308,391l-0.6-0.2l-0.7-0.2l-0.7-0.2l-0.7-0.2l-0.7-0.2
				l-0.8-0.3l-0.8-0.3l-0.8-0.3l-0.8-0.3l-0.9-0.3l-0.9-0.3l-0.9-0.4l-0.9-0.4l-1-0.4l-1-0.4l-1-0.4l-1-0.4l-1.1-0.4l-1.1-0.4
				l-1.1-0.5l-1.1-0.5l-1.2-0.5L287,383l-1.2-0.5l-1.2-0.5l-1.2-0.5l-1.3-0.5l-1.3-0.5l-1.3-0.5l-1.3-0.5l-1.4-0.5l-1.4-0.5L274,378
				l-1.5-0.5l-1.5-0.6l-1.5-0.5l-1.5-0.6l-1.5-0.5l-1.6-0.6l-1.6-0.6l-1.6-0.6l-1.6-0.6l-1.7-0.6l-1.7-0.5l-1.7-0.5l-1.7-0.6
				l-1.7-0.5l-1.7-0.5l-1.8-0.5l-1.8-0.5l-1.8-0.5l-1.8-0.5l-1.8-0.5l-1.8-0.5l-1.9-0.5l-1.9-0.5l-1.9-0.5l-1.9-0.5l-1.9-0.5
				L228,364l-2-0.5l-2-0.4l-2-0.4l-2-0.4l-2-0.4l-2-0.4l-2-0.4l-2-0.4l-2-0.4l-2-0.4l-2-0.3l-2.1-0.3l-2-0.3l-2.1-0.3l-2.1-0.3
				l-2.1-0.3l-2.1-0.3l-2.1-0.3l-2.1-0.3l-2.1-0.2l-2.1-0.2l-2.1-0.2l-2.1-0.2L179,356l-2.1-0.2l-2.1-0.2l-2.1-0.2l-2.1-0.1
				l-2.1-0.1l-2.1-0.1l-2.1-0.1l-2-0.1l-2-0.1l-2-0.1h-2l-2-0.1h-2h-2h-2h-2h-2h-2h-1.9h-1.9l-1.9,0.1l-1.9,0.1l-1.9,0.1l-1.9,0.1
				l-1.9,0.1l-1.8,0.1l-1.8,0.1l-1.8,0.1l-1.8,0.1l-1.8,0.1l-1.7,0.1l-1.7,0.1l-1.7,0.2l-1.7,0.2l-1.7,0.2l-1.6,0.2l-1.6,0.2
				l-1.6,0.2l-1.6,0.2l-1.6,0.2l-1.5,0.2l-1.5,0.2L99,358l-1.5,0.2l-1.4,0.2l-1.4,0.2l-1.4,0.2l-1.4,0.2l-1.3,0.2l-1.3,0.2l-1.3,0.2
				l-1.2,0.2l-1.2,0.2l-1.2,0.2l-1.2,0.2l-1.1,0.2l-1.1,0.2l-1.1,0.2l-1.1,0.1l-1,0.1l-1,0.1l-1,0.1l-1,0.1l-0.9,0.1l-0.9,0.1
				l-0.9,0.1l-0.8,0.1l-0.8,0.1H70l-0.8,0.1h-0.7h-0.7h-0.7h-0.6h-0.6h-0.6l-0.6-0.1l-0.5-0.1l-0.5-0.1l-0.5-0.1l-0.4-0.1l-0.4-0.1
				l-0.4-0.1l-0.4-0.2l-0.3-0.2l-0.3-0.2l-0.3-0.2l-0.3-0.2l-0.2-0.3l-0.2-0.3l-0.2-0.3l-0.2-0.3l-0.2-0.4l-0.2-0.4L59,358l-0.1-0.4
				l-0.1-0.4l-0.1-0.5v-0.5v-0.5v-0.5v-0.6V354l0.1-0.6l0.1-0.6l0.1-0.7l0.1-0.7l0.1-0.7l0.1-0.7l0.2-0.8l0.2-0.8l0.2-0.8l0.2-0.9
				l0.2-0.9l0.2-0.9l0.2-0.9l0.2-0.9l0.3-1l0.3-1l0.3-1l0.3-1.1l0.3-1.1l0.3-1.1l0.3-1.1l0.3-1.2l0.3-1.2l0.3-1.2l0.3-1.2l0.3-1.3
				l0.3-1.3l0.4-1.3l0.4-1.4l0.4-1.4l0.4-1.4l0.4-1.4l0.4-1.5l0.4-1.5l0.4-1.5l0.4-1.5l0.4-1.5l0.4-1.6l0.4-1.6l0.4-1.6l0.4-1.6
				l0.4-1.6l0.4-1.7l0.4-1.7l0.3-1.7l0.3-1.7l0.3-1.8l0.3-1.8l0.3-1.8l0.3-1.8l0.3-1.8l0.3-1.9l0.3-1.9l0.3-1.9l0.3-1.9l0.3-1.9
				l0.3-1.9l0.3-1.9l0.2-2l0.2-2l0.2-2l0.2-2l0.2-2l0.2-2l0.2-2l0.2-2l0.2-2l0.2-2l0.1-2.1l0.1-2.1l0.1-2.1l0.1-2.1l0.1-2.1l0.1-2.1
				l0.1-2.1V240l0.1-2.1v-2.1v-2.1v-2.1v-2.1v-2.1v-2.1v-2.1l-0.1-2.1l-0.1-2.1l-0.1-2.1l-0.1-2.1l-0.1-2.1l-0.1-2.1l-0.1-2.1
				l-0.1-2l-0.1-2.1l-0.2-2l-0.2-2l-0.2-2l-0.2-2l-0.2-2l-0.2-2l-0.2-2l-0.2-2l-0.2-2l-0.3-1.9l-0.3-1.9l-0.3-1.9l-0.3-1.9l-0.3-1.9
				l-0.3-1.9l-0.3-1.9l-0.3-1.8l-0.3-1.8l-0.3-1.8l-0.3-1.8l-0.3-1.8l-0.3-1.7l-0.4-1.7l-0.3-1.7l-0.4-1.7l-0.4-1.7l-0.4-1.6
				l-0.4-1.6l-0.4-1.6l-0.4-1.6l-0.4-1.5l-0.4-1.5l-0.4-1.5l-0.4-1.5l-0.4-1.4l-0.4-1.4l-0.4-1.4l-0.4-1.4l-0.4-1.4l-0.4-1.3
				l-0.3-1.3l-0.3-1.3l-0.4-1.2l-0.3-1.2l-0.3-1.2l-0.3-1.2l-0.3-1.2l-0.3-1.1l-0.3-1.1l-0.3-1.1l-0.3-1l-0.3-1l-0.3-1l-0.2-1
				l-0.2-0.9l-0.2-0.9l-0.2-0.9l-0.2-0.9l-0.2-0.8l-0.2-0.8l-0.2-0.8l-0.2-0.8l-0.1-0.7l-0.1-0.7l-0.1-0.7l-0.1-0.7l-0.1-0.6v-0.6
				v-0.6v-0.5v-0.5v-0.5l0.1-0.5l0.1-0.4l0.1-0.4l0.1-0.4l0.1-0.4l0.2-0.4l0.2-0.3l0.2-0.3l0.2-0.3l0.2-0.3l0.3-0.3l0.3-0.2l0.3-0.2
				l0.3-0.2l0.4-0.2l0.4-0.2l0.4-0.1l0.5-0.1l0.5-0.1l0.5-0.1l0.5-0.1l0.5-0.1h0.6h0.6h0.6h0.7h0.7h0.7h0.7l0.8,0.1l0.8,0.1l0.8,0.1
				l0.8,0.1l0.9,0.1l0.9,0.1l0.9,0.1l1,0.1l1,0.1l1,0.1l1,0.2l1.1,0.2l1.1,0.2l1.1,0.2l1.2,0.2l1.2,0.2l1.2,0.2l1.2,0.2l1.3,0.2
				l1.3,0.2l1.3,0.2l1.3,0.2l1.4,0.2l1.4,0.2l1.4,0.2l1.4,0.2l1.5,0.2l1.5,0.2l1.5,0.2l1.5,0.2l1.6,0.2l1.6,0.2l1.6,0.2l1.6,0.2
				l1.6,0.2l1.7,0.2l1.7,0.1l1.7,0.2l1.7,0.2l1.8,0.1l1.8,0.1l1.8,0.1l1.8,0.1l1.8,0.1l1.8,0.1l1.9,0.1l1.9,0.1l1.9,0.1l1.9,0.1h1.9
				h1.9h1.9h2h2h2h2h2h2h2l2-0.1l2-0.1l2-0.1l2-0.1l2.1-0.1l2.1-0.1l2.1-0.1l2.1-0.2l2.1-0.2l2.1-0.2l2.1-0.2l2.1-0.2l2.1-0.2
				l2.1-0.2l2.1-0.2l2.1-0.2l2.1-0.3l2.1-0.3l2.1-0.3l2.1-0.3l2.1-0.3l2.1-0.3l2-0.3l2-0.3l2-0.4l2-0.4l2-0.4l2-0.4l2-0.4l2-0.4
				l2-0.4l2-0.4l2-0.4l2-0.5l1.9-0.5l1.9-0.5l1.9-0.5l1.9-0.5l1.9-0.5l1.9-0.5l1.9-0.5l1.8-0.5l1.8-0.5l1.8-0.5l1.8-0.5l1.8-0.5
				l1.8-0.5l1.7-0.5l1.7-0.6l1.7-0.5l1.7-0.6l1.6-0.6l1.6-0.6l1.6-0.6l1.6-0.6l1.6-0.6l1.5-0.6l1.5-0.6l1.5-0.6l1.5-0.6l1.5-0.6
				l1.4-0.5l1.4-0.5l1.4-0.5l1.4-0.5l1.3-0.5l1.3-0.5L283,81l1.3-0.5l1.2-0.5l1.2-0.5l1.2-0.5l1.2-0.5l1.1-0.5l1.1-0.5l1.1-0.5
				l1.1-0.4l1-0.4l1-0.4l1-0.4l1-0.4l0.9-0.4l0.9-0.4l0.9-0.3l0.9-0.3l0.8-0.3l0.8-0.3l0.8-0.3l0.8-0.3l0.7-0.2l0.7-0.2l0.7-0.2
				l0.7-0.2l0.6-0.2l0.6-0.2l0.6-0.1l0.6-0.1l0.6-0.1l0.5-0.1h0.5h0.5h0.5h0.4h0.4l0.4,0.1l0.4,0.1l0.4,0.1l0.3,0.2l0.3,0.2l0.3,0.2
				l0.3,0.2l0.3,0.2l0.3,0.3l0.2,0.3l0.2,0.3l0.2,0.3l0.2,0.4l0.2,0.4l0.2,0.4l0.2,0.5l0.1,0.5l0.1,0.5l0.1,0.6l0.1,0.6l0.1,0.6
				l0.1,0.6l0.1,0.7l0.1,0.7v0.7v0.8v0.8v0.8v0.8v0.9v0.9v0.9v1v1v1v1v1.1v1.1v1.1v1.2v1.2v1.2v1.2v1.3v1.3v1.3v1.3v1.4v1.4v1.4v1.4
				v1.5v1.5v1.5v1.5v1.6v1.6v1.6v1.6v1.6v1.7v1.7v1.7l0.1,1.7l0.1,1.8l0.1,1.8l0.1,1.8l0.1,1.8l0.1,1.8l0.1,1.8l0.1,1.9l0.1,1.9
				l0.1,1.9l0.2,1.9l0.2,1.9l0.2,1.9l0.2,1.9l0.2,1.9l0.2,1.9l0.2,2l0.2,2l0.3,2l0.3,2l0.3,2l0.3,2l0.3,2l0.3,2l0.3,2l0.3,2l0.4,2
				l0.4,2l0.4,2l0.4,2l0.4,2l0.4,2.1l0.4,2l0.5,2l0.5,2l0.5,2l0.5,2l0.5,2l0.5,2l0.5,2l0.5,2l0.5,2l0.6,2l0.6,2l0.6,2l0.6,2l0.6,2
				l0.6,2l0.6,2l0.6,1.9l0.7,1.9l0.7,1.9l0.7,1.9l0.7,1.9l0.7,1.9l0.7,1.9l0.7,1.9l0.7,1.8l0.7,1.8l0.7,1.8l0.7,1.8l0.7,1.8l0.7,1.8
				l0.7,1.8l0.7,1.7l0.7,1.7l0.8,1.7l0.7,1.7l0.8,1.7l0.8,1.6l0.8,1.6l0.8,1.6l0.8,1.6l0.8,1.6l0.7,1.6l0.8,1.5l0.7,1.5l0.8,1.5
				l0.7,1.5l0.7,1.4l0.7,1.4l0.7,1.4l0.7,1.4l0.7,1.4l0.7,1.3l0.7,1.3l0.7,1.3l0.7,1.3l0.7,1.2l0.7,1.2l0.7,1.2l0.6,1.2l0.6,1.1
				l0.6,1.1l0.6,1.1l0.6,1.1l0.6,1l0.6,1l0.6,1l0.5,1l0.5,0.9l0.5,0.9l0.5,0.9l0.5,0.9l0.5,0.9l0.4,0.8l0.4,0.8l0.4,0.8l0.4,0.8
				l0.4,0.7l0.3,0.7l0.3,0.7l0.3,0.7l0.3,0.7l0.3,0.6l0.2,0.6l0.2,0.6l0.2,0.6l0.2,0.5l0.1,0.5l0.1,0.5l0.1,0.5l0.1,0.5v0.5v0.4v0.4
				v0.4l-0.1,0.4l-0.1,0.4l-0.1,0.4l-0.1,0.3l-0.2,0.3l-0.2,0.3l-0.2,0.3l-0.3,0.3l-0.3,0.3l-0.3,0.3l-0.4,0.2l-0.4,0.2l-0.4,0.2
				l-0.4,0.2l-0.5,0.2l-0.5,0.2l-0.5,0.2l-0.6,0.2l-0.6,0.2l-0.6,0.2l-0.6,0.1l-0.7,0.1l-0.7,0.1l-0.7,0.1L367,325l-0.8,0.1
				l-0.8,0.1l-0.9,0.1l-0.9,0.1l-0.9,0.1l-0.9,0.1l-1,0.1l-1,0.1l-1,0.1l-1,0.1l-1.1,0.1l-1.1,0.1l-1.1,0.1l-1.2,0.1l-1.2,0.1
				l-1.2,0.1l-1.2,0.1l-1.3,0.1l-1.3,0.1l-1.3,0.1l-1.3,0.1l-1.4,0.1l-1.4,0.1l-1.4,0.2l-1.5,0.1l-1.5,0.2l-1.5,0.2l-1.5,0.2
				l-1.5,0.2l-1.6,0.2l-1.6,0.2L328,329l-1.6,0.2l-1.6,0.2l-1.7,0.2l-1.7,0.3l-1.7,0.3l-1.7,0.3l-1.7,0.3l-1.8,0.3l-1.8,0.3
				l-1.8,0.3l-1.8,0.3l-1.8,0.3l-1.8,0.4l-1.8,0.4l-1.8,0.4l-1.9,0.4l-1.9,0.4l-1.9,0.4l-1.9,0.4l-1.9,0.4l-1.9,0.5l-1.9,0.5
				l-1.9,0.5l-1.9,0.5l-1.9,0.5l-2,0.5l-2,0.5l-2,0.6l-2,0.6l-2,0.6l-2,0.6l-2,0.6l-2,0.6l-2,0.6l-2,0.7l-2,0.7l-2,0.7l-2,0.7
				l-2,0.7l-2,0.7l-2,0.7l-2,0.7l-2,0.8l-2,0.8l-2,0.8L241,352l-1.9,0.8l-1.9,0.8l-1.9,0.8l-1.9,0.8l-1.9,0.8l-1.9,0.8l-1.9,0.9
				l-1.9,0.9l-1.9,0.9l-1.8,0.9l-1.8,0.9l-1.8,0.9l-1.8,0.9l-1.8,0.9l-1.8,0.9L212,367l-1.7,0.9l-1.7,0.9l-1.7,0.9l-1.7,0.9
				l-1.7,0.9l-1.7,0.9l-1.6,0.9l-1.6,0.9l-1.6,1l-1.6,0.9l-1.6,0.9l-1.6,0.9l-1.5,0.9l-1.5,0.9l-1.5,0.9l-1.5,0.9l-1.5,0.9l-1.4,0.9
				l-1.4,0.9l-1.4,0.9l-1.4,0.9l-1.3,0.9l-1.3,0.9l-1.3,0.9l-1.3,0.9l-1.3,0.9l-1.2,0.9l-1.2,0.9l-1.2,0.9l-1.2,0.8l-1.2,0.8
				l-1.1,0.8l-1.1,0.8l-1.1,0.8l-1.1,0.8l-1,0.8l-1,0.8l-1,0.7l-1,0.7l-1,0.7l-0.9,0.7l-0.9,0.7l-0.9,0.6l-0.9,0.6l-0.9,0.6
				l-0.8,0.6l-0.8,0.6l-0.8,0.5l-0.8,0.5l-0.7,0.5l-0.7,0.5l-0.7,0.5l-0.7,0.4l-0.7,0.4l-0.6,0.4l-0.6,0.4l-0.6,0.3l-0.6,0.3
				l-0.6,0.3l-0.5,0.3l-0.5,0.2l-0.5,0.2L141,412l-0.5,0.2l-0.5,0.1l-0.5,0.1l-0.5,0.1l-0.4,0.1h-0.4h-0.4h-0.4l-0.4-0.1l-0.4-0.1
				l-0.4-0.1l-0.3-0.1l-0.3-0.2l-0.3-0.2l-0.3-0.2l-0.3-0.3l-0.3-0.3l-0.3-0.3l-0.3-0.4l-0.3-0.4l-0.3-0.4l-0.2-0.4l-0.2-0.5
				l-0.2-0.5l-0.2-0.5l-0.2-0.6l-0.2-0.6l-0.2-0.6l-0.2-0.7l-0.2-0.7l-0.2-0.7l-0.2-0.8l-0.2-0.8l-0.2-0.8l-0.2-0.8L130,400
				l-0.2-0.9l-0.2-0.9l-0.2-1l-0.2-1l-0.2-1l-0.2-1l-0.2-1.1l-0.2-1.1l-0.2-1.1l-0.2-1.2l-0.2-1.2l-0.3-1.2l-0.3-1.2l-0.3-1.3
				l-0.3-1.3l-0.3-1.3l-0.3-1.3l-0.3-1.4l-0.3-1.4l-0.3-1.4l-0.3-1.4l-0.3-1.5l-0.4-1.5l-0.4-1.5l-0.4-1.5l-0.4-1.5l-0.4-1.6
				l-0.4-1.6l-0.4-1.6l-0.4-1.6l-0.5-1.6l-0.5-1.7l-0.5-1.7l-0.5-1.7l-0.5-1.7l-0.5-1.7l-0.5-1.7l-0.5-1.7l-0.6-1.8l-0.6-1.8
				l-0.6-1.8l-0.6-1.8l-0.6-1.8l-0.6-1.8l-0.6-1.8l-0.7-1.8l-0.7-1.8l-0.7-1.8l-0.7-1.9l-0.7-1.9l-0.7-1.9l-0.7-1.9l-0.8-1.9
				l-0.8-1.9l-0.8-1.9l-0.8-1.9l-0.8-1.9l-0.8-1.9l-0.8-1.9l-0.9-1.9l-0.9-1.9l-0.9-1.9l-0.9-1.9l-0.9-1.9l-0.9-1.9l-0.9-1.9
				l-0.9-1.9l-1-1.9l-1-1.9l-1-1.9l-1-1.8l-1-1.8l-1-1.8l-1-1.8l-1-1.8l-1-1.8l-1-1.8l-1-1.8l-1.1-1.8l-1.1-1.8l-1.1-1.8l-1.1-1.8
				l-1.1-1.7l-1.1-1.7l-1.1-1.7l-1.1-1.7l-1.1-1.7l-1.1-1.7l-1.1-1.6l-1.1-1.6l-1.1-1.6l-1.1-1.6l-1.1-1.6l-1.1-1.6l-1.1-1.5
				l-1.1-1.5l-1.1-1.5l-1.1-1.5l-1.1-1.5l-1.1-1.5l-1.1-1.4l-1.1-1.4l-1.1-1.4l-1.1-1.4l-1.1-1.4l-1.1-1.3l-1.1-1.3l-1.1-1.3
				l-1.1-1.3l-1.1-1.3l-1.1-1.2l-1-1.2l-1-1.2l-1-1.2l-1-1.2l-1-1.1l-1-1.1l-1-1.1l-1-1.1l-1-1.1l-1-1l-0.9-1l-0.9-1l-0.9-1
				l-0.9-0.9l-0.9-0.9l-0.8-0.9l-0.8-0.9l-0.8-0.9l-0.8-0.8l-0.8-0.8l-0.8-0.8l-0.7-0.8l-0.7-0.8l-0.7-0.8l-0.7-0.7l-0.7-0.7
				l-0.6-0.7l-0.6-0.7l-0.6-0.7l-0.6-0.6l-0.5-0.6l-0.5-0.6l-0.5-0.6l-0.5-0.6l-0.4-0.6l-0.4-0.6l-0.4-0.5l-0.3-0.5l-0.3-0.5
				l-0.3-0.5l-0.3-0.5l-0.2-0.5l-0.2-0.5l-0.2-0.4l-0.1-0.4l-0.1-0.4l-0.1-0.4l-0.1-0.4v-0.4v-0.4V185l0.1-0.4l0.1-0.4l0.1-0.4
				l0.1-0.3l0.2-0.3l0.2-0.3l0.2-0.3l0.3-0.3l0.3-0.3l0.3-0.3l0.4-0.3l0.4-0.3l0.4-0.3l0.5-0.3l0.5-0.3l0.5-0.3l0.6-0.3l0.6-0.3
				l0.6-0.3l0.6-0.3l0.7-0.3l0.7-0.3l0.7-0.3l0.8-0.3l0.8-0.3l0.8-0.3l0.8-0.3l0.9-0.3l0.9-0.3l0.9-0.3l1-0.4l1-0.3l1-0.4l1.1-0.4
				l1.1-0.4l1.1-0.4l1.1-0.4l1.2-0.4l1.2-0.4l1.2-0.4l1.2-0.4l1.2-0.4l1.3-0.4l1.3-0.5l1.3-0.5l1.3-0.5l1.4-0.5l1.4-0.5l1.4-0.5
				l1.4-0.5l1.4-0.5l1.5-0.6l1.5-0.6l1.5-0.6l1.5-0.6l1.5-0.6l1.6-0.6l1.6-0.6l1.6-0.7L72,161l1.6-0.7l1.6-0.7l1.6-0.7l1.7-0.7
				l1.7-0.8l1.7-0.8l1.7-0.8l1.7-0.8l1.7-0.8l1.7-0.8l1.7-0.9l1.7-0.9l1.7-0.9l1.8-0.9l1.7-0.9l1.8-0.9l1.8-0.9l1.8-0.9l1.8-1l1.8-1
				l1.8-1l1.8-1l1.8-1l1.8-1l1.8-1.1l1.8-1.1l1.8-1.1l1.8-1.1l1.8-1.1l1.8-1.1l1.8-1.1l1.8-1.1l1.8-1.2l1.7-1.2l1.7-1.2l1.7-1.2
				l1.7-1.2l1.7-1.2l1.7-1.2l1.7-1.2l1.7-1.2l1.7-1.2l1.7-1.3l1.7-1.2l1.6-1.3l1.6-1.3l1.6-1.3l1.6-1.3l1.6-1.3l1.6-1.3l1.6-1.3
				l1.5-1.3l1.5-1.3l1.5-1.3l1.5-1.3l1.5-1.3l1.5-1.3l1.5-1.3l1.4-1.3l1.4-1.3l1.4-1.3l1.4-1.3l1.4-1.3l1.4-1.3l1.3-1.3l1.3-1.3
				l1.3-1.3l1.3-1.3l1.3-1.3l1.2-1.3l1.2-1.3l1.2-1.3l1.2-1.2l1.2-1.2l1.1-1.2l1.1-1.2l1.1-1.2l1.1-1.2l1.1-1.2l1.1-1.2l1-1.2l1-1.2
				l1-1.1l1-1.1l1-1.1l0.9-1.1l0.9-1.1l0.9-1l0.9-1l0.9-1l0.8-1l0.8-1l0.8-1l0.8-0.9l0.8-0.9l0.8-0.9l0.7-0.9l0.7-0.9l0.7-0.8
				l0.7-0.8l0.7-0.8l0.7-0.8l0.6-0.7l0.6-0.7l0.6-0.7l0.6-0.7l0.6-0.6l0.6-0.6l0.5-0.6l0.5-0.6l0.5-0.5l0.5-0.5l0.5-0.5l0.5-0.5
				l0.5-0.4l0.5-0.4l0.5-0.4l0.5-0.3l0.4-0.3l0.4-0.3l0.4-0.2l0.4-0.2l0.4-0.2l0.4-0.2l0.4-0.1l0.4-0.1l0.4-0.1h0.4h0.4h0.4L229,39
				l0.4,0.1l0.4,0.1l0.4,0.2l0.4,0.2l0.4,0.2l0.3,0.3l0.4,0.3l0.3,0.3l0.4,0.3l0.4,0.4l0.4,0.4l0.4,0.4l0.4,0.5l0.4,0.5l0.4,0.5
				l0.4,0.6l0.4,0.6l0.4,0.6l0.4,0.6l0.4,0.7l0.4,0.7l0.4,0.7L238,49l0.4,0.8l0.4,0.8l0.4,0.9l0.5,0.9l0.5,0.9l0.5,0.9l0.5,1l0.5,1
				l0.5,1l0.5,1l0.5,1.1l0.5,1.1l0.5,1.1l0.6,1.1l0.6,1.2L246,65l0.6,1.2l0.6,1.2l0.6,1.2l0.6,1.3l0.6,1.3l0.7,1.3l0.7,1.3l0.7,1.3
				l0.7,1.4l0.7,1.4l0.7,1.4l0.8,1.4l0.8,1.4l0.8,1.4l0.8,1.5l0.8,1.5L258,88l0.9,1.5l0.9,1.5l0.9,1.5l0.9,1.5l0.9,1.6l0.9,1.6
				l1,1.6l1,1.6l1,1.6l1,1.6l1,1.6l1,1.6l1,1.6l1.1,1.6l1.1,1.6l1.1,1.6l1.1,1.6l1.1,1.6l1.2,1.6l1.2,1.6l1.2,1.6l1.2,1.6l1.2,1.6
				l1.2,1.6l1.2,1.6l1.2,1.6l1.3,1.6l1.3,1.6l1.3,1.6l1.3,1.6l1.3,1.6l1.3,1.6l1.3,1.6l1.4,1.6l1.4,1.6l1.4,1.6l1.4,1.6l1.4,1.6
				l1.4,1.6l1.4,1.6l1.4,1.5l1.4,1.5l1.4,1.5l1.5,1.5l1.4,1.5l1.5,1.5l1.5,1.5l1.5,1.5l1.5,1.4l1.5,1.4l1.5,1.4l1.5,1.4l1.5,1.4
				l1.5,1.4l1.5,1.4l1.5,1.3l1.5,1.3l1.5,1.3l1.5,1.3l1.5,1.3l1.5,1.3l1.5,1.2l1.5,1.2l1.5,1.2l1.5,1.2l1.5,1.2l1.5,1.2l1.4,1.2
				l1.4,1.1l1.4,1.1l1.4,1.1l1.4,1.1l1.4,1.1l1.4,1l1.4,1l1.4,1l1.3,1l1.4,1l1.3,0.9l1.3,0.9l1.3,0.9l1.3,0.9l1.3,0.9l1.3,0.9
				l1.2,0.8l1.2,0.8l1.2,0.8l1.2,0.8l1.2,0.8l1.2,0.8l1.1,0.8l1.1,0.7l1.1,0.7l1.1,0.7l1,0.7l1,0.7l1,0.6l1,0.6l1,0.6l0.9,0.6
				l0.9,0.6l0.9,0.6l0.8,0.6l0.8,0.6l0.8,0.6l0.8,0.5l0.8,0.5l0.7,0.5l0.7,0.5l0.7,0.5l0.6,0.5l0.6,0.5l0.6,0.5l0.6,0.4l0.5,0.4
				l0.5,0.4l0.5,0.4l0.4,0.4l0.4,0.4l0.4,0.4l0.3,0.4l0.3,0.4l0.3,0.4l0.2,0.4l0.2,0.4l0.2,0.4l0.2,0.4l0.1,0.4l0.1,0.4l0.1,0.4v0.4
				"/>
		</g>
	</g>
</g>
</svg>
