<?xml version="1.0" encoding="utf-8"?>
<!-- Generator: Adobe Illustrator 27.9.0, SVG Export Plug-In . SVG Version: 6.00 Build 0)  -->
<svg version="1.1" id="Calque_1" xmlns="http://www.w3.org/2000/svg" xmlns:xlink="http://www.w3.org/1999/xlink" x="0px" y="0px"
	 viewBox="0 0 497 507" style="enable-background:new 0 0 497 507;" xml:space="preserve">
<style type="text/css">
	.st0{fill:#40A6F2;}
</style>
<path id="path3448" class="st0" d="M256.58,483.7c-0.12-0.37-0.6-2.64-1.05-5.04c-2.78-14.63-11.51-36.78-20.84-52.88l-2.2-3.8
	l-1.2,1.49c-11.4,14.17-25.96,40.99-28.98,53.39c-0.68,2.81-1.46,4.13-2.04,3.49c-0.21-0.22-0.18-2.84,0.07-5.8
	c1.17-14.11-2.99-43.33-8.54-60.01c-0.34-1.02-8.18,5.44-17.36,14.3c-11.25,10.87-20.65,22.28-25.53,30.97
	c-2.33,4.15-3.01,3.14-1.38-2.03c1.66-5.26,3.72-14.53,4.67-21c2.34-15.98,3.11-40.85,1.25-40.85c-0.28,0-4.03,1.69-8.32,3.76
	c-15.77,7.6-31.41,17.89-40.96,26.96c-2.76,2.62-5.15,4.56-5.31,4.3c-0.16-0.25,0.89-2.4,2.32-4.77
	c5.17-8.54,9.99-19.56,14.15-32.31c2.28-7,7.05-25.17,6.69-25.52c-0.3-0.3-15.38,2.76-21.92,4.45
	c-12.96,3.34-26.78,8.61-34.94,13.32c-5.04,2.9-6.53,2.69-2.98-0.43c6.68-5.88,17.87-20.54,25.71-33.69
	c4.05-6.78,9.93-18.14,9.57-18.47c-0.37-0.33-17.95-1.31-23.37-1.31c-12.52,0-28.21,1.85-36.76,4.33c-3.78,1.1-4.53,1.14-4.53,0.27
	c0-0.2,2.02-1.49,4.48-2.87c4.31-2.41,13.96-9.14,17.61-12.29c9.32-8.05,17.97-16.7,26.3-26.3l1.37-1.58l-4.97-1.85
	c-16.33-6.09-37.05-10.41-51.99-10.84c-3.82-0.11-7.04-0.21-7.17-0.23c-0.13-0.02,0.01-0.27,0.3-0.56s2.64-1.09,5.23-1.78
	c9.7-2.59,23.68-8.67,34.34-14.91c5.08-2.98,19.21-12.04,19.21-12.32s-14.13-9.34-19.21-12.32c-10.65-6.24-24.64-12.32-34.34-14.91
	c-2.59-0.69-4.94-1.49-5.23-1.78s-0.42-0.54-0.3-0.56c0.13-0.02,3.35-0.12,7.17-0.23c14.94-0.42,35.65-4.74,52.01-10.84
	c3.93-1.47,4.86-2,4.37-2.49c-0.34-0.35-1.78-1.97-3.19-3.61c-6.43-7.46-14.94-15.87-23.91-23.62c-3.62-3.13-13.28-9.88-17.6-12.29
	c-2.47-1.38-4.48-2.67-4.48-2.87c0-0.87,0.75-0.83,4.53,0.27c8.56,2.48,24.25,4.33,36.76,4.33c5.7,0,23.02-0.99,23.4-1.34
	c0.2-0.18-1.98-4.57-5.96-11.99c-7.21-13.44-17.51-27.91-26.36-37.07c-2.82-2.92-4.96-5.47-4.75-5.66c0.21-0.2,2.35,0.78,4.75,2.16
	c8.16,4.71,21.98,9.97,34.94,13.32c6.54,1.69,21.62,4.75,21.92,4.45c0.1-0.1-0.85-4.33-2.12-9.39
	c-5.22-20.76-11.9-37.72-19.67-49.93c-0.95-1.49-1.58-2.94-1.4-3.23c0.18-0.28,2.58,1.63,5.34,4.25
	c9.57,9.08,25.01,19.25,40.87,26.9c4.36,2.1,8.15,3.82,8.42,3.82c1.84,0,1.07-24.93-1.26-40.85c-0.95-6.47-3.01-15.74-4.67-21
	c-1.63-5.17-0.95-6.18,1.38-2.03c3.86,6.89,12.31,17.7,19.95,25.53c8.96,9.19,22.34,20.85,22.89,19.95
	c0.44-0.7,3.27-11.98,4.62-18.38c3.08-14.62,4.76-32.27,3.97-41.85c-0.25-2.97-0.28-5.58-0.07-5.8c0.59-0.64,1.36,0.68,2.04,3.49
	c3,12.33,17.75,39.5,28.99,53.41l1.22,1.51l2.15-3.82c3.95-7.01,10.87-21.47,13.15-27.46c4.17-10.98,6-16.96,7.6-24.93
	c0.63-3.13,1.37-5.74,1.65-5.8c0.29-0.06,0.67,2.1,0.89,5.04c0.79,10.76,3.06,22.1,7.12,35.6c2.4,7.97,7.79,22.44,8.74,23.46
	c0.44,0.48,1.17-0.2,7.23-6.79c2.83-3.08,8.91-10.44,12.99-15.73c4.46-5.79,11.35-16.9,14.79-23.85c3.68-7.43,5.1-8.83,3.99-3.91
	c-3.27,14.44-3.24,37.45,0.07,60.41l0.57,3.93l4.93-3.11c6.51-4.1,14.63-9.88,20.65-14.7c6.47-5.18,17.18-15.65,21.15-20.69
	c1.75-2.23,3.34-4.05,3.52-4.05c0.96,0,0.79,0.92-0.76,4.03c-6.12,12.3-11.6,34.09-13.81,54.96l-0.67,6.32l1.58-0.34
	c3.04-0.66,16.54-5.48,23.16-8.27c11.62-4.89,23.49-11.54,31.18-17.46c3.11-2.39,4.64-2.23,2.34,0.25
	c-4.8,5.15-11.79,16.19-17.59,27.77c-5.67,11.33-12.6,28.49-11.82,29.27c0.47,0.47,18.04-0.9,25.4-1.97
	c13.09-1.91,25.21-4.97,33.47-8.46c2.36-1,4.49-1.62,4.73-1.38c0.24,0.24-1.6,1.94-4.09,3.79c-9.62,7.14-22.57,20.84-31.74,33.59
	c-5.26,7.31-8.02,11.68-7.62,12.06c0.6,0.56,12.07,2.83,20.45,4.04c14.59,2.11,33.52,2.37,41.51,0.58c2.24-0.5,3.48-0.06,2.32,0.83
	c-0.37,0.28-1.82,0.92-3.23,1.43c-6.77,2.45-17.51,8.43-27.87,15.53c-9.18,6.29-23.53,18.31-22.96,19.23
	c0.38,0.61,13.78,7.11,19.49,9.45c12.43,5.1,25.38,8.91,35.41,10.42c3.3,0.49,5.99,1.12,5.99,1.4s-2.7,0.9-5.99,1.4
	c-10.86,1.63-25.03,5.96-38.75,11.86c-5.48,2.35-15.32,7.26-16.07,8.01c-0.23,0.23,1.16,1.81,3.08,3.53
	c14.62,13.08,31.94,24.64,45.2,30.16c2.49,1.04,4.86,2.06,5.25,2.27c0.9,0.48,0.57,1.4-0.45,1.26c-0.42-0.06-2.62-0.38-4.88-0.71
	c-5.16-0.76-21.82-0.76-29.29,0.01c-9.7,0.99-28.22,4.27-29.2,5.17c-0.23,0.21,1.06,2.57,2.87,5.24
	c11.27,16.62,25.09,31.91,36.5,40.38c2.49,1.85,4.33,3.55,4.09,3.79c-0.24,0.24-2.37-0.38-4.73-1.38
	c-8.54-3.6-22.37-7.01-35.23-8.68c-7.32-0.95-17.41-1.82-21.23-1.83c-3.17-0.01-3.15-0.67-0.24,7.19
	c4.43,12,11.31,26.47,16.79,35.31c3.13,5.05,8.36,12.36,10.46,14.62c2.3,2.47,0.77,2.63-2.34,0.25
	c-7.81-6.01-19.33-12.45-31.18-17.45c-6.61-2.79-20.11-7.61-23.16-8.27l-1.58-0.34l0.63,5.82c2.34,21.65,7.71,43.23,13.74,55.18
	c1.67,3.31,1.87,4.3,0.88,4.3c-0.18,0-1.77-1.82-3.52-4.05c-3.97-5.04-14.68-15.52-21.15-20.69c-6.02-4.82-14.14-10.59-20.65-14.7
	l-4.93-3.11l-0.57,3.93c-3.31,22.96-3.34,45.97-0.07,60.41c1.11,4.92-0.31,3.52-3.99-3.91c-3.44-6.95-10.33-18.07-14.79-23.85
	c-4.01-5.2-8.62-10.8-11.92-14.47c-6.68-7.43-7.83-8.55-8.29-8.06c-0.25,0.27-1.73,3.72-3.29,7.68
	c-6.68,16.93-11.59,36.91-12.49,50.82C257.71,483.36,257.15,485.42,256.58,483.7L256.58,483.7z M260.66,453.4
	c2.72-10.8,6.92-23.05,11.91-34.75c0.35-0.82-3.73-4.75-17.85-17.24l-2.79-2.47l-2.47,2.73c-7.87,8.68-15.77,18.12-15.77,18.83
	c0,0.28,1.07,2.32,2.38,4.53c7.46,12.61,16.56,34.27,19.53,46.49l0.95,3.89l1.13-7.33C258.3,464.07,259.64,457.46,260.66,453.4
	L260.66,453.4z M202.34,472.23c0-0.14-0.12-0.26-0.26-0.26s-0.26,0.12-0.26,0.26s0.12,0.26,0.26,0.26S202.34,472.38,202.34,472.23z
	 M209.54,455.27c5.77-11.26,12.25-21.67,19.09-30.68l3.01-3.96l-0.96-1.69c-1.12-1.99-4.73-7.71-6.25-9.92
	c-0.58-0.85-2.68-3.91-4.66-6.81s-3.8-5.27-4.04-5.27c-1.06,0-22.64,15.14-22.64,15.89c0,0.17,0.47,1.92,1.04,3.9
	c4.29,14.84,7.04,31.46,7.98,48.26l0.34,6.13l1.57-4.07C204.89,464.82,207.37,459.51,209.54,455.27z M309.71,460.92
	c-1.46-11.16-1.08-30.32,0.91-45.73c1.42-11.03,1.62-10.22-3.19-12.92c-7.65-4.29-19.86-10.07-20.31-9.62
	c-0.88,0.88-10.3,19.42-11.8,23.21c-0.65,1.64-0.61,1.77,1.33,3.84c1.1,1.18,2.14,2.26,2.3,2.41c2.04,1.84,11.46,13.03,16.63,19.74
	c2.96,3.84,10.54,15.54,12.62,19.46c0.99,1.86,1.84,3.34,1.89,3.29C310.13,464.55,309.97,462.89,309.71,460.92L309.71,460.92z
	 M153.89,449.62c8.2-11.07,22.37-25.64,33.42-34.36c2.05-1.62,3.73-3.1,3.73-3.3c0-0.79-3.31-10.57-6.25-18.45l-3.1-8.32l-8.3,2.87
	c-4.56,1.58-10.38,3.74-12.92,4.8l-4.62,1.93l0.17,6.86c0.39,16.14-1.73,36.47-5.33,51.05
	C150.21,454.61,150.18,454.64,153.89,449.62L153.89,449.62z M358.3,437.57c-4.59-11.72-8.41-28.52-10.28-45.24
	c-1.22-10.87-0.41-9.73-8.23-11.71c-9.76-2.47-19.36-4.34-19.81-3.86c-0.77,0.8-6.13,24.55-6.14,27.15c0,0.29,0.75,0.96,1.67,1.49
	c12.33,7.09,28.52,19.74,39.43,30.81c2.4,2.43,4.4,4.42,4.46,4.42S358.96,439.25,358.3,437.57L358.3,437.57z M115.75,415.21
	c9.66-7.05,24.57-15.52,35.65-20.24l2.76-1.18l-0.35-5.23c-0.42-6.22-1.09-12.87-1.89-18.79l-0.59-4.31l-6.18,0.33
	c-7.46,0.4-20.54,1.84-20.99,2.31c-0.18,0.19-1.39,4.62-2.69,9.84c-3.95,15.91-8.67,29.3-14.27,40.47l-2.91,5.82l2.65-2.26
	C108.4,420.72,112.36,417.68,115.75,415.21L115.75,415.21z M237.01,413.65c1.12-1.41,2.28-2.82,2.57-3.12
	c0.29-0.31,1.57-1.79,2.84-3.31c1.27-1.51,3.01-3.48,3.85-4.36s2.19-2.32,2.99-3.18l1.45-1.57l-3.25-2.48
	c-1.79-1.37-3.51-2.72-3.83-3.01s-1.1-0.88-1.73-1.3c-0.63-0.42-1.42-1-1.74-1.28s-1.71-1.3-3.08-2.26
	c-2.37-1.66-2.56-1.71-3.85-0.96c-0.74,0.43-3.2,1.77-5.46,2.98c-3.68,1.97-5.66,3.12-9.35,5.43c-1.12,0.7-1.1,0.76,2.69,6.24
	c5.49,7.96,5.66,8.21,8.47,12.61c1.41,2.2,2.56,4.28,2.56,4.62C232.15,419.37,233.89,417.57,237.01,413.65L237.01,413.65z
	 M278.21,406.46c2.05-4.24,4.64-9.35,5.75-11.36l2.02-3.65l-8.07-3.38c-4.44-1.86-8.69-3.54-9.45-3.73
	c-1.24-0.31-2.05,0.31-8.32,6.49c-3.82,3.76-6.88,6.99-6.81,7.17c0.08,0.18,3.26,3.12,7.07,6.53c3.82,3.41,8.32,7.48,10.02,9.03
	c2.95,2.7,3.1,2.77,3.57,1.71C274.26,414.66,276.16,410.7,278.21,406.46z M205.17,401.93c3.39-2.35,6.92-4.72,7.84-5.25
	c0.92-0.54,1.67-1.14,1.67-1.33c0-0.32-6.19-8.24-10.48-13.41c-0.88-1.06-1.95-1.92-2.38-1.93c-0.82-0.01-18.01,4.49-18.31,4.79
	c-0.09,0.09,1.13,3.62,2.71,7.83c1.59,4.21,3.58,9.86,4.43,12.54c0.85,2.68,1.65,5.06,1.79,5.28c0.13,0.22,1.66-0.64,3.41-1.92
	C197.57,407.26,201.77,404.28,205.17,401.93L205.17,401.93z M399.77,402.22c-8.12-11.47-18.29-32.05-23.28-47.1l-1.18-3.55
	l-12.37,0.34c-6.8,0.19-13,0.48-13.78,0.65l-1.41,0.31v10.4c0,5.72,0.15,12.11,0.34,14.2l0.34,3.8l9.91,3.27
	c16.25,5.37,32.17,12.85,41.32,19.41c1.27,0.91,2.37,1.67,2.44,1.69C402.17,405.67,401.12,404.13,399.77,402.22L399.77,402.22z
	 M312.53,401.96c0.13-0.64,0.85-4.16,1.59-7.84c0.74-3.67,2.01-9.22,2.82-12.32c0.81-3.1,1.42-5.69,1.37-5.75
	c-0.1-0.1-13.48-1.91-17.7-2.4c-2.1-0.24-2.25-0.16-3.24,1.63c-0.57,1.03-2.3,3.85-3.82,6.25c-3,4.71-5.55,9.28-5.29,9.47
	c0.09,0.06,1.09,0.53,2.22,1.05c5.71,2.58,17.71,8.8,20.03,10.38C311.89,403.38,312.25,403.3,312.53,401.96L312.53,401.96z
	 M256.43,392.28c2.61-2.57,5.73-5.58,6.94-6.69c1.2-1.11,2.18-2.11,2.18-2.23s-3.25-1.28-7.23-2.58c-4.67-1.52-7.63-2.24-8.35-2.02
	c-1.51,0.47-10.34,4.68-12.24,5.83l-1.52,0.92l2.77,1.84c1.52,1.01,4.95,3.58,7.61,5.7s4.89,3.87,4.96,3.88
	C251.62,396.94,253.81,394.85,256.43,392.28L256.43,392.28z M221.69,391.39c2.78-1.64,6.39-3.66,8.01-4.48
	c1.63-0.82,2.95-1.66,2.95-1.88c0-0.37-6.64-4.97-10.95-7.58l-1.96-1.19l-7.29,1.42c-4.01,0.78-7.47,1.58-7.69,1.78
	s1.4,2.54,3.6,5.22c2.2,2.67,4.81,5.94,5.8,7.26s1.95,2.41,2.14,2.42C216.48,394.38,218.91,393.04,221.69,391.39L221.69,391.39z
	 M160.48,391.12c2.25-0.95,7.68-2.95,12.06-4.46c4.38-1.5,8.06-2.81,8.18-2.91c0.26-0.21-2.27-6.14-5.71-13.39l-2.5-5.27h-9.82
	h-9.82l0.33,2.04c0.52,3.24,1.76,15.22,2.14,20.7c0.19,2.76,0.51,5.01,0.69,5.01C156.23,392.84,158.22,392.07,160.48,391.12
	L160.48,391.12z M288.32,387.57c1.61-3.09,6.17-10.65,6.91-11.47c0.27-0.3,0.76-1.03,1.08-1.63c0.65-1.21,0.49-1.23-10.58-1.96
	l-4.74-0.31l-5.91,4.95c-6.08,5.09-6.9,5.91-5.95,5.91c0.58,0,11.62,4.49,15.18,6.17c1.13,0.53,2.18,0.98,2.33,1
	C286.79,390.26,287.54,389.06,288.32,387.57z M241.56,380.83l6.59-3.25l-5.88-1.62c-3.23-0.89-6.78-1.61-7.88-1.61
	c-2.02,0.01-11.47,1.33-11.79,1.64c-0.23,0.23,11.18,7.96,11.84,8.03C234.74,384.06,237.94,382.62,241.56,380.83L241.56,380.83z
	 M76.9,378.71c10.92-4.47,22.76-7.87,36.85-10.59l8.78-1.69l0.83-4.39c0.75-3.97,2.38-15,3.12-21.19c0.34-2.8,0.88-2.47-6.74-3.98
	c-8.31-1.64-19.79-3.2-20.23-2.76c-0.22,0.22-1.42,2.37-2.67,4.78c-8.61,16.56-16.45,28.62-25.21,38.8
	c-5.24,6.08-5.01,5.69-2.52,4.43C70.32,381.5,73.82,379.97,76.9,378.71z M192.12,380.69l9.05-2.39l-2.12-2.3
	c-1.16-1.27-3.66-3.94-5.53-5.94l-3.42-3.64l-4.03-0.37c-5.47-0.5-11.61-0.53-11.39-0.05c0.1,0.21,1.12,2.35,2.26,4.75
	s2.86,6.16,3.81,8.35s1.86,3.98,2.02,3.98C182.94,383.08,187.14,382.01,192.12,380.69z M271.05,378.58
	c2.21-1.91,4.66-3.96,5.43-4.57c0.77-0.61,1.4-1.24,1.4-1.41s-2.93-0.31-6.51-0.31h-6.51l-5.83,2.39c-3.21,1.31-5.69,2.53-5.53,2.7
	c0.28,0.29,12.38,4.55,13.17,4.64C266.86,382.03,268.83,380.49,271.05,378.58L271.05,378.58z M346.31,367.02
	c-0.12-7.7-0.27-14.07-0.35-14.16c-0.16-0.17-11.11,1.17-16.28,2l-3.43,0.55l-2.15,6.77c-1.18,3.72-2.47,7.76-2.86,8.97
	c-0.98,3.01-0.9,3.65,0.44,3.92c10.94,2.19,24.57,5.43,24.82,5.91C346.51,381,346.43,374.72,346.31,367.02L346.31,367.02z
	 M211.18,376.33c4.85-0.94,5.91-1.29,5.45-1.84c-0.31-0.37-2.9-1.93-5.76-3.47c-4.6-2.46-5.73-2.85-9.82-3.33
	c-2.54-0.3-5.54-0.69-6.66-0.86l-2.03-0.32l5.34,5.75c4.2,4.51,5.57,5.69,6.4,5.49C204.69,377.61,207.87,376.97,211.18,376.33
	L211.18,376.33z M257.46,373.57c1.35-0.51,2.35-1.03,2.22-1.16s-3.72,0.02-7.99,0.33c-4.26,0.31-8.44,0.57-9.28,0.57
	c-2.77,0-1.6,0.75,3.22,2.06l4.75,1.29l2.31-1.09C253.97,374.98,256.11,374.08,257.46,373.57L257.46,373.57z M226.98,372.17
	c-5.01-1.18-15.47-3.05-15.72-2.81c-0.11,0.11,1.02,0.85,2.5,1.66s3.41,1.95,4.29,2.55c1.57,1.06,1.69,1.07,7.17,0.29l5.58-0.79
	L226.98,372.17L226.98,372.17z M321.94,364.07c1.12-3.53,2.21-6.83,2.42-7.32c0.51-1.19,0.31-1.18-8.15,0.47l-7.14,1.4l-2.98,4.14
	c-1.64,2.28-3.81,5.3-4.83,6.71l-1.85,2.57l1.69,0.15c3.71,0.33,17.11,2.25,17.35,2.49c0.14,0.14,0.52-0.74,0.85-1.96
	C319.63,371.49,320.82,367.6,321.94,364.07L321.94,364.07z M243.87,371.75c3.3-0.29,9.47-0.73,13.71-0.98l7.71-0.44l13.36-4.48
	c13.91-4.66,15.43-5.28,17.98-7.28c2.28-1.78,2.28-1.78,6.17-4.27c1.98-1.26,3.71-2.44,3.85-2.62s1.07-0.74,2.06-1.24
	s1.91-1.08,2.06-1.28c0.14-0.2,1-0.75,1.91-1.22c2.56-1.31,5.43-3.35,6.57-4.65c0.57-0.65,1.84-2.1,2.83-3.23s2.99-3.41,4.45-5.08
	s4.75-5.23,7.31-7.91c4.01-4.19,5.07-5.71,7.58-10.79c1.61-3.25,4.74-9.13,6.97-13.07c3.63-6.42,4.17-7.75,5.28-12.85
	c1.44-6.64,4.58-18.92,5.37-21.01c0.35-0.92,0.55-7.46,0.55-18.08s-0.2-17.16-0.55-18.08c-0.79-2.08-3.93-14.35-5.37-20.97
	c-1.06-4.88-1.68-6.46-4.59-11.56c-1.85-3.25-4.99-9.15-6.97-13.1c-3.23-6.45-4.09-7.7-8.27-12.08c-2.57-2.68-5.86-6.25-7.31-7.91
	c-1.46-1.67-3.46-3.96-4.45-5.08s-2.26-2.58-2.83-3.23c-1.13-1.3-4.01-3.34-6.57-4.65c-0.91-0.47-1.77-1.02-1.91-1.22
	s-1.07-0.78-2.06-1.28c-0.99-0.5-1.91-1.06-2.06-1.24s-1.88-1.36-3.85-2.62c-3.89-2.49-3.89-2.48-6.17-4.27
	c-2.56-2-4.1-2.63-17.98-7.28l-13.36-4.47l-7.19-0.43c-3.96-0.23-10.78-0.71-15.16-1.05l-7.96-0.62l-7.19,1.61
	c-3.96,0.89-10.44,2.17-14.42,2.85c-7.02,1.2-7.43,1.34-14.9,5.19c-4.22,2.18-10.14,5.06-13.14,6.4c-4.86,2.18-6.19,3.09-12.08,8.3
	c-3.64,3.22-8.75,7.54-11.35,9.6c-4.14,3.29-5.28,4.58-9.24,10.47c-2.49,3.69-4.98,7.35-5.55,8.12c-0.57,0.77-1.48,2.07-2.04,2.89
	s-1.96,2.67-3.12,4.11c-1.47,1.84-2.69,4.3-4.06,8.22c-1.07,3.08-3.53,9.52-5.46,14.33c-3.31,8.24-3.54,9.08-4.08,14.9
	c-0.31,3.39-1.15,10.21-1.85,15.15l-1.28,8.98l1.28,9.01c0.7,4.95,1.53,11.78,1.84,15.17c0.51,5.56,0.82,6.8,3.18,12.59
	c1.44,3.53,3.95,10.06,5.57,14.51c2.19,5.99,3.48,8.72,4.96,10.53c1.1,1.35,2.46,3.12,3.01,3.94s1.47,2.12,2.03,2.89
	c0.57,0.77,3.06,4.43,5.55,8.12c3.96,5.89,5.1,7.18,9.24,10.47c2.6,2.06,7.7,6.39,11.35,9.6c5.9,5.21,7.22,6.12,12.08,8.3
	c3,1.34,8.91,4.22,13.13,6.4c7.66,3.95,7.68,3.95,16.19,5.45c4.68,0.83,10.83,2.05,13.65,2.73
	C234.32,372.38,235.88,372.47,243.87,371.75L243.87,371.75z M299.7,369.31c0.84-1.33,1.72-2.65,1.95-2.94
	c2.18-2.66,4.89-6.94,4.41-6.94c-0.33,0-3.28,0.72-6.56,1.59c-6.11,1.63-6.59,1.89-13.44,7.24l-3.08,2.41l2.21,0.3
	c1.99,0.27,4.8,0.44,10.94,0.68C298.04,371.73,298.27,371.58,299.7,369.31z M284.02,367.87c2.02-1.58,3.57-3,3.42-3.14
	c-0.25-0.25-13.52,4.01-16.51,5.31c-1.39,0.6-1.02,0.67,3.93,0.69l5.47,0.02L284.02,367.87L284.02,367.87z M137.08,364.81
	c4.1-0.4,8.9-0.73,10.66-0.73c2.81-0.01,3.21-0.13,3.21-0.99c0-1.01-2.92-17.11-3.37-18.62c-0.17-0.57-2.08-1.34-6.02-2.41
	c-9-2.46-12.72-3.33-13.01-3.04c-0.15,0.15-0.71,3.7-1.25,7.9c-0.94,7.32-2.26,15.51-2.91,18.12c-0.3,1.22-0.28,1.23,2.46,0.86
	C128.38,365.7,132.98,365.21,137.08,364.81L137.08,364.81z M199.86,365.07c-2.12-1.29-15.38-7.69-15.94-7.69
	c-0.22,0,1.3,1.71,3.39,3.8l3.8,3.8l3.95,0.5c2.17,0.27,4.53,0.53,5.23,0.57C201.49,366.11,201.47,366.05,199.86,365.07
	L199.86,365.07z M187.95,364.22c0-0.2-2.14-2.39-4.75-4.89c-4.95-4.72-4.8-4.64-16.21-9.02c-0.37-0.14-0.01,0.87,0.79,2.25
	s2.47,4.52,3.7,6.98l2.24,4.48l4.93,0.17c2.71,0.09,5.92,0.22,7.12,0.27C186.97,364.53,187.95,364.42,187.95,364.22L187.95,364.22z
	 M288.67,364.32c0-0.14-0.12-0.26-0.26-0.26s-0.26,0.12-0.26,0.26s0.12,0.26,0.26,0.26S288.67,364.46,288.67,364.32z M171.51,363.35
	c0-0.56-5.9-11.58-6.91-12.9c-0.96-1.27-2.39-1.94-7.96-3.77c-3.73-1.23-6.89-2.13-7.01-2.01s0.53,4.42,1.45,9.55l1.67,9.33h9.38
	C167.29,363.55,171.51,363.46,171.51,363.35L171.51,363.35z M303.38,358.41l4.69-1.12l3.44-4.37c1.89-2.4,3.13-4.2,2.76-3.99
	c-2.73,1.51-17.28,11.19-16.35,10.87C298.34,359.65,300.8,359.03,303.38,358.41L303.38,358.41z M429.6,355.9
	c-10.38-9.21-21.85-22.7-31.17-36.67c-1.65-2.47-3.25-4.5-3.55-4.5c-2.36,0-26.05,7.46-26.05,8.2c0,0.72,3.59,14.33,5.15,19.55
	c0.89,2.97,1.73,5.88,1.88,6.48c0.24,1.01,0.71,1.1,7.52,1.44c16.58,0.82,35.81,4.1,46.6,7.95c1.55,0.55,3,1.03,3.21,1.05
	C433.41,359.42,431.79,357.85,429.6,355.9L429.6,355.9z M318.77,355.05c3.6-0.69,6.58-1.32,6.62-1.39c0.05-0.07,0.85-2.21,1.79-4.76
	c0.94-2.54,2.14-5.75,2.67-7.12l0.97-2.49l-4,2.18c-7.37,4.03-8.16,4.72-14.81,13.03c-1.68,2.09-1.83,2.45-0.9,2.16
	C311.73,356.47,315.18,355.74,318.77,355.05L318.77,355.05z M340.88,351.75l5.19-0.62l0.35-7.48c0.19-4.12,0.49-8.49,0.66-9.71
	c0.21-1.52,0.12-2.23-0.29-2.23c-0.78,0-12.98,6.06-13.78,6.85c-0.56,0.54-5.81,13.83-5.81,14.69c0,0.2,1.91,0.08,4.24-0.25
	C333.78,352.64,338.02,352.09,340.88,351.75L340.88,351.75z M175.62,351.99c0-0.14-0.12-0.26-0.26-0.26s-0.26,0.12-0.26,0.26
	s0.12,0.26,0.26,0.26C175.5,352.25,175.62,352.13,175.62,351.99z M174.26,350.81c-0.48-0.31-5.94-5-7.59-6.53
	c-2.02-1.87-6.03-4.97-6.2-4.8c-0.11,0.11,0.35,1.13,1.03,2.25s1.75,3.01,2.37,4.19c1.04,1.97,1.51,2.29,5.8,3.92
	c2.57,0.97,4.78,1.67,4.91,1.55C174.71,351.26,174.57,351,174.26,350.81L174.26,350.81z M362.32,350.36
	c12.09-0.33,12.24-0.35,11.99-1.41c-0.14-0.59-0.87-3.04-1.61-5.44s-2.26-7.93-3.38-12.29c-1.12-4.36-2.1-7.99-2.17-8.06
	c-0.08-0.08-0.83,0.18-1.67,0.57c-0.84,0.39-3.15,1.33-5.13,2.09s-4.52,1.79-5.65,2.29s-2.89,1.25-3.9,1.67
	c-1.77,0.73-1.86,0.89-2.18,3.92c-0.18,1.73-0.49,6.42-0.68,10.42l-0.35,7.27l1.24-0.35C349.52,350.85,355.58,350.54,362.32,350.36
	L362.32,350.36z M161.99,345.7c-0.45-0.78-1.6-2.68-2.57-4.24c-0.96-1.55-2.13-3.52-2.58-4.37c-0.46-0.85-1.63-2.12-2.62-2.83
	c-0.98-0.71-2.06-1.52-2.4-1.82s-1.77-1.33-3.18-2.31s-2.74-2.01-2.95-2.29c-0.66-0.9-0.45,0.28,1.36,7.45
	c0.96,3.81,2.06,7.12,2.44,7.34c0.71,0.42,12.2,4.38,12.91,4.44C162.62,347.09,162.43,346.47,161.99,345.7L161.99,345.7z
	 M146.84,341.33c0-0.35-0.87-3.95-1.94-8l-1.93-7.35l-6.41-4.28c-5.22-3.48-6.47-4.12-6.73-3.44c-0.17,0.46-0.47,4.41-0.66,8.78
	s-0.47,8.42-0.62,9.01c-0.24,0.97,0.17,1.18,4.51,2.23c2.63,0.64,6.63,1.7,8.89,2.37C146.99,342.13,146.84,342.11,146.84,341.33z
	 M332.4,335.96c0.2-0.51,1.19-2.85,2.2-5.21l1.85-4.28l-3.75,4.02c-3.37,3.61-6.25,6.82-9.33,10.37c-0.81,0.94,0.06,0.62,3.81-1.39
	C329.86,338.06,332.21,336.47,332.4,335.96z M126.97,335.67c0.15-0.64,0.42-4.28,0.59-8.09c0.17-3.82,0.42-7.86,0.56-8.99l0.25-2.06
	l-4.25-2.63c-2.34-1.45-6.28-3.71-8.75-5.04l-4.5-2.41l-0.53,1.44c-1.6,4.35-7.44,18.51-8.69,21.07c-0.8,1.64-1.39,3.05-1.32,3.12
	s3.22,0.6,7.01,1.15c5.39,0.79,13.02,2.2,19.03,3.52C126.54,336.8,126.82,336.31,126.97,335.67z M340.14,332.96
	c3.2-1.56,6.17-3.03,6.59-3.26c0.55-0.31,1-2.47,1.61-7.82c0.47-4.07,0.81-7.44,0.77-7.49s-2.3,2.03-5.02,4.62
	c-4.81,4.6-5,4.87-7.54,10.76c-1.43,3.32-2.52,6.04-2.42,6.04S336.94,334.53,340.14,332.96L340.14,332.96z M48.95,332.47
	c6.13-0.97,17.58-1.8,25.01-1.8c5.8,0,20.36,0.79,23.09,1.26c1.24,0.21,1.49-0.09,3.25-3.9c1.85-3.99,8.03-19.12,8.7-21.29
	c0.29-0.95-0.45-1.44-6.74-4.47c-3.89-1.87-9.53-4.43-12.53-5.68l-5.46-2.28l-7.64,8.27c-11.4,12.33-21,20.89-32.25,28.76
	c-3.36,2.35-3.51,2.53-1.85,2.22C43.52,333.35,46.41,332.87,48.95,332.47L48.95,332.47z M149.91,326.68
	c-1.68-2.47-3.75-5.42-4.59-6.55c-0.85-1.13-1.81-2.58-2.14-3.21c-0.71-1.36-1.74-1.57-1.23-0.26c0.19,0.49,0.82,2.63,1.4,4.75
	l1.05,3.85l4.14,2.95c2.28,1.63,4.2,2.95,4.29,2.95C152.9,331.18,151.59,329.16,149.91,326.68L149.91,326.68z M354.06,326.63
	c1.2-0.54,3.8-1.6,5.78-2.36c6.81-2.63,7.07-2.79,6.74-4.32c-0.16-0.75-0.9-4.72-1.64-8.82c-1.54-8.54-1.59-8.74-2.13-8.72
	c-0.22,0.01-2.95,2.28-6.05,5.04l-5.65,5.02l-0.59,4.09c-0.32,2.25-0.75,5.88-0.95,8.08l-0.37,3.99l1.34-0.51
	C351.27,327.84,352.86,327.17,354.06,326.63L354.06,326.63z M141.89,322.06c-0.19-0.78-1.12-3.7-2.05-6.49
	c-1.75-5.2-2.07-5.74-7.05-11.82l-2.9-3.53v7.7v7.7l5.78,3.87c3.18,2.13,5.96,3.9,6.18,3.93
	C142.06,323.45,142.08,322.83,141.89,322.06L141.89,322.06z M371.51,319.91c3.75-1.37,13.76-4.45,18.3-5.64
	c2.07-0.54,3.88-1.1,4.03-1.25s-0.76-1.96-2.01-4.03c-3.42-5.65-10.66-18.86-10.66-19.44c0-0.28-0.2-0.51-0.44-0.51
	c-0.48,0-11.58,8.19-14.37,10.6l-1.71,1.48l1.09,6.42c1.2,7.05,2.55,13.36,2.86,13.36C368.7,320.9,370.01,320.46,371.51,319.91
	L371.51,319.91z M346.13,314.86l3.6-3.47l0.8-4.85c0.44-2.67,0.72-4.93,0.63-5.02c-0.25-0.25-6.18,10.44-7.7,13.89
	c-0.71,1.61-1.21,2.93-1.11,2.93S344.15,316.77,346.13,314.86z M141.71,314.99c0-0.14-0.12-0.26-0.26-0.26s-0.26,0.12-0.26,0.26
	s0.12,0.26,0.26,0.26C141.59,315.25,141.71,315.13,141.71,314.99z M127.68,297.77c-0.38-0.54-2.64-3.11-5.02-5.7
	c-2.38-2.59-4.41-4.91-4.5-5.15c-0.43-1.11-1.05-0.19-1.87,2.77c-0.49,1.77-1.82,5.94-2.94,9.28c-1.13,3.34-1.97,6.11-1.87,6.17
	c0.1,0.05,0.73,0.4,1.41,0.79c0.68,0.38,3.54,1.95,6.36,3.49s5.97,3.37,6.99,4.07l1.86,1.27l0.14-7.99
	C128.34,300.69,128.2,298.52,127.68,297.77L127.68,297.77z M402.74,311.19c14.57-3.07,25.64-4.27,39.7-4.31l10.67-0.03l-2.96-1.5
	c-13.38-6.78-30.44-18.78-41.44-29.16c-1.35-1.27-2.67-2.39-2.93-2.48c-0.63-0.23-7.22,3.56-16.28,9.36
	c-6.33,4.05-7.3,4.84-7.07,5.8c0.15,0.61,2.19,4.54,4.54,8.74c8.25,14.72,8.55,15.17,9.86,14.86
	C397.4,312.33,400.06,311.76,402.74,311.19L402.74,311.19z M355.26,306.69c1.39-1.18,3.22-2.76,4.07-3.51s2.03-1.7,2.62-2.1
	c1.16-0.8,1.2-0.07-0.6-13.51c-0.37-2.76-0.51-2.64-4.57,4c-2.68,4.39-3.04,5.33-3.91,10.28c-0.53,2.99-1.08,6.09-1.22,6.89
	c-0.22,1.19-0.15,1.33,0.41,0.77C352.42,309.13,353.87,307.86,355.26,306.69L355.26,306.69z M135.42,302.53
	c-0.61-1.63-2.23-5.73-3.59-9.12l-2.48-6.17l0.25,5.29l0.25,5.29l3.17,3.84c1.74,2.11,3.25,3.84,3.34,3.84
	C136.45,305.49,136.03,304.16,135.42,302.53L135.42,302.53z M111.94,298.03c1.05-3.11,2.39-7.38,2.99-9.5l1.08-3.85l-7.05-6.81
	c-3.88-3.75-7.21-6.81-7.4-6.81s-1.07,1.1-1.94,2.44c-3.8,5.87-4.61,6.99-11.97,16.38l-2.46,3.15l6.81,2.93
	c3.74,1.61,9,4.05,11.69,5.42c2.68,1.37,5.21,2.45,5.62,2.4C109.75,303.72,110.77,301.51,111.94,298.03L111.94,298.03z M367.03,297
	c0.85-0.7,4.02-3.07,7.05-5.26s5.51-4.27,5.52-4.63s-0.98-2.67-2.21-5.14s-2.99-6.26-3.93-8.44c-1.94-4.5-1.4-4.61-5.43,1.12
	c-5.86,8.35-5.52,7.56-5.17,11.75c0.65,7.76,1.49,12.82,2.07,12.33C365.24,298.48,366.18,297.7,367.03,297L367.03,297z
	 M127.74,289.03c-0.34-6.53-0.41-6.83-2.78-12.2c-1.34-3.03-2.66-5.81-2.95-6.18c-0.38-0.49-0.98,1.12-2.21,5.91
	c-0.93,3.62-1.7,6.99-1.71,7.49s1.45,2.46,3.25,4.37s4.02,4.33,4.93,5.39c0.92,1.06,1.7,1.93,1.74,1.93S127.93,292.71,127.74,289.03
	z M87.5,287.5c1.41-1.84,2.69-3.46,2.84-3.6c0.16-0.14,0.84-1.07,1.52-2.06s1.38-1.91,1.57-2.06c0.18-0.14,0.89-1.09,1.57-2.12
	s2.1-3.17,3.16-4.76c1.06-1.6,1.92-3.07,1.9-3.28s-2.12-2.11-4.69-4.23c-2.56-2.12-5.07-4.2-5.56-4.62
	c-0.49-0.42-1.66-1.35-2.6-2.06s-2.39-1.86-3.24-2.56c-0.84-0.7-2.36-1.88-3.38-2.61l-1.84-1.34l-5.91,3.96
	c-14.38,9.64-29.14,17.4-41.11,21.59c-4.56,1.6-4.84,2.03-1.32,2.03c9.63,0,33.15,5.33,48.34,10.95
	C84.06,292.71,83.3,292.99,87.5,287.5L87.5,287.5z M359.67,284.48c0.99-1.3,1.13-4.11,0.49-10.08l-0.33-3.08l-2.44,9.81
	c-1.34,5.4-2.44,10.01-2.44,10.26s0.85-0.93,1.89-2.62C357.89,287.08,359.16,285.15,359.67,284.48z M389.9,280.97
	c3.53-2.27,8.2-5.15,10.38-6.4l3.96-2.26l-6.78-6.92c-3.73-3.81-7.97-8.26-9.41-9.9l-2.63-2.98l-2.8,3.24
	c-1.54,1.78-4.35,5.28-6.26,7.77c-2.7,3.54-3.38,4.78-3.11,5.65c0.43,1.38,1.63,4.07,5.17,11.58c2.71,5.74,2.77,5.83,3.91,5.09
	C382.95,285.43,386.36,283.24,389.9,280.97L389.9,280.97z M118.61,274.74c1.98-8.02,2.07-7.45-2.74-16.18l-3.06-5.56l-1.71,2.74
	c-0.94,1.51-2.77,4.47-4.07,6.59c-1.3,2.12-2.85,4.63-3.45,5.57l-1.08,1.72l6.89,6.57c4.09,3.9,7.02,6.33,7.21,5.99
	C116.77,281.85,117.68,278.51,118.61,274.74L118.61,274.74z M366.38,274.48c0.36-0.52,1.52-2.13,2.58-3.56
	c2.21-3,2.27-3.33,0.97-5.91c-0.53-1.05-1.73-4.08-2.67-6.74l-1.71-4.83l-2.15,6.43l-2.15,6.43l0.42,5.86
	c0.23,3.22,0.43,6.42,0.45,7.1C362.15,280.5,362.56,280.04,366.38,274.48L366.38,274.48z M125.81,266.95
	c-0.58-4.56-1.06-8.67-1.06-9.13c0-2.11-0.97,0.54-1.73,4.76l-0.84,4.62l2.18,4.52c1.2,2.48,2.26,4.29,2.35,4.02
	C126.79,275.46,126.39,271.51,125.81,266.95L125.81,266.95z M423.24,263.01c11.58-4.97,24.97-9.33,34.47-11.22
	c1.85-0.37,2.73-0.69,1.96-0.72s-4.93-0.96-9.25-2.08c-12.63-3.28-26.52-8.63-38.63-14.88l-5.95-3.07l-1.61,1.35
	c-0.88,0.74-5.28,5.26-9.78,10.03l-8.17,8.68l1.5,1.89c0.83,1.04,5.19,5.66,9.69,10.27l8.18,8.39l6.07-3.15
	C415.06,266.76,420.24,264.29,423.24,263.01L423.24,263.01z M107.47,258.71c1.09-1.74,2.53-4.14,3.2-5.33l1.21-2.16l-2-3.31
	c-1.1-1.82-2.74-4.58-3.65-6.12s-2.41-3.91-3.34-5.26l-1.69-2.46l-6.08,5.17c-3.34,2.84-8.1,6.69-10.58,8.55
	c-2.47,1.86-4.5,3.44-4.5,3.51s1.1,0.94,2.44,1.93c4.69,3.47,8.08,6.17,13.39,10.71l5.35,4.58l2.13-3.32
	C104.52,263.38,106.37,260.46,107.47,258.71L107.47,258.71z M375,262.84c1.06-1.53,2.81-3.7,6.29-7.79
	c1.62-1.91,2.95-3.61,2.95-3.78s-1.33-1.87-2.95-3.77c-1.63-1.9-3.53-4.21-4.24-5.14c-0.71-0.93-1.63-2.11-2.06-2.64
	c-0.42-0.53-1.22-1.57-1.76-2.31l-0.99-1.36l-0.84,1.73c-0.46,0.95-1.82,4.38-3,7.62l-2.16,5.89l2.09,5.64
	c1.15,3.1,2.47,6.51,2.94,7.57l0.85,1.94l1.05-1.25C373.75,264.52,374.57,263.46,375,262.84L375,262.84z M122.36,257.62l1.22-6.5
	l-1.23-6.32c-0.68-3.48-1.29-6.38-1.36-6.45s-1.74,2.81-3.72,6.4l-3.59,6.53l3.44,6.17c1.89,3.39,3.48,6.51,3.52,6.94
	C120.77,265.66,121.09,264.41,122.36,257.62L122.36,257.62z M362.96,246.15L361.2,241v10.28v10.28l1.76-5.13l1.76-5.13
	L362.96,246.15L362.96,246.15z M84.65,245.89c2.73-2.16,3.9-3.09,5.13-4.12c0.51-0.42,3.02-2.51,5.59-4.62
	c2.56-2.12,4.67-4.02,4.69-4.23s-0.84-1.68-1.9-3.28s-2.48-3.74-3.16-4.76c-0.68-1.02-1.38-1.97-1.57-2.12
	c-0.18-0.14-0.89-1.07-1.57-2.06c-0.68-0.99-1.36-1.91-1.52-2.06c-0.15-0.14-1.44-1.76-2.85-3.6s-2.88-3.71-3.26-4.16
	c-0.63-0.74-1.13-0.66-5.4,0.91c-15.49,5.68-38.8,10.96-48.42,10.96c-3.52,0-3.23,0.44,1.32,2.03C43.7,228.97,58.96,237,73.1,246.53
	l5.65,3.81l1.8-1.33C81.55,248.3,83.39,246.89,84.65,245.89L84.65,245.89z M397.43,237.16l6.76-6.94l-3.94-2.25
	c-3.28-1.88-7.5-4.52-17.94-11.26c-1.13-0.73-1.2-0.64-3.91,5.09c-3.54,7.51-4.74,10.2-5.17,11.58c-0.27,0.87,0.41,2.11,3.11,5.65
	c1.9,2.49,4.72,5.99,6.26,7.77l2.8,3.24l2.63-2.97C389.48,245.43,393.71,240.97,397.43,237.16L397.43,237.16z M116.24,243.32
	c1.86-3.39,3.52-6.82,3.68-7.62c0.26-1.29-2.45-13.74-3.33-15.32c-0.19-0.34-3.12,2.09-7.18,5.96l-6.86,6.54l0.86,1.49
	c0.47,0.82,2.11,3.45,3.64,5.86c1.53,2.4,3.42,5.47,4.2,6.81s1.47,2.44,1.52,2.44C112.82,249.48,114.38,246.7,116.24,243.32
	L116.24,243.32z M367.47,243.74c0.98-2.72,2.16-5.65,2.6-6.52c1.14-2.21,1.06-2.65-1.11-5.59c-1.06-1.44-2.22-3.04-2.58-3.56
	c-3.83-5.57-4.23-6.02-4.26-4.77c-0.02,0.69-0.23,3.79-0.46,6.9l-0.43,5.65l2.11,6.53c1.16,3.59,2.16,6.48,2.23,6.41
	C365.63,248.74,366.48,246.46,367.47,243.74z M126.48,229.69l0.33-3.6l-2.33,4.51l-2.33,4.51l0.81,4.48
	c0.45,2.46,0.95,4.83,1.12,5.25C124.4,245.63,125.88,236.32,126.48,229.69z M376.38,222.81c1.78-3.79,3.22-7.14,3.21-7.45
	c-0.02-0.31-2.12-2.07-4.68-3.9c-2.56-1.84-5.98-4.41-7.6-5.71l-2.95-2.37l-0.62,4.68c-0.34,2.57-0.74,6.41-0.88,8.54l-0.26,3.86
	l2.73,3.72c1.5,2.05,3.54,4.87,4.53,6.27l1.8,2.55l0.75-1.64C372.81,230.43,374.6,226.59,376.38,222.81z M123.14,229.56
	c3.74-7.42,4.24-9.16,4.6-16.17l0.35-6.63l-3.22,3.5c-1.77,1.92-4.07,4.5-5.1,5.72l-1.88,2.22l1.76,7.16
	c0.97,3.94,1.81,7.16,1.88,7.16C121.6,232.52,122.32,231.19,123.14,229.56L123.14,229.56z M108.95,224.67l7.05-6.82l-1.08-3.84
	c-1.57-5.6-4.6-14.56-5.11-15.1c-0.26-0.28-3.03,0.8-6.75,2.61c-3.47,1.69-8.91,4.19-12.09,5.55l-5.78,2.47l2.46,3.14
	c7.35,9.39,8.17,10.51,11.96,16.38c0.87,1.34,1.74,2.44,1.93,2.44C101.74,231.49,105.07,228.42,108.95,224.67L108.95,224.67z
	 M360.56,222.53c0.04-2.4-0.21-3.45-1.16-4.88c-0.66-1-1.94-2.96-2.83-4.36c-0.89-1.39-1.62-2.34-1.62-2.1s1.1,4.84,2.44,10.24
	l2.44,9.81l0.34-2.83C360.35,226.85,360.53,224.21,360.56,222.53z M408.01,226.99c1.2-1.06,2.42-2.18,2.7-2.5
	c0.28-0.32,3.31-2.88,6.73-5.7c9.58-7.9,21.29-15.71,31.81-21.2l4.11-2.15l-5.55,0.29c-12.86,0.67-34.8-1.74-50.75-5.59
	c-1.58-0.38-1.58-0.37-10.08,14.8c-2.35,4.19-4.39,8.13-4.54,8.74c-0.23,0.95,0.68,1.72,6.53,5.48c7.12,4.58,15.82,9.72,16.48,9.75
	C405.65,228.91,406.81,228.05,408.01,226.99L408.01,226.99z M362.34,207.85c0.59-4.32,0.61-5.5,0.09-5.91
	c-1.38-1.1-7.21-6.09-9.71-8.3c-1.21-1.07-1.42-1.13-1.19-0.35c0.15,0.52,0.65,3.38,1.12,6.34c0.86,5.47,1.62,7.46,4.59,12.08
	c0.91,1.41,2.09,3.26,2.62,4.11l0.97,1.54l0.39-2.06C361.43,214.17,361.94,210.82,362.34,207.85L362.34,207.85z M118.15,215.63
	c0.09-0.24,2.12-2.56,4.5-5.15s4.64-5.16,5.02-5.7c0.53-0.75,0.66-2.92,0.55-8.98l-0.14-7.99l-1.86,1.27
	c-1.02,0.7-4.17,2.53-6.99,4.07s-5.68,3.11-6.36,3.49c-0.68,0.38-1.31,0.73-1.41,0.79c-0.1,0.05,0.74,2.83,1.87,6.17
	s2.45,7.52,2.94,9.28C117.11,215.83,117.72,216.74,118.15,215.63L118.15,215.63z M135.04,201.04c0.8-2.19,1.39-3.98,1.31-3.98
	s-1.58,1.74-3.33,3.87l-3.18,3.87l-0.25,5.25l-0.25,5.25l2.12-5.14C132.63,207.34,134.24,203.24,135.04,201.04L135.04,201.04z
	 M381.16,212.97c0-0.6,9.79-18.32,11.64-21.04c0.67-0.98,1.21-1.95,1.21-2.15s-1.33-0.72-2.95-1.17
	c-7.39-2.04-11.07-3.14-16.55-4.97c-3.24-1.08-5.94-1.9-6.01-1.83c-0.25,0.25-2.17,9.45-2.99,14.39c-0.7,4.18-0.73,5.19-0.17,5.87
	c0.93,1.14,14.75,11.43,15.34,11.43C380.94,213.51,381.16,213.27,381.16,212.97L381.16,212.97z M91.57,205.21
	c5.17-2.2,17.08-7.88,17.68-8.42c0.24-0.22-6.31-16.56-8.78-21.93c-1.91-4.15-2.16-4.45-3.4-4.24c-2.74,0.47-17.29,1.26-23.09,1.26
	c-10.07,0-21.86-1.08-31.43-2.87c-1.66-0.31-1.52-0.14,1.8,2.18c12.39,8.67,24.92,20.1,36.42,33.22c1.66,1.89,3.38,3.44,3.82,3.44
	C85,207.85,88.15,206.66,91.57,205.21z M134.21,197.06c3.49-4.37,4.08-5.44,5.65-10.28c2-6.16,2.43-7.83,1.94-7.61
	c-0.19,0.09-2.95,1.86-6.13,3.94l-5.78,3.79v7.73c0,4.25,0.09,7.64,0.21,7.52C130.21,202.04,132.06,199.75,134.21,197.06
	L134.21,197.06z M350.53,196.01l-0.8-4.85l-3.6-3.5c-1.98-1.93-3.68-3.43-3.78-3.33c-0.2,0.2,3.84,8.36,6.65,13.42
	c1.07,1.93,2.03,3.42,2.14,3.31C351.24,200.94,350.97,198.67,350.53,196.01z M363.6,198.31c0.09-0.83,0.85-4.95,1.68-9.17
	c0.83-4.22,1.34-7.83,1.12-8.03s-2.59-1.22-5.28-2.27c-2.68-1.05-5.58-2.22-6.42-2.6c-0.85-0.38-2.43-1.05-3.52-1.49l-1.98-0.8
	l0.36,3.98c0.2,2.19,0.63,5.82,0.95,8.06l0.59,4.09l5.65,5.02c3.11,2.76,5.88,4.95,6.17,4.87
	C363.2,199.88,363.51,199.13,363.6,198.31L363.6,198.31z M124.04,188.74l4.17-2.52l-0.23-4.72c-0.33-6.94-1-15.25-1.23-15.46
	c-0.11-0.1-2.86,0.36-6.11,1.01s-9.12,1.66-13.05,2.23c-3.93,0.57-7.19,1.1-7.26,1.18c-0.07,0.08,0.53,1.48,1.32,3.12
	c1.25,2.56,7.08,16.72,8.69,21.07l0.53,1.44l4.5-2.42C117.84,192.34,121.74,190.12,124.04,188.74z M348.34,180.67
	c-0.61-5.35-1.06-7.52-1.61-7.82c-2.22-1.23-12.49-6.11-12.59-5.99c-0.07,0.08,1.12,2.92,2.63,6.31c2.67,5.98,2.9,6.3,7.52,10.61
	c2.62,2.45,4.79,4.41,4.83,4.37C349.16,188.11,348.81,184.74,348.34,180.67L348.34,180.67z M141.71,187.56
	c0-0.14-0.12-0.26-0.26-0.26s-0.26,0.12-0.26,0.26s0.12,0.26,0.26,0.26C141.59,187.81,141.71,187.7,141.71,187.56z M398.83,182.8
	c10.09-14.92,20.14-26.73,30.76-36.16c2.19-1.94,3.9-3.54,3.81-3.54c-0.1,0-1.55,0.47-3.21,1.05c-11.52,3.98-30.2,7.17-46.81,7.99
	c-6.82,0.34-7.28,0.43-7.52,1.44c-0.14,0.6-1.3,4.67-2.58,9.05c-1.99,6.8-4.46,16.27-4.46,17.09c0,0.65,23.29,7.93,25.77,8.05
	C395.12,187.8,396.75,185.88,398.83,182.8L398.83,182.8z M143.17,185.63c0.33-0.64,1.3-2.08,2.14-3.21
	c3.65-4.88,7.59-11.03,6.78-10.58c-0.49,0.27-2.08,1.37-3.53,2.45c-1.46,1.08-3.01,2.2-3.45,2.48s-1.26,2.25-1.82,4.38
	c-0.56,2.13-1.17,4.26-1.36,4.75C141.43,187.2,142.47,186.98,143.17,185.63L143.17,185.63z M137.87,179.95l5.16-3.42l1.99-7.73
	c1.09-4.25,1.89-7.82,1.78-7.92c-0.11-0.11-4.01,0.82-8.67,2.06c-4.65,1.24-8.78,2.26-9.18,2.26c-0.48,0-0.62,0.38-0.43,1.16
	c0.16,0.64,0.42,4.39,0.59,8.35s0.43,7.95,0.57,8.88l0.26,1.69l1.39-0.95C132.09,183.8,135.03,181.83,137.87,179.95L137.87,179.95z
	 M369.32,171.33c1.12-4.36,2.64-9.89,3.38-12.29s1.46-4.85,1.61-5.44c0.26-1.06,0.1-1.08-11.99-1.41
	c-6.74-0.18-12.81-0.49-13.49-0.68l-1.24-0.35l0.35,7.27c0.19,4,0.5,8.69,0.68,10.42l0.33,3.16l2.36,1c1.3,0.55,2.82,1.21,3.39,1.48
	c1.98,0.93,12.33,4.98,12.46,4.87C367.23,179.3,368.2,175.69,369.32,171.33L369.32,171.33z M334.7,172.01
	c-0.94-2.19-1.99-4.56-2.32-5.27c-0.39-0.83-2.26-2.16-5.27-3.75l-4.66-2.47l1.4,1.7c1.56,1.89,12.29,13.73,12.46,13.76
	C336.37,175.99,335.64,174.2,334.7,172.01z M153.61,168.8c1.32-0.99,2.76-2.49,3.21-3.34s1.96-3.38,3.36-5.63s2.48-4.16,2.4-4.23
	c-0.22-0.22-12.86,4.04-13.37,4.5c-0.39,0.35-3.9,13.36-3.91,14.48C145.3,174.93,146.98,173.76,153.61,168.8L153.61,168.8z
	 M347.08,168.63c-0.17-1.23-0.46-5.6-0.66-9.71l-0.35-7.48l-5.19-0.62c-2.86-0.34-7.1-0.9-9.43-1.23c-2.33-0.33-4.24-0.45-4.24-0.25
	c0,0.86,5.25,14.15,5.81,14.69c0.85,0.83,12.78,6.79,13.66,6.82C347.22,170.85,347.32,170.34,347.08,168.63L347.08,168.63z
	 M107.43,167.75c6.58-0.97,16.41-2.76,18.46-3.37c0.99-0.3,1.01,0-0.7-12.28c-0.55-3.96-1.37-9.17-1.83-11.59l-0.83-4.39l-8.78-1.69
	c-16.91-3.26-34.06-8.64-44.63-13.99l-2.18-1.1l1.02,1.22c0.56,0.67,1.96,2.26,3.1,3.54c8.11,9.02,20.46,28.23,26.84,41.75
	c0.77,1.63,1.63,2.95,1.91,2.95C100.11,168.8,103.53,168.33,107.43,167.75L107.43,167.75z M138.33,161.34
	c4.79-1.28,8.82-2.44,8.96-2.58c0.32-0.32,3.62-17.57,3.64-19.04c0.01-1.02-0.33-1.1-6.28-1.42c-3.46-0.19-9.38-0.7-13.16-1.13
	c-3.78-0.44-6.97-0.7-7.08-0.59s0.12,1.8,0.53,3.75s1.23,7.24,1.84,11.77c1.56,11.67,1.54,11.56,2.22,11.56
	C129.35,163.66,133.55,162.61,138.33,161.34L138.33,161.34z M163.47,160.97c1.45-1.2,2.89-2.41,3.2-2.7
	c1.64-1.52,7.1-6.22,7.59-6.53c0.31-0.2,0.45-0.46,0.32-0.58s-2.34,0.58-4.91,1.55c-4.31,1.63-4.75,1.94-5.77,3.92
	c-0.6,1.18-1.71,3.13-2.45,4.33s-1.19,2.18-0.98,2.18C160.67,163.15,162.02,162.17,163.47,160.97z M329.84,160.71
	c-0.52-1.34-1.71-4.52-2.65-7.07c-0.94-2.54-1.74-4.68-1.78-4.74c-0.04-0.07-3.33-0.76-7.31-1.55c-7.03-1.39-7.23-1.4-6.7-0.4
	c1,1.88,6.59,8.46,8.31,9.77c1.38,1.06,10.53,6.42,10.95,6.42C330.73,163.15,330.36,162.05,329.84,160.71z M156.61,155.9
	c3.53-1.16,6.93-2.61,7.54-3.21c0.9-0.88,7.36-12.72,7.36-13.48c0-0.11-4.22-0.2-9.38-0.2h-9.38l-1.44,8.09
	c-0.79,4.45-1.57,8.73-1.73,9.51s-0.09,1.41,0.16,1.41C149.98,158.01,153.07,157.06,156.61,155.9L156.61,155.9z M312.72,151.12
	c-1.22-1.53-2.74-3.47-3.38-4.31c-0.98-1.28-1.93-1.71-5.91-2.66c-2.61-0.62-5.09-1.25-5.51-1.4s2.14,1.67,5.71,4.03
	c7.38,4.89,10.86,7.12,11.13,7.12C314.85,153.9,313.94,152.65,312.72,151.12z M178.45,147.5c1.7-1.14,9.71-8.98,9.45-9.24
	c-0.14-0.14-3.38-0.11-7.22,0.07l-6.97,0.32l-3.41,6.62c-1.88,3.64-3.41,6.71-3.41,6.82C166.88,152.39,177.29,148.27,178.45,147.5
	L178.45,147.5z M175.62,150.56c0-0.14-0.12-0.26-0.26-0.26s-0.26,0.12-0.26,0.26s0.12,0.26,0.26,0.26S175.62,150.7,175.62,150.56z
	 M376.52,147.35c4.91-14.8,15.39-36.02,23.21-46.98l2.45-3.43l-2.4,1.63c-10.59,7.21-25.08,13.99-41.53,19.45l-9.81,3.25l-0.34,3.8
	c-0.19,2.09-0.34,8.49-0.34,14.23v10.43l2.18,0.29c3.32,0.44,7,0.6,16.63,0.7l8.79,0.1L376.52,147.35L376.52,147.35z M346.22,139.13
	c0-5.86,0.15-12.21,0.33-14.1l0.32-3.44l-3.28,0.97c-2.6,0.77-15.03,3.56-21.91,4.93c-1.35,0.27-1.42,0.91-0.44,3.92
	c0.39,1.21,1.68,5.25,2.86,8.97l2.15,6.77l3.43,0.56c4.22,0.68,13.81,1.95,15.38,2.03l1.16,0.06V139.13L346.22,139.13z
	 M324.36,145.81c-0.61-1.42-4.43-13.53-4.99-15.82l-0.51-2.08l-5.98,0.91c-3.29,0.5-7.66,1.09-9.72,1.31l-3.75,0.39l1.84,2.57
	c1.01,1.41,3.18,4.43,4.82,6.71l2.98,4.14l6.63,1.35C323.93,146.95,324.88,147.01,324.36,145.81L324.36,145.81z M192.91,141
	c4.66-2.29,8.37-4.26,8.25-4.38c-0.12-0.12-2.44,0.06-5.16,0.39l-4.94,0.61l-3.77,3.77c-2.07,2.08-3.56,3.77-3.31,3.77
	S188.25,143.29,192.91,141L192.91,141z M304.37,139.9c-1.26-1.77-2.49-3.44-2.72-3.73s-1.11-1.61-1.95-2.96l-1.53-2.44l-5.4,0.28
	c-2.97,0.15-6.39,0.4-7.6,0.55l-2.21,0.27l3.08,2.41c6.77,5.28,7.39,5.62,13.15,7.2C307.17,143.66,307.08,143.69,304.37,139.9
	L304.37,139.9z M288.67,138.23c0-0.14-0.12-0.26-0.26-0.26s-0.26,0.12-0.26,0.26s0.12,0.26,0.26,0.26
	C288.55,138.48,288.67,138.37,288.67,138.23z M285.84,136.15c-4.97-4.31-5.22-4.4-11.1-4.24l-5.34,0.15l8.48,2.91
	c4.66,1.6,8.83,2.92,9.25,2.94C287.55,137.92,286.97,137.13,285.84,136.15L285.84,136.15z M174.65,132.96
	c2.89-6.11,6.11-13.45,6.11-13.93c0-0.22-1.33-0.81-2.95-1.32c-3.98-1.24-11.75-4.07-17.1-6.23c-2.41-0.98-4.52-1.77-4.69-1.77
	s-0.46,2.25-0.66,5.01c-0.39,5.48-1.63,17.45-2.14,20.7l-0.33,2.04h9.82h9.82L174.65,132.96z M151.94,132.7
	c0.79-5.86,1.46-12.53,1.88-18.75c0.33-4.86,0.28-5.28-0.61-5.6c-3.36-1.19-17.77-8.52-23.95-12.17
	c-7.31-4.33-17.14-11.2-22.46-15.71L104,78.1l1.66,2.92c5.39,9.49,11.19,25.4,15.69,43.07l2.69,10.53l2.8,0.41
	c5.29,0.77,16.68,1.79,20.6,1.85l3.93,0.06L151.94,132.7L151.94,132.7z M190.52,135.53c0.71-0.46,1.66-1.32,2.12-1.9
	c0.46-0.58,1.62-1.89,2.57-2.91s2.7-2.91,3.9-4.19l2.17-2.34l-2.68-0.62c-1.47-0.34-5.64-1.43-9.25-2.43s-6.65-1.72-6.75-1.61
	s-1.73,3.67-3.62,7.91s-3.65,7.93-3.91,8.2c-1.24,1.28-0.18,1.45,6.85,1.1C187.34,136.47,189.57,136.16,190.52,135.53L190.52,135.53
	z M201.06,134.86c4.04-0.47,5.24-0.87,9.51-3.15c7.93-4.23,7.94-4.01-0.34-5.69l-7.11-1.44l-4.51,4.77
	c-2.48,2.62-4.75,5.18-5.04,5.7c-0.48,0.84-0.36,0.9,1.17,0.64C195.66,135.53,198.51,135.15,201.06,134.86z M217.41,132.32
	c3.16-0.57,7.46-1.44,9.57-1.93l3.83-0.91l-5.56-0.78l-5.56-0.78l-2.48,1.56c-1.36,0.86-3.36,2.07-4.44,2.7
	C210.35,133.57,210.4,133.57,217.41,132.32L217.41,132.32z M259.85,130.06c-0.12-0.11-2.06-0.95-4.32-1.87
	c-2.26-0.92-4.3-1.84-4.53-2.05s-2.15,0.17-4.26,0.84s-4.29,1.22-4.84,1.22s-1.01,0.21-1.01,0.46s2.95,0.62,6.55,0.81
	c3.6,0.19,6.78,0.43,7.07,0.53C255.21,130.25,260.11,130.31,259.85,130.06L259.85,130.06z M277.84,129.88
	c-0.03-0.32-5.45-4.98-9.87-8.48c-1.1-0.87-1.35-0.84-7.56,1.22c-3.53,1.17-6.61,2.29-6.83,2.5c-0.23,0.2,2.09,1.42,5.14,2.7
	l5.55,2.33l6.81,0.06C274.81,130.24,277.86,130.09,277.84,129.88L277.84,129.88z M293.71,129.43c3.21-0.29,3.24-0.3,2.45-1.4
	c-1.34-1.89-8.83-14.48-9.17-15.43c-0.09-0.24-1.19,0.04-2.45,0.62s-5.38,2.31-9.15,3.84l-6.86,2.78l4.51,3.8
	c2.48,2.09,5.22,4.44,6.09,5.22c1.55,1.39,1.67,1.42,6.46,1.14C288.27,129.85,291.93,129.59,293.71,129.43L293.71,129.43z
	 M310.14,127.62c7.16-0.96,8.33-1.24,8.06-1.94c-0.59-1.53-3.43-13.65-4.62-19.74c-0.66-3.35-1.32-6.2-1.46-6.35
	s-1.03,0.19-1.97,0.76c-3.66,2.23-16.03,8.58-20.32,10.43c-0.92,0.4-1.66,0.84-1.64,0.98c0.06,0.5,5.34,9.5,8.34,14.22
	c1.87,2.93,2.14,3.15,3.63,2.97C301.04,128.83,305.54,128.24,310.14,127.62L310.14,127.62z M240.51,127.14
	c2.32-0.58,5.01-1.31,5.97-1.6l1.74-0.54l-6.62-3.27c-3.64-1.8-6.78-3.27-6.98-3.28s-1.86,1.04-3.7,2.33
	c-1.84,1.28-4.67,3.13-6.29,4.11s-2.61,1.79-2.21,1.81c0.41,0.02,2.59,0.34,4.85,0.71C233.23,128.39,235.77,128.33,240.51,127.14
	L240.51,127.14z M222.38,124.61c4.19-2.47,10.27-6.67,10.27-7.1c0-0.21-1.33-1.06-2.95-1.88s-5.23-2.83-8.01-4.48
	c-2.78-1.64-5.21-2.98-5.4-2.96c-0.48,0.04-11.51,14.18-11.47,14.7c0.03,0.38,11.83,3.07,14.07,3.2
	C219.37,126.13,220.94,125.46,222.38,124.61z M327.41,124.8c1.95-0.4,7-1.55,11.21-2.56c6.43-1.54,7.73-2.02,8.1-2.95
	c0.24-0.61,0.7-3.76,1.01-7.01c1.55-15.92,5.9-35.4,10.59-47.36l1.23-3.13l-7.31,7.14c-7.68,7.5-11.85,11.05-19.9,16.95
	c-4.84,3.55-13.62,9.43-16.83,11.27c-0.92,0.53-1.67,1.2-1.67,1.49c0,2.18,5.25,25.9,6,27.14
	C320.1,126.2,321.36,126.03,327.41,124.8L327.41,124.8z M258.38,121.75c3.94-1.29,7.16-2.44,7.16-2.56s-0.98-1.12-2.18-2.23
	c-1.2-1.11-4.34-4.13-6.97-6.71l-4.79-4.69l-2.15,1.68c-1.18,0.92-3.33,2.63-4.77,3.79c-1.44,1.16-3.94,2.99-5.55,4.05
	c-1.61,1.07-2.81,2.05-2.67,2.19c0.56,0.56,13.45,6.78,14.08,6.8C250.92,124.09,254.44,123.04,258.38,121.75L258.38,121.75z
	 M203.39,121.65c2.9-3.41,11.28-14.15,11.26-14.43c-0.01-0.19-2.84-2.19-6.29-4.45c-3.45-2.26-8.34-5.67-10.87-7.58
	s-4.75-3.3-4.94-3.08c-0.19,0.21-1.05,2.59-1.92,5.27c-2.04,6.33-4.13,12.32-4.74,13.62c-0.57,1.21-2.57,6.38-2.57,6.64
	c0,0.15,7.53,2.27,15.42,4.36C201.49,122.71,202.55,122.64,203.39,121.65z M277.69,114.56l8.3-3.44l-2.02-3.66
	c-1.8-3.26-8.72-17.28-9.97-20.21c-0.47-1.09-0.61-1.02-3.57,1.77c-1.7,1.6-6.09,5.55-9.76,8.79s-6.91,6.1-7.19,6.35
	c-0.32,0.29,2.05,3.01,6.42,7.38c5.86,5.84,7.14,6.88,8.22,6.69C268.82,118.1,273.13,116.45,277.69,114.56L277.69,114.56z
	 M182.55,114.97c0.5-1.34,1.21-3.13,1.59-3.98c1.25-2.84,6.9-19.52,6.9-20.38c0-0.22-1.79-1.82-3.98-3.55
	c-11.29-8.9-26.72-24.91-34.11-35.4c-1.2-1.7-2.25-3.01-2.35-2.91c-0.09,0.09,0.29,2.11,0.85,4.49c2.83,12,4.17,24.7,4.39,41.52
	l0.17,13.05l3.4,1.45c1.87,0.8,4.38,1.8,5.57,2.22c1.19,0.43,5.41,1.92,9.36,3.33s7.22,2.57,7.25,2.58
	C181.62,117.4,182.05,116.32,182.55,114.97L182.55,114.97z M237.19,114.72c1.31-0.92,2.65-1.9,2.98-2.18s1.11-0.86,1.74-1.28
	s1.41-1.01,1.73-1.3c0.32-0.29,2.04-1.65,3.83-3.01l3.25-2.48l-1.45-1.57c-0.8-0.86-2.15-2.3-2.99-3.18
	c-0.85-0.89-2.58-2.85-3.85-4.36s-2.55-3-2.84-3.31c-0.29-0.31-1.44-1.71-2.57-3.12c-3.18-4-4.87-5.72-4.87-4.98
	c0,0.37-0.67,1.65-1.48,2.83c-0.81,1.18-1.99,3.07-2.62,4.2c-0.63,1.13-1.82,2.98-2.65,4.11c-0.83,1.13-2.99,4.19-4.81,6.81
	c-3.3,4.74-3.3,4.76-2.17,5.47c3.84,2.41,5.74,3.5,9.87,5.7c2.54,1.35,4.84,2.66,5.11,2.9
	C234.17,116.65,234.65,116.49,237.19,114.72L237.19,114.72z M294.51,106.92c3.71-1.82,9.06-4.57,11.88-6.11l5.14-2.81l-0.03-1.98
	c-0.02-1.09-0.42-5.11-0.9-8.92c-1.18-9.39-1.89-19.53-1.89-27.03c0-6.07,0.75-17.93,1.33-21.01c0.18-0.97-0.78,0.33-2.6,3.52
	c-7.14,12.52-15.55,23.71-27.98,37.25c-2.42,2.64-4.48,4.98-4.56,5.21c-0.28,0.76,7.22,16.34,11.2,23.26
	c0.61,1.06,1.23,1.93,1.39,1.93S290.8,108.73,294.51,106.92L294.51,106.92z M219.71,100.42c1.8-2.66,3.78-5.5,4.39-6.3
	s1.65-2.42,2.32-3.6c0.67-1.18,1.62-2.72,2.12-3.42c0.5-0.71,1.39-2.14,1.98-3.19l1.07-1.91l-3.06-4.13
	c-9.99-13.47-20.58-31.9-24.82-43.17l-1.25-3.33l-0.34,6.15c-0.93,16.91-3.89,34.23-8.78,51.37c-0.24,0.83,0.58,1.69,4.22,4.44
	c6.44,4.87,17.73,12.31,18.34,12.11C216.2,105.35,217.91,103.09,219.71,100.42L219.71,100.42z M255.24,100.65
	c1-0.89,3.79-3.34,6.19-5.45c6.99-6.14,11.42-10.65,11.13-11.33c-7.36-17.18-12.59-34.52-14.89-49.42l-1.13-7.33l-0.95,3.89
	c-1.3,5.36-5.88,18.55-8.41,24.23c-2.24,5.04-9.09,18.74-11.16,22.31c-1.29,2.24-2.35,4.28-2.35,4.53c0,0.68,7.31,9.45,14.57,17.46
	C252.2,103.91,251.64,103.82,255.24,100.65L255.24,100.65z M202.34,30.32c0-0.14-0.12-0.26-0.26-0.26s-0.26,0.12-0.26,0.26
	s0.12,0.26,0.26,0.26C202.22,30.57,202.34,30.46,202.34,30.32z"/>
</svg>
