<?xml version="1.0" encoding="utf-8"?>
<!-- Generator: Adobe Illustrator 27.3.1, SVG Export Plug-In . SVG Version: 6.00 Build 0)  -->
<svg version="1.1"
	 id="svg3336" xmlns:rdf="http://www.w3.org/1999/02/22-rdf-syntax-ns#" xmlns:cc="http://creativecommons.org/ns#" xmlns:inkscape="http://www.inkscape.org/namespaces/inkscape" xmlns:svg="http://www.w3.org/2000/svg" xmlns:dc="http://purl.org/dc/elements/1.1/" xmlns:sodipodi="http://sodipodi.sourceforge.net/DTD/sodipodi-0.dtd"
	 xmlns="http://www.w3.org/2000/svg" xmlns:xlink="http://www.w3.org/1999/xlink" x="0px" y="0px" viewBox="0 0 826.9 827.8"
	 style="enable-background:new 0 0 826.9 827.8;" xml:space="preserve">
<style type="text/css">
	.st0{fill:#C24D22;}
</style>
<sodipodi:namedview  bordercolor="#666666" borderopacity="1" gridtolerance="10" guidetolerance="10" id="namedview3338" inkscape:current-layer="svg3336" inkscape:cx="413.4375" inkscape:cy="413.90625" inkscape:pageopacity="0" inkscape:pageshadow="2" inkscape:window-height="837" inkscape:window-maximized="1" inkscape:window-width="1600" inkscape:window-x="-8" inkscape:window-y="-8" inkscape:zoom="0.80936202" objecttolerance="10" pagecolor="#ffffff" showgrid="false">
	</sodipodi:namedview>
<path id="path3346" inkscape:connector-curvature="0" class="st0" d="M385.2,825.6c-7.7-1.5-19-10.6-24.3-19.5
	c-2.1-3.6-4.2-6.4-4.5-6.2s-5.1,3.2-10.5,6.8c-8.3,5.5-10.9,6.7-16.4,7.7c-10.4,1.9-13.9,1.6-21.6-1.7c-6.2-2.7-7.8-3.9-13.3-10.4
	c-4.6-5.3-7-9.2-8.7-13.8c-2.8-7.7-3.2-8.1-5.9-6.7c-1.2,0.6-5.9,2.6-10.5,4.4c-7.9,3.1-9.1,3.3-19.5,3.3h-11l-6.6-4.4
	c-6.3-4.2-6.9-4.9-11.1-13.4c-3-6.1-4.7-10.7-5.2-14.5c-0.9-7.1-2-10.2-3.5-9.3c-1.8,1.1-18.7,4-23.6,4.1c-2.5,0-7.5-0.6-11.2-1.5
	c-6.1-1.4-7.4-2.1-13.3-7.4c-6.4-5.8-6.6-6.1-9.2-14.7c-2-6.6-2.7-11-2.8-17.2l-0.1-8.4l-14.5-0.5c-14.1-0.5-14.7-0.6-21.3-3.6
	c-6.4-3-7.1-3.6-11.2-10.3c-4.3-6.9-4.5-7.4-5.4-17.4c-0.7-7.8-0.7-11.9,0.2-16.9c0.7-3.6,1-7.1,0.8-7.7S99,645,97.3,645
	c-1.7,0-7.3-0.9-12.5-2c-8.4-1.8-10.1-2.6-16.9-7.4l-7.5-5.4l-2.9-8.3c-2.9-8.3-2.9-8.3-1.8-18.6c0.8-8.1,1.7-11.7,4-16.6
	c2.9-6.3,3-7.4,0.3-7.3c-0.8,0-6.3-2-12.1-4.4c-10-4.2-11-4.8-16.5-11c-5.3-6-6-7.2-7.5-14c-0.9-4.1-1.7-8.3-1.7-9.4
	c0-3.7,5.2-19.8,7.4-22.8c1.2-1.7,3.3-4.5,4.6-6.3c2.3-3.1,2.3-3.3,0.7-3.9c-1-0.4-5.8-3.4-10.8-6.7c-8.1-5.4-9.6-6.9-14.3-13.9
	l-5.2-7.9v-8.8v-8.8l5.2-9.5c3.6-6.5,6.8-10.9,10.1-13.9l4.8-4.4l-8.8-9.1C8,416.4,6.9,414.9,3.8,407l-3.4-8.7l1.5-8.8
	c1.4-8.6,1.6-8.9,7.6-16.4c4.1-5.1,8.1-8.9,12.2-11.5c3.4-2.1,6.2-4,6.4-4.1c0.2-0.1-0.7-1.6-2-3.3s-4.4-6.5-6.9-10.6
	c-4.1-6.6-4.8-8.5-6.1-16.9l-1.5-9.4l2.9-8.3l2.9-8.3l8-6.3c5.4-4.3,10.2-7.2,14.8-8.9c3.7-1.4,6.8-2.7,6.8-2.8c0-0.1-0.6-1.5-1.3-3
	c-0.7-1.5-2.9-6.3-4.8-10.7c-3.4-7.8-3.5-8.2-3.2-18.2l0.3-10.3l4.8-6.9c4.3-6.2,5.7-7.4,13.7-11.9c6.3-3.6,10.4-5.2,14.1-5.7
	c6.8-0.9,9.7-2,8.8-3.5c-0.4-0.6-1.6-6.2-2.7-12.4l-2-11.3l1.9-9.1l1.9-9.1l6.3-6.4l6.3-6.4l10.1-2.6c5.5-1.4,13.2-2.7,17-2.8
	l6.9-0.2l-0.2-12.7l-0.2-12.7l4.3-8.8c4.1-8.4,4.6-9,11.1-13.3l6.8-4.5l11.2-0.6c9-0.5,12.5-0.3,17.1,0.9c3.2,0.9,6.3,1.3,6.7,1
	c0.5-0.3,0.8-1.7,0.8-3.1c0-1.4,0.9-7.2,2.1-12.9c1.9-9.1,2.8-11.2,7.2-17.8c4.9-7.5,5-7.5,12.2-10.2c7-2.6,7.6-2.7,18.4-2
	c9.6,0.6,12.1,1.1,17.3,3.4c3.4,1.5,6.4,2.4,6.7,2s2.7-5.7,5.2-11.8c4.4-10.6,4.9-11.3,11.6-17.5c6.4-5.8,7.6-6.5,13.8-7.9
	c9-2,11.3-1.9,20.8,0.9c5.4,1.6,10.1,3.8,13.9,6.6c5.9,4.2,7.8,4.9,7.8,3.1c0-0.6,3-5.3,6.6-10.6c6-8.7,7.3-10,14.6-14.6l8-5
	l9.1,0.3c9,0.3,9.2,0.4,17.6,5.2c4.6,2.7,10.7,7.1,13.4,9.9l4.9,5l9.4-9.1c8.3-8,10.3-9.4,16.9-12c8.2-3.2,11.1-3.5,20.4-1.8
	c5.5,1,7.1,1.8,14,7.2c6,4.7,8.6,7.5,11.1,12c1.8,3.2,3.6,6.1,4,6.3c0.4,0.2,5.3-2.6,10.9-6.3c8.7-5.7,11.1-6.9,16.8-7.9
	c10.5-1.9,14.3-1.6,21.9,1.8c5.8,2.6,7.8,4.1,12.9,10c4.4,5,6.8,8.9,8.5,13.6c1.4,3.6,2.8,6.9,3.2,7.4c0.4,0.5,2.1,0.2,3.9-0.7
	c1.8-0.8,7.1-3,11.9-4.8c7.7-2.9,9.7-3.3,17.3-3.3h8.7l7.5,4.9l7.5,4.9l4.8,9.9c2.7,5.7,5.1,11.9,5.4,14.6c1,7.5,1.8,9.1,4.3,8
	c3.2-1.4,17.7-3.8,22.5-3.8c2.3,0,7.4,0.7,11.2,1.6c6.2,1.4,7.6,2.2,13.2,7.1c5.6,5,6.5,6.3,8.8,12.7c1.9,5.4,2.7,9.7,3.1,17.4
	l0.6,10.2l12.7-0.2l12.7-0.2l8.7,4l8.7,4l4.7,7.6l4.7,7.6l0.2,12.5c0.1,6.9-0.2,14.8-0.6,17.5l-0.8,4.9l3.6,0c2,0,7.9,0.9,13,2
	c8.3,1.8,10.2,2.6,16.6,7.2c7.1,5,7.3,5.3,10.2,12.7c2.8,7.4,2.9,7.9,2.3,17.9c-0.5,8.8-1.1,11.4-3.7,17.5c-3.2,7.3-3.2,8.3-0.6,8.2
	c0.8,0,6.3,2,12.1,4.5c10,4.2,11,4.9,16.3,10.8c4.8,5.4,5.9,7.3,7.4,13.1c1,3.7,1.8,8.3,1.8,10.1c0,5.8-5.1,20.3-9.1,25.6
	c-5.2,6.9-5.3,7.2-3.4,7.9c0.9,0.3,5.8,3.4,10.8,6.7c8,5.3,9.7,6.9,13.8,13.2l4.7,7.2v10.1v10.1l-4.7,8.7
	c-3.2,5.9-6.3,10.1-9.6,13.2l-4.9,4.4l8.6,8.9c7.5,7.8,9.1,9.9,12,16.8c3.6,8.6,3.8,10.6,2.3,19.8c-1.3,7.5-1.2,7.4-8.2,15.9
	c-4.7,5.7-13.7,13.2-17.5,14.5c-0.5,0.2,0.2,1.7,1.5,3.5c7.1,9.6,11.4,18.1,12.6,24.6c1.8,10.2,1.6,13.8-1.5,22
	c-2.7,7.1-3.2,7.7-10.5,13.5c-5.1,4-10,6.9-14.5,8.6c-3.7,1.4-6.8,2.7-6.8,2.8s2.1,5,4.7,10.8c4.7,10.6,4.7,10.6,4.7,20.7v10.1
	l-3.8,5.5c-2.1,3-4.3,6.3-4.9,7.2c-1.9,3-18.5,11.6-23.6,12.3c-9.5,1.3-10.1,1.5-9.4,3.7c1.6,4.9,4.1,19.3,4.1,23.1
	c0,2.3-0.8,7.5-1.7,11.6c-1.7,7-2.1,7.7-7.9,13.6c-5.9,6-6.5,6.3-14.4,8.3c-5.8,1.5-10.8,2.1-17.3,2.1l-9.1,0v14.5v14.5l-3.9,7.8
	c-3.6,7.2-4.3,8.1-10.5,12.2l-6.7,4.4l-11.2,0.6c-8.6,0.5-12.7,0.3-17.3-0.9c-3.3-0.8-6.4-1.2-6.8-1s-0.8,2-0.8,3.9
	c0,1.9-1,7.8-2.2,13c-1.8,8-3,10.8-7,16.9c-4.8,7.2-4.9,7.4-12.1,10c-7,2.6-7.7,2.7-18.3,2.1c-9.2-0.5-12.1-1.1-17.4-3.3
	c-3.5-1.5-6.6-2.4-7-2.1s-2.8,5.8-5.5,12.1c-4.7,10.9-5.2,11.7-11.6,17.4c-6.1,5.4-7.3,6.1-13.6,7.5c-3.8,0.9-8.2,1.6-9.8,1.6
	c-5.7,0-18.7-4.7-24.7-9c-6.5-4.6-7.4-4.9-8.2-2.4c-0.3,0.9-3.3,5.7-6.6,10.5c-5.2,7.5-7.1,9.4-13.1,13.3l-7,4.5h-10.3h-10.3
	l-8.2-4.6c-4.5-2.6-10.4-6.9-13.1-9.7l-4.9-5l-9.5,9.1c-8.4,8-10.4,9.4-16.9,12C398.7,827.1,394.4,827.4,385.2,825.6L385.2,825.6z
	 M403.8,820.2c6.4-2.5,8.6-4.1,16.7-11.7l9.3-8.8l-2-2.2c-4.8-5.3-17.2-28.4-23.1-43c-3.5-8.6-6.3-16.1-6.3-16.6
	c0-2.8-1.8-0.2-5.6,8.1c-5.6,12.1-19.4,33.7-26.9,42.2l-6,6.8l4.3,6.9c6.1,9.7,16.5,18.5,23.8,19.9
	C395.8,823.4,395.8,823.4,403.8,820.2L403.8,820.2z M484.2,814c5.7-3.6,8-5.9,12.3-12c9-12.8,8.8-11.4,1.9-18.7
	c-12.7-13.2-18.4-20.3-27.7-34.5c-5.3-8.1-9.9-14.8-10.2-14.8c-0.4,0-1.6,4.1-2.8,9.1c-3.7,15.5-14.2,41.2-21.3,52.3
	c-1.1,1.8-0.8,2.4,4,7.7c3.5,3.9,7.8,7.3,13.4,10.4c7.9,4.5,8.4,4.7,15.9,4.7C477.1,818.4,477.2,818.4,484.2,814L484.2,814z
	 M326.7,810.6c5.3-1,8.2-2.3,15-6.6c4.6-3,9.4-6.3,10.5-7.3c1.9-1.8,2-2.1,0.7-4.3c-3.4-6-10.8-30.8-14.1-47.2
	c-1.9-9.7-3.8-17.6-4.1-17.5c-0.3,0-2.7,3-5.3,6.7c-7.3,10.5-27,31.1-35.7,37.4l-7.7,5.6l2.8,7.3c4.1,10.8,12.4,20.1,21.6,24.2
	C318.3,812.2,317.9,812.2,326.7,810.6L326.7,810.6z M546.7,800c6.3-1.4,7.5-2.1,13.6-7.5c6.2-5.5,6.9-6.6,11-16.2
	c2.4-5.7,4.4-10.7,4.4-11.2s-1.5-1.8-3.4-2.9c-8-4.7-27.1-20.5-37.9-31.4c-6.4-6.5-12-11.8-12.4-11.8s-0.7,3.9-0.7,8.7
	c0,10.4-5.1,39.6-8.8,50.3c-1.3,3.8-2.4,7.4-2.4,8c0,2.2,13.6,10.6,21.1,13C540.3,802,538.5,801.8,546.7,800L546.7,800z M437.4,785
	c5-9,13.3-31.2,16.9-45.4l3.3-13l-5.9-11.2c-6.7-12.5-19.9-43-23.2-53.4c-1.2-3.7-2.4-6.8-2.8-6.8s-2,4.7-3.7,10.5
	c-4.3,14.8-18.8,58.8-20.4,61.9c-1.7,3.2-1,5.8,7.3,26c5.3,12.8,16.3,32.9,21.3,38.7c1.4,1.6,1.5,1.6,2.7,0
	C433.6,791.5,435.6,788.2,437.4,785L437.4,785z M363.5,784c6.9-7.8,18.8-26.9,26.5-42.4l5.8-11.7l-3.9-13.2
	c-4.3-14.6-10.6-43.4-12.3-56.1c-0.6-4.5-1.4-8.2-1.7-8.2s-3.4,5.6-6.7,12.4c-6.2,12.7-28.1,51.6-30.5,54.3
	c-0.7,0.8-1.3,2.9-1.3,4.7c0,6.7,6.9,37.3,11.3,50.1c5.5,16.1,5.6,16.4,6.6,16.4C357.6,790.3,360.4,787.5,363.5,784L363.5,784z
	 M267.1,782.2c4.9-1.9,10.1-4.2,11.4-5.2c2.1-1.5,2.4-2.1,1.6-4.3c-1.9-5.9-4.6-34.2-4.7-49.7c0-8.9-0.3-16.2-0.6-16.2
	s-3.9,3.1-8.1,6.9c-9,8.2-31.1,23.1-40.6,27.5c-3.7,1.7-7,3.5-7.3,4c-1.4,2.2,2.1,16.7,5.8,24c3.4,6.8,4.5,8,10.2,11.9l6.4,4.4
	l8.4,0.1C257.3,785.6,259.2,785.3,267.1,782.2z M509.4,773.9c4.1-12.8,8.1-37.8,8.1-50.5v-11.1l-7.8-10c-9.4-12-23.3-31.9-31.1-44.5
	c-3.1-5.1-6.1-9.3-6.6-9.4c-0.5-0.1-1.4,7.8-2,19.1c-1,17.1-3.9,39.4-7,54c-1.3,5.8-1.4,5.3,11.1,24.7
	c10.9,16.8,29.8,38.5,31.7,36.5C506.5,781.9,508,778,509.4,773.9L509.4,773.9z M292.4,766.9c11.6-8.6,42.3-43.8,42.3-48.5
	c0-0.7-0.7-7.1-1.5-14.2c-1.2-10.2-1.4-17.9-1-37.5c0.3-13.9,0.2-24.5-0.3-24.4c-0.4,0.2-6.1,6.8-12.5,14.8
	c-10.8,13.4-36.9,43.1-39.1,44.5c-1.8,1.1-1.2,34.1,1,51.6c1.1,8.8,2.1,16.5,2.3,17.1C284.3,772.4,286,771.7,292.4,766.9z
	 M620.2,765.7c6.7-2.9,7.2-3.3,11.6-10.1c3.7-5.6,5-8.8,6.5-15.8c2.5-10.9,2.5-15,0.3-15.7c-0.9-0.3-8-3.4-15.8-6.9
	c-9.9-4.5-18.3-9.2-28.3-15.8c-7.8-5.2-14.4-9.1-14.7-8.7c-0.3,0.4,0.2,5.6,1,11.5c1.2,8.3,1.4,15.2,1,30.8
	c-0.3,11.1-0.7,21.4-0.8,22.9c-0.2,2.7,0.1,2.9,7.7,6.3c7.3,3.2,10.6,3.9,20.9,4.4C611.9,768.7,615.8,767.6,620.2,765.7L620.2,765.7
	z M577.4,751.4c1.9-12.7,1.3-34.9-1.3-50.1c-1.3-7.5-2.3-13.8-2.3-14.1c0-0.3-4.6-4.2-10.2-8.7c-5.6-4.5-18.3-16.4-28.2-26.5
	S517.2,633.7,517,634c-0.3,0.3,0.6,8.6,1.9,18.6c1.9,14.5,2.4,22,2.4,38.1v20l13.8,14.2c12.7,13.1,37.3,33.6,40.2,33.6
	C575.9,758.4,576.8,755.4,577.4,751.4L577.4,751.4z M199.4,746.4c14.8-2.7,14.1-1.7,14.3-20.5c0.1-14.3,0.4-17.3,3.7-33.3
	c2-9.6,3.4-17.7,3.1-18c-0.2-0.2-3.8,1.7-8,4.3c-9.5,5.9-33.8,16.2-46.1,19.5l-9.4,2.5l-0.3,8.4c-0.3,7.1,0.1,9.6,2.3,16.7
	c2.5,7.9,2.9,8.6,8.6,13.6c5,4.4,7,5.5,12.2,6.8C188,748.4,188.2,748.4,199.4,746.4z M227.1,735.8c9.1-4.7,31.8-20.9,40.2-28.8
	l9-8.4l1.2-12c1.3-13.2,7.4-46.7,10.4-57c1-3.6,1.7-6.7,1.5-6.9c-0.5-0.5-1-0.2-15.9,12.6c-10.9,9.3-30,23.9-41.9,32
	c-5.3,3.6-5.5,4.2-10.2,27.1c-3.3,15.9-3.7,19.5-3.7,31c0,7.2,0.3,13.3,0.6,13.6C218.7,739.7,221.5,738.7,227.1,735.8L227.1,735.8z
	 M683.9,719.2c5.6-3.8,7.1-5.3,10-11l3.5-6.6l0-12c0-6.6-0.4-12.8-0.9-13.8c-0.7-1.3-2-1.8-4.3-1.8c-5.9,0-27.5-6.4-44.7-13.3
	c-9.2-3.7-16.8-6.5-17.1-6.3c-0.2,0.2,0.9,3.9,2.4,8.3c1.6,4.4,4.7,15.5,7,24.7c3.2,13,4.2,18.5,4.2,24.6c0,5.2,0.4,8,1.2,8.5
	c3.6,2.4,13.8,3.9,22.7,3.5C677.3,723.7,677.4,723.6,683.9,719.2L683.9,719.2z M407.2,698.7c12.2-37.1,16.1-51.4,14.9-54.9
	c-6-18.6-12.6-40.3-14.4-47.7c-1.2-5.1-2.6-9-3.2-8.8c-0.5,0.2-4,8.3-7.7,18.1s-8.7,22.3-11.1,28l-4.3,10.2l1.5,11.8
	c2.7,20.7,13.6,67.6,15.7,67.6C399,722.8,402.8,711.9,407.2,698.7z M640.3,712.7c0-7.2-6.9-35.3-12.8-52.2l-3.6-10.3l-13.1-7.1
	c-12.9-7-39.6-24.3-48.8-31.8c-2.6-2.1-5-3.8-5.3-3.8c-0.3,0,1.9,7.5,5,16.6c6.3,18.6,15.8,52.7,15.8,56.5c0,3.3,2.6,5.5,19.6,16.9
	c13.4,8.9,40.6,22.9,42.5,21.9C640,719.1,640.3,716.1,640.3,712.7L640.3,712.7z M462.4,702.1c1.6-9.8,3.1-24.1,4-39.1l1.4-23.7
	l-2.3-3.6c-1.3-2-7.6-14.3-14.2-27.4s-12-23.9-12.2-24.1c-0.8-0.9-1.3,1.2-3.6,15.4c-1.3,8.2-3.7,21.9-5.3,30.5l-3,15.5l3.5,10.7
	c7,21.3,25.7,62.4,28,61.6C459.4,717.7,460.9,711.3,462.4,702.1z M348.5,697.7c4.7-8.1,13-23.8,18.5-34.8l10-20.1l-1.9-21.2
	c-1.1-11.7-2.2-25.3-2.5-30.3c-0.3-5-0.9-9.1-1.3-9.1s-5,7.1-10.3,15.7s-12.7,20.1-16.4,25.6l-6.8,9.9l-1,16.1
	c-1.3,20.5-1.3,38.8,0,51.1c1.1,10.8,1.4,12,2.6,12C339.7,712.5,343.9,705.9,348.5,697.7L348.5,697.7z M517.5,687.8
	c0-11-0.7-20.5-2.4-33.5c-3.5-27.1-3.8-28.2-8.3-33.5c-2.1-2.5-10.8-13.7-19.3-24.8s-15.7-20.3-16-20.3c-0.3,0-0.3,13.9-0.1,31.1
	l0.4,31.1l6.1,10.4c10.7,18,36.8,54.9,38.9,54.9C517.2,703.1,517.5,696.2,517.5,687.8L517.5,687.8z M152,696.6
	c0.4-0.8,2.5-8.2,4.6-16.4c2.2-8.4,6.8-22.3,10.5-31.7c3.6-9.2,6.4-16.9,6.2-17.1c-0.2-0.2-3.9,0.9-8.2,2.4
	c-11.5,4.1-35.6,9.3-47.4,10.3c-5.6,0.5-10.6,1.3-11.1,1.7c-2.1,2.1-3.6,13.8-3,23.1c0.6,8.8,0.8,9.7,4.5,15.8
	c3.7,6.1,4.3,6.7,11.4,10l7.5,3.6l12.1-0.2C148.8,698,151.4,697.7,152,696.6L152,696.6z M187,686.3c7.9-3.3,19-8.9,25.4-12.8
	l11.3-6.9l3.5-12c4-13.6,12.7-36.2,19.6-51.1c2.6-5.5,4.5-10.3,4.2-10.6c-0.3-0.3-7.2,3.4-15.4,8.1c-16.3,9.3-45.6,24.3-51.3,26.1
	c-4.6,1.5-5.7,3.4-13.4,22.5c-5.5,13.7-14.8,44.5-13.9,46C157.8,696.9,173.4,692,187,686.3z M294.6,679.5
	c12.6-14.1,31.3-37,36.3-44.3c2.4-3.5,2.7-5,4.1-22c1.4-16.2,3.6-34,4.9-40.1c0.2-1.2,0.1-2.1-0.3-2.1s-10.4,9.9-22.1,22l-21.4,22
	l-3.2,11.5c-3.7,13.2-10.2,46.6-11.1,56.9c-0.3,3.9-0.8,7.8-1.1,8.7C279.6,695.7,282.4,693.2,294.6,679.5z M567.7,659.4
	c-3.4-13.3-14.3-48.3-17.9-56.8c-0.4-0.9-6.6-6.4-13.9-12.2s-17.6-14.3-22.9-18.8c-5.3-4.6-9.9-8.1-10.1-7.9
	c-0.2,0.2,2.2,13.5,5.4,29.4l5.8,29l6.1,7c18.7,21.4,50.8,51.6,51.5,48.4C571.8,676.8,570.1,668.7,567.7,659.4L567.7,659.4z
	 M693.3,661.6c-2.4-10.3-12.8-33.5-20.4-46.1l-6.9-11.2l-12.6-3.9c-13.2-4.1-40.3-14.9-52.6-21.1c-4-2-7.4-3.3-7.7-2.9
	c-0.2,0.4,3.4,7.4,8.2,15.7s12.3,23.2,16.8,33.3c4.5,10.1,8.6,18.9,9,19.7c1.4,2.7,6.7,5.5,22.4,11.8c15.7,6.3,44.4,14.2,45.1,12.4
	C694.7,668.7,694.1,665.3,693.3,661.6L693.3,661.6z M724.5,667.8c6.9-2.1,9-3.2,14.3-8c6.2-5.5,6.2-5.5,7.8-13.4
	c1.6-7.8,1.6-8-0.4-17.1c-1.1-5.1-2.6-10.6-3.3-12.3l-1.2-3l-16.7,0c-15.7,0-17.7-0.2-33.8-3.6c-9.4-2-17.3-3.3-17.5-3
	c-0.2,0.3,1.8,4.3,4.6,8.7c6.2,10.1,16.6,34.6,18.8,43.9c2.5,10.7,2.1,10.3,11.4,10.3C714.4,670.3,718.5,669.7,724.5,667.8
	L724.5,667.8z M244.9,651.8c12.7-9.4,38.7-31.6,45.4-38.8c2.1-2.2,3.8-5.9,5.9-13c1.7-5.4,5.8-18.2,9.1-28.4
	c3.4-10.2,5.9-18.8,5.6-19.1s-7.6,4.5-16.3,10.7s-20,14-25.3,17.4l-9.6,6.2l-5.5,11c-6,11.9-17.6,41-21.3,53.2
	c-1.2,4.1-2.5,8.2-2.8,9.1c-0.3,0.9-0.2,1.6,0.3,1.6C230.8,661.9,237.3,657.3,244.9,651.8L244.9,651.8z M612.9,623.8
	c-7.3-15.7-22.4-43.1-27.4-49.7c-1.4-1.9-7.2-5.6-16.2-10.5c-7.7-4.2-19.8-11-27-15.1c-7.2-4.1-13.1-7.4-13.3-7.3s3,7.8,7,17.1
	s9.1,21.5,11.4,27.1s4.5,10.9,5.1,11.6c6.5,8.4,67,48.2,67.9,44.6C620.6,641.1,617.2,633.1,612.9,623.8L612.9,623.8z M103.1,638.4
	c0.9-4.5,13.1-27.1,22.9-42.6c5.4-8.6,9.9-15.7,9.9-15.9c0-0.2-4.5,0.5-10.1,1.5c-8.5,1.5-13.3,1.7-30.7,1.3
	c-11.3-0.2-22.3-0.7-24.4-1l-3.8-0.6l-3.4,7.8c-2.7,6.2-3.5,9.5-4,16.1c-0.6,7.5-0.4,8.9,1.9,15.1c2.4,6.6,2.8,7.1,9.6,11.9
	c5.9,4.2,8.5,5.4,15.6,7.1c4.7,1.1,10.2,2,12.3,1.9C102.1,640.8,102.7,640.4,103.1,638.4z M137.9,636.5c9.1-2,21.7-5.5,28.1-7.7
	l11.6-4.1l6.6-12.1c7-12.7,24-39.2,31-48.2c2.3-2.9,3.9-5.5,3.6-5.8c-0.3-0.3-7.3,1.8-15.7,4.6c-13,4.4-45,12.8-56.2,14.8
	c-4.4,0.8-6.9,3.8-18.9,22.9c-9.2,14.5-21.6,38.1-20.8,39.3C108.2,641.6,122.1,640,137.9,636.5L137.9,636.5z M427.3,623.7
	c1.1-6.1,3.3-19.2,4.9-29.2l2.9-18.2l-2.2-4.7c-3-6.4-9.9-16-12-16.8c-1.3-0.5-2.4,0.1-4.3,2.6c-2.7,3.6-8.9,18-8.9,20.8
	c0,3.9,13.6,52.2,15.6,55.7C424.6,636,425.5,633.7,427.3,623.7L427.3,623.7z M385.6,622.3c2.4-5.8,7.2-18.2,10.8-27.6l6.5-17.1
	l-1.8-7c-2.2-8.5-4.8-14.7-6.8-16.4c-1.3-1.1-1.9-1-3.8,0.2c-2.1,1.4-12.3,14.7-14.4,18.9c-0.7,1.3-0.6,6.9,0.2,17.8
	c2,27.3,3.5,41.7,4.2,41.7C381,632.8,383.3,628.1,385.6,622.3L385.6,622.3z M467.5,599.5l-0.6-29.6l-3.5-4.4
	c-7.5-9.3-13.8-16.1-15-16.1c-2.2,0-5.7,7.9-7.4,16.8l-1.7,8.8l13.5,27c7.4,14.9,13.9,27,14.4,27
	C467.8,629.1,467.9,617.3,467.5,599.5L467.5,599.5z M230.2,598.8c22.8-13,26.4-15.4,27.7-18.8c1.1-2.6,15.7-29.2,24.7-45.1
	c1.4-2.5,2.4-4.7,2.2-4.9c-0.2-0.2-7.3,2.8-15.8,6.8c-8.5,3.9-20.9,9.3-27.6,12l-12.2,4.9l-6.9,8.8c-12.5,16-37.7,55.4-37.7,58.9
	C184.7,622.8,212.8,608.8,230.2,598.8L230.2,598.8z M345.6,613.8c3.2-4.8,8.1-12.8,11-17.8c2.9-5,7.4-12.4,10-16.4
	c4.2-6.6,4.7-7.8,4.7-12.7c0-6.2-2.5-17.4-4.3-19.3c-2-2.2-5.9,0.2-14.2,8.6l-7.6,7.7l-2.4,16.9c-3.6,25.4-5,41.7-3.6,41.7
	C339.5,622.5,342.4,618.6,345.6,613.8L345.6,613.8z M503.9,591.8c-6.8-33.7-7-34.4-12.9-39.7c-2.7-2.5-7.7-6.3-10.9-8.5
	c-6.6-4.4-7.4-4.2-9.4,1.9c-1.2,3.7-1.4,14.1-0.3,18.8c0.8,3.4,36.9,51.3,37.5,49.7C508.1,613.6,506.3,603.6,503.9,591.8z
	 M738.8,609.1c0-5.8-18.7-33.7-32.7-48.6l-9.3-9.9l-11.1-1.2c-12.2-1.3-47.5-7.5-58.2-10.3c-3.7-1-6.8-1.5-6.8-1.1
	c0,0.4,4.7,6.1,10.5,12.8c8.4,9.7,29.3,36.8,36.9,47.9c1.7,2.4,3.9,3.1,25.8,7.8c14.7,3.2,17.9,3.5,30.7,3.6
	C735.5,610.3,738.8,610,738.8,609.1z M753.8,608c3.8-0.5,7.5-2,13.8-5.5c7.5-4.3,9.3-5.7,13.3-11.4l4.7-6.5V577
	c0-6.5-0.5-8.8-3.4-16c-4-9.8-6.7-14.7-8-13.9c-0.5,0.3-6.9,1.4-14.2,2.3c-9.7,1.3-19,1.8-34.2,1.8c-11.5,0-20.9,0.3-20.9,0.6
	c0,0.3,3.1,4,6.9,8.2c9.4,10.4,22.1,28.8,27.9,40.1c4.2,8.3,5,9.3,6.8,8.9C747.7,608.8,750.9,608.3,753.8,608L753.8,608z M320,583.7
	c10.5-11,19.9-21.1,20.8-22.4c2-3.1,3.2-22.6,1.6-25.8c-1-1.9-1.3-1.9-4.7-0.7c-2,0.7-7.2,3.7-11.7,6.6l-8,5.3l-4.8,14.2
	c-8.4,24.8-13.9,42.8-13.1,42.8C300.4,603.8,309.4,594.7,320,583.7z M660.9,597.2c0-2.9-40.9-53.6-48.9-60.5
	c-1.2-1.1-6.4-3.1-11.6-4.6s-18-5.5-28.6-9s-19.3-6.3-19.5-6.1c-0.1,0.1,4.9,7.4,11.2,16.1s14.1,20,17.1,25.1l5.6,9.2l11.7,5.6
	c16.2,7.8,38.8,17.3,51.1,21.4C660.9,598.5,660.9,598.5,660.9,597.2z M544.2,588.5c-1.2-3.9-16.5-39.5-19.7-45.8
	c-2.8-5.6-3.8-6.6-9.1-9.5c-3.3-1.8-8.2-4.2-10.9-5.3c-8.9-3.5-10.1-0.7-7,16.1l1.5,8.4l12.3,11.1c13.1,11.8,31.5,27,32.7,27.1
	C544.5,590.6,544.5,589.7,544.2,588.5L544.2,588.5z M125.7,577.1c7.8-1.3,14.5-2.6,15-2.9c0.5-0.3,5-5.5,10.1-11.5
	s17.2-18.7,26.9-28.1s17.4-17.4,17.1-17.7c-0.3-0.3-8.7,0.6-18.6,1.9c-12.3,1.7-24.9,2.6-39.2,3l-21.1,0.6l-14,14.2
	c-13.6,13.9-33.4,38.4-32,39.7c1.6,1.6,12.4,2.8,26.5,2.9C108.5,579.4,114.4,578.9,125.7,577.1L125.7,577.1z M271.9,573.4
	c18.5-12.3,42.4-30.2,43.3-32.4c0.5-1.4,2-6.6,3.4-11.6c3.6-13.6,2.1-14.5-14.2-8.2c-7.6,2.9-10.4,4.5-12.1,6.8
	c-4.8,6.5-26.8,46.2-26.8,48.4C265.3,577.7,265.7,577.5,271.9,573.4L271.9,573.4z M65.4,574c1.5-4,18.6-25.3,30.1-37.5
	c6.9-7.4,12.3-13.7,12-14c-0.3-0.3-5.6-0.9-11.6-1.3c-10.6-0.6-39.6-4.8-41.4-5.9c-0.5-0.3-3.6-1.6-7-2.8l-6.1-2.3l-4.9,6.7
	c-3.3,4.6-5.7,9.3-7.7,15.1l-2.8,8.4l1.6,7.2c1.5,6.4,2.2,7.8,7,13.2c4.9,5.4,6.4,6.5,15.6,10.5C61.4,575.9,64.4,576.5,65.4,574
	L65.4,574z M166.6,569.1c8.7-2.1,25.4-7,37.1-10.9c20.5-6.9,21.4-7.3,24-10.8c1.5-2,10.4-12.6,19.9-23.4
	c9.5-10.9,17.4-20.3,17.5-20.9c0.2-0.8-5.3,0.2-16.9,2.9c-9.4,2.2-22.7,5.1-29.6,6.3l-12.4,2.2l-8.2,7.3c-18.1,16.1-49,48-49,50.5
	C149.1,573.2,150.2,573,166.6,569.1z M408.7,563.2c3.2-8.3,7.1-12.9,10.8-12.8c1.6,0,3.6,0.4,4.6,0.7c1.5,0.6,10.2,12.4,11.2,15.3
	c0.8,2.2,1.7,0.3,2.8-5.9c1-5.6,4.3-12.6,6.7-14.2c0.6-0.4,2.6-0.7,4.4-0.7c3,0,4,0.7,9.3,6.8c3.2,3.7,6.3,6.9,6.7,7.1
	s0.8-2.6,0.8-6.2c0-6.4,2.2-15.1,4.1-16.4c0.6-0.4,2.5-0.7,4.3-0.7c3,0,7.7,2.6,17.4,9.8c2,1.4,2.1,0.4,1-6.1
	c-0.6-3.4-0.9-8.3-0.8-11.1c0.2-4.3,0.6-5.1,2.6-5.9c4.1-1.6,8.1-1,15.6,2.3c4,1.7,7.3,3,7.3,2.8s-1-2.9-2.3-6
	c-1.9-4.7-2.9-10.8-2.5-15.6c0-0.6,1.4-1.6,2.9-2.2c3.1-1.3,13.8-0.7,18.3,1c1.4,0.5,2.7,0.8,3,0.5s-1-3-2.8-6
	c-1.8-3.1-3.7-7.6-4.3-10c-0.9-4.3-0.8-4.6,1.8-7.3l2.8-2.8l9.3,0.5c5.1,0.3,9.3,0.2,9.3-0.1c0-0.4-1.9-2.5-4.3-4.8
	c-4.6-4.5-7.9-9.9-7.9-13.1c0-1.1,0.8-3.2,1.9-4.6c1.7-2.4,2.7-2.7,11.2-3.8c5.2-0.7,9.4-1.5,9.4-1.8s-2.5-2.4-5.5-4.5
	c-5.8-4.1-10.5-9.4-10.5-11.9c0-4.2,2.7-6.7,10.3-9.7c4.2-1.6,8.2-3,9-3c3,0,1-1.8-5.1-4.5c-3.5-1.6-7.9-4.3-9.8-6
	c-3.3-3.1-3.3-3.3-2.4-7c0.8-3.1,1.9-4.5,5.8-7.1c2.7-1.8,6.2-3.9,8-4.8c3.8-2,3.2-2.7-4.1-4.2c-5.5-1.2-12.6-4.2-13.6-5.7
	c-0.3-0.4-0.3-2.5-0.1-4.6c0.3-3.2,1.4-4.8,7.3-10.9c3.8-3.9,6.9-7.3,6.9-7.5s-4.1-0.4-9.1-0.5c-13-0.1-13.7-0.4-14.4-6
	c-0.5-4.2-0.2-5,3-9.9c2-2.9,4.2-5.9,5-6.5c2.9-2.4,1.7-3.6-2.7-2.7c-2.2,0.5-7.4,0.7-11.5,0.6l-7.4-0.3l-1.1-3.8
	c-1.2-4.1-0.1-8.1,4.8-17.6c1.3-2.4,2.1-4.5,1.8-4.5c-0.3,0-3.3,1.1-6.7,2.3c-4,1.5-8.2,2.3-11.6,2.3c-5.2,0-5.4-0.1-6.7-3
	c-1.4-3.4-1.4-4,1.1-14.2c1-4.1,1.7-7.5,1.5-7.7s-2.5,1.2-5.2,3c-9.8,6.6-16.4,7.6-19.8,3.1c-2-2.8-2.1-3.6-1.7-12.2
	c0.3-5.1,0.2-9.2-0.1-9.2s-2.5,1.9-4.8,4.3c-7.4,7.6-13.9,9.7-17.5,5.8c-2-2.2-5-12.7-5-17.5c0-1.6-0.4-2.9-0.9-2.9
	s-2.6,2.5-4.8,5.6c-6.6,9.5-12,12.3-16.4,8.7c-1.9-1.6-6.3-11.1-7.5-16.4c-0.3-1.4-0.9-2.6-1.3-2.6c-0.4,0-1.7,2.5-2.8,5.6
	c-1.1,3.1-3.4,7.3-5,9.5c-2.8,3.8-3,3.9-7.1,3.4c-4.7-0.5-6.4-2.2-11.6-11.2c-1.7-2.9-3.4-5.4-3.7-5.4c-0.4,0-1.1,2.4-1.7,5.4
	c-0.6,3-2.2,7.6-3.5,10.3l-2.5,4.9h-4.9h-4.9l-5.9-7c-3.3-3.9-6.2-7-6.6-7s-0.8,3.7-0.8,8.2s-0.6,9.7-1.3,11.5
	c-1.1,3.1-1.4,3.3-6,3.6c-4.9,0.3-6-0.3-17.6-8.7c-1.9-1.4-2.3-0.3-1.3,3.7c1.1,4.7,1.1,16.4,0.1,18.1c-0.4,0.7-2.7,1.5-5,1.8
	c-3.4,0.4-5.7-0.1-11.8-2.8c-4.2-1.8-7.6-3-7.6-2.6s1.1,3.3,2.3,6.4c1.5,3.7,2.3,7.6,2.3,10.8c0,4.8-0.2,5.1-2.9,6.2
	c-3.1,1.3-13.8,0.7-18.3-1c-1.4-0.5-2.7-0.8-3-0.5s1.1,3.1,2.9,6.4c4.2,7.5,5.3,14,2.9,16.6c-1.5,1.6-2.9,1.9-11.8,1.9
	c-5.6,0-10.2,0.3-10.2,0.7s1.7,2.4,3.8,4.5c3.9,3.8,8.4,11.3,8.4,14.1c0,0.8-0.8,2.7-1.8,4.1c-1.6,2.3-2.7,2.7-11.2,3.8
	c-5.2,0.7-9.4,1.5-9.4,1.9c0,0.4,2.5,2.4,5.5,4.5c5.8,4.1,10.5,9.4,10.5,11.9c0,4.2-2.7,6.7-10.3,9.7c-4.2,1.6-8.2,3-9,3
	c-2.9,0-1.1,1.7,4.5,4.2c7.7,3.4,12.9,7.6,12.9,10.4c0,3-1.7,7.1-3.6,8.5c-0.9,0.7-4.2,2.8-7.4,4.6c-3.2,1.9-5.7,3.8-5.4,4.1
	c0.2,0.4,3,1.2,6.2,1.8s7.6,2,9.9,3.1c3.9,1.9,4.1,2.2,4.1,5.9c0,3.4-0.7,4.8-4.8,9.7c-2.6,3.1-5.6,6.2-6.6,6.7
	c-3.3,1.8-1.8,2.8,4.4,2.8c6.7,0,14.6,1.6,15.6,3.2c0.4,0.6,0.7,2.9,0.7,5.3c0,3.6-0.7,5.2-4.2,10c-2.3,3.1-4.6,6-5.2,6.3
	c-2.1,1.3,0.1,2.1,3.5,1.4c1.9-0.4,7-0.8,11.2-0.8l7.6,0l1,3c1.7,4.7,1.2,7.1-2.7,15.4c-2,4.3-3.5,7.9-3.3,7.9s3.2-1.1,6.6-2.3
	c4-1.5,8.2-2.3,11.6-2.3c4.8,0,5.5,0.2,6.5,2.4c1.5,3.3,1.4,6-0.8,14.7c-1.1,4.1-1.8,7.7-1.6,7.9s2.5-1.2,5.3-3
	c5.5-3.7,11.3-6,15.1-6c4.5,0,5.6,3.1,5.6,15.2v10.6l5.4-5.3c8.3-8.1,14.1-10.2,17.5-6.5c1.7,1.9,5.2,13.9,5.2,18.1
	c0,1.4,0.4,2.6,0.9,2.6s2.8-2.7,5.2-6c6.5-9.1,11.5-11.8,15.8-8.6c1.8,1.4,5.6,9.5,7.2,15.4c0.6,2.1,1.3,3.9,1.7,3.9
	S407.4,566.4,408.7,563.2L408.7,563.2z M576.9,561.3c-2.6-4.5-23.3-34.4-28.1-40.6c-5.7-7.4-6-7.6-13.2-10
	c-13.6-4.6-19.1-4.3-19.1,1c0,2.6,5.9,18.3,7.6,20.5c0.5,0.6,11.1,6.9,23.6,14c12.5,7.1,23.9,13.6,25.5,14.5
	C576.7,562.7,577.8,562.9,576.9,561.3L576.9,561.3z M756.3,545.3c7.3-1.2,13.6-2.4,14-2.8c2.2-2.2-23.3-28.3-40.7-41.5l-10.6-8
	l-9.4,1c-5.2,0.6-22.7,1-38.9,1c-16.2,0-29.5,0.3-29.5,0.7s6.2,5.4,13.8,11.2c7.6,5.8,21.1,17.3,30,25.5l16.2,15l20.9,0
	C739.3,547.5,745.3,547.1,756.3,545.3L756.3,545.3z M244.3,543c3.6-1.5,15.4-6.8,26.3-11.8l19.9-9.2l3.7-6.2
	c8.8-14.7,9.3-19.8,1.8-19.8c-7.3,0-19.9,2.8-22.2,5c-2.8,2.6-37.6,43.4-37.6,44.1C236.2,546.1,237.8,545.7,244.3,543L244.3,543z
	 M691.9,545.3c0-1.2-29.3-26.8-40.3-35.3c-21.5-16.6-18.8-15.3-36.6-17.2c-8.5-0.9-22.2-2.6-30.5-3.8c-8.2-1.2-15.2-2-15.5-1.7
	s9.6,10.2,21.9,22.2l22.4,21.7l11.8,3c10.7,2.8,47.4,9.9,55.4,10.8C685.2,545.5,691.9,545.7,691.9,545.3L691.9,545.3z M798.4,529.9
	c7.3-5.7,7.8-6.4,10.2-13c2.5-6.8,2.5-7.2,1.4-14.7c-1-6.7-1.8-8.8-6.7-16.7c-6.4-10.4-8.6-12.9-10.5-11.3
	c-3.2,2.7-31.4,11.3-47.8,14.7c-9.7,2-17.6,3.9-17.6,4.2c0,0.3,3.5,3.2,7.7,6.4c9.5,7.1,30.7,27.7,36.6,35.6l4.3,5.8l7.3-2.4
	C789,536.6,792.6,534.5,798.4,529.9L798.4,529.9z M586.9,511.8c-9-8.8-19-18.3-22.2-21.1l-5.8-5.1l-10.9-1.1
	c-10.2-1-11-0.9-12.8,0.7c-1.4,1.3-1.8,2.4-1.4,4.1c0.6,2.5,7.8,15,10.5,18.5c1.2,1.4,8.9,4.5,27,10.4c26.1,8.7,28.1,9.3,30.5,9.4
	C602.6,527.7,595.9,520.5,586.9,511.8L586.9,511.8z M123.9,510.8c12.1-9.8,39.7-29.2,48.4-34.1c3.7-2.1,6.7-4,6.7-4.3
	c0-0.3-7.7-1.1-17.1-1.7c-15.5-1.1-54.5-5.8-59.4-7.2c-2.7-0.8-6.7,1.4-22.1,12c-12.1,8.3-37,29.5-35.9,30.5
	c0.3,0.3,3.5,1.7,7.3,3.2c10.2,4.1,35.7,7.9,59.6,9C114,518.4,116.1,517.2,123.9,510.8L123.9,510.8z M176.7,514.6
	c24.1-3.1,27.8-3.9,29.7-6.2c1.3-1.6,29.2-24.2,38.5-31.2c3-2.2,5.4-4.4,5.4-4.9c0-0.5-13.1-0.8-29.5-0.8h-29.5l-10.6,6.3
	c-22.3,13.1-57,37.5-57,40C123.8,519.4,154,517.6,176.7,514.6z M226.9,506.3c4.9-1,17-3.8,26.9-6.2l18-4.4l5-5.8
	c10.8-12.6,12.2-15.8,7.5-17.6c-4.2-1.6-10.1-2.1-17.6-1.4l-7.1,0.7l-13.4,10.5c-24.3,18.9-32.4,25.5-32.4,26.2
	c0,0.4,0.9,0.5,2.1,0.2C217,508.4,222,507.3,226.9,506.3L226.9,506.3z M78.2,471.4c7.5-5.2,13.7-9.7,13.7-10.1
	c0-0.4-3.9-1.7-8.7-2.9c-12.1-3-37.2-12.9-45.9-18.2l-7.3-4.4l-3.5,2.8c-6,4.8-9.2,8.8-13.7,17.1c-4,7.3-4.3,8.6-4.3,14.5
	c0,6.1,0.2,6.7,4.7,13.6c4,6.1,6,8,12.9,12.6c13.6,9.1,10.7,9.5,25.5-3.9C59.1,485.7,70.2,476.9,78.2,471.4L78.2,471.4z
	 M710.4,489.9c1.2-0.4,2.1-1,2.1-1.3c0-1.4-34.9-21.5-51.7-29.7l-18.4-9l-21.4,1.9c-11.8,1.1-25.8,2.2-31,2.6
	c-5.3,0.3-9.6,0.9-9.6,1.2c0,0.3,2.2,1.8,4.9,3.3c2.7,1.5,14.4,9.1,26,16.9c19.2,12.9,21.5,14.2,26.2,14.7
	C644.5,491.2,707.8,490.7,710.4,489.9L710.4,489.9z M621.5,488.7c0-0.9-33.9-23.2-43.6-28.7c-4.9-2.8-8.3-4.1-9.8-3.9
	c-1.3,0.2-6.5,0.9-11.5,1.5c-7.4,0.9-9.4,1.5-10.5,3c-1.9,2.7-0.3,5.2,8.6,13.9l7.3,7.1l21.6,3C621,489.7,621.6,489.8,621.5,488.7z
	 M742,485.1c13.1-2.6,20.3-4.6,32.1-9c8.4-3.1,15.2-6.1,15.2-6.5s-2.6-3-5.9-5.8c-7.7-6.8-27.8-19-42.8-26.1l-12-5.7l-12,3.3
	c-13.9,3.8-45.1,10.4-56,11.9c-7.1,0.9-8.8,1.4-8,2.3c0.2,0.2,7.7,4,16.5,8.4c14.8,7.4,46.7,26.1,49.9,29.2
	C721,489,723.2,488.8,742,485.1L742,485.1z M207.2,457.5c10.6-5.7,22.7-11.8,27-13.7c8-3.6,9.2-4.7,5.6-5.4
	c-1.2-0.2-14.6-2.8-29.8-5.7l-27.7-5.3l-12.2,4.6c-26.2,9.9-61.7,26-61.1,27.7c0.7,2,50.7,7.7,69.6,7.9l9.4,0.1L207.2,457.5
	L207.2,457.5z M263.4,463.2c6.1-4.5,14.1-13,14.1-15c0-1.7-5.7-4.1-15.2-6.3l-9.1-2.2l-13,6.1c-17.2,8.2-39.7,20.1-39.7,21.1
	c0,0.4,12.7,0.8,28.2,0.8h28.2L263.4,463.2L263.4,463.2z M801.3,462.9c5.1-3,8.2-5.8,12.8-11.4c5.7-7,6.1-7.8,7.1-14.5
	c1.1-7,1-7.3-1.8-14c-2.1-5.1-4.6-8.8-9.9-14.6c-8.4-9.2-11-10.9-13.4-8.8c-4.4,3.9-27.7,16.7-41.8,22.8c-8.7,3.8-16.2,6.9-16.6,6.9
	c-2.8,0,0.1,2.1,7.8,5.6c12.5,5.7,34.9,19.7,42,26.2c3.4,3.1,6.3,5.6,6.6,5.7C794.4,466.9,797.6,465.1,801.3,462.9L801.3,462.9z
	 M111.3,452.5c12.9-6.5,30.7-14.3,48.5-21.3c6.2-2.4,11.3-4.8,11.5-5.2s-7.2-2.9-16.4-5.4c-15.9-4.4-49.9-15.9-55.2-18.6
	c-3.3-1.7-5.9-0.9-24.9,7.4c-13.4,5.8-41.1,21.2-41.1,22.7c0,0.4,3.3,2.6,7.3,5c9.3,5.5,29,13.3,45.2,17.8c7,1.9,12.8,3.5,12.9,3.6
	C99.3,458.4,104.8,455.7,111.3,452.5L111.3,452.5z M594.4,450c23.9-1.7,37.5-3.1,37.5-3.8c0-0.7-21.8-9.5-42.2-17
	c-12.4-4.6-12.8-4.6-17.4-3.5c-7.2,1.8-19.4,6.7-19.9,8.1c-0.9,2.2,2.4,5.7,11.2,11.9c8.4,5.9,8.9,6.1,13.4,5.7
	C579.6,451.1,587.4,450.5,594.4,450z M656.8,443.5c21.3-3,62.6-12.4,63.4-14.4c0.9-2.4-65.2-23.3-73.8-23.4c-2.1,0-9.6,1.7-16.7,3.9
	s-19.7,5.7-27.8,7.9s-14.8,4.4-14.8,4.9s3.7,2.2,8.2,3.8c9,3.3,33.8,13.3,41.5,16.7c2.8,1.3,5.5,2.3,6,2.3S649.6,444.5,656.8,443.5z
	 M270.7,424l3.4-3.2l-3.1-2.5c-1.7-1.4-7.1-4.3-11.9-6.4l-8.8-3.9l-10.1,2.7c-40.3,10.8-47.1,12.8-47.1,13.7
	c0,0.8,41.7,9.1,51.6,10.3c6,0.7,6.2,0.7,14.4-3.4C263.6,429.1,268.9,425.8,270.7,424L270.7,424z M30.5,428.4
	c1.5-2.3,28.6-17.3,42.5-23.3c8.4-3.7,15.7-6.7,16.2-6.7c2.5,0,0-1.8-7.3-5.2c-12.6-5.8-35.6-20.3-42.9-27l-6.6-6l-6.9,4.4
	c-4.7,3-8.7,6.7-12.8,11.7c-5.5,6.7-6,7.7-7,14.3c-1.1,6.9-1.1,7.1,1.8,14.3c2.5,6.2,4.2,8.6,11.2,15.9
	C26.4,428.9,29.1,430.6,30.5,428.4z M733.3,426.2c9.4-2.8,33.8-14.3,46.5-21.8c7.3-4.3,13.4-8.2,13.4-8.6s-3.3-2.6-7.3-5
	c-9.3-5.5-31.5-14.1-46.8-18.2l-11.9-3.1l-11.8,5.9c-12.8,6.4-30.6,14.2-48.3,21.2c-6.2,2.4-11.3,4.8-11.5,5.2s7.2,2.9,16.4,5.4
	c19,5.2,57,18.7,57,20.2C728.9,427.5,730.9,426.9,733.3,426.2L733.3,426.2z M198.8,417.7c8-2.4,20.4-5.8,27.7-7.7
	c13.1-3.4,16-4.6,13.5-5.4c-6.6-2.2-24.1-9-38.6-15l-17.5-7.2l-11.1,1.5c-21.5,2.9-65.4,12.8-65.9,15c-0.4,2,45.3,17.1,70.7,23.4
	C180.5,422.9,183,422.4,198.8,417.7L198.8,417.7z M610.3,410.6c19.1-5.2,23.4-6.5,23.4-7.3c0-0.8-41.7-9.1-51.6-10.3
	c-6-0.7-6.2-0.7-14.2,3.3c-4.4,2.2-9.7,5.6-11.7,7.3l-3.6,3.3l3.1,2.6c1.7,1.4,7.1,4.3,12,6.4l8.8,3.9l10.1-2.7
	C592.2,415.5,602.8,412.7,610.3,410.6L610.3,410.6z M258.9,400.9c10.4-3.4,15.8-6,15.8-7.4c0-2.5-3.6-5.9-12.2-11.8
	c-7.1-4.8-9.1-5.7-11.5-5.3c-1.6,0.2-6.8,0.7-11.4,1c-18.2,1.1-44.5,3.7-44.5,4.3c0,1.1,52.3,21.4,55.4,21.5
	C251.3,403.1,255.1,402.1,258.9,400.9L258.9,400.9z M656.7,395.8c25.6-9.6,61.7-25.9,61.1-27.7c-0.5-1.4-26.7-4.8-54.2-7.1
	l-23.1-1.9l-19.3,10.3c-10.6,5.7-23.1,12.1-27.8,14.2c-4.7,2.1-8.5,4.2-8.5,4.6s0.9,0.9,2.1,1.1s13.9,2.7,28.4,5.5
	c14.4,2.8,26.9,5.2,27.7,5.3C643.9,400.3,650,398.3,656.7,395.8L656.7,395.8z M109.3,392.7c13.3-3.8,42.3-10,54.7-11.7
	c9.3-1.3,11.2-1.8,10.3-2.6c-0.2-0.2-7.7-4-16.6-8.5c-14.9-7.4-41.5-22.9-48.7-28.3c-1.6-1.2-4-2.2-5.2-2.2
	c-6.5,0-39.8,7.8-52.3,12.2c-7.5,2.6-13.9,5.1-14.4,5.6c-1.4,1.4,11,11.4,24.7,19.7c12.2,7.4,33.5,18.5,36.2,18.7
	C98.6,395.6,103.7,394.3,109.3,392.7L109.3,392.7z M803.2,386.7c4-3.6,7-7.5,10-13c4.1-7.6,4.3-8.1,4.3-15.9c0-8,0-8.1-4.3-14.5
	c-3.6-5.4-5.8-7.4-13.4-12.5c-10.4-6.9-13-8-13.8-6c-1.2,3.1-24.5,22.8-37.4,31.6c-7.5,5.1-13.6,9.7-13.6,10.1s3.9,1.7,8.7,2.9
	c12.1,3,37.4,13,45.8,18.1c3.8,2.3,7.2,4.3,7.5,4.3C797.2,391.9,800.1,389.5,803.2,386.7L803.2,386.7z M586.5,381.9
	c17.5-8.3,41.6-21.2,41.6-22.3c0-0.5-11.7-0.6-29.1-0.3l-29.1,0.6l-6.5,4.8c-6.3,4.7-14,12.8-14,14.9c0,1.7,5.6,4.1,14.5,6.3
	c4.6,1.1,8.7,2.1,9,2.2S579.3,385.3,586.5,381.9L586.5,381.9z M206.2,376c10.6-1,24-2.1,29.8-2.5c5.8-0.4,10.5-1,10.5-1.3
	c0-0.4-1.4-1.3-3.2-2.2c-1.8-0.8-13.6-8.5-26.3-17L194,337.6l-16.4-1c-21-1.3-38.5-1.2-51.7,0.3c-9.6,1.1-12.5,1.8-11.4,2.8
	c0.2,0.2,7.1,4.5,15.4,9.5c14.9,9.1,52.9,28.6,55.7,28.5C186.4,377.8,195.7,377,206.2,376L206.2,376z M269.8,370.2
	c5.5-0.7,10.1-1.7,10.7-2.4c1.9-2.3-0.2-6.3-7.6-13.9l-7.4-7.6l-18.1-2.6c-33.2-4.7-43.9-5.8-41.9-4.1c0.2,0.2,7.6,5.1,16.3,11
	c20.9,13.9,34.1,21.5,36.5,21.1C259.3,371.6,264.5,370.9,269.8,370.2L269.8,370.2z M730.1,362.9c8.4-4.4,30.3-20.4,41-30.1
	c6.4-5.8,11.5-10.8,11.2-11c-0.3-0.3-3.5-1.7-7.3-3.2c-8.5-3.4-30.1-7-48.9-8.2l-14-0.9l-10.9,8.7c-13.7,11-36.8,27.3-46.2,32.6
	c-4,2.3-7.3,4.3-7.3,4.6c0,0.3,7.7,1.1,17.1,1.7c16.5,1.2,57.7,6.2,58.7,7.1C724.5,365.1,726.7,364.7,730.1,362.9L730.1,362.9z
	 M578.1,347.7c6.1-4.7,16.4-12.8,22.8-18c6.4-5.2,11.9-9.5,12.1-9.7c2.4-1.9-11.9,0.8-39.7,7.6c-19.9,4.8-19.4,4.5-28.2,16.1
	c-5.5,7.2-6.3,10.3-3,11.6c1.2,0.5,7.2,0.9,13.5,0.9l11.4,0.1L578.1,347.7L578.1,347.7z M646.9,349.5c20-11.6,54.9-36.1,56.1-39.4
	c0.6-1.7-29.7,0.1-52.9,3.1c-24.1,3.1-27.8,3.9-29.7,6.2c-1.3,1.6-29.2,24.2-38.5,31.2c-3,2.2-5.4,4.3-5.4,4.6s13.6,0.5,30.2,0.3
	l30.2-0.3L646.9,349.5L646.9,349.5z M34.3,353.5c2.4-2.4,31.2-11.2,47.5-14.6c9.7-2,17.6-3.8,17.6-4.1c0-0.3-2.9-2.7-6.3-5.2
	c-10.1-7.5-29.8-26.4-36.4-34.8l-6-7.7l-7.3,2.4c-5.5,1.8-9.1,3.9-14.9,8.5c-7.3,5.8-7.8,6.4-10.2,13c-2.4,6.7-2.5,7.1-1.4,14.7
	c1,6.7,1.9,8.9,6.3,16.2c5,8.2,8.4,12.7,9.6,12.7C33.1,354.4,33.8,354,34.3,353.5z M292.4,341.9c1.5-1.8,0.1-5.8-4.5-13.4
	c-6.4-10.6-4.8-9.7-32.4-18.9c-24.9-8.3-31.4-10.2-31.4-9.2c0,1.3,43.5,41.8,45.3,42.1c1.1,0.2,6.6,0.5,12,0.5
	C288.6,343.1,291.6,342.8,292.4,341.9L292.4,341.9z M257.6,340.5c-0.2-0.4-10.2-10.5-22.3-22.4l-22-21.7l-13.6-3.3
	c-25.2-6.2-63.8-12.4-63.8-10.4c0,1.6,25.7,24.5,39.4,35c22,17,17.7,15.2,43.6,18.2c12.4,1.4,25.7,3.2,29.5,3.8
	C257.3,341.4,258,341.4,257.6,340.5z M122.9,333.2c10.7-1.2,18.6-1.4,38.1-1c13.5,0.3,24.6,0.3,24.6-0.1s-5.3-4.7-11.8-9.6
	c-12.7-9.6-23.1-18.4-39-33.1l-10.1-9.3l-16.6-0.5c-14.8-0.4-18.3-0.2-32.5,2.1c-18.1,2.9-19.2,3.1-19.2,4.4
	c0,2.1,10,13.4,20.6,23.3c11.5,10.7,29.7,25.4,31.6,25.4C109,334.7,115.5,334,122.9,333.2L122.9,333.2z M542.7,330.4
	c5.4-1,8.8-2.2,10.2-3.5c4.3-4,37.8-43.9,37.3-44.4c-0.8-0.8-11.9,3.9-34.7,14.5l-19.6,9.1l-4.3,7.6
	C521.3,331.6,522.9,334.1,542.7,330.4L542.7,330.4z M608.2,315.6l12.4-2.2l8.2-7.3c19.9-17.7,50.2-49.3,48.7-50.7
	c-1.1-1.1-31.6,6.9-52.9,13.9c-22.1,7.3-22.8,7.6-25.4,11.2c-1.5,2-10.5,12.6-19.9,23.5c-9.5,10.9-17.4,20.3-17.5,20.9
	c-0.2,0.8,5.3-0.2,16.9-2.9C588.1,319.7,601.4,316.8,608.2,315.6L608.2,315.6z M308.5,319.7c1-0.6,1.8-2,1.8-3.3
	c0-2.2-6.1-18.6-7.7-20.7c-1.3-1.7-52.3-30.7-52.9-30.1c-0.5,0.5,21.5,32.7,28.3,41.5c5.7,7.4,6.1,7.6,13.2,10
	C301.6,320.6,305.6,321.2,308.5,319.7z M790.4,311.1c3.4-4.6,5.8-9.3,7.7-15.2l2.8-8.4l-1.7-7.1c-1.5-6.3-2.3-7.8-7.1-13.2
	c-5-5.6-6.2-6.4-16-10.6c-5.9-2.5-11.4-4.5-12.2-4.5c-0.9,0-2.4,1.5-3.5,3.3c-4.5,7.7-17.2,23.4-29.1,35.9
	c-9.9,10.5-12.4,13.6-11.3,14.3c0.7,0.5,4.7,0.9,8.9,0.9c11.7,0,40.9,5,49.2,8.4c3.9,1.6,7.1,2.8,7.2,2.9
	C785.4,317.8,787.7,314.8,790.4,311.1L790.4,311.1z M274.7,310.9c0-0.2-5.2-7.5-11.5-16.2c-6.3-8.7-14-19.9-17.1-25l-5.6-9.2
	l-11.7-5.7c-15.3-7.4-44.6-19.6-53.2-22.2c-3.7-1.1-7.4-2.3-8.2-2.6c-0.8-0.3-1.4-0.1-1.4,0.5c0,3,40.7,53.5,48.9,60.6
	c1.2,1.1,6.4,3.1,11.6,4.5s17.8,5.5,28.1,8.9C274.4,311.4,274.7,311.5,274.7,310.9L274.7,310.9z M651.3,308.9
	c11-1.5,24.3-2.5,37.8-3l20.8-0.6l4.4-3.5c11.8-9.4,44.9-48.5,42.7-50.5c-1.9-1.6-14-2.9-27.7-2.9c-10.7,0-18,0.6-28.2,2.3
	c-7.6,1.2-14.2,2.5-14.8,2.8s-5.1,5.5-10.2,11.6s-17.1,18.6-26.7,28c-9.6,9.4-17.5,17.3-17.5,17.6
	C631.9,311.5,632.7,311.4,651.3,308.9z M522.5,306.5c5.4-2.1,10.4-4.5,11.2-5.4c3.9-4.4,28.2-48.3,27.7-50
	c-0.3-1-12.8,7.3-35.4,23.6c-15.1,10.9-14.7,10.2-18.4,26.4C505.1,311.7,507.2,312.4,522.5,306.5L522.5,306.5z M329.1,300.9
	c1.4-0.7,1.8-2,1.8-5.1c0-4.4-2.5-17.9-3.8-20.3c-1.8-3.5-43.5-39.1-44.5-38.1c-0.8,0.8,12.8,33.8,19.6,47.2c3,5.9,4,7,8.8,9.8
	c4.4,2.5,14.7,7.2,16,7.4C327.2,301.9,328.1,301.4,329.1,300.9L329.1,300.9z M560.6,289.6c7-3.2,18.1-8.1,24.8-10.8l12.2-4.9
	l6.9-8.8c12.5-16,37.7-55.4,37.7-58.9c0-2.3-65.5,32.9-70.5,37.9c-1.1,1.1-5.5,8.7-9.9,16.9c-4.4,8.2-10.7,19.6-14,25.2
	c-3.3,5.6-6,10.5-6,11C541.9,298.3,543.2,297.7,560.6,289.6L560.6,289.6z M501,286.4l8.1-5.4l9.3-28.2c5.1-15.5,9.1-28.4,8.8-28.7
	c-0.5-0.5-32.5,32.2-38.4,39.2c-2.9,3.4-3.6,5.2-4.6,11.7c-1.6,10.1-1.6,14.3,0.2,17.1c1.4,2.1,1.6,2.2,5,1
	C491.3,292.3,496.5,289.3,501,286.4L501,286.4z M206.2,289.8c0-0.4-4.7-6.2-10.5-12.9c-8.4-9.7-29.3-36.9-36.9-47.9
	c-1.7-2.5-3.5-3-26.1-7.8c-15.9-3.4-19-3.7-31.2-3.7c-11.5,0-13.5,0.2-13.5,1.4c0,5.9,19.4,34.4,33.1,48.6l9.5,9.9l10.8,1
	c15.3,1.5,56.3,9.1,64.5,12.1C206.1,290.6,206.2,290.3,206.2,289.8L206.2,289.8z M296.7,283.1c-2.4-4.6-13.2-30-17.5-41.2
	c-2.1-5.4-4.3-10.5-4.9-11.2c-2.9-3.6-21.1-17.3-35.1-26.2c-15.8-10.1-31-18.9-32.8-18.9c-2.7,0,26.6,57,35,68.1
	c1.4,1.9,7.4,5.7,16.6,10.7c7.9,4.3,20,11.1,27,15.1s12.8,7.1,13,6.9C298.1,286.3,297.6,284.7,296.7,283.1L296.7,283.1z M355,284.1
	c0.7-1.5,1.2-6.3,1.2-12.7l0-10.3l-18.4-23.9c-10.1-13.1-18.7-24-19.1-24.2c-0.8-0.3,4.7,28.2,9,46.9l2.5,11l5.6,4.9
	c8.1,7.1,13.9,11,16.1,10.8C353,286.5,354.4,285.4,355,284.1L355,284.1z M72.7,277.5c12.2-1.5,19.8-1.9,32.1-1.7
	c8.9,0.2,16.1,0,16.1-0.4c0-0.4-2.7-3.7-6.1-7.5c-8.3-9.3-23.8-31.6-28.5-40.8c-2.1-4.2-4.2-7.8-4.6-8.1s-3.9,0-7.8,0.7
	c-5.2,0.9-9,2.4-15.1,5.9c-7,4-8.9,5.6-12.9,11.2l-4.7,6.5v7.6c0,6.5,0.5,8.8,3.4,16c1.9,4.6,4.2,9.7,5.2,11.4
	c1.6,2.6,2.1,2.9,4.4,2.2C55.6,279.9,63.9,278.6,72.7,277.5z M464.8,279.9c1.4-0.7,5.8-4.6,9.7-8.7l7.2-7.3l2.4-16.9
	c3.8-26.5,5.1-44.1,3.1-41.6c-2.8,3.5-10.3,15.1-15.7,24.3c-3.8,6.4-8.9,14.8-11.4,18.6c-4.2,6.5-4.5,7.3-4.5,13
	c0,6.2,2.2,16.6,3.9,18.8C460.8,281.6,461.7,281.6,464.8,279.9z M381.9,274c1.4-2.2,2.8-6.8,3.8-12.4l1.6-8.9l-13.4-27
	c-7.4-14.8-13.7-27-14.1-27c-0.9,0-1,29.6-0.1,47.2l0.6,12.8l7.9,9.4c4.9,5.8,8.6,9.4,9.7,9.4C378.9,277.5,380.6,276,381.9,274
	L381.9,274z M531,265.4c7.8-5.6,19.1-13.4,25.1-17.3l11-7.1l5.2-10.3c8-15.9,24.9-59.5,24.9-64.2c0-1.4-2.3,0.1-15.2,9.5
	c-12.6,9.3-38.4,31.4-45.4,38.8c-2.3,2.5-3.9,6.3-7.7,18.6c-2.6,8.5-6.7,21.1-9,28.1c-4.4,13.1-4.7,14.1-3.6,14.1
	C516.6,275.6,523.2,271,531,265.4L531,265.4z M438.5,271.1c5.6-5.6,13.4-17.9,12.9-20.2c-0.2-1.1-0.6-6-0.9-10.9
	c-1-17.1-3.7-45-4.3-45c-0.9,0-5.5,11.1-14.5,34.6l-8,21l1.4,5.7c2.5,10,6.6,18.4,9,18.4C434.6,274.7,436.6,273.1,438.5,271.1
	L438.5,271.1z M415.9,258.8l3.5-8.9l-3.5-14.1c-4.4-17.6-12-42-13.3-42.4c-1.1-0.4-2.9,8.1-7.5,36.5l-3.5,21.3l1.8,4
	c2.7,6.1,10.6,17.4,12.4,17.8C408.3,273.7,412.1,268.4,415.9,258.8z M657.7,255.1c10.3-2.5,20.3-4.8,22.2-5.1
	c4.3-0.8,6.9-3.9,17.9-21.3c8.2-13,22.8-41,21.5-41.2c-8.3-1.2-39.7,5-58.4,11.6l-11.6,4.1l-6.7,12.1c-7,12.7-24.1,39.3-31,48.3
	c-2.2,2.9-3.8,5.5-3.6,5.8c0.3,0.3,7.3-1.8,15.7-4.6C632.1,261.9,647.3,257.6,657.7,255.1z M323.9,261.8c-0.4-1.4-3.1-14.7-6-29.5
	l-5.4-26.9l-9-10.2c-13.5-15.2-46.7-46.3-48.1-44.9c-1,1,8.1,35.9,13.7,52.4c8.5,25.4,6.6,22.4,24.3,36.7
	c8.6,6.9,18.8,15.3,22.6,18.7c3.9,3.4,7.4,6.2,7.8,6.2C324.2,264.4,324.3,263.2,323.9,261.8L323.9,261.8z M509.4,234.9l21.3-22
	l3.2-11.5c5.8-20.4,13.9-67.3,11.6-67.3c-1.1,0-25.4,27.7-36.5,41.7c-16.9,21.1-15.4,17.8-17.2,38.4c-1.5,16.5-3.7,35.5-4.8,40.5
	c-0.3,1.2-0.1,2.1,0.3,2.1S497.6,247,509.4,234.9z M234,250.8c-0.3-0.8-4.3-7.8-8.8-15.7c-7.5-13-24.6-48.6-24.6-51.2
	c0-4.2-31-17.3-53.4-22.6c-10.5-2.5-14.6-3.1-14.8-2.3c-1.2,4.9,12.7,39,22.2,54.3l6.4,10.3l12.6,3.9c13.4,4.1,40.7,15.1,52.4,21.1
	C233.8,252.5,234.8,252.8,234,250.8L234,250.8z M355.9,245.4c-0.3-3.7-0.6-17.6-0.6-30.9l0-24.1l-6.2-10.6
	c-7.3-12.4-24.3-37.3-33-48.4l-6.2-7.8l-0.3,15.8c-0.2,13.3,0.2,19.2,2.6,37.7c1.6,12,3.3,22.8,3.7,24c0.4,1.2,2.4,4,4.4,6.3
	c2,2.3,10.6,13.3,19.1,24.5s15.8,20.3,16.3,20.3C356.1,252.2,356.2,249.2,355.9,245.4L355.9,245.4z M731.7,245.1
	c11.3,0.2,22.4,0.7,24.5,1.1l3.8,0.6l3.3-7.8c2.6-6,3.5-9.7,4-16c0.6-7.5,0.4-8.8-1.9-15.1c-2.4-6.7-2.8-7.1-9.7-12
	c-6.3-4.5-8.3-5.3-16.6-7.1c-11.5-2.5-14.4-2.6-15.1-0.4c-1.7,5.7-14.8,30.3-23.2,43.6c-5.5,8.7-10,15.9-10,16s4.5-0.5,10.1-1.5
	C709.5,244.9,714.3,244.7,731.7,245.1L731.7,245.1z M466,229.9c5.3-8.6,12.8-20.3,16.7-26l7.1-10.3l0.3-32.3
	c0.3-32.4-0.3-45-2.3-45.7c-1.4-0.5-20.1,32.2-30,52.5l-8.1,16.7l1.9,21.8c1.1,12,2.2,25.7,2.6,30.4c0.3,4.8,1,8.7,1.3,8.7
	S460.7,238.6,466,229.9z M391.8,225.2c1.7-10.2,4.1-23.9,5.5-30.5l2.4-12l-3.1-9.5c-6-18.7-26.2-63.6-28.6-63.8
	c-1.8-0.1-6.1,31.5-7.5,55.3l-1.4,23.5l4,7c2.2,3.9,8.6,16.4,14.3,27.8c5.7,11.4,10.6,20.8,10.9,20.8S390.1,235.4,391.8,225.2z
	 M429.8,223c3.6-9.5,8.6-22,11.1-27.8l4.6-10.5l-1.6-12c-3-22.6-13.7-68.2-15.9-67.5c-0.5,0.2-2.7,5.8-5,12.4
	c-4.4,13.2-17.5,56.3-18.5,61c-0.5,2.2,1,8,5.9,23.4c3.6,11.3,7.5,24.6,8.7,29.7c1.2,5.1,2.6,9,3.2,8.8
	C422.8,240.5,426.2,232.5,429.8,223L429.8,223z M591.2,226.8c16.2-9.3,45.6-24.3,51.3-26.1c4.6-1.5,5.8-3.4,13.7-23.5
	c5.7-14.4,14.6-44.2,13.6-45.3c-0.2-0.2-3.9,0.5-8.1,1.7c-12.4,3.3-34.8,13.2-47.2,20.7l-11.3,6.9l-3.5,12
	c-3.8,12.9-16.4,45.1-21.7,55.6c-1.8,3.6-2.9,6.5-2.4,6.5S583.1,231.5,591.2,226.8L591.2,226.8z M153.1,219.1
	c-0.4-0.6-2.6-4.3-5-8.1c-5.8-9.4-15.9-33-18.8-44L127,158l-8.3-0.3c-6.8-0.2-9.8,0.2-16.4,2.2c-7.3,2.2-8.7,3-13.9,8.1
	c-5.3,5.3-5.9,6.2-7.8,13.4l-2.1,7.8l2,9.3c1.1,5.1,2.6,10.6,3.4,12.3l1.3,3l16.7,0c15.7,0,17.7,0.2,33.5,3.6
	c9.3,2,17.2,3.4,17.6,3.2S153.5,219.7,153.1,219.1L153.1,219.1z M264.9,203.7c-6.1-18.4-15.6-52.7-15.6-56.6c0-3.3-2.9-5.7-21-17.8
	c-12.1-8.1-39.4-21.9-41.1-20.9c-0.4,0.2-0.7,3.3-0.7,6.9c0,8,5.6,31.2,12,49.6l4.4,12.6l13.1,7.1c12.8,6.9,39.5,24.3,48.7,31.8
	c2.6,2.1,4.8,3.6,5,3.4S267.8,212.4,264.9,203.7L264.9,203.7z M553.1,193c11.3-9.7,30.3-24.2,42.4-32.5c5.2-3.6,5.6-4.6,10.6-29.1
	c2.8-14,3.3-18.2,3.3-29.2c0-7.2-0.4-13.2-0.9-13.5c-2.8-1.8-30.7,16.8-47.5,31.5l-10.4,9.2l-1.1,12c-1.3,13.1-7.3,46.5-10.3,57
	c-2.3,8-2.3,8.6-0.3,6.9C539.7,204.4,546.2,198.9,553.1,193L553.1,193z M684.4,187.9c8-1.8,19.2-3.7,24.8-4.2
	c5.6-0.5,10.6-1.3,11.1-1.7c2.1-2.1,3.6-13.8,3-23.1c-0.6-9-0.8-9.7-4.7-16c-4.1-6.5-4.3-6.7-13-10.7l-8.9-4l-9.9,0.4
	c-7.1,0.3-10.2,0.7-11.1,1.7c-0.7,0.8-3.1,8.3-5.2,16.9c-2.3,9-6.7,22.3-10.5,31.9c-3.6,9-6.5,16.7-6.5,17c0,0.3,3.7-0.6,8.2-2.2
	S676.4,189.7,684.4,187.9L684.4,187.9z M310.3,193.2c0-0.5-1-8.6-2.3-18c-1.9-13.6-2.3-21.3-2.4-37.7l-0.1-20.5l-14-14.3
	c-12.8-13.1-37.1-33.3-40-33.3c-1.8,0-2.3,4.7-2.8,24.4c-0.5,18.9,0.2,26.5,4,45.2c0.4,1.8,3.6,5,11.5,11.3
	c6,4.8,18.5,16.7,27.8,26.3c9.3,9.6,17.2,17.5,17.6,17.5C310,194,310.3,193.7,310.3,193.2L310.3,193.2z M505.8,172.5
	c11-13.8,17.4-21.2,32-37.2l9.6-10.5l0-17.2c0-11.6-0.6-22.1-1.9-32.2c-2.2-17.8-2.5-19.2-3.9-19.2c-4.7,0-29.7,24.8-42.4,42.2
	c-6.9,9.3-7.2,10-6.7,13.6c0.3,2.1,0.8,19.5,1.1,38.7c0.3,19.2,0.9,34.8,1.3,34.7C495.4,185.3,500.3,179.5,505.8,172.5L505.8,172.5z
	 M355.6,178.4c0.3-0.9,0.7-8.4,1-16.6c0.5-13.5,4.3-43.3,7.2-55.9c1.2-5.3,1.3-5-11.1-24.1c-10.9-16.7-29.8-38.5-31.7-36.5
	c-4.5,4.9-11.7,41.1-11.7,58.9v11.5l7.8,10c9.8,12.5,27.2,37.6,32.6,47.2c2.3,4,4.4,7.2,4.8,7.3C354.9,180,355.4,179.3,355.6,178.4
	L355.6,178.4z M455.7,162.9c6.2-12.7,28.1-51.6,30.5-54.3c2-2.2,1.7-5.1-2-23.8c-3-15.1-11.1-42.7-13.6-46.4
	c-2.5-3.6-21.5,23.3-33.7,47.7l-5.8,11.7l3.8,13.2c4.2,14.6,10.6,43.4,12.3,56.1c0.6,4.5,1.4,8.2,1.8,8.2S452.3,169.7,455.7,162.9
	L455.7,162.9z M193.9,165.2c-1.5-4.5-4.7-15.7-7-24.9c-3.3-13-4.2-18.4-4.2-24.5c0-5.2-0.4-8.1-1.2-8.7c-0.6-0.5-4.4-1.6-8.4-2.5
	c-5.6-1.3-9.1-1.5-15.7-1c-8.1,0.6-8.8,0.9-14.8,5c-5.6,3.8-6.8,5.3-10.3,11.8c-3.9,7.4-4,7.6-4,17.3c0,11.6,0.9,14.1,5.6,15.2
	c17.9,4.3,32,8.7,45,14c8.5,3.5,16,6.3,16.6,6.4C196.4,173.4,195.8,170.5,193.9,165.2L193.9,165.2z M406.3,157.3
	c6.3-21.3,16.4-52,18.5-56.3c2.1-4.2,2.4-3.1-5.9-24.1c-6.3-15.9-20.3-42-23-42.9c-3.4-1.1-18.4,33.7-23.7,54.8l-3,12.1l6.1,11.7
	c6.9,13.3,19.9,43.1,23.2,53.2c1.2,3.7,2.4,6.7,2.8,6.7S403.9,165.6,406.3,157.3L406.3,157.3z M636.5,138c8-3.4,18.8-7.2,24-8.6
	l9.4-2.5l0.3-8.4c0.3-7.1-0.1-9.7-2.3-16.6c-2.5-7.8-2.9-8.5-8.7-13.7c-5.8-5.1-6.6-5.5-14.1-7.1c-7.7-1.6-8.3-1.5-17.5,0.2
	c-5.3,1-10.6,2.5-12,3.4l-2.4,1.6l0,15.7c0,14.5-0.3,17-3.6,33c-2,9.5-3.4,17.7-3.2,18c0.2,0.4,3.8-1.5,8-4.1
	C618.5,146.3,628.5,141.4,636.5,138L636.5,138z M247.5,135c0-0.5-0.6-5.1-1.4-10.1c-1.7-11.3-2-41.6-0.6-50.2
	c0.6-3.5,0.9-6.7,0.6-7.2s-4-2.3-8.2-4c-5.8-2.4-9.8-3.4-15.8-3.9c-7.7-0.6-8.3-0.6-15.2,2.4c-6.9,3-7.4,3.4-11.8,10.2
	c-3.7,5.6-5,8.8-6.5,15.8c-2.5,10.9-2.5,15-0.3,15.7c0.9,0.3,7.9,3.3,15.6,6.8c10,4.5,17.9,8.9,28.1,15.8c7.8,5.3,14.5,9.6,14.9,9.6
	C247.2,135.9,247.5,135.5,247.5,135L247.5,135z M560,114.1c8.9-8.1,30.8-22.9,40.6-27.6c3.8-1.8,7.1-3.6,7.3-4s0-3.9-0.6-7.8
	c-0.8-5.1-2.3-9.3-5.4-15.3c-4-7.6-4.8-8.7-11.3-13.2c-6.7-4.7-7.3-4.9-13.3-4.9c-5.2,0-8.1,0.7-16.4,3.8
	c-5.6,2.1-11.3,4.7-12.6,5.6c-2.2,1.5-2.4,2.1-1.7,4.3c2,6.3,4.7,34.3,4.7,49.7c0,8.9,0.3,16.1,0.6,16.1
	C552.2,120.9,555.9,117.8,560,114.1L560,114.1z M305.6,99.7c0-11.1,4.6-37.7,8.5-49c1.5-4.3,2.7-8.3,2.7-9
	c0-2.5-13.4-10.6-21.8-13.1c-8.1-2.5-8.2-2.5-15-0.9c-6.2,1.4-7.5,2.1-13.5,7.5c-6.2,5.5-7,6.7-11,16c-2.4,5.5-4.3,10.6-4.3,11.1
	c0,0.6,1.5,2,3.4,3.1c8,4.7,27.1,20.5,37.9,31.4c6.4,6.5,12,11.8,12.4,11.8C305.3,108.8,305.6,104.7,305.6,99.7z M497.3,93.5
	c7.2-10.3,27.3-31.4,35.5-37.2c3.9-2.8,7.2-5.6,7.2-6.1c0-0.5-1.1-4-2.4-7.6c-1.8-4.9-4-8.5-8.4-13.6c-5.2-6-7-7.4-13.1-10.1
	c-7.1-3.1-7.1-3.1-14.3-2c-6.1,0.9-8.5,1.9-15.5,6.3c-4.6,2.9-9.5,6.2-11,7.4c-2.6,2.2-2.7,2.3-1.2,5.2c3.7,7.1,10.1,28.7,13.5,45.6
	c2,10,3.7,18.4,3.7,18.5C491.2,101.5,493.4,99.2,497.3,93.5z M369.3,83.9c2.9-11.9,12.8-37,18.2-46.3l4.6-7.8l-5.5-5.6
	c-3.5-3.5-8.8-7.5-14.5-10.7c-8.3-4.7-9.5-5.1-15-5.1c-5.6,0-6.5,0.3-13.7,4.9c-6.4,4.1-8.6,6.2-13,12.4c-9,12.8-8.8,11.5-1.9,18.7
	C341.3,57.6,347,64.7,356.3,79c5.3,8.2,9.9,14.5,10.3,14.1S368.2,88.5,369.3,83.9L369.3,83.9z M434,81.8c5.6-12,19.4-33.7,26.9-42.1
	l6-6.8l-4.3-6.9c-3-4.8-6.5-8.8-11.6-13c-6.7-5.6-7.8-6.2-13.9-7.2c-6.5-1.1-6.8-1.1-14.1,1.8c-6.6,2.6-8.7,4.1-16.8,11.7l-9.3,8.8
	l2,2.2c5,5.5,17.5,29.1,23.5,44.6c3.5,8.9,6.5,16.1,6.8,16.1S431.7,86.8,434,81.8z"/>
</svg>
